<svg width="48" height="48" viewBox="0 0 48 48" fill="none" xmlns="http://www.w3.org/2000/svg">
<path d="M24 0C19.2533 0 14.6131 1.40758 10.6663 4.04473C6.71954 6.68188 3.6434 10.4302 1.8269 14.8156C0.0103987 19.201 -0.464881 24.0266 0.461164 28.6822C1.38721 33.3377 3.67299 37.6141 7.02945 40.9706C10.3859 44.327 14.6623 46.6128 19.3178 47.5388C23.9734 48.4649 28.799 47.9896 33.1844 46.1731C37.5698 44.3566 41.3181 41.2805 43.9553 37.3337C46.5924 33.3869 48 28.7467 48 24C47.9946 17.6364 45.4644 11.5351 40.9647 7.03535C36.4649 2.53563 30.3636 0.00535202 24 0ZM39.5116 24C39.5126 26.6531 38.8342 29.2623 37.5411 31.5789L16.4211 10.4589C18.7329 9.15378 21.3453 8.47455 24 8.48842C28.1111 8.49776 32.0511 10.135 34.958 13.042C37.865 15.9489 39.5022 19.8889 39.5116 24ZM8.48843 24C8.48739 21.3469 9.16578 18.7377 10.459 16.421L31.579 37.541C29.2672 38.8462 26.6548 39.5254 24 39.5116C19.889 39.5022 15.9489 37.865 13.042 34.958C10.135 32.051 8.49777 28.111 8.48843 24Z" fill="#D4D8DD"/>
</svg>
