<svg width="162" height="45" viewBox="0 0 162 45" fill="none" xmlns="http://www.w3.org/2000/svg">
<path fill-rule="evenodd" clip-rule="evenodd" d="M86.1488 39L82.1539 44.0174C81.7535 44.5202 80.9896 44.5202 80.5892 44.0174L76.5944 39L12 39C5.37259 39 0 33.6274 0 27V12C0 5.37256 5.37259 -2.28882e-05 12 -2.28882e-05L150 -2.28882e-05C156.627 -2.28882e-05 162 5.37256 162 12V27C162 33.6274 156.627 39 150 39L86.1488 39Z" fill="#3F434A"/>
<mask id="path-2-inside-1_788_27625" fill="white">
<path fill-rule="evenodd" clip-rule="evenodd" d="M87.9283 39L82.1823 44.3629C81.7981 44.7215 81.2019 44.7215 80.8177 44.3629L75.0717 39L12 39C5.37259 39 0 33.6274 0 27V12C0 5.37258 5.37259 0 12 0L150 0C156.627 0 162 5.37259 162 12V27C162 33.6274 156.627 39 150 39L87.9283 39Z"/>
</mask>
<path d="M82.1823 44.3629L82.8646 45.0939V45.0939L82.1823 44.3629ZM87.9283 39V38H87.5341L87.246 38.2689L87.9283 39ZM80.8177 44.3629L80.1354 45.0939V45.0939L80.8177 44.3629ZM75.0717 39L75.754 38.2689L75.4659 38H75.0717V39ZM82.8646 45.0939L88.6106 39.7311L87.246 38.2689L81.5 43.6318L82.8646 45.0939ZM80.1354 45.0939C80.9038 45.8111 82.0962 45.8111 82.8646 45.0939L81.5 43.6318V43.6318L80.1354 45.0939ZM74.3894 39.7311L80.1354 45.0939L81.5 43.6318L75.754 38.2689L74.3894 39.7311ZM75.0717 38L12 38V40L75.0717 40V38ZM12 38C5.92488 38 1 33.0751 1 27H-1C-1 34.1797 4.8203 40 12 40V38ZM1 27V12H-1V27H1ZM1 12C1 5.92487 5.92488 1 12 1V-1C4.8203 -1 -1 4.8203 -1 12H1ZM12 1L150 1V-1L12 -1V1ZM150 1C156.075 1 161 5.92487 161 12H163C163 4.8203 157.18 -1 150 -1V1ZM161 12V27H163V12H161ZM161 27C161 33.0751 156.075 38 150 38V40C157.18 40 163 34.1797 163 27H161ZM150 38L87.9283 38V40L150 40V38Z" fill="#3F434A" mask="url(#path-2-inside-1_788_27625)"/>
</svg>
