<svg width="14" height="14" viewBox="0 0 14 14" fill="none" xmlns="http://www.w3.org/2000/svg">
<path d="M7 14C10.866 14 14 10.866 14 6.99999C14 3.134 10.866 0 7 0C3.13401 0 0 3.134 0 6.99999C0 10.866 3.13401 14 7 14Z" fill="#C013EB"/>
<path d="M6.56223 5.95786C6.73291 5.78455 7.25548 5.26198 7.61261 5.61648C7.68669 5.69985 7.7289 5.80673 7.73178 5.91822C7.73467 6.0297 7.69804 6.13862 7.62837 6.2257C7.75641 6.09935 7.9035 5.99391 8.06428 5.91321C8.14127 5.86715 8.23041 5.84551 8.31995 5.85114C8.40949 5.85676 8.49522 5.88939 8.56584 5.94473H9.95497C10.4198 5.94473 10.7979 5.86332 10.7979 5.56921C10.7979 5.27511 10.4198 5.1937 9.95497 5.1937H7.38678C7.05591 5.1937 7.01389 4.93111 7.25285 4.74204C7.30275 4.7079 7.43405 4.60286 7.44718 4.59236C7.5099 4.53046 7.56866 4.46468 7.62312 4.39541C7.73455 4.27054 7.8161 4.12195 7.8616 3.96089C7.9071 3.79984 7.91534 3.63054 7.88571 3.46582C7.88571 3.46582 7.86471 3.4133 7.8542 3.39492L7.83582 3.36866C7.8122 3.34068 7.78581 3.31516 7.75704 3.29251C7.55221 3.18222 7.21084 3.33452 6.96925 3.65489C6.95349 3.65489 6.19722 4.53984 5.55911 5.18057C5.31755 5.41886 5.13013 5.70638 5.0096 6.02356C4.88907 6.34075 4.83825 6.68017 4.8606 7.01875C4.87441 7.19913 4.91605 7.37629 4.98402 7.54394L5.82696 6.69838L6.56223 5.95786Z" fill="white"/>
<path d="M8.98187 8.2665C8.83745 8.12207 8.54071 8.36366 8.31751 8.58425L8.21247 8.67878C7.97088 8.89411 7.39843 9.39042 7.31965 9.46657C7.29869 9.48633 7.27098 9.49733 7.24218 9.49733C7.21338 9.49733 7.18567 9.48633 7.16471 9.46657C7.14552 9.44533 7.1349 9.41772 7.1349 9.3891C7.1349 9.36048 7.14552 9.33287 7.16471 9.31163L7.72667 8.69454C7.96038 8.43194 8.20722 8.16934 8.36215 8.00128C8.43305 7.9225 8.48294 7.86735 8.4987 7.85422L8.52233 7.82797C8.85846 7.48659 8.96612 7.25025 8.84008 7.12421C8.81436 7.09885 8.78126 7.0823 8.74554 7.07694H8.67989C8.45686 7.14831 8.25906 7.28231 8.11006 7.46296C8.03128 7.53911 6.9914 8.4582 6.87061 8.56324C6.86061 8.57324 6.84874 8.58117 6.83567 8.58659C6.8226 8.592 6.8086 8.59479 6.79445 8.59479C6.78031 8.59479 6.7663 8.592 6.75324 8.58659C6.74017 8.58117 6.7283 8.57324 6.7183 8.56324C6.69793 8.5426 6.68651 8.51477 6.68651 8.48577C6.68651 8.45678 6.69793 8.42894 6.7183 8.4083C6.77082 8.35053 7.99452 6.99554 8.08643 6.90363C8.45406 6.53599 8.5696 6.28128 8.4383 6.14998L8.40679 6.12109C8.37655 6.10626 8.34331 6.09854 8.30963 6.09854C8.27595 6.09854 8.24271 6.10626 8.21247 6.12109L8.15995 6.1421C7.98274 6.23704 7.82292 6.36134 7.68728 6.50973C7.59274 6.60427 6.09332 7.99078 6.02767 8.04855C6.00703 8.06891 5.9792 8.08033 5.95021 8.08033C5.92121 8.08033 5.89338 8.06891 5.87274 8.04855C5.84997 8.0296 5.83557 8.00247 5.83262 7.97299C5.82967 7.94352 5.83842 7.91407 5.85699 7.89099C5.90425 7.83847 7.01766 6.61215 7.10957 6.52812C7.46407 6.17099 7.57962 5.92677 7.45094 5.7981C7.32227 5.66943 6.96776 5.89263 6.72092 6.13947L5.96202 6.89838L5.06132 7.79646L4.84599 8.00916C4.83845 8.01756 4.82958 8.02466 4.81973 8.03017C4.67531 8.16934 4.49674 8.31114 4.34706 8.23762C4.19738 8.16409 4.19738 7.92775 4.22626 7.68354C4.22626 7.63365 4.2499 7.51285 4.25515 7.46296V7.44458C4.26203 7.35718 4.26203 7.26938 4.25515 7.18198C4.24604 7.027 4.2027 6.87597 4.12823 6.73975C4.05377 6.60354 3.95003 6.48552 3.82449 6.39419L3.77197 6.37318H3.75359H3.68269C3.53039 6.41782 3.39909 6.70405 3.45424 7.08744C3.45686 7.10485 3.45686 7.12256 3.45424 7.13997V7.11633C3.45424 7.13209 3.45424 7.19774 3.45424 7.29752C3.47787 7.66778 3.53039 8.53698 3.53039 9.25124C3.52634 9.58522 3.59466 9.91612 3.73065 10.2212C3.86664 10.5263 4.06707 10.7983 4.31817 11.0185C4.64068 11.2985 5.0557 11.4487 5.4827 11.44C5.9097 11.4312 6.31823 11.2642 6.62902 10.9712C6.63723 10.9613 6.64819 10.954 6.66053 10.9502L8.66151 8.93875C8.74251 8.85704 8.81713 8.76925 8.88472 8.67615C9.00814 8.5291 9.07378 8.36366 8.98187 8.2665Z" fill="white"/>
<path d="M8.70536 2.76953L8.50012 3.53283L8.71821 3.59147L8.92344 2.82817L8.70536 2.76953Z" fill="white"/>
<path d="M9.63704 3.23992L9.07812 3.79883L9.23782 3.95852L9.79673 3.39961L9.63704 3.23992Z" fill="white"/>
<path d="M10.2124 4.11542L9.44626 4.32041L9.50463 4.53857L10.2707 4.33358L10.2124 4.11542Z" fill="white"/>
<path d="M8.82812 7.8145H9.98355C10.4483 7.8145 10.8265 7.73047 10.8265 7.43899C10.8265 7.14751 10.4483 7.06348 9.98355 7.06348H9.07496C9.20363 7.31294 9.00406 7.60968 8.82812 7.8145Z" fill="white"/>
<path d="M10.3561 6.10547H8.67813C8.78842 6.36807 8.58097 6.67267 8.39453 6.87487H10.3509C10.8314 6.87487 11.2174 6.79085 11.2174 6.49149C11.2174 6.19213 10.834 6.10547 10.3561 6.10547Z" fill="white"/>
<path d="M9.35106 7.98535H8.94141V8.00374C9.01414 8.0194 9.08075 8.0559 9.1331 8.10877C9.20378 8.1864 9.24445 8.28669 9.24782 8.39162C9.25119 8.49654 9.21703 8.59923 9.15148 8.68123H9.3458C9.77646 8.68123 10.1336 8.60508 10.1336 8.3346C10.1336 8.06413 9.78171 7.98535 9.35106 7.98535Z" fill="white"/>
</svg>
