<svg width="24" height="24" viewBox="0 0 24 24" fill="none" xmlns="http://www.w3.org/2000/svg">
<path fill-rule="evenodd" clip-rule="evenodd" d="M19.3749 21.2182C19.884 21.7273 20.7094 21.7273 21.2184 21.2182C21.7277 20.7091 21.7277 19.8836 21.2184 19.3745L13.844 12L21.2186 4.62548C21.7277 4.11638 21.7277 3.29096 21.2186 2.78185C20.7094 2.27275 19.884 2.27275 19.3749 2.78185L12.0004 10.1563L4.62585 2.78187C4.11674 2.27276 3.29132 2.27276 2.78222 2.78187C2.27311 3.29097 2.27311 4.11641 2.78222 4.62551L10.1567 12L2.78224 19.3745C2.27313 19.8836 2.27313 20.709 2.78224 21.2182C3.29134 21.7273 4.11676 21.7273 4.62586 21.2182L12.0004 13.8437L19.3749 21.2182Z" fill="#8A9099"/>
</svg>
