<svg width="10" height="14" viewBox="0 0 10 14" fill="none" xmlns="http://www.w3.org/2000/svg">
<g clip-path="url(#clip0_935_2518)">
<path d="M8.45369 2.70007H7.67558C7.67558 1.98397 7.3911 1.29719 6.88474 0.790832C6.37838 0.284471 5.69161 0 4.97551 0C4.2594 0 3.57263 0.284471 3.06627 0.790832C2.55991 1.29719 2.27544 1.98397 2.27544 2.70007H1.49732C1.09942 2.70358 0.718969 2.86395 0.438615 3.14633C0.15826 3.42871 0.000643297 3.81031 0 4.20823V11.1557C0.00131915 11.5547 0.160441 11.9371 0.442634 12.2192C0.724826 12.5013 1.10717 12.6604 1.50621 12.6616H3.89059L4.20184 13.1285L4.69344 13.8599C4.727 13.9036 4.77014 13.9389 4.81953 13.9633C4.86891 13.9876 4.92323 14.0002 4.97829 14.0002C5.03334 14.0002 5.08766 13.9876 5.13705 13.9633C5.18643 13.9389 5.22957 13.9036 5.26313 13.8599L5.75807 13.1299L6.06932 12.663H8.45369C8.85312 12.6619 9.23583 12.5026 9.51814 12.22C9.80044 11.9374 9.95938 11.5546 9.96019 11.1551V4.20767C9.95916 3.80834 9.80015 3.42564 9.51788 3.14316C9.23561 2.86068 8.85303 2.70139 8.45369 2.70007ZM4.97995 0.929017C5.38887 0.928772 5.78522 1.0703 6.1015 1.3295C6.41777 1.58869 6.63441 1.94952 6.71449 2.35052C6.79458 2.75152 6.73317 3.16788 6.54072 3.52868C6.34827 3.88948 6.03669 4.1724 5.65905 4.32924C5.28141 4.48609 4.86107 4.50716 4.46964 4.38887C4.07821 4.27057 3.73989 4.02023 3.51232 3.68049C3.28476 3.34075 3.18201 2.93261 3.2216 2.52562C3.26118 2.11862 3.44064 1.73794 3.72941 1.44841C3.89349 1.2839 4.08839 1.15335 4.30297 1.06422C4.51756 0.9751 4.7476 0.929156 4.97995 0.929017Z" fill="white"/>
</g>
<defs>
<clipPath id="clip0_935_2518">
<rect width="9.9599" height="14" fill="white"/>
</clipPath>
</defs>
</svg>
