<svg width="21" height="20" viewBox="0 0 21 20" fill="none" xmlns="http://www.w3.org/2000/svg">
<path d="M10.002 0C4.48795 0 0.00195312 4.487 0.00195312 10C0.00195312 15.515 4.48795 20 10.002 20C15.516 20 20.002 15.515 20.002 10C20.002 4.487 15.516 0 10.002 0ZM10.002 16.25C9.31195 16.25 8.75195 15.691 8.75195 15C8.75195 14.31 9.31195 13.75 10.002 13.75C10.692 13.75 11.252 14.31 11.252 15C11.252 15.691 10.692 16.25 10.002 16.25ZM11.002 11.875V13H9.00195V10H10.002C11.106 10 12.002 9.103 12.002 8C12.002 6.896 11.106 6 10.002 6C8.89795 6 8.00195 6.896 8.00195 8H6.00195C6.00195 5.795 7.79695 4 10.002 4C12.207 4 14.002 5.795 14.002 8C14.002 9.861 12.725 11.429 11.002 11.875Z" fill="#4F5660"/>
</svg>
