<svg width="14" height="14" viewBox="0 0 14 14" fill="none" xmlns="http://www.w3.org/2000/svg">
<path d="M14 12.9961L10.1688 9.16472C10.9424 8.17294 11.3665 6.96164 11.3665 5.68355C11.3665 4.16533 10.7747 2.73805 9.70132 1.66528C8.62861 0.591089 7.2014 0 5.68326 0C4.16512 0 2.73791 0.591089 1.66519 1.66528C0.591769 2.73805 0 4.16533 0 5.68355C0 7.20177 0.591769 8.62905 1.66519 9.70182C2.73791 10.776 4.16512 11.3671 5.68326 11.3671C6.96128 11.3671 8.17253 10.9437 9.16426 10.1693L12.9955 14L14 12.9961ZM5.68326 9.94621C4.54448 9.94621 3.4746 9.50289 2.66971 8.69796C1.86411 7.89303 1.42081 6.82239 1.42081 5.68355C1.42081 4.54542 1.86411 3.47478 2.66971 2.66985C3.4746 1.8642 4.54448 1.42089 5.68326 1.42089C6.82204 1.42089 7.89192 1.8642 8.69681 2.66985C9.50241 3.47478 9.9457 4.54542 9.9457 5.68355C9.9457 6.82239 9.50241 7.89303 8.69681 8.69796C7.89192 9.50289 6.82204 9.94621 5.68326 9.94621Z" fill="#95989D"/>
</svg>
