<svg width="32" height="32" viewBox="0 0 32 32" fill="none" xmlns="http://www.w3.org/2000/svg">
<path fill-rule="evenodd" clip-rule="evenodd" d="M3.69474 10.8346C2.5157 12.7731 3.64212 14.7756 5.00035 15.5194L5.27911 15.6716C5.27485 15.7826 5.272 15.8935 5.27058 16.0002C5.272 16.1068 5.27485 16.2178 5.27911 16.3287L5.00035 16.4809C3.64212 17.2247 2.5157 19.2272 3.69474 21.1657L5.26916 23.7514C6.36997 25.559 8.51471 25.6401 9.82601 24.9219L10.0792 24.7825C10.3949 24.9873 10.7234 25.1779 11.0591 25.3542V25.4026C11.0591 27.1406 12.4316 28.8003 14.4255 28.8003H17.5744C19.5683 28.8003 20.9408 27.1406 20.9408 25.4026V25.3542C21.2765 25.1779 21.605 24.9873 21.9207 24.7825L22.1739 24.9219C23.4852 25.6401 25.6299 25.559 26.7307 23.7514L28.3052 21.1657C29.4842 19.2272 28.3578 17.2247 26.9995 16.4809L26.7208 16.3287C26.7251 16.2178 26.7279 16.1068 26.7293 16.0002C26.7279 15.8935 26.7251 15.7826 26.7208 15.6716L26.9995 15.5194C28.3578 14.7756 29.4842 12.7731 28.3052 10.8346L26.7307 8.24896C25.6299 6.4413 23.4852 6.36165 22.1739 7.07846L21.9207 7.21784C21.605 7.01304 21.2765 6.82246 20.9408 6.6461V6.59774C20.9408 4.85977 19.5683 3.20001 17.5744 3.20001H14.4255C12.4316 3.20001 11.0591 4.85977 11.0591 6.59774V6.6461C10.7234 6.82246 10.3949 7.01304 10.0792 7.21784L9.82601 7.07846C8.51471 6.36165 6.36997 6.4413 5.26916 8.24896L3.69474 10.8346ZM10.3423 10.6042L8.46351 9.57449C8.18475 9.42231 7.84057 9.49058 7.6955 9.72951L6.12108 12.3151C5.97601 12.5541 6.0841 12.8698 6.36286 13.0234L8.34831 14.11C8.1947 14.7145 8.11221 15.3488 8.11221 16.0002C8.11221 16.6515 8.1947 17.2859 8.34831 17.8903L6.36286 18.9769C6.0841 19.1305 5.97601 19.4462 6.12108 19.6852L7.6955 22.2708C7.84057 22.5098 8.18475 22.578 8.46351 22.4258L10.3423 21.3961C11.3066 22.3704 12.5283 23.0957 13.9007 23.4669V25.4026C13.9007 25.7084 14.1354 25.9558 14.4255 25.9558H17.5744C17.8645 25.9558 18.0992 25.7084 18.0992 25.4026V23.4669C19.4716 23.0957 20.6933 22.3704 21.6576 21.3961L23.5364 22.4258C23.8152 22.578 24.1593 22.5098 24.3044 22.2708L25.8788 19.6852C26.0239 19.4462 25.9158 19.1305 25.637 18.9769L23.6516 17.8903C23.8052 17.2859 23.8877 16.6515 23.8877 16.0002C23.8877 15.3488 23.8052 14.7145 23.6516 14.11L25.637 13.0234C25.9158 12.8698 26.0239 12.5541 25.8788 12.3151L24.3044 9.72951C24.1593 9.49058 23.8152 9.42231 23.5364 9.57449L21.6576 10.6042C20.6933 9.62995 19.4716 8.90461 18.0992 8.53483V6.59774C18.0992 6.29196 17.8645 6.04449 17.5744 6.04449H14.4255C14.1354 6.04449 13.9007 6.29196 13.9007 6.59774V8.53483C12.5283 8.90461 11.3066 9.62995 10.3423 10.6042ZM15.9944 20.2669C18.3482 20.2669 20.2554 18.3568 20.2554 16.0002C20.2554 13.6435 18.3482 11.7334 15.9944 11.7334C13.6406 11.7334 11.7334 13.6435 11.7334 16.0002C11.7334 18.3568 13.6406 20.2669 15.9944 20.2669ZM17.6 16C17.6 16.8832 16.884 17.6 16 17.6C15.1159 17.6 14.4 16.8832 14.4 16C14.4 15.1168 15.1159 14.4 16 14.4C16.884 14.4 17.6 15.1168 17.6 16Z" fill="#8A9099"/>
</svg>
