<svg width="24" height="24" viewBox="0 0 24 24" fill="none" xmlns="http://www.w3.org/2000/svg">
<path d="M12 22.6667C9.89033 22.6667 7.82804 22.0411 6.07392 20.869C4.31979 19.6969 2.95262 18.031 2.14528 16.082C1.33795 14.1329 1.12671 11.9882 1.53829 9.91904C1.94987 7.84991 2.96577 5.94929 4.45753 4.45753C5.94929 2.96577 7.84991 1.94987 9.91904 1.53829C11.9882 1.12671 14.1329 1.33795 16.082 2.14528C18.031 2.95262 19.6969 4.31979 20.869 6.07392C22.0411 7.82804 22.6667 9.89033 22.6667 12C22.6667 14.829 21.5429 17.5421 19.5425 19.5425C17.5421 21.5429 14.829 22.6667 12 22.6667V22.6667ZM12 2.66667C10.154 2.66667 8.34954 3.21406 6.81468 4.23962C5.27982 5.26518 4.08354 6.72284 3.37712 8.42829C2.67071 10.1337 2.48588 12.0104 2.846 13.8208C3.20613 15.6313 4.09505 17.2944 5.40034 18.5997C6.70563 19.905 8.36867 20.7939 10.1792 21.154C11.9896 21.5141 13.8663 21.3293 15.5717 20.6229C17.2772 19.9165 18.7348 18.7202 19.7604 17.1853C20.7859 15.6505 21.3333 13.846 21.3333 12C21.3333 9.52464 20.35 7.15067 18.5997 5.40034C16.8493 3.65 14.4754 2.66667 12 2.66667V2.66667Z" fill="#22CCE2" stroke="#22CCE2" stroke-width="0.5"/>
<path d="M15.66 14.0867C15.5061 14.0003 15.3243 13.9785 15.1543 14.026C14.9844 14.0734 14.8402 14.1864 14.7533 14.34C14.4812 14.8318 14.0823 15.2418 13.5981 15.5273C13.1139 15.8127 12.5621 15.9633 12 15.9633C11.4379 15.9633 10.8861 15.8127 10.4019 15.5273C9.91769 15.2418 9.51879 14.8318 9.24667 14.34C9.2029 14.2638 9.14455 14.197 9.07496 14.1434C9.00537 14.0898 8.9259 14.0504 8.84109 14.0275C8.75628 14.0046 8.66779 13.9986 8.58067 14.0099C8.49355 14.0212 8.40951 14.0496 8.33334 14.0933C8.25717 14.1371 8.19038 14.1955 8.13676 14.265C8.08314 14.3346 8.04375 14.4141 8.02085 14.4989C7.99794 14.5837 7.99197 14.6722 8.00326 14.7593C8.01456 14.8465 8.0429 14.9305 8.08667 15.0067C8.47179 15.7056 9.03894 16.2872 9.72793 16.6898C10.4169 17.0924 11.2021 17.3009 12 17.2933V17.2933C12.7993 17.2996 13.5854 17.0891 14.2745 16.6841C14.9636 16.279 15.53 15.6947 15.9133 14.9933C15.9997 14.8394 16.0215 14.6576 15.974 14.4876C15.9266 14.3177 15.8136 14.1735 15.66 14.0867V14.0867Z" fill="#22CCE2" stroke="#22CCE2" stroke-width="0.5"/>
<path d="M15.3333 10.6667C16.0697 10.6667 16.6667 10.0697 16.6667 9.33333C16.6667 8.59695 16.0697 8 15.3333 8C14.597 8 14 8.59695 14 9.33333C14 10.0697 14.597 10.6667 15.3333 10.6667Z" fill="#22CCE2" stroke="#22CCE2" stroke-width="0.5"/>
<path d="M8.66668 10.6667C9.40306 10.6667 10 10.0697 10 9.33333C10 8.59695 9.40306 8 8.66668 8C7.9303 8 7.33334 8.59695 7.33334 9.33333C7.33334 10.0697 7.9303 10.6667 8.66668 10.6667Z" fill="#22CCE2" stroke="#22CCE2" stroke-width="0.5"/>
</svg>
