<?xml version="1.0" encoding="UTF-8"?>
<!DOCTYPE svg PUBLIC "-//W3C//DTD SVG 1.1//EN" "http://www.w3.org/Graphics/SVG/1.1/DTD/svg11.dtd">
<svg xmlns="http://www.w3.org/2000/svg" version="1.1" width="576px" height="246px" style="shape-rendering:geometricPrecision; text-rendering:geometricPrecision; image-rendering:optimizeQuality; fill-rule:evenodd; clip-rule:evenodd" xmlns:xlink="http://www.w3.org/1999/xlink">
<g><path style="opacity:1" fill="#648495" d="M -0.5,-0.5 C 46.5,-0.5 93.5,-0.5 140.5,-0.5C 140.521,4.1865 139.855,8.6865 138.5,13C 138.481,16.7188 139.148,20.2188 140.5,23.5C 133.454,23.4943 126.454,23.661 119.5,24C 120.672,23.5814 121.672,22.9147 122.5,22C 120.5,21.8333 118.5,21.6667 116.5,21.5C 102.381,22.9487 88.3806,23.9487 74.5,24.5C 65.4938,24.3336 56.4938,24.5002 47.5,25C 46.6634,26.0113 46.33,27.1779 46.5,28.5C 45.6918,34.8351 45.0252,41.3351 44.5,48C 44.0915,49.9305 43.4248,51.7638 42.5,53.5C 44.2712,57.0472 45.2712,57.0472 45.5,53.5C 47.4918,53.3285 49.1585,53.9951 50.5,55.5C 51.8425,54.0977 52.6758,54.4311 53,56.5C 56.1988,54.7087 59.6988,53.7087 63.5,53.5C 61.9075,57.4602 62.4075,61.1269 65,64.5C 66.6636,61.7107 66.8302,58.8773 65.5,56C 66.3079,54.2942 67.6412,53.4609 69.5,53.5C 69.1692,76.0062 69.5026,98.3396 70.5,120.5C 70.4142,121.496 70.7476,122.329 71.5,123C 79.3446,123.822 87.0113,123.656 94.5,122.5C 94.8333,122.5 95.1667,122.5 95.5,122.5C 96.5,122.5 97.5,122.5 98.5,122.5C 97.6502,115.201 97.3169,107.868 97.5,100.5C 103.842,100.666 110.175,100.5 116.5,100C 117.737,99.7679 118.737,99.2679 119.5,98.5C 119.833,98.5 120.167,98.5 120.5,98.5C 122.178,91.6591 123.178,84.4924 123.5,77C 130.251,76.9604 136.918,76.7937 143.5,76.5C 143.5,77.1667 143.5,77.8333 143.5,78.5C 142.833,92.006 142.167,105.673 141.5,119.5C 133.409,119.909 125.243,120.576 117,121.5C 117.43,146.141 117.596,170.808 117.5,195.5C 125.485,195.044 133.319,195.71 141,197.5C 142.38,213.175 142.88,229.175 142.5,245.5C 94.8333,245.5 47.1667,245.5 -0.5,245.5C -0.5,163.5 -0.5,81.5 -0.5,-0.5 Z"/></g>
<g><path style="opacity:1" fill="#1a42c6" d="M 192.5,-0.5 C 255.833,-0.5 319.167,-0.5 382.5,-0.5C 382.325,7.9157 382.325,16.249 382.5,24.5C 377.656,25.0037 372.989,25.0037 368.5,24.5C 364.241,25.253 360.241,26.5863 356.5,28.5C 359.002,34.0071 359.002,39.5071 356.5,45C 357.148,46.4397 357.481,47.9397 357.5,49.5C 336.341,49.3471 315.341,48.3471 294.5,46.5C 293.852,48.1492 292.852,49.4825 291.5,50.5C 290.914,50.2907 290.414,49.9574 290,49.5C 289.222,42.6288 289.388,35.7954 290.5,29C 288.993,26.034 286.493,24.534 283,24.5C 254.333,25.8333 225.667,25.8333 197,24.5C 195.301,24.3866 194.134,25.0532 193.5,26.5C 192.5,26.8333 191.833,27.5 191.5,28.5C 190.883,28.6107 190.383,28.944 190,29.5C 189.667,34.1667 189.333,38.8333 189,43.5C 187.086,44.676 187.252,45.676 189.5,46.5C 183.202,47.4963 176.868,47.8297 170.5,47.5C 170.843,36.9909 170.176,26.6576 168.5,16.5C 168.686,11.8141 169.019,7.14747 169.5,2.5C 176.45,3.5931 183.45,3.75977 190.5,3C 191.823,2.18405 192.489,1.01739 192.5,-0.5 Z"/></g>
<g><path style="opacity:1" fill="#1736a2" d="M 384.5,-0.5 C 391.833,-0.5 399.167,-0.5 406.5,-0.5C 406.632,8.19107 406.299,16.8577 405.5,25.5C 398.313,25.1755 391.313,25.5088 384.5,26.5C 384.167,26.5 383.833,26.5 383.5,26.5C 383.45,23.8023 384.45,21.6356 386.5,20C 384.562,13.4515 383.895,6.61821 384.5,-0.5 Z"/></g>
<g><path style="opacity:1" fill="#1f3882" d="M 406.5,-0.5 C 406.833,-0.5 407.167,-0.5 407.5,-0.5C 407.5,8.16667 407.5,16.8333 407.5,25.5C 407.5,25.8333 407.5,26.1667 407.5,26.5C 399.833,26.5 392.167,26.5 384.5,26.5C 391.313,25.5088 398.313,25.1755 405.5,25.5C 406.299,16.8577 406.632,8.19107 406.5,-0.5 Z"/></g>
<g><path style="opacity:1" fill="#5f7eab" d="M 407.5,-0.5 C 408.167,-0.5 408.833,-0.5 409.5,-0.5C 410.136,8.5645 409.47,17.2312 407.5,25.5C 407.5,16.8333 407.5,8.16667 407.5,-0.5 Z"/></g>
<g><path style="opacity:1" fill="#638495" d="M 409.5,-0.5 C 464.833,-0.5 520.167,-0.5 575.5,-0.5C 575.5,81.5 575.5,163.5 575.5,245.5C 522.167,245.5 468.833,245.5 415.5,245.5C 415.207,174.491 415.54,103.491 416.5,32.5C 415.5,32.5 414.5,32.5 413.5,32.5C 413.007,103.503 413.007,174.503 413.5,245.5C 411.5,245.5 409.5,245.5 407.5,245.5C 407.5,172.833 407.5,100.167 407.5,27.5C 407.5,27.1667 407.5,26.8333 407.5,26.5C 407.5,26.1667 407.5,25.8333 407.5,25.5C 409.47,17.2312 410.136,8.5645 409.5,-0.5 Z"/></g>
<g><path style="opacity:1" fill="#5978b2" d="M 165.5,-0.5 C 166.167,-0.5 166.833,-0.5 167.5,-0.5C 167.715,1.17876 167.048,2.17876 165.5,2.5C 158.833,2.5 152.167,2.5 145.5,2.5C 151.653,1.67207 157.987,1.17207 164.5,1C 165.056,0.617425 165.389,0.117425 165.5,-0.5 Z"/></g>
<g><path style="opacity:1" fill="#173bb3" d="M 170.5,-0.5 C 177.833,-0.5 185.167,-0.5 192.5,-0.5C 192.489,1.01739 191.823,2.18405 190.5,3C 183.45,3.75977 176.45,3.5931 169.5,2.5C 169.557,1.39105 169.89,0.391047 170.5,-0.5 Z"/></g>
<g><path style="opacity:1" fill="#1636a4" d="M 167.5,3.5 C 166.089,6.47507 165.423,9.64173 165.5,13C 166.04,17.4887 166.374,21.9887 166.5,26.5C 164.967,25.5691 163.3,24.9024 161.5,24.5C 156.878,25.3851 152.211,25.7184 147.5,25.5C 145.525,19.3884 145.025,13.0551 146,6.5C 153.126,5.17012 160.293,4.17012 167.5,3.5 Z"/></g>
<g><path style="opacity:1" fill="#62839c" d="M 140.5,-0.5 C 148.833,-0.5 157.167,-0.5 165.5,-0.5C 165.389,0.117425 165.056,0.617425 164.5,1C 157.987,1.17207 151.653,1.67207 145.5,2.5C 144.833,2.5 144.167,2.5 143.5,2.5C 142.818,9.90126 142.152,17.4013 141.5,25C 131.172,25.4998 120.839,25.6665 110.5,25.5C 98.6783,24.5049 86.6783,24.1716 74.5,24.5C 88.3806,23.9487 102.381,22.9487 116.5,21.5C 118.5,21.6667 120.5,21.8333 122.5,22C 121.672,22.9147 120.672,23.5814 119.5,24C 126.454,23.661 133.454,23.4943 140.5,23.5C 139.148,20.2188 138.481,16.7188 138.5,13C 139.855,8.6865 140.521,4.1865 140.5,-0.5 Z"/></g>
<g><path style="opacity:1" fill="#1e3f86" d="M 143.5,2.5 C 144.167,2.5 144.833,2.5 145.5,2.5C 152.167,2.5 158.833,2.5 165.5,2.5C 159.347,3.32793 153.013,3.82793 146.5,4C 146,4.5 145.5,5 145,5.5C 144.829,12.6787 144.329,19.6787 143.5,26.5C 143.5,18.5 143.5,10.5 143.5,2.5 Z"/></g>
<g><path style="opacity:1" fill="#5f80aa" d="M 74.5,24.5 C 86.6783,24.1716 98.6783,24.5049 110.5,25.5C 89.6599,25.1695 68.9933,25.5028 48.5,26.5C 47.508,33.9818 47.1746,41.6484 47.5,49.5C 46.5088,42.6866 46.1755,35.6866 46.5,28.5C 46.33,27.1779 46.6634,26.0113 47.5,25C 56.4938,24.5002 65.4938,24.3336 74.5,24.5 Z"/></g>
<g><path style="opacity:1" fill="#5576ae" d="M 143.5,2.5 C 143.5,10.5 143.5,18.5 143.5,26.5C 111.833,26.5 80.1667,26.5 48.5,26.5C 68.9933,25.5028 89.6599,25.1695 110.5,25.5C 120.839,25.6665 131.172,25.4998 141.5,25C 142.152,17.4013 142.818,9.90126 143.5,2.5 Z"/></g>
<g><path style="opacity:1" fill="#1537ad" d="M 193.5,26.5 C 224.833,26.5 256.167,26.5 287.5,26.5C 287.5,32.1667 287.5,37.8333 287.5,43.5C 286.676,39.6877 286.176,35.6877 286,31.5C 285.075,30.9535 284.242,30.2868 283.5,29.5C 254.267,28.8295 225.101,28.1628 196,27.5C 195.056,28.263 194.556,29.263 194.5,30.5C 195.636,36.0455 195.636,41.3789 194.5,46.5C 193.675,47.3857 192.675,47.719 191.5,47.5C 191.5,41.1667 191.5,34.8333 191.5,28.5C 191.833,27.5 192.5,26.8333 193.5,26.5 Z"/></g>
<g><path style="opacity:1" fill="#1736a3" d="M 287.5,43.5 C 287.5,45.1667 287.5,46.8333 287.5,48.5C 255.5,48.5 223.5,48.5 191.5,48.5C 191.5,48.1667 191.5,47.8333 191.5,47.5C 192.675,47.719 193.675,47.3857 194.5,46.5C 195.636,41.3789 195.636,36.0455 194.5,30.5C 194.556,29.263 195.056,28.263 196,27.5C 225.101,28.1628 254.267,28.8295 283.5,29.5C 284.242,30.2868 285.075,30.9535 286,31.5C 286.176,35.6877 286.676,39.6877 287.5,43.5 Z"/></g>
<g><path style="opacity:1" fill="#1736a2" d="M 382.5,27.5 C 382.726,34.8761 382.392,42.2094 381.5,49.5C 374.5,49.5 367.5,49.5 360.5,49.5C 361.153,48.1932 361.82,46.8599 362.5,45.5C 361.167,40.5 361.167,35.5 362.5,30.5C 364.179,29.218 366.013,28.218 368,27.5C 372.801,28.7552 377.635,28.7552 382.5,27.5 Z"/></g>
<g><path style="opacity:1" fill="#132f8c" d="M 167.5,-0.5 C 168.5,-0.5 169.5,-0.5 170.5,-0.5C 169.89,0.391047 169.557,1.39105 169.5,2.5C 168.833,2.83333 168.167,3.16667 167.5,3.5C 160.293,4.17012 153.126,5.17012 146,6.5C 145.025,13.0551 145.525,19.3884 147.5,25.5C 152.211,25.7184 156.878,25.3851 161.5,24.5C 163.3,24.9024 164.967,25.5691 166.5,26.5C 167.338,26.8417 167.672,27.5084 167.5,28.5C 167.5,35.1667 167.5,41.8333 167.5,48.5C 165.702,42.5788 164.869,36.2455 165,29.5C 159.397,26.8221 153.564,26.3221 147.5,28C 146.874,28.7504 146.374,29.5838 146,30.5C 145.667,35.8333 145.333,41.1667 145,46.5C 144.722,47.4158 144.222,48.0825 143.5,48.5C 143.5,41.5 143.5,34.5 143.5,27.5C 143.5,27.1667 143.5,26.8333 143.5,26.5C 144.329,19.6787 144.829,12.6787 145,5.5C 145.5,5 146,4.5 146.5,4C 153.013,3.82793 159.347,3.32793 165.5,2.5C 167.048,2.17876 167.715,1.17876 167.5,-0.5 Z"/></g>
<g><path style="opacity:1" fill="#010102" d="M 388.5,27.5 C 394.31,28.4896 400.31,28.8229 406.5,28.5C 406.5,100.833 406.5,173.167 406.5,245.5C 398.833,245.5 391.167,245.5 383.5,245.5C 383.5,244.5 383.5,243.5 383.5,242.5C 383.5,234.5 383.5,226.5 383.5,218.5C 383.5,194.5 383.5,170.5 383.5,146.5C 383.5,138.5 383.5,130.5 383.5,122.5C 383.5,106.5 383.5,90.5 383.5,74.5C 383.5,67.8333 383.5,61.1667 383.5,54.5C 383.5,53.5 383.5,52.5 383.5,51.5C 383.5,50.8333 383.5,50.1667 383.5,49.5C 384.492,42.3524 384.825,35.0191 384.5,27.5C 385.833,27.5 387.167,27.5 388.5,27.5 Z"/></g>
<g><path style="opacity:1" fill="#152b7b" d="M 167.5,48.5 C 167.5,48.8333 167.5,49.1667 167.5,49.5C 159.5,49.5 151.5,49.5 143.5,49.5C 143.5,49.1667 143.5,48.8333 143.5,48.5C 144.222,48.0825 144.722,47.4158 145,46.5C 145.333,41.1667 145.667,35.8333 146,30.5C 146.374,29.5838 146.874,28.7504 147.5,28C 153.564,26.3221 159.397,26.8221 165,29.5C 164.869,36.2455 165.702,42.5788 167.5,48.5 Z"/></g>
<g><path style="opacity:1" fill="#2a4ba3" d="M 48.5,26.5 C 80.1667,26.5 111.833,26.5 143.5,26.5C 143.5,26.8333 143.5,27.1667 143.5,27.5C 135.167,27.5 126.833,27.5 118.5,27.5C 110.833,27.5 103.167,27.5 95.5,27.5C 87.5,27.5 79.5,27.5 71.5,27.5C 63.8333,27.5 56.1667,27.5 48.5,27.5C 48.3337,34.5079 48.5004,41.5079 49,48.5C 56.2655,49.1511 63.4322,49.8178 70.5,50.5C 63.1667,50.5 55.8333,50.5 48.5,50.5C 47.8333,50.5 47.5,50.1667 47.5,49.5C 47.1746,41.6484 47.508,33.9818 48.5,26.5 Z"/></g>
<g><path style="opacity:1" fill="#648492" d="M 415.5,245.5 C 414.833,245.5 414.167,245.5 413.5,245.5C 413.007,174.503 413.007,103.503 413.5,32.5C 414.5,32.5 415.5,32.5 416.5,32.5C 415.54,103.491 415.207,174.491 415.5,245.5 Z"/></g>
<g><path style="opacity:1" fill="#040d13" d="M 388.5,27.5 C 394.833,27.5 401.167,27.5 407.5,27.5C 407.5,100.167 407.5,172.833 407.5,245.5C 407.167,245.5 406.833,245.5 406.5,245.5C 406.5,173.167 406.5,100.833 406.5,28.5C 400.31,28.8229 394.31,28.4896 388.5,27.5 Z"/></g>
<g><path style="opacity:1" fill="#1c41bc" d="M 169.5,2.5 C 169.019,7.14747 168.686,11.8141 168.5,16.5C 170.176,26.6576 170.843,36.9909 170.5,47.5C 176.868,47.8297 183.202,47.4963 189.5,46.5C 187.252,45.676 187.086,44.676 189,43.5C 189.333,38.8333 189.667,34.1667 190,29.5C 190.383,28.944 190.883,28.6107 191.5,28.5C 191.5,34.8333 191.5,41.1667 191.5,47.5C 191.5,47.8333 191.5,48.1667 191.5,48.5C 184.159,48.6663 176.826,48.4997 169.5,48C 168.85,41.4009 168.184,34.9009 167.5,28.5C 167.672,27.5084 167.338,26.8417 166.5,26.5C 166.374,21.9887 166.04,17.4887 165.5,13C 165.423,9.64173 166.089,6.47507 167.5,3.5C 168.167,3.16667 168.833,2.83333 169.5,2.5 Z"/></g>
<g><path style="opacity:1" fill="#2641a9" d="M 167.5,28.5 C 168.184,34.9009 168.85,41.4009 169.5,48C 176.826,48.4997 184.159,48.6663 191.5,48.5C 191.5,48.8333 191.5,49.1667 191.5,49.5C 183.5,49.5 175.5,49.5 167.5,49.5C 167.5,49.1667 167.5,48.8333 167.5,48.5C 167.5,41.8333 167.5,35.1667 167.5,28.5 Z"/></g>
<g><path style="opacity:1" fill="#19255b" d="M 383.5,26.5 C 383.833,26.5 384.167,26.5 384.5,26.5C 392.167,26.5 399.833,26.5 407.5,26.5C 407.5,26.8333 407.5,27.1667 407.5,27.5C 401.167,27.5 394.833,27.5 388.5,27.5C 387.167,27.5 385.833,27.5 384.5,27.5C 384.825,35.0191 384.492,42.3524 383.5,49.5C 375.912,50.3006 368.245,50.8006 360.5,51C 359.848,58.5987 359.182,66.0987 358.5,73.5C 358.5,66.1667 358.5,58.8333 358.5,51.5C 358.5,51.1667 358.5,50.8333 358.5,50.5C 359.167,50.1667 359.833,49.8333 360.5,49.5C 367.5,49.5 374.5,49.5 381.5,49.5C 382.392,42.2094 382.726,34.8761 382.5,27.5C 382.5,26.8333 382.833,26.5 383.5,26.5 Z"/></g>
<g><path style="opacity:1" fill="#63839c" d="M 46.5,28.5 C 46.1755,35.6866 46.5088,42.6866 47.5,49.5C 47.5,50.1667 47.8333,50.5 48.5,50.5C 48.5,50.8333 48.5,51.1667 48.5,51.5C 55.5,52.1667 62.5,52.8333 69.5,53.5C 67.6412,53.4609 66.3079,54.2942 65.5,56C 66.8302,58.8773 66.6636,61.7107 65,64.5C 62.4075,61.1269 61.9075,57.4602 63.5,53.5C 59.6988,53.7087 56.1988,54.7087 53,56.5C 52.6758,54.4311 51.8425,54.0977 50.5,55.5C 49.1585,53.9951 47.4918,53.3285 45.5,53.5C 45.2712,57.0472 44.2712,57.0472 42.5,53.5C 43.4248,51.7638 44.0915,49.9305 44.5,48C 45.0252,41.3351 45.6918,34.8351 46.5,28.5 Z"/></g>
<g><path style="opacity:1" fill="#193cb3" d="M 71.5,27.5 C 72.3976,29.6269 74.0643,30.7935 76.5,31C 75.552,31.4828 74.552,31.6495 73.5,31.5C 73.6655,35.5138 73.4988,39.5138 73,43.5C 72.5,44 72,44.5 71.5,45C 72.6853,46.353 74.0186,47.5197 75.5,48.5C 78.4059,47.3602 81.2392,47.3602 84,48.5C 86.7917,47.7422 89.6251,46.7422 92.5,45.5C 93.8333,40.8333 93.8333,36.1667 92.5,31.5C 93.8262,30.3578 94.8262,29.0245 95.5,27.5C 103.167,27.5 110.833,27.5 118.5,27.5C 119.593,34.4505 119.76,41.4505 119,48.5C 117.705,50.1217 116.205,51.455 114.5,52.5C 113.446,52.3201 112.446,51.9867 111.5,51.5C 107.887,52.5228 104.221,53.3562 100.5,54C 101.167,54.3333 101.833,54.6667 102.5,55C 100.899,55.2734 99.3988,55.7734 98,56.5C 97.501,59.5182 97.6677,62.5182 98.5,65.5C 97.0772,68.2746 96.4105,71.2746 96.5,74.5C 95.5088,81.3134 95.1755,88.3134 95.5,95.5C 95.5,96.5 95.5,97.5 95.5,98.5C 94.6712,105.655 94.1712,112.989 94,120.5C 91.6194,121.435 89.1194,121.768 86.5,121.5C 88.8422,120.992 91.0088,119.992 93,118.5C 94.1952,95.8442 95.0285,73.1776 95.5,50.5C 88.1667,50.5 80.8333,50.5 73.5,50.5C 72.8333,50.5 72.1667,50.5 71.5,50.5C 71.1667,50.5 70.8333,50.5 70.5,50.5C 63.4322,49.8178 56.2655,49.1511 49,48.5C 48.5004,41.5079 48.3337,34.5079 48.5,27.5C 56.1667,27.5 63.8333,27.5 71.5,27.5 Z"/></g>
<g><path style="opacity:1" fill="#1737a3" d="M 71.5,27.5 C 79.5,27.5 87.5,27.5 95.5,27.5C 94.8262,29.0245 93.8262,30.3578 92.5,31.5C 93.8333,36.1667 93.8333,40.8333 92.5,45.5C 89.6251,46.7422 86.7917,47.7422 84,48.5C 81.2392,47.3602 78.4059,47.3602 75.5,48.5C 74.0186,47.5197 72.6853,46.353 71.5,45C 72,44.5 72.5,44 73,43.5C 73.4988,39.5138 73.6655,35.5138 73.5,31.5C 74.552,31.6495 75.552,31.4828 76.5,31C 74.0643,30.7935 72.3976,29.6269 71.5,27.5 Z"/></g>
<g><path style="opacity:1" fill="#1a42c6" d="M 104.5,28.5 C 108.846,28.3343 113.179,28.501 117.5,29C 114.736,30.544 114.903,31.7107 118,32.5C 118.781,37.5544 118.614,42.5544 117.5,47.5C 111.528,48.6636 105.528,48.8303 99.5,48C 96.7524,42.583 95.7524,36.7497 96.5,30.5C 99.3725,30.1977 102.039,29.531 104.5,28.5 Z"/></g>
<g><path style="opacity:1" fill="#1a43c6" d="M 49.5,28.5 C 55.1764,28.3339 60.8431,28.5006 66.5,29C 67.3333,29.8333 68.1667,30.6667 69,31.5C 69.1948,36.4179 69.6948,41.2512 70.5,46C 63.6767,47.4602 56.6767,47.9602 49.5,47.5C 49.5,41.1667 49.5,34.8333 49.5,28.5 Z"/></g>
<g><path style="opacity:1" fill="#193eb7" d="M 382.5,-0.5 C 383.167,-0.5 383.833,-0.5 384.5,-0.5C 383.895,6.61821 384.562,13.4515 386.5,20C 384.45,21.6356 383.45,23.8023 383.5,26.5C 382.833,26.5 382.5,26.8333 382.5,27.5C 377.635,28.7552 372.801,28.7552 368,27.5C 366.013,28.218 364.179,29.218 362.5,30.5C 361.167,35.5 361.167,40.5 362.5,45.5C 361.82,46.8599 361.153,48.1932 360.5,49.5C 359.833,49.8333 359.167,50.1667 358.5,50.5C 336.309,51.0035 314.142,51.6702 292,52.5C 291.098,52.2568 290.265,51.9234 289.5,51.5C 288.833,50.5 288.167,49.5 287.5,48.5C 287.5,46.8333 287.5,45.1667 287.5,43.5C 287.5,37.8333 287.5,32.1667 287.5,26.5C 256.167,26.5 224.833,26.5 193.5,26.5C 194.134,25.0532 195.301,24.3866 197,24.5C 225.667,25.8333 254.333,25.8333 283,24.5C 286.493,24.534 288.993,26.034 290.5,29C 289.388,35.7954 289.222,42.6288 290,49.5C 290.414,49.9574 290.914,50.2907 291.5,50.5C 292.852,49.4825 293.852,48.1492 294.5,46.5C 315.341,48.3471 336.341,49.3471 357.5,49.5C 357.481,47.9397 357.148,46.4397 356.5,45C 359.002,39.5071 359.002,34.0071 356.5,28.5C 360.241,26.5863 364.241,25.253 368.5,24.5C 372.989,25.0037 377.656,25.0037 382.5,24.5C 382.325,16.249 382.325,7.9157 382.5,-0.5 Z"/></g>
<g><path style="opacity:1" fill="#1736a3" d="M 118.5,27.5 C 126.833,27.5 135.167,27.5 143.5,27.5C 143.5,34.5 143.5,41.5 143.5,48.5C 143.5,48.8333 143.5,49.1667 143.5,49.5C 142.833,49.5 142.167,49.5 141.5,49.5C 137.205,48.1059 132.705,47.4393 128,47.5C 125.5,47.8333 123,48.1667 120.5,48.5C 119.902,49.7946 119.402,51.1279 119,52.5C 118.761,59.5478 118.261,66.5478 117.5,73.5C 117.5,74.1667 117.167,74.5 116.5,74.5C 109.833,74.5 103.167,74.5 96.5,74.5C 96.4105,71.2746 97.0772,68.2746 98.5,65.5C 97.6677,62.5182 97.501,59.5182 98,56.5C 99.3988,55.7734 100.899,55.2734 102.5,55C 101.833,54.6667 101.167,54.3333 100.5,54C 104.221,53.3562 107.887,52.5228 111.5,51.5C 112.446,51.9867 113.446,52.3201 114.5,52.5C 116.205,51.455 117.705,50.1217 119,48.5C 119.76,41.4505 119.593,34.4505 118.5,27.5 Z"/></g>
<g><path style="opacity:1" fill="#010119" d="M 215.5,52.5 C 215.5,52.1667 215.5,51.8333 215.5,51.5C 239.5,51.5 263.5,51.5 287.5,51.5C 287.5,59.1667 287.5,66.8333 287.5,74.5C 287.167,74.5 286.833,74.5 286.5,74.5C 286.5,73.8333 286.167,73.5 285.5,73.5C 285.5,66.5 285.5,59.5 285.5,52.5C 262.5,52.5 239.5,52.5 216.5,52.5C 216.167,52.5 215.833,52.5 215.5,52.5 Z"/></g>
<g><path style="opacity:1" fill="#1736a4" d="M 358.5,50.5 C 358.5,50.8333 358.5,51.1667 358.5,51.5C 357.698,52.9516 357.198,54.6183 357,56.5C 356.501,61.8229 356.334,67.1563 356.5,72.5C 334.497,72.6666 312.497,72.5 290.5,72C 289.04,69.0368 288.374,65.8701 288.5,62.5C 288.779,58.8201 289.112,55.1535 289.5,51.5C 290.265,51.9234 291.098,52.2568 292,52.5C 314.142,51.6702 336.309,51.0035 358.5,50.5 Z"/></g>
<g><path style="opacity:1" fill="#1a42c5" d="M 73.5,50.5 C 80.8333,50.5 88.1667,50.5 95.5,50.5C 95.0285,73.1776 94.1952,95.8442 93,118.5C 91.0088,119.992 88.8422,120.992 86.5,121.5C 82.5,121.5 78.5,121.5 74.5,121.5C 73.5106,97.9082 73.1773,74.2415 73.5,50.5 Z"/></g>
<g><path style="opacity:1" fill="#010102" d="M 145.5,51.5 C 152.833,51.5 160.167,51.5 167.5,51.5C 167.5,75.1667 167.5,98.8333 167.5,122.5C 159.414,122.199 151.414,122.533 143.5,123.5C 143.5,123.167 143.5,122.833 143.5,122.5C 143.5,107.833 143.5,93.1667 143.5,78.5C 143.5,77.8333 143.5,77.1667 143.5,76.5C 143.5,75.8333 143.5,75.1667 143.5,74.5C 144.196,66.9329 144.863,59.2662 145.5,51.5 Z"/></g>
<g><path style="opacity:1" fill="#010002" d="M 216.5,52.5 C 239.5,52.5 262.5,52.5 285.5,52.5C 285.5,59.5 285.5,66.5 285.5,73.5C 263.157,73.833 240.823,73.4997 218.5,72.5C 216.593,66.0495 215.927,59.3828 216.5,52.5 Z"/></g>
<g><path style="opacity:1" fill="#2e2323" d="M 383.5,51.5 C 383.5,52.5 383.5,53.5 383.5,54.5C 376.223,53.5696 368.89,53.2363 361.5,53.5C 361.824,60.3543 361.491,67.021 360.5,73.5C 360.187,66.2454 360.52,59.0787 361.5,52C 368.826,51.5003 376.159,51.3337 383.5,51.5 Z"/></g>
<g><path style="opacity:1" fill="#2e231a" d="M 167.5,51.5 C 183.5,51.5 199.5,51.5 215.5,51.5C 215.5,51.8333 215.5,52.1667 215.5,52.5C 215.5,59.5 215.5,66.5 215.5,73.5C 214.672,67.6807 214.172,61.6807 214,55.5C 213.5,55 213,54.5 212.5,54C 198.171,53.5001 183.837,53.3334 169.5,53.5C 169.333,74.8359 169.5,96.1693 170,117.5C 170.5,118 171,118.5 171.5,119C 170.051,120.102 168.718,121.269 167.5,122.5C 167.5,98.8333 167.5,75.1667 167.5,51.5 Z"/></g>
<g><path style="opacity:1" fill="#352410" d="M 215.5,73.5 C 215.5,73.8333 215.5,74.1667 215.5,74.5C 207.5,74.5 199.5,74.5 191.5,74.5C 191.5,114.5 191.5,154.5 191.5,194.5C 199.5,194.5 207.5,194.5 215.5,194.5C 215.5,202.5 215.5,210.5 215.5,218.5C 223.5,218.5 231.5,218.5 239.5,218.5C 239.5,226.5 239.5,234.5 239.5,242.5C 231.5,242.5 223.5,242.5 215.5,242.5C 215.5,243.5 215.5,244.5 215.5,245.5C 200.167,245.5 184.833,245.5 169.5,245.5C 169.182,222.967 169.516,200.467 170.5,178C 169.767,175.28 168.767,172.78 167.5,170.5C 161.013,169.672 154.346,169.172 147.5,169C 146.584,168.626 145.75,168.126 145,167.5C 144.184,153.122 144.351,138.788 145.5,124.5C 151.304,123.788 156.638,123.788 161.5,124.5C 163.717,124.122 165.717,123.455 167.5,122.5C 168.718,121.269 170.051,120.102 171.5,119C 171,118.5 170.5,118 170,117.5C 169.5,96.1693 169.333,74.8359 169.5,53.5C 183.837,53.3334 198.171,53.5001 212.5,54C 213,54.5 213.5,55 214,55.5C 214.172,61.6807 214.672,67.6807 215.5,73.5 Z"/></g>
<g><path style="opacity:1" fill="#342310" d="M 383.5,54.5 C 383.5,61.1667 383.5,67.8333 383.5,74.5C 375.833,74.5 368.167,74.5 360.5,74.5C 360.5,74.1667 360.5,73.8333 360.5,73.5C 361.491,67.021 361.824,60.3543 361.5,53.5C 368.89,53.2363 376.223,53.5696 383.5,54.5 Z"/></g>
<g><path style="opacity:1" fill="#163191" d="M 141.5,49.5 C 141.389,50.1174 141.056,50.6174 140.5,51C 133.842,51.4996 127.175,51.6663 120.5,51.5C 121.052,58.8119 121.052,65.8119 120.5,72.5C 119.391,72.5569 118.391,72.8902 117.5,73.5C 118.261,66.5478 118.761,59.5478 119,52.5C 119.402,51.1279 119.902,49.7946 120.5,48.5C 123,48.1667 125.5,47.8333 128,47.5C 132.705,47.4393 137.205,48.1059 141.5,49.5 Z"/></g>
<g><path style="opacity:1" fill="#2447af" d="M 71.5,50.5 C 72.1667,50.5 72.8333,50.5 73.5,50.5C 73.1773,74.2415 73.5106,97.9082 74.5,121.5C 73.8333,121.5 73.1667,121.5 72.5,121.5C 71.5106,97.9082 71.1773,74.2415 71.5,50.5 Z"/></g>
<g><path style="opacity:1" fill="#142b7c" d="M 141.5,49.5 C 142.167,49.5 142.833,49.5 143.5,49.5C 143.217,50.2891 142.717,50.9558 142,51.5C 141.5,58.4921 141.334,65.4921 141.5,72.5C 134.5,72.5 127.5,72.5 120.5,72.5C 121.052,65.8119 121.052,58.8119 120.5,51.5C 127.175,51.6663 133.842,51.4996 140.5,51C 141.056,50.6174 141.389,50.1174 141.5,49.5 Z"/></g>
<g><path style="opacity:1" fill="#262848" d="M 383.5,49.5 C 383.5,50.1667 383.5,50.8333 383.5,51.5C 376.159,51.3337 368.826,51.5003 361.5,52C 360.52,59.0787 360.187,66.2454 360.5,73.5C 360.5,73.8333 360.5,74.1667 360.5,74.5C 359.5,74.5 358.5,74.5 357.5,74.5C 357.5,73.8333 357.833,73.5 358.5,73.5C 359.182,66.0987 359.848,58.5987 360.5,51C 368.245,50.8006 375.912,50.3006 383.5,49.5 Z"/></g>
<g><path style="opacity:1" fill="#19265c" d="M 143.5,49.5 C 151.5,49.5 159.5,49.5 167.5,49.5C 175.5,49.5 183.5,49.5 191.5,49.5C 223.168,49.3334 254.835,49.5 286.5,50C 287.056,50.3826 287.389,50.8826 287.5,51.5C 263.5,51.5 239.5,51.5 215.5,51.5C 199.5,51.5 183.5,51.5 167.5,51.5C 160.167,51.5 152.833,51.5 145.5,51.5C 143.535,58.7605 142.868,66.4271 143.5,74.5C 143.167,74.5 142.833,74.5 142.5,74.5C 134.833,74.5 127.167,74.5 119.5,74.5C 119.833,73.8333 120.167,73.1667 120.5,72.5C 127.5,72.5 134.5,72.5 141.5,72.5C 141.334,65.4921 141.5,58.4921 142,51.5C 142.717,50.9558 143.217,50.2891 143.5,49.5 Z"/></g>
<g><path style="opacity:1" fill="#000423" d="M 145.5,51.5 C 144.863,59.2662 144.196,66.9329 143.5,74.5C 142.868,66.4271 143.535,58.7605 145.5,51.5 Z"/></g>
<g><path style="opacity:1" fill="#5f82ac" d="M 48.5,51.5 C 55.8333,51.5 63.1667,51.5 70.5,51.5C 70.5,74.5 70.5,97.5 70.5,120.5C 69.5026,98.3396 69.1692,76.0062 69.5,53.5C 62.5,52.8333 55.5,52.1667 48.5,51.5 Z"/></g>
<g><path style="opacity:1" fill="#5376b8" d="M 48.5,51.5 C 48.5,51.1667 48.5,50.8333 48.5,50.5C 55.8333,50.5 63.1667,50.5 70.5,50.5C 70.8333,50.5 71.1667,50.5 71.5,50.5C 71.1773,74.2415 71.5106,97.9082 72.5,121.5C 79.6476,122.492 86.9809,122.825 94.5,122.5C 87.0113,123.656 79.3446,123.822 71.5,123C 70.7476,122.329 70.4142,121.496 70.5,120.5C 70.5,97.5 70.5,74.5 70.5,51.5C 63.1667,51.5 55.8333,51.5 48.5,51.5 Z"/></g>
<g><path style="opacity:1" fill="#253788" d="M 191.5,49.5 C 191.5,49.1667 191.5,48.8333 191.5,48.5C 223.5,48.5 255.5,48.5 287.5,48.5C 288.167,49.5 288.833,50.5 289.5,51.5C 289.112,55.1535 288.779,58.8201 288.5,62.5C 288.374,65.8701 289.04,69.0368 290.5,72C 312.497,72.5 334.497,72.6666 356.5,72.5C 356.334,67.1563 356.501,61.8229 357,56.5C 357.198,54.6183 357.698,52.9516 358.5,51.5C 358.5,58.8333 358.5,66.1667 358.5,73.5C 357.833,73.5 357.5,73.8333 357.5,74.5C 334.167,74.5 310.833,74.5 287.5,74.5C 287.5,66.8333 287.5,59.1667 287.5,51.5C 287.389,50.8826 287.056,50.3826 286.5,50C 254.835,49.5 223.168,49.3334 191.5,49.5 Z"/></g>
<g><path style="opacity:1" fill="#160d08" d="M 215.5,52.5 C 215.833,52.5 216.167,52.5 216.5,52.5C 215.927,59.3828 216.593,66.0495 218.5,72.5C 240.823,73.4997 263.157,73.833 285.5,73.5C 286.167,73.5 286.5,73.8333 286.5,74.5C 262.833,74.5 239.167,74.5 215.5,74.5C 215.5,74.1667 215.5,73.8333 215.5,73.5C 215.5,66.5 215.5,59.5 215.5,52.5 Z"/></g>
<g><path style="opacity:1" fill="#122c8b" d="M 96.5,74.5 C 103.167,74.5 109.833,74.5 116.5,74.5C 116.5,74.8333 116.5,75.1667 116.5,75.5C 110.13,75.7809 103.796,76.4476 97.5,77.5C 96.8714,83.6306 96.2047,89.6306 95.5,95.5C 95.1755,88.3134 95.5088,81.3134 96.5,74.5 Z"/></g>
<g><path style="opacity:1" fill="#846e56" d="M 215.5,74.5 C 239.167,74.5 262.833,74.5 286.5,74.5C 286.833,74.5 287.167,74.5 287.5,74.5C 299.148,75.8324 311.148,76.499 323.5,76.5C 335.907,76.4906 348.24,76.1572 360.5,75.5C 367.833,75.5 375.167,75.5 382.5,75.5C 382.5,83.1667 382.5,90.8333 382.5,98.5C 366.833,98.5 351.167,98.5 335.5,98.5C 335.5,106.5 335.5,114.5 335.5,122.5C 335.5,130.5 335.5,138.5 335.5,146.5C 336.519,148.101 338.019,149.101 340,149.5C 345.093,149.378 350.259,149.211 355.5,149C 357.491,148.626 359.158,147.793 360.5,146.5C 368.167,146.5 375.833,146.5 383.5,146.5C 383.5,170.5 383.5,194.5 383.5,218.5C 375.5,218.5 367.5,218.5 359.5,218.5C 359.5,226.5 359.5,234.5 359.5,242.5C 367.5,242.5 375.5,242.5 383.5,242.5C 383.5,243.5 383.5,244.5 383.5,245.5C 327.5,245.5 271.5,245.5 215.5,245.5C 215.5,244.5 215.5,243.5 215.5,242.5C 223.5,242.5 231.5,242.5 239.5,242.5C 239.5,234.5 239.5,226.5 239.5,218.5C 231.5,218.5 223.5,218.5 215.5,218.5C 215.5,210.5 215.5,202.5 215.5,194.5C 207.5,194.5 199.5,194.5 191.5,194.5C 191.5,154.5 191.5,114.5 191.5,74.5C 199.5,74.5 207.5,74.5 215.5,74.5 Z"/></g>
<g><path style="opacity:1" fill="#726c70" d="M 287.5,74.5 C 310.833,74.5 334.167,74.5 357.5,74.5C 358.5,74.5 359.5,74.5 360.5,74.5C 360.5,74.8333 360.5,75.1667 360.5,75.5C 348.24,76.1572 335.907,76.4906 323.5,76.5C 311.148,76.499 299.148,75.8324 287.5,74.5 Z"/></g>
<g><path style="opacity:1" fill="#152b7b" d="M 116.5,75.5 C 116.5,82.5 116.5,89.5 116.5,96.5C 109.646,96.176 102.979,96.5093 96.5,97.5C 96.5,97.8333 96.5,98.1667 96.5,98.5C 96.1667,98.5 95.8333,98.5 95.5,98.5C 95.5,97.5 95.5,96.5 95.5,95.5C 96.2047,89.6306 96.8714,83.6306 97.5,77.5C 103.796,76.4476 110.13,75.7809 116.5,75.5 Z"/></g>
<g><path style="opacity:1" fill="#59769f" d="M 119.5,74.5 C 127.167,74.5 134.833,74.5 142.5,74.5C 135.352,75.4916 128.019,75.825 120.5,75.5C 120.5,83.1667 120.5,90.8333 120.5,98.5C 120.167,98.5 119.833,98.5 119.5,98.5C 119.5,90.8333 119.5,83.1667 119.5,75.5C 119.5,75.1667 119.5,74.8333 119.5,74.5 Z"/></g>
<g><path style="opacity:1" fill="#63829d" d="M 142.5,74.5 C 142.833,74.5 143.167,74.5 143.5,74.5C 143.5,75.1667 143.5,75.8333 143.5,76.5C 136.918,76.7937 130.251,76.9604 123.5,77C 123.178,84.4924 122.178,91.6591 120.5,98.5C 120.5,90.8333 120.5,83.1667 120.5,75.5C 128.019,75.825 135.352,75.4916 142.5,74.5 Z"/></g>
<g><path style="opacity:1" fill="#152d72" d="M 120.5,72.5 C 120.167,73.1667 119.833,73.8333 119.5,74.5C 119.5,74.8333 119.5,75.1667 119.5,75.5C 118.508,82.6476 118.175,89.9809 118.5,97.5C 111.167,97.5 103.833,97.5 96.5,97.5C 102.979,96.5093 109.646,96.176 116.5,96.5C 116.5,89.5 116.5,82.5 116.5,75.5C 116.5,75.1667 116.5,74.8333 116.5,74.5C 117.167,74.5 117.5,74.1667 117.5,73.5C 118.391,72.8902 119.391,72.5569 120.5,72.5 Z"/></g>
<g><path style="opacity:1" fill="#19336d" d="M 119.5,75.5 C 119.5,83.1667 119.5,90.8333 119.5,98.5C 111.833,98.5 104.167,98.5 96.5,98.5C 96.5,98.1667 96.5,97.8333 96.5,97.5C 103.833,97.5 111.167,97.5 118.5,97.5C 118.175,89.9809 118.508,82.6476 119.5,75.5 Z"/></g>
<g><path style="opacity:1" fill="#5e7ea8" d="M 95.5,98.5 C 95.8333,98.5 96.1667,98.5 96.5,98.5C 104.167,98.5 111.833,98.5 119.5,98.5C 118.737,99.2679 117.737,99.7679 116.5,100C 110.175,100.5 103.842,100.666 97.5,100.5C 97.3169,107.868 97.6502,115.201 98.5,122.5C 97.5,122.5 96.5,122.5 95.5,122.5C 95.5,114.5 95.5,106.5 95.5,98.5 Z"/></g>
<g><path style="opacity:1" fill="#69553e" d="M 263.5,122.5 C 255.833,122.5 248.167,122.5 240.5,122.5C 240.167,122.5 239.833,122.5 239.5,122.5C 239.167,122.5 238.833,122.5 238.5,122.5C 231.167,122.5 223.833,122.5 216.5,122.5C 216.167,122.5 215.833,122.5 215.5,122.5C 215.5,114.5 215.5,106.5 215.5,98.5C 231.5,98.5 247.5,98.5 263.5,98.5C 263.5,106.5 263.5,114.5 263.5,122.5 Z"/></g>
<g><path style="opacity:1" fill="#69553e" d="M 360.5,75.5 C 360.5,75.1667 360.5,74.8333 360.5,74.5C 368.167,74.5 375.833,74.5 383.5,74.5C 383.5,90.5 383.5,106.5 383.5,122.5C 375.833,122.5 368.167,122.5 360.5,122.5C 360.167,122.5 359.833,122.5 359.5,122.5C 359.167,122.5 358.833,122.5 358.5,122.5C 351.167,122.5 343.833,122.5 336.5,122.5C 336.167,122.5 335.833,122.5 335.5,122.5C 335.5,114.5 335.5,106.5 335.5,98.5C 351.167,98.5 366.833,98.5 382.5,98.5C 382.5,90.8333 382.5,83.1667 382.5,75.5C 375.167,75.5 367.833,75.5 360.5,75.5 Z"/></g>
<g><path style="opacity:1" fill="#2648a2" d="M 95.5,98.5 C 95.5,106.5 95.5,114.5 95.5,122.5C 95.1667,122.5 94.8333,122.5 94.5,122.5C 86.9809,122.825 79.6476,122.492 72.5,121.5C 73.1667,121.5 73.8333,121.5 74.5,121.5C 78.5,121.5 82.5,121.5 86.5,121.5C 89.1194,121.768 91.6194,121.435 94,120.5C 94.1712,112.989 94.6712,105.655 95.5,98.5 Z"/></g>
<g><path style="opacity:1" fill="#a48a6e" d="M 360.5,122.5 C 368.167,122.5 375.833,122.5 383.5,122.5C 383.5,130.5 383.5,138.5 383.5,146.5C 375.833,146.5 368.167,146.5 360.5,146.5C 360.5,138.5 360.5,130.5 360.5,122.5 Z"/></g>
<g><path style="opacity:1" fill="#010001" d="M 143.5,123.5 C 143.5,139.167 143.5,154.833 143.5,170.5C 151.5,170.5 159.5,170.5 167.5,170.5C 167.5,195.5 167.5,220.5 167.5,245.5C 159.5,245.5 151.5,245.5 143.5,245.5C 143.5,228.5 143.5,211.5 143.5,194.5C 136.018,193.508 128.352,193.175 120.5,193.5C 120.333,171.164 120.5,148.831 121,126.5C 123.283,124.362 126.117,123.362 129.5,123.5C 134.257,124.197 138.923,124.197 143.5,123.5 Z"/></g>
<g><path style="opacity:1" fill="#2c2118" d="M 167.5,122.5 C 165.717,123.455 163.717,124.122 161.5,124.5C 156.638,123.788 151.304,123.788 145.5,124.5C 144.351,138.788 144.184,153.122 145,167.5C 145.75,168.126 146.584,168.626 147.5,169C 154.346,169.172 161.013,169.672 167.5,170.5C 159.5,170.5 151.5,170.5 143.5,170.5C 143.5,154.833 143.5,139.167 143.5,123.5C 151.414,122.533 159.414,122.199 167.5,122.5 Z"/></g>
<g><path style="opacity:1" fill="#a78b6c" d="M 240.5,122.5 C 248.167,122.5 255.833,122.5 263.5,122.5C 263.5,130.5 263.5,138.5 263.5,146.5C 255.833,146.5 248.167,146.5 240.5,146.5C 240.5,138.5 240.5,130.5 240.5,122.5 Z"/></g>
<g><path style="opacity:1" fill="#a98b6c" d="M 364.5,124.5 C 365.66,125.611 366.993,126.611 368.5,127.5C 367.386,132.446 367.219,137.446 368,142.5C 369.424,138.703 369.924,134.703 369.5,130.5C 373.167,130.5 376.833,130.5 380.5,130.5C 380.826,134.884 380.492,139.217 379.5,143.5C 378.914,143.291 378.414,142.957 378,142.5C 374.324,143.977 370.491,144.977 366.5,145.5C 364.912,144.99 363.745,143.99 363,142.5C 362.177,136.371 362.677,130.371 364.5,124.5 Z"/></g>
<g><path style="opacity:1" fill="#0c1017" d="M 143.5,122.5 C 143.5,122.833 143.5,123.167 143.5,123.5C 138.923,124.197 134.257,124.197 129.5,123.5C 126.117,123.362 123.283,124.362 121,126.5C 120.5,148.831 120.333,171.164 120.5,193.5C 128.352,193.175 136.018,193.508 143.5,194.5C 135.5,194.5 127.5,194.5 119.5,194.5C 119.5,170.5 119.5,146.5 119.5,122.5C 127.5,122.5 135.5,122.5 143.5,122.5 Z"/></g>
<g><path style="opacity:1" fill="#687c87" d="M 143.5,78.5 C 143.5,93.1667 143.5,107.833 143.5,122.5C 135.5,122.5 127.5,122.5 119.5,122.5C 119.5,146.5 119.5,170.5 119.5,194.5C 127.5,194.5 135.5,194.5 143.5,194.5C 143.5,211.5 143.5,228.5 143.5,245.5C 143.167,245.5 142.833,245.5 142.5,245.5C 142.88,229.175 142.38,213.175 141,197.5C 133.319,195.71 125.485,195.044 117.5,195.5C 117.596,170.808 117.43,146.141 117,121.5C 125.243,120.576 133.409,119.909 141.5,119.5C 142.167,105.673 142.833,92.006 143.5,78.5 Z"/></g>
<g><path style="opacity:1" fill="#1a110d" d="M 215.5,122.5 C 215.833,122.5 216.167,122.5 216.5,122.5C 216.5,130.167 216.5,137.833 216.5,145.5C 223.833,145.5 231.167,145.5 238.5,145.5C 238.5,137.833 238.5,130.167 238.5,122.5C 238.833,122.5 239.167,122.5 239.5,122.5C 239.5,130.5 239.5,138.5 239.5,146.5C 231.5,146.5 223.5,146.5 215.5,146.5C 215.5,138.5 215.5,130.5 215.5,122.5 Z"/></g>
<g><path style="opacity:1" fill="#020001" d="M 216.5,122.5 C 223.833,122.5 231.167,122.5 238.5,122.5C 238.5,130.167 238.5,137.833 238.5,145.5C 231.167,145.5 223.833,145.5 216.5,145.5C 216.5,137.833 216.5,130.167 216.5,122.5 Z"/></g>
<g><path style="opacity:1" fill="#1a110e" d="M 335.5,122.5 C 335.833,122.5 336.167,122.5 336.5,122.5C 336.5,130.167 336.5,137.833 336.5,145.5C 343.833,145.5 351.167,145.5 358.5,145.5C 358.5,137.833 358.5,130.167 358.5,122.5C 358.833,122.5 359.167,122.5 359.5,122.5C 359.5,130.5 359.5,138.5 359.5,146.5C 351.5,146.5 343.5,146.5 335.5,146.5C 335.5,138.5 335.5,130.5 335.5,122.5 Z"/></g>
<g><path style="opacity:1" fill="#010001" d="M 336.5,122.5 C 343.833,122.5 351.167,122.5 358.5,122.5C 358.5,130.167 358.5,137.833 358.5,145.5C 351.167,145.5 343.833,145.5 336.5,145.5C 336.5,137.833 336.5,130.167 336.5,122.5 Z"/></g>
<g><path style="opacity:1" fill="#7e6c5f" d="M 359.5,122.5 C 359.833,122.5 360.167,122.5 360.5,122.5C 360.5,130.5 360.5,138.5 360.5,146.5C 359.158,147.793 357.491,148.626 355.5,149C 350.259,149.211 345.093,149.378 340,149.5C 338.019,149.101 336.519,148.101 335.5,146.5C 343.5,146.5 351.5,146.5 359.5,146.5C 359.5,138.5 359.5,130.5 359.5,122.5 Z"/></g>
<g><path style="opacity:1" fill="#2e2316" d="M 167.5,170.5 C 168.767,172.78 169.767,175.28 170.5,178C 169.516,200.467 169.182,222.967 169.5,245.5C 168.833,245.5 168.167,245.5 167.5,245.5C 167.5,220.5 167.5,195.5 167.5,170.5 Z"/></g>
<g><path style="opacity:1" fill="#786858" d="M 287.5,194.5 C 279.5,194.5 271.5,194.5 263.5,194.5C 262.638,191.983 263.805,190.983 267,191.5C 273.396,191.687 279.896,192.187 286.5,193C 287.056,193.383 287.389,193.883 287.5,194.5 Z"/></g>
<g><path style="opacity:1" fill="#776758" d="M 311.5,218.5 C 319.5,218.5 327.5,218.5 335.5,218.5C 335.5,210.5 335.5,202.5 335.5,194.5C 327.5,194.5 319.5,194.5 311.5,194.5C 311.414,193.504 311.748,192.671 312.5,192C 314.5,191.833 316.5,191.667 318.5,191.5C 324.229,192.357 330.229,192.691 336.5,192.5C 340.03,196.153 340.03,199.653 336.5,203C 337.292,208.448 337.959,213.948 338.5,219.5C 329.318,219.827 320.318,219.493 311.5,218.5 Z"/></g>
<g><path style="opacity:1" fill="#050202" d="M 263.5,194.5 C 271.5,194.5 279.5,194.5 287.5,194.5C 287.5,202.5 287.5,210.5 287.5,218.5C 279.5,218.5 271.5,218.5 263.5,218.5C 263.5,210.5 263.5,202.5 263.5,194.5 Z"/></g>
<g><path style="opacity:1" fill="#020001" d="M 311.5,195.5 C 319.167,195.5 326.833,195.5 334.5,195.5C 334.5,202.833 334.5,210.167 334.5,217.5C 326.833,217.5 319.167,217.5 311.5,217.5C 311.5,210.167 311.5,202.833 311.5,195.5 Z"/></g>
<g><path style="opacity:1" fill="#7a6a5a" d="M 287.5,194.5 C 288.75,194.577 289.583,195.244 290,196.5C 290.5,204.159 290.666,211.826 290.5,219.5C 281.304,220.996 272.304,220.662 263.5,218.5C 271.5,218.5 279.5,218.5 287.5,218.5C 287.5,210.5 287.5,202.5 287.5,194.5 Z"/></g>
<g><path style="opacity:1" fill="#1d1310" d="M 311.5,195.5 C 311.5,195.167 311.5,194.833 311.5,194.5C 319.5,194.5 327.5,194.5 335.5,194.5C 335.5,202.5 335.5,210.5 335.5,218.5C 327.5,218.5 319.5,218.5 311.5,218.5C 311.5,218.167 311.5,217.833 311.5,217.5C 319.167,217.5 326.833,217.5 334.5,217.5C 334.5,210.167 334.5,202.833 334.5,195.5C 326.833,195.5 319.167,195.5 311.5,195.5 Z"/></g>
<g><path style="opacity:1" fill="#362410" d="M 383.5,218.5 C 383.5,226.5 383.5,234.5 383.5,242.5C 375.5,242.5 367.5,242.5 359.5,242.5C 359.5,234.5 359.5,226.5 359.5,218.5C 367.5,218.5 375.5,218.5 383.5,218.5 Z"/></g>
</svg>
