<svg width="14" height="14" viewBox="0 0 14 14" fill="none" xmlns="http://www.w3.org/2000/svg">
<path fill-rule="evenodd" clip-rule="evenodd" d="M10.9997 11.6668C10.9997 12.0342 10.701 12.3335 10.333 12.3335H3.66634C3.29834 12.3335 2.99967 12.0342 2.99967 11.6668V4.3335H10.9997V11.6668ZM5.66634 1.8855C5.66634 1.78216 5.80901 1.66683 5.99967 1.66683H7.99967C8.19034 1.66683 8.33301 1.78216 8.33301 1.8855V3.00016H5.66634V1.8855ZM12.9997 3.00016H12.333H9.66634V1.8855C9.66634 1.0295 8.91901 0.333496 7.99967 0.333496H5.99967C5.08034 0.333496 4.33301 1.0295 4.33301 1.8855V3.00016H1.66634H0.999674C0.633008 3.00016 0.333008 3.30016 0.333008 3.66683C0.333008 4.0335 0.633008 4.3335 0.999674 4.3335H1.66634V11.6668C1.66634 12.7695 2.56367 13.6668 3.66634 13.6668H10.333C11.4357 13.6668 12.333 12.7695 12.333 11.6668V4.3335H12.9997C13.3663 4.3335 13.6663 4.0335 13.6663 3.66683C13.6663 3.30016 13.3663 3.00016 12.9997 3.00016Z" fill="white"/>
<rect x="3" y="4" width="8" height="9" fill="white"/>
<rect x="4" y="6" width="2" height="5" fill="#F03B31"/>
<rect x="8" y="6" width="2" height="5" fill="#F03B31"/>
</svg>
