<svg width="16" height="9" viewBox="0 0 16 9" fill="none" xmlns="http://www.w3.org/2000/svg">
<g clip-path="url(#clip0_846_2734)">
<path d="M15.4458 0.453519C15.2977 0.370633 15.1305 0.327843 14.9608 0.329379C14.764 0.327217 14.5709 0.382838 14.4054 0.489353L12.5097 1.71028C12.366 1.80285 12.2477 1.92994 12.1657 2.07994C12.0838 2.22994 12.0406 2.39808 12.0403 2.56902L12.0403 6.47239C12.0403 6.64299 12.083 6.81087 12.1644 6.96079C12.2458 7.1107 12.3634 7.2379 12.5065 7.33082L14.3874 8.55206C14.545 8.64973 14.7253 8.70446 14.9105 8.7108C15.0958 8.71715 15.2794 8.67488 15.4433 8.58822C15.6121 8.49827 15.7532 8.36393 15.8513 8.19968C15.9494 8.03544 16.0008 7.84752 16 7.65621L16 1.36729C15.9821 0.991032 15.785 0.631411 15.4446 0.453519L15.4458 0.453519Z" fill="black"/>
<path d="M9.5319 9C9.91194 8.99924 10.2762 8.84802 10.5451 8.57941C10.8139 8.31081 10.9655 7.94667 10.9666 7.56663L10.9666 1.4748C10.9655 1.09499 10.8141 0.731042 10.5455 0.46247C10.2769 0.193898 9.913 0.04253 9.53318 0.0414323L1.43208 0.0414315C1.05226 0.0425292 0.688313 0.193897 0.419741 0.462469C0.15117 0.731041 -0.000197673 1.09499 -0.00129443 1.4748L-0.00129496 7.56663C-0.000198272 7.94644 0.151169 8.31039 0.419741 8.57896C0.688313 8.84753 1.05226 8.9989 1.43208 9L9.5319 9Z" fill="black"/>
</g>
<defs>
<clipPath id="clip0_846_2734">
<rect width="16" height="8.95857" fill="white" transform="translate(16 9) rotate(-180)"/>
</clipPath>
</defs>
</svg>
