<svg width="14" height="14" viewBox="0 0 14 14" fill="none" xmlns="http://www.w3.org/2000/svg">
<g clip-path="url(#clip0_668_19323)">
<path d="M7.75688 9.93708L12.0461 5.64782C12.2089 5.80982 12.4293 5.90076 12.6589 5.90076C12.8886 5.90076 13.1089 5.80982 13.2717 5.64782L14.0008 4.91954L9.08028 -0.000976562L8.352 0.729733C8.19 0.892528 8.09906 1.11285 8.09906 1.34251C8.09906 1.57218 8.19 1.7925 8.352 1.9553L4.06274 6.24294C3.47457 5.96556 2.81514 5.87641 2.17443 5.98764C1.53372 6.09887 0.942933 6.40506 0.482666 6.86445L7.13497 13.5172C7.59399 13.0569 7.89996 12.4664 8.01118 11.8259C8.12239 11.1855 8.03345 10.5263 7.75647 9.9383L7.75688 9.93708Z" fill="white"/>
<path d="M3.40557 10.5942L2.60097 9.79696C2.57854 9.77467 2.55129 9.75782 2.52133 9.7477C2.49137 9.73758 2.45949 9.73446 2.42813 9.73858C2.39678 9.74269 2.36678 9.75393 2.34045 9.77144C2.31411 9.78895 2.29214 9.81226 2.27621 9.83958L0.0292784 13.6868C0.00583072 13.7264 -0.0037665 13.7727 0.00199928 13.8184C0.00776506 13.8641 0.028566 13.9065 0.0611246 13.9391C0.0936832 13.9717 0.136149 13.9925 0.181831 13.9982C0.227514 14.004 0.273816 13.9944 0.313444 13.9709L4.16064 11.724C4.18796 11.7081 4.21127 11.6861 4.22878 11.6598C4.24628 11.6334 4.25753 11.6034 4.26164 11.5721C4.26576 11.5407 4.26264 11.5088 4.25252 11.4789C4.2424 11.4489 4.22555 11.4217 4.20326 11.3992L3.40557 10.5942Z" fill="white"/>
</g>
<defs>
<clipPath id="clip0_668_19323">
<rect width="14" height="14" fill="white"/>
</clipPath>
</defs>
</svg>
