<svg width="83" height="83" viewBox="0 0 83 83" fill="none" xmlns="http://www.w3.org/2000/svg">
<g clip-path="url(#clip0_1031_34733)">
<path d="M79.6444 40.789C79.3128 39.2124 78.8485 37.1408 78.2005 35.0846C77.6609 33.3414 76.957 31.6535 76.0983 30.0434C76.2258 29.5995 76.3483 29.125 76.4708 28.6046C76.9165 26.6322 77.1406 24.6162 77.1392 22.594C77.1438 19.9876 76.7796 17.3937 76.0575 14.8894C76.725 14.2085 77.1729 13.3429 77.3433 12.4046C77.4948 11.5687 77.4299 10.7079 77.1548 9.90411C76.8797 9.10033 76.4036 8.3803 75.7717 7.81247C75.6748 7.72573 75.5779 7.63899 75.4758 7.55735C75.5228 6.6794 75.3269 5.80547 74.9094 5.03167C74.492 4.25791 73.8724 3.61194 73.1167 3.16265C72.361 2.71336 71.4975 2.47759 70.6184 2.4805H70.4449C65.9446 2.70285 61.5716 4.04826 57.7247 6.39401C55.8696 7.48994 54.1084 8.73747 52.4591 10.1238C51.4393 10.9443 50.465 11.8198 49.5405 12.7464C48.6833 12.6138 47.821 12.5066 46.9536 12.4352C46.482 11.6804 45.8013 11.079 44.9942 10.7039C44.1871 10.3289 43.2884 10.1965 42.4074 10.3228C39.9057 10.6772 37.4696 11.3976 35.1774 12.4607C32.6959 13.3185 30.3334 14.4878 28.1463 15.9405L27.4779 16.3691L27.2381 16.2314C26.0443 15.5249 24.7912 14.924 23.493 14.4353C20.9653 13.4967 18.3081 12.9529 15.6149 12.823C15.1047 12.823 14.5945 12.7822 14.0842 12.7822C5.69596 12.7822 2.18554 16.3079 0.721163 19.2571C0.360374 19.9769 0.191037 20.7775 0.229465 21.5818C0.267892 22.3861 0.512789 23.167 0.940564 23.8492C1.31228 24.4417 1.80634 24.9479 2.38963 25.334C2.60577 26.5159 3.25992 27.5727 4.22138 28.2933C4.51584 30.4535 5.14773 32.5541 6.09395 34.5182C6.79683 35.9735 7.59983 37.3784 8.49716 38.7225C8.61451 38.896 8.72676 39.0746 8.84412 39.2328C9.18087 39.743 9.55334 40.3349 9.98705 40.9217C9.95643 41.0339 9.93092 41.1462 9.9003 41.2635C8.92491 45.3073 8.58069 49.4776 8.87983 53.6265C8.94955 54.5197 9.26803 55.3755 9.79919 56.0969C10.3303 56.8184 11.053 57.3766 11.8851 57.7084C12.2972 58.4649 12.9025 59.0986 13.6393 59.545C14.376 59.9913 15.218 60.2344 16.0793 60.2494C17.0259 62.4239 18.3374 64.4205 19.9571 66.1528C20.4265 66.6631 20.9163 67.1172 21.4214 67.5611L21.6 67.7243C22.2141 68.3268 22.9224 68.8249 23.6971 69.1989L23.942 69.4541C24.1206 69.6326 24.2941 69.8061 24.4522 69.9949C24.519 70.5605 24.5293 71.1314 24.4828 71.6991C24.4828 72.0001 24.4828 72.3012 24.4522 72.5971C24.4165 74.7248 24.6512 77.8321 27.1259 80.2251C28.888 81.8867 31.2302 82.7932 33.6518 82.7508C34.0851 82.7519 34.518 82.7246 34.9478 82.6692C37.652 82.3273 40.1777 80.9242 42.6727 78.3832C43.3105 77.7301 43.8769 77.077 44.4229 76.4443C46.2519 76.8222 48.1535 76.6132 49.8569 75.8473C50.825 76.5593 51.8815 77.1425 52.9999 77.5821C54.5031 78.1747 56.1038 78.481 57.7196 78.4852C58.7638 78.4866 59.8036 78.3493 60.8116 78.077C62.1695 77.6956 63.4379 77.0481 64.5434 76.1722C65.6488 75.2963 66.5691 74.2094 67.2508 72.9747C67.8854 71.8585 68.2892 70.6261 68.4382 69.3508C68.5872 68.0754 68.4784 66.7832 68.1182 65.5508C68.0346 65.2667 67.9358 64.9874 67.8223 64.714C69.6843 62.8214 71.1959 60.6136 72.2868 58.1931C72.9178 56.9074 73.4302 55.5667 73.8175 54.1878C74.5888 53.9197 75.2818 53.4648 75.8346 52.8639C76.3875 52.263 76.783 51.5346 76.9861 50.7437C77.0575 50.4529 77.1239 50.162 77.1698 49.8661C77.8243 49.5504 78.3984 49.0897 78.8485 48.5191C80.8894 45.9118 80.1802 42.9065 79.7924 41.3196C79.7261 41.1513 79.6801 40.9625 79.6444 40.789Z" fill="#A0B5C5"/>
<path d="M81.6705 38.2938C81.3389 36.7172 80.8745 34.6456 80.2316 32.5894C79.6899 30.8471 78.9861 29.1593 78.1295 27.5483C78.2519 27.1044 78.3744 26.6298 78.4968 26.1094C78.9479 24.1361 79.1721 22.1178 79.1652 20.0937C79.1737 17.4891 78.8112 14.8966 78.0886 12.3943C78.7553 11.7106 79.203 10.8437 79.3744 9.90431C79.5248 9.06796 79.4589 8.20705 79.183 7.40333C78.907 6.59962 78.4302 5.87978 77.7978 5.31219L77.507 5.05196C77.5397 4.39586 77.438 3.73999 77.2081 3.12461C76.9782 2.50923 76.625 1.94732 76.1701 1.47335C75.7153 0.999382 75.1684 0.623364 74.563 0.368358C73.9576 0.113352 73.3064 -0.0152656 72.6495 -0.00958536H72.471C67.9724 0.213182 63.6012 1.55859 59.7559 3.90393C57.9 4.99862 56.1387 6.24622 54.4902 7.63375C53.4693 8.45294 52.495 9.32852 51.5717 10.2564C50.7145 10.1237 49.8522 10.0166 48.9848 9.94512C48.5716 9.28407 47.997 8.73908 47.315 8.36149C46.633 7.98389 45.8661 7.78612 45.0866 7.78682C44.8681 7.78705 44.6499 7.80241 44.4335 7.83275C41.9334 8.18723 39.499 8.90757 37.2086 9.97064C34.7258 10.8253 32.3629 11.9948 30.1775 13.4504C29.953 13.5882 29.7336 13.7311 29.5091 13.879L29.2693 13.7413C28.0738 13.0348 26.8189 12.4338 25.5191 11.9453C22.991 11.007 20.3342 10.4615 17.641 10.3278C17.1308 10.3278 16.6205 10.2921 16.1409 10.2921C7.75265 10.2921 4.24222 13.8127 2.77785 16.767C2.41775 17.4868 2.24836 18.287 2.28588 19.091C2.3234 19.895 2.56657 20.6759 2.99215 21.3591C3.35761 21.9453 3.84271 22.4478 4.4157 22.8337C4.63183 24.0156 5.28599 25.0725 6.24745 25.793C6.54325 27.9552 7.17687 30.0575 8.12512 32.023C8.82517 33.4798 9.62828 34.8849 10.5283 36.2274L10.8702 36.7376C11.2069 37.2478 11.5845 37.8397 12.0131 38.4265C11.9876 38.5387 11.957 38.651 11.9315 38.7632C10.9588 42.8092 10.6146 46.9807 10.911 51.1314C10.9825 52.024 11.3016 52.879 11.8325 53.6001C12.3635 54.3213 13.0851 54.8799 13.9163 55.2132C14.3328 55.9524 14.9351 56.57 15.6635 57.0049C16.392 57.4398 17.2214 57.677 18.0696 57.693C19.0246 59.8632 20.3429 61.8545 21.9678 63.5811C22.4372 64.0913 22.9322 64.5506 23.4373 64.9945L23.6108 65.1526C24.2241 65.7573 24.9325 66.2572 25.7078 66.6323L25.9579 66.8874C26.1313 67.0609 26.3099 67.2395 26.4681 67.4232C26.5244 67.9916 26.5244 68.5641 26.4681 69.1325C26.4681 69.4335 26.4681 69.7295 26.4681 70.0305C26.4273 72.1582 26.6671 75.2655 29.1366 77.684C30.9021 79.3436 33.245 80.2496 35.6676 80.2097C36.101 80.2106 36.5339 80.1834 36.9636 80.1281C39.6679 79.7862 42.1936 78.383 44.6886 75.8421C45.3213 75.189 45.8928 74.5359 46.4387 73.9032C47.0261 74.0254 47.6246 74.0869 48.2245 74.0869C49.4767 74.0874 50.7147 73.8231 51.8574 73.3113C52.8262 74.0222 53.8826 74.6053 55.0005 75.0461C56.5053 75.6392 58.1078 75.9456 59.7253 75.9492C60.7593 75.9486 61.7886 75.8114 62.7867 75.541C64.1426 75.1617 65.41 74.5178 66.516 73.6464C67.622 72.7751 68.5447 71.6936 69.2309 70.4642C69.8711 69.3599 70.2835 68.1385 70.4439 66.8722C70.6042 65.6059 70.5093 64.3203 70.1647 63.0913C70.0779 62.78 69.9708 62.4994 69.8738 62.2494C72.0168 60.2085 73.4455 57.6267 74.3384 55.7337C74.9656 54.4462 75.4778 53.1059 75.8691 51.7283C76.6399 51.4594 77.3324 51.0043 77.8852 50.4035C78.4379 49.8027 78.8338 49.0748 79.0377 48.2842C79.1091 47.9934 79.1703 47.7026 79.2214 47.4066C79.8742 47.0881 80.4476 46.6279 80.9 46.0596C82.941 43.4523 82.2318 40.447 81.8389 38.8602C81.7572 38.651 81.7113 38.4673 81.6705 38.2938Z" fill="white"/>
<path d="M48.2241 60.1621C47.7965 60.1606 47.3797 60.2966 47.0353 60.5499C46.7477 60.7012 46.4402 60.8112 46.1219 60.8764C46.0695 60.8972 46.0184 60.921 45.9689 60.9479C45.546 61.2116 45.1953 61.5763 44.9484 62.0092C42.0043 67.1115 50.7906 71.1118 51.6937 65.3818C51.793 64.4876 51.6436 63.5833 51.2619 62.7685C50.8802 61.9538 50.281 61.2602 49.5303 60.7642C49.1489 60.4626 48.7011 60.2562 48.2241 60.1621Z" fill="#E5B4BE"/>
<path d="M43.6985 61.6162C43.0147 61.1825 42.3872 60.6671 41.7238 60.1977C39.3245 58.5148 36.6131 57.3283 33.7489 56.7077C32.0447 56.3403 29.7333 55.8454 28.5598 57.5241C27.5087 59.0548 28.0087 60.9682 29.07 62.3101C30.1313 63.652 31.3712 64.4378 31.7947 66.1369C32.1518 67.5757 31.9324 69.0656 31.9426 70.5249C31.9528 71.9842 32.2794 73.5863 33.7693 74.3313C34.4786 74.6324 35.2496 74.7598 36.0181 74.703C36.7867 74.6462 37.5305 74.4068 38.1879 74.0047C39.7186 73.1526 40.9126 71.7699 42.03 70.4331C42.7334 69.5086 43.5246 68.6542 44.3924 67.8819C43.6332 66.7171 43.2144 65.3635 43.1831 63.9735C43.171 63.1585 43.3474 62.3518 43.6985 61.6162Z" fill="#E5B4BE"/>
<path d="M20.1917 21.6954C18.86 21.323 17.4212 21.0117 16.1099 21.4812C16.6408 24.5486 17.6917 27.5028 19.2172 30.2164C19.2682 30.3082 19.3601 30.446 19.457 30.5991C20.9064 27.9276 22.6857 25.4488 24.7533 23.221C24.6751 23.2122 24.5991 23.1898 24.5288 23.1547C23.8892 22.7973 23.202 22.5327 22.4878 22.369C21.6918 22.1445 20.952 21.9097 20.1917 21.6954Z" fill="#E5B4BE"/>
<path d="M57.5666 53.2068C56.1864 54.1365 54.9163 55.2201 53.7807 56.4366C52.7602 57.5387 51.8673 58.7786 50.8774 59.9215C51.2927 60.2161 51.6623 60.5703 51.9744 60.9726C52.5953 61.7661 53.0074 62.7025 53.1731 63.6963C53.3389 64.6901 53.2531 65.7096 52.9235 66.6617C54.2807 67.9067 55.6584 69.1618 57.4238 69.7792C58.2043 70.076 59.0367 70.2127 59.8712 70.1811C60.7057 70.1496 61.5253 69.9504 62.2812 69.5955C62.8779 69.2773 63.4 68.8356 63.8126 68.2998C64.2252 67.764 64.5189 67.1464 64.6742 66.4882C65.0161 64.9269 64.0211 63.7738 63.8425 62.2839C63.664 60.794 64.5926 59.5439 65.21 58.202C65.8273 56.8601 66.256 55.1814 65.608 53.768C64.1283 50.5638 59.8423 51.7016 57.5666 53.2068Z" fill="#E5B4BE"/>
<path d="M70.2871 6.45392C70.5524 6.21922 70.7973 5.94369 71.032 5.70898C67.9555 6.13113 65.0011 7.19125 62.358 8.82143C60.7827 9.77149 59.2756 10.8302 57.8475 11.99C56.6587 12.9543 55.5311 14.0768 54.2759 15.0004C54.4136 14.8983 55.4239 15.3167 55.6076 15.3677C56.0464 15.5004 56.4852 15.6382 56.9189 15.7861C57.3526 15.9341 57.8271 16.1025 58.2761 16.2964C58.4241 16.3525 58.7047 16.526 58.8629 16.4852C59.0211 16.4443 59.2048 16.1841 59.3221 16.0872C60.7133 15.0543 62.2057 14.1654 63.7765 13.4339C65.3072 12.6329 66.8838 11.9492 68.4502 11.2246C68.5847 11.1707 68.7331 11.162 68.8729 11.1997C69.0128 11.2375 69.1367 11.3196 69.2258 11.4338C70.5524 13.138 70.8279 15.7198 70.8279 17.8016C70.8255 18.9478 70.7539 20.0928 70.6136 21.2303C70.5473 21.8171 70.4759 22.3988 70.3891 22.9856C70.3618 23.254 70.2727 23.5124 70.1289 23.7407C70.3891 23.9958 70.6391 24.2509 70.9096 24.4959C71.4515 25.0668 71.9625 25.6663 72.4403 26.2919C72.5321 25.9909 72.624 25.6898 72.6954 25.3786C72.8638 24.7 72.9964 24.0111 73.1087 23.3376C73.3363 21.9347 73.4269 20.5129 73.3791 19.0925C73.2758 16.2134 72.6192 13.3811 71.4453 10.7501C71.3801 10.5876 71.3692 10.4083 71.4142 10.2391C71.4593 10.0699 71.5579 9.91981 71.6953 9.81127C72.1271 9.45938 72.5919 9.1501 73.0832 8.88774C72.3397 8.39735 71.5106 8.05118 70.6391 7.86727C70.4827 7.84773 70.3359 7.7813 70.218 7.67671C70.1 7.57213 70.0165 7.43428 69.9784 7.28133C69.9403 7.12838 69.9494 6.96747 70.0045 6.81978C70.0596 6.6721 70.1581 6.54456 70.2871 6.45392Z" fill="#EFCA63"/>
<path d="M60.6945 18.6996C55.2382 15.9372 49.1446 14.678 43.0403 15.0514C42.9242 15.0621 42.8076 15.0353 42.7078 14.9749C42.608 14.9146 42.5301 14.8238 42.4856 14.716C42.4411 14.6082 42.4323 14.4889 42.4605 14.3757C42.4887 14.2626 42.5524 14.1614 42.6423 14.087L43.5506 13.1992C42.6601 13.3788 41.781 13.6105 40.9177 13.8931C39.5401 14.7146 38.0094 15.3065 36.5603 16.0157C35.013 16.7612 33.5195 17.6137 32.0907 18.5669C26.9051 22.0194 22.73 26.7878 19.993 32.3841C17.4843 37.6341 16.2601 43.4055 16.4213 49.2219L17.6204 48.2014C17.7383 48.1148 17.8789 48.0645 18.025 48.0568C18.1711 48.0491 18.3163 48.0843 18.4426 48.158C18.569 48.2318 18.671 48.3409 18.7361 48.4719C18.8013 48.6029 18.8267 48.7501 18.8092 48.8953C18.6407 49.7899 18.6012 50.704 18.6919 51.6098C19.2582 51.2016 19.8297 50.8036 20.4267 50.4413C20.4547 50.3095 20.5119 50.1857 20.594 50.0789C20.6761 49.972 20.781 49.8849 20.9012 49.8239C20.9796 49.7904 21.0657 49.7788 21.1502 49.7905C21.2347 49.8022 21.3144 49.8367 21.3808 49.8903L21.4522 49.9515C21.5212 50.0146 21.569 50.0975 21.5891 50.1889C21.6092 50.2802 21.6006 50.3755 21.5645 50.4617C21.6083 50.6896 21.6662 50.9146 21.738 51.1353C21.8094 51.4363 21.8655 51.7424 21.937 52.0435C22.0737 52.6143 22.2441 53.1765 22.4472 53.7272C22.8781 54.8859 23.4396 55.9918 24.1208 57.0234C24.709 57.9107 25.3749 58.7439 26.1107 59.5133C26.2791 59.6868 26.4628 59.8399 26.6209 60.0236C26.6186 60.0066 26.6186 59.9895 26.6209 59.9725C26.5167 59.1274 26.6495 58.27 27.0045 57.496C27.3595 56.722 27.9228 56.0619 28.6313 55.5896C30.3508 54.5385 32.6213 55.0233 34.4581 55.4723C36.3379 55.9175 38.1523 56.6035 39.8564 57.5132C41.3616 58.3245 43.1322 59.3245 44.2598 60.6818C44.9294 59.8647 45.8495 59.291 46.8778 59.0494C47.9062 58.8078 48.9855 58.9116 49.9489 59.345C50.7551 57.4469 52.2348 55.7733 53.6991 54.36C55.1867 52.8135 56.9568 51.5664 58.9137 50.6862C61.9241 49.4821 66.1285 50.1505 67.251 53.6252C67.5516 54.6184 67.5972 55.6712 67.3837 56.6866L67.45 56.6101C68.2367 55.5628 68.9202 54.4419 69.4909 53.2629C70.6961 50.8669 71.3911 48.2469 71.5319 45.5686C71.5467 45.4697 71.5839 45.3755 71.6406 45.2931C71.6973 45.2108 71.772 45.1424 71.859 45.0932C71.9461 45.0441 72.0432 45.0154 72.143 45.0093C72.2428 45.0033 72.3426 45.02 72.435 45.0583C72.9342 45.2861 73.4123 45.5576 73.8637 45.8696C74.0232 44.4909 73.7953 43.0951 73.2055 41.8388C73.1664 41.7397 73.1539 41.6322 73.1691 41.5269C73.1843 41.4215 73.2267 41.322 73.2921 41.238C73.3576 41.154 73.4437 41.0886 73.5422 41.0481C73.6406 41.0076 73.7479 40.9935 73.8535 41.0071C74.8278 41.0999 75.7771 41.3697 76.6547 41.803C76.6056 41.2552 76.503 40.7135 76.3485 40.1856C76.1546 39.2467 75.9556 38.3079 75.7362 37.3742C74.7521 33.3488 72.8944 29.5891 70.2949 26.3618C67.6955 23.1346 64.4179 20.5186 60.6945 18.6996ZM25.9576 48.2473C25.7234 48.4074 25.45 48.5009 25.1668 48.5177C25.097 48.5308 25.0298 48.5549 24.9678 48.5892C24.7024 48.7014 24.529 48.3902 24.6565 48.181C24.7841 47.9718 24.7484 47.8493 24.8759 47.6707C25.0232 47.4984 25.1951 47.3488 25.3862 47.2268C25.7329 47.0063 26.1003 46.82 26.4832 46.6707C27.2836 46.363 28.1271 46.1823 28.9833 46.1349C29.9585 46.0804 30.9367 46.1283 31.9019 46.2778C32.7591 46.4054 33.7999 46.5584 34.4888 47.1248C34.5201 47.1503 34.5444 47.1835 34.5591 47.2211C34.5739 47.2588 34.5787 47.2996 34.573 47.3396C34.5674 47.3797 34.5515 47.4176 34.5269 47.4497C34.5023 47.4817 34.4698 47.5069 34.4326 47.5228C33.6316 47.7575 32.7233 47.5534 31.9121 47.4411C31.0432 47.3052 30.163 47.2556 29.2844 47.2932C28.4841 47.3389 27.695 47.5022 26.9424 47.7779C26.6039 47.9119 26.2749 48.0688 25.9576 48.2473ZM35.1419 50.1607C34.8871 50.3997 34.5568 50.5423 34.2081 50.5638C33.8204 50.6505 33.4275 50.722 33.0346 50.7883C32.2733 50.9082 31.5307 51.126 30.8253 51.4363C30.2392 51.7 29.7038 52.0644 29.2435 52.5129C29.0205 52.7418 28.8094 52.9819 28.6108 53.2323L28.3251 53.5742C28.218 53.7068 28.0649 53.7885 27.9628 53.916C27.8608 54.0436 27.5496 54.013 27.5496 53.8038C27.5265 53.6157 27.5265 53.4255 27.5496 53.2374C27.5781 53.0626 27.626 52.8914 27.6924 52.7272C27.8474 52.3769 28.0614 52.0559 28.3251 51.7781C28.8523 51.2086 29.4802 50.7416 30.1773 50.4005C30.9848 50.0239 31.8451 49.7727 32.7285 49.6556C33.1911 49.5868 33.6596 49.5663 34.1265 49.5943C34.317 49.5759 34.5093 49.5953 34.6922 49.6513C34.8752 49.7074 35.0454 49.799 35.1929 49.9209C35.2119 49.9601 35.2182 50.0043 35.2109 50.0473C35.2036 50.0903 35.183 50.13 35.1521 50.1607H35.1419ZM36.5246 44.9155C36.5212 44.9409 36.5092 44.9643 36.4907 44.9819C36.4721 44.9996 36.4481 45.0103 36.4226 45.0124C36.0246 45.0737 35.6011 44.7573 35.2745 44.5583C34.8459 44.2981 34.4224 44.0226 33.9989 43.7521C33.1837 43.228 32.3061 42.8081 31.3865 42.5021C30.4385 42.1919 29.4572 41.9949 28.4629 41.9153C27.9526 41.8796 27.4424 41.8898 26.9679 41.8745C26.7357 41.8729 26.5039 41.8559 26.274 41.8235C26.0086 41.7877 25.7943 41.6653 25.5341 41.6245C25.4812 41.6156 25.4326 41.5899 25.3954 41.5513C25.3583 41.5126 25.3345 41.4631 25.3276 41.4099C25.3207 41.3567 25.3312 41.3027 25.3573 41.2559C25.3835 41.2091 25.424 41.172 25.4729 41.1499C25.7027 40.981 25.9468 40.8324 26.2025 40.706C26.4784 40.6106 26.7643 40.5473 27.0546 40.5173C27.591 40.4688 28.1306 40.4688 28.667 40.5173C29.755 40.6003 30.8273 40.8267 31.8559 41.1908C32.8834 41.5518 33.8607 42.0422 34.7643 42.65C35.2194 42.9539 35.6283 43.3216 35.9787 43.7419C36.2491 44.043 36.6113 44.492 36.5348 44.9155H36.5246ZM47.4998 45.7931C47.1554 46.1809 46.7201 46.4772 46.233 46.6553C45.7458 46.8334 45.2221 46.8878 44.7088 46.8136C44.1955 46.7485 43.7022 46.574 43.2621 46.3021C42.822 46.0301 42.4454 45.6669 42.1576 45.2369C42.1067 45.135 42.069 45.027 42.0454 44.9155C41.8555 44.7447 41.7075 44.5326 41.6128 44.2955C41.5182 44.0583 41.4793 43.8026 41.4994 43.5481C41.6117 42.747 42.3464 42.4766 43.0301 42.3184C43.6394 42.1824 44.2589 42.097 44.8823 42.0633C45.486 42.0301 46.0913 42.0403 46.6936 42.0939C47.0483 42.0883 47.3989 42.1707 47.7141 42.3337C47.9644 42.58 48.1244 42.9036 48.1682 43.2521C48.2601 43.6978 48.2486 44.1586 48.1345 44.5991C48.0204 45.0396 47.8067 45.4481 47.51 45.7931H47.4998ZM53.9236 42.798C53.8982 42.8011 53.8725 42.7958 53.8504 42.7829C53.8283 42.77 53.811 42.7502 53.8012 42.7266C53.7525 42.5107 53.7483 42.2873 53.7886 42.0698C53.829 41.8523 53.9131 41.6452 54.0359 41.4612C54.2751 40.9641 54.5863 40.5051 54.9594 40.0989C55.6821 39.2855 56.505 38.5671 57.4086 37.961C58.315 37.3512 59.2981 36.864 60.3322 36.5119C60.839 36.3283 61.3617 36.1916 61.8935 36.1037C62.1827 36.0646 62.4751 36.056 62.766 36.0782C63.045 36.1348 63.3183 36.2168 63.5824 36.3231C63.6353 36.332 63.6839 36.3576 63.7211 36.3963C63.7583 36.4349 63.7821 36.4845 63.7889 36.5377C63.7958 36.5908 63.7854 36.6448 63.7592 36.6916C63.733 36.7384 63.6925 36.7756 63.6436 36.7976C63.3987 36.9048 63.2201 37.0732 62.9803 37.1803C62.7405 37.2875 62.5415 37.3334 62.317 37.3997C61.8374 37.5375 61.3527 37.6497 60.8782 37.813C59.9338 38.1334 59.0325 38.5687 58.1943 39.109C57.3735 39.6327 56.6226 40.2585 55.9595 40.9714C55.6176 41.3438 55.2758 41.7112 54.939 42.0735C54.6686 42.3439 54.3471 42.7572 53.9339 42.798H53.9236ZM64.3478 49.3137C64.2202 49.2117 64.0518 49.1708 63.9141 49.0739L63.5314 48.8035C63.2754 48.6098 63.0097 48.4293 62.7354 48.2626C62.1791 47.9435 61.5713 47.7242 60.9394 47.6146C60.1791 47.4873 59.4053 47.4615 58.6382 47.5381C58.2402 47.5687 57.8423 47.5993 57.4443 47.6095C57.0962 47.6811 56.7339 47.6249 56.4238 47.4514C56.3911 47.4241 56.3681 47.3871 56.358 47.3458C56.3479 47.3045 56.3513 47.261 56.3677 47.2217C56.5309 46.8748 56.9698 46.7523 57.3116 46.6401C57.7589 46.4998 58.2184 46.4024 58.6841 46.3492C59.5631 46.247 60.4524 46.278 61.3221 46.4411C62.081 46.597 62.8043 46.8929 63.4549 47.3136C63.783 47.5212 64.0715 47.7855 64.3069 48.0942C64.4081 48.2314 64.4953 48.3785 64.5672 48.5331C64.6286 48.713 64.668 48.8998 64.6845 49.0892C64.7713 49.3137 64.4957 49.4209 64.3478 49.3137ZM65.9346 43.4001C65.8634 43.3926 65.7915 43.3926 65.7203 43.4001C65.4425 43.4525 65.1558 43.4314 64.8886 43.3389C64.5417 43.2475 64.1888 43.181 63.8324 43.1399C63.0333 43.064 62.2273 43.1035 61.4394 43.2572C60.5804 43.4404 59.7414 43.707 58.9342 44.0532C58.179 44.3695 57.3473 44.7879 56.5105 44.7624C56.3269 44.7624 56.2707 44.5175 56.3626 44.3899C56.8728 43.6705 57.8576 43.2623 58.6535 42.9256C59.5523 42.5431 60.4873 42.2525 61.4445 42.0582C62.2848 41.8949 63.1451 41.8605 63.9957 41.9561C64.4034 42.0032 64.8052 42.0921 65.1948 42.2214C65.4082 42.2924 65.6095 42.3957 65.7917 42.5276C65.955 42.65 65.9958 42.8235 66.1285 42.9511C66.1646 42.9887 66.1889 43.0363 66.1981 43.0876C66.2074 43.139 66.2013 43.192 66.1806 43.2399C66.1599 43.2879 66.1255 43.3286 66.0818 43.3571C66.038 43.3856 65.9868 43.4006 65.9346 43.4001Z" fill="#EFCA63"/>
<path d="M68.8992 22.5532C68.9605 22.1348 69.0217 21.7062 69.0727 21.2878C69.2003 20.2673 69.3023 19.2112 69.3329 18.1652C69.3682 17.1402 69.2981 16.1144 69.1238 15.1038C68.9491 14.2662 68.6839 13.4502 68.3329 12.6699C67.0165 13.2057 65.7205 13.818 64.45 14.4609C63.7016 14.8384 62.9584 15.233 62.2203 15.6446C61.909 15.813 61.608 16.0018 61.3069 16.1855C60.8662 16.3581 60.4715 16.6305 60.1538 16.9814C63.3368 18.3805 66.2862 20.2596 68.8992 22.5532Z" fill="#E5B4BE"/>
<path d="M18.6666 32.1442C18.5557 31.9937 18.4535 31.837 18.3604 31.6748C18.0798 31.2003 17.8094 30.7207 17.5543 30.236C17.0698 29.3072 16.6388 28.3515 16.2634 27.3735C15.4971 25.3643 14.963 23.2741 14.6714 21.1436C14.6567 20.9969 14.6888 20.8493 14.763 20.7219C14.8372 20.5945 14.9498 20.4939 15.0847 20.4343C16.8297 19.521 18.8094 19.9241 20.6055 20.4343C21.626 20.7252 22.5954 21.0415 23.5955 21.3477C24.2843 21.562 25.167 21.7507 25.3711 22.5365C26.4265 21.4502 27.5459 20.4279 28.7233 19.4751C27.9342 19.1643 27.1729 18.7871 26.4477 18.3475C25.5847 17.9021 24.6952 17.5102 23.7842 17.1739C21.9366 16.4774 20.0015 16.0395 18.0339 15.8728C15.1664 15.633 10.6151 15.7198 8.45166 18.1281C8.83562 18.1469 9.21001 18.2543 9.54551 18.442C9.88101 18.6296 10.1685 18.8924 10.3855 19.2098C10.5384 19.4371 10.6431 19.6934 10.6931 19.9628C10.7431 20.2323 10.7374 20.5091 10.6763 20.7762C10.6081 21.0021 10.4953 21.212 10.3446 21.3936L11.0794 21.5007C11.2681 21.5322 11.4374 21.635 11.5524 21.788C11.6673 21.9409 11.719 22.1322 11.6968 22.3222C11.4161 25.006 12.1509 27.5776 13.3346 29.9757C13.9659 31.2229 14.6802 32.4264 15.4725 33.578C15.9827 34.3332 16.6001 35.0577 17.0951 35.8383C17.5557 34.581 18.0802 33.3481 18.6666 32.1442Z" fill="#EFCA63"/>
<path d="M72.2055 6.66363C72.6044 6.22598 72.9694 5.75862 73.2974 5.26559C73.383 5.14959 73.4332 5.01122 73.4417 4.86728C73.4503 4.72333 73.4169 4.58 73.3456 4.45467C73.2743 4.32934 73.1681 4.2274 73.04 4.16122C72.9119 4.09503 72.7673 4.06746 72.6238 4.08183C68.8022 4.2882 65.092 5.44195 61.8273 7.43918C60.1665 8.42607 58.5882 9.54542 57.1076 10.7863C55.7351 11.9293 54.1941 13.2151 53.1737 14.7203C50.271 14.0752 47.2977 13.8042 44.3262 13.9141C44.7242 13.5161 45.1221 13.1232 45.515 12.7201C45.9079 12.317 45.4538 11.8221 45.0354 11.8833C42.8349 12.194 40.6955 12.8429 38.6932 13.8069C36.4379 14.4549 34.2592 15.7356 32.3458 16.9296C31.3103 17.5856 30.309 18.2941 29.3457 19.0522C28.7953 18.2983 28.0705 17.689 27.2333 17.2765C26.2418 16.6923 25.2023 16.1939 24.1259 15.7866C21.997 14.998 19.7603 14.5386 17.4929 14.4243C13.6865 14.2406 8.39538 14.7304 6.47689 18.598C6.4245 18.716 6.40433 18.8457 6.41843 18.974C6.43254 19.1023 6.48042 19.2245 6.55719 19.3283C6.63395 19.432 6.73686 19.5135 6.85542 19.5645C6.97397 19.6155 7.10393 19.6341 7.23204 19.6185C7.78309 19.5726 9.49749 19.4348 9.3138 20.4298C9.26788 20.7053 8.85459 20.94 8.69641 21.1543C8.50411 21.4231 8.42362 21.756 8.47191 22.083C8.49297 22.2395 8.56389 22.385 8.67418 22.4981C8.78447 22.6111 8.92824 22.6856 9.0842 22.7105L10.2475 22.884C10.1598 25.4575 10.7139 28.0123 11.8599 30.3182C12.4642 31.5953 13.1582 32.828 13.9365 34.0072C14.7019 35.1705 15.4672 36.5226 16.5438 37.4513C16.304 38.2166 16.0846 38.982 15.8958 39.7779C15.026 43.4156 14.7248 47.1661 15.0029 50.896C15.0183 51.0256 15.0675 51.1489 15.1456 51.2536C15.2237 51.3582 15.3279 51.4405 15.4478 51.4922C15.5677 51.5438 15.6991 51.5631 15.8287 51.548C15.9584 51.5329 16.0818 51.484 16.1867 51.4062L17.1663 50.5694C17.1488 51.4003 17.2258 52.2306 17.3959 53.0441C17.4123 53.1738 17.4623 53.297 17.5409 53.4014C17.6195 53.5059 17.7241 53.588 17.8443 53.6395C17.9644 53.6911 18.096 53.7104 18.2259 53.6954C18.3558 53.6805 18.4795 53.6318 18.5848 53.5543C19.2379 53.0849 19.891 52.6104 20.5288 52.1205C20.5288 52.2124 20.5696 52.2991 20.5849 52.3757C20.8049 53.4106 21.1139 54.4247 21.5084 55.4065C22.2991 57.4247 23.4642 59.2754 24.9423 60.8609C25.325 61.264 25.723 61.6467 26.1414 62.014C26.5259 62.419 26.9698 62.7631 27.4578 63.0345C27.6194 63.1009 27.7934 63.1322 27.968 63.1263C28.4783 63.7488 29.0701 64.2693 29.6008 64.8713C30.9223 66.3714 30.6212 68.3511 30.5804 70.1982C30.5498 71.8667 30.7437 73.5964 32.0091 74.8209C32.615 75.3523 33.3306 75.7434 34.1049 75.9665C34.8792 76.1897 35.6933 76.2393 36.489 76.1118C38.6013 75.8414 40.3667 74.4842 41.8107 73.0096C42.5863 72.2238 43.2904 71.3717 44.0149 70.5401C44.4741 70.0298 44.9334 69.5196 45.3875 69.0094C45.8185 69.3839 46.3222 69.6653 46.8671 69.8359C47.8043 70.1164 48.8043 70.1077 49.7364 69.8109C50.6685 69.5142 51.4894 68.9432 52.092 68.1726C53.4186 69.4073 54.8013 70.6166 56.5208 71.2799C58.1872 71.9586 60.0273 72.0856 61.7711 71.6422C64.8989 70.785 67.2103 67.4735 66.2459 64.2386C65.9857 63.3457 65.3683 62.4885 65.5112 61.5242C65.5955 61.0312 65.7683 60.5575 66.0214 60.1261C68.0879 58.6516 69.5624 56.1667 70.639 53.9421C71.6931 51.684 72.382 49.2729 72.68 46.7988C73.1159 47.0826 73.5303 47.3981 73.9198 47.7427C74.0175 47.8152 74.1321 47.8614 74.2527 47.8768C74.3733 47.8922 74.4958 47.8763 74.6086 47.8307C74.7213 47.7851 74.8204 47.7113 74.8963 47.6164C74.9723 47.5215 75.0226 47.4086 75.0424 47.2886C75.4312 45.7256 75.3441 44.0821 74.7924 42.5689C75.4379 42.8425 76.0383 43.2124 76.5731 43.6659C76.7365 43.789 76.9415 43.8434 77.1444 43.8177C77.3474 43.7919 77.5323 43.6881 77.6599 43.5282C78.6395 42.2883 77.9762 40.5331 77.6599 39.1554C77.2772 37.3645 76.8639 35.5838 76.3129 33.8235C75.681 31.774 74.7821 29.8165 73.6392 28.0017C73.6851 27.9048 73.7362 27.8129 73.777 27.7058C74.0711 26.8868 74.3131 26.05 74.5015 25.2005C74.8822 23.5266 75.0705 21.8147 75.0628 20.0981C75.0609 16.8639 74.4049 13.6635 73.1341 10.6894C73.6718 10.294 74.2583 9.96992 74.8791 9.72504C75.0039 9.66989 75.1124 9.58358 75.1942 9.47441C75.276 9.36524 75.3284 9.23688 75.3463 9.10164C75.3643 8.96639 75.3471 8.82881 75.2966 8.7021C75.246 8.57538 75.1638 8.46378 75.0577 8.37801C74.2265 7.62782 73.2579 7.04565 72.2055 6.66363ZM15.4723 33.5888C14.68 32.4372 13.9658 31.2337 13.3345 29.9865C12.1507 27.5986 11.416 25.027 11.6966 22.333C11.7189 22.143 11.6672 21.9517 11.5522 21.7987C11.4373 21.6458 11.2679 21.543 11.0792 21.5115L10.3445 21.4043C10.4952 21.2228 10.6079 21.0128 10.6761 20.787C10.7373 20.5198 10.743 20.243 10.693 19.9736C10.6429 19.7042 10.5382 19.4479 10.3853 19.2205C10.1629 18.9126 9.87305 18.6597 9.53788 18.481C9.2027 18.3024 8.83109 18.2028 8.4515 18.1899C10.6149 15.7815 15.1662 15.6948 18.0337 15.9346C20.0013 16.1013 21.9364 16.5392 23.7841 17.2357C24.6951 17.572 25.5846 17.9639 26.4475 18.4093C27.1728 18.8489 27.9341 19.2261 28.7232 19.5369C27.5458 20.4897 26.4264 21.512 25.3709 22.5983C25.1668 21.8125 24.2841 21.6237 23.5953 21.4094C22.5748 21.1033 21.6054 20.7869 20.6053 20.4961C18.8093 19.9859 16.8296 19.5624 15.0846 20.4961C14.9497 20.5556 14.8371 20.6563 14.7629 20.7837C14.6886 20.9111 14.6566 21.0587 14.6713 21.2054C14.9673 23.3151 15.5014 25.3845 16.2632 27.3741C16.6391 28.3469 17.0701 29.2974 17.5541 30.2212C17.8092 30.7059 18.0643 31.1856 18.3603 31.6601C18.4534 31.8222 18.5556 31.9789 18.6664 32.1295C18.0809 33.3417 17.5581 34.5832 17.1 35.8491C16.5898 35.0685 15.9826 34.3439 15.4723 33.5888ZM24.7535 23.2208C22.6878 25.4488 20.9102 27.9276 19.4624 30.5988C19.3654 30.4457 19.2736 30.308 19.2226 30.2161C17.6971 27.5025 16.6462 24.5483 16.1152 21.4809C17.4265 21.0115 18.8654 21.3227 20.1971 21.6952C20.9574 21.9095 21.7278 22.1442 22.4728 22.3687C23.1869 22.5324 23.8741 22.797 24.5137 23.1545C24.5888 23.1913 24.6702 23.2137 24.7535 23.2208ZM44.4129 67.897C43.5451 68.6693 42.754 69.5237 42.0505 70.4482C40.9331 71.7799 39.7545 73.1627 38.2085 74.0199C37.5511 74.422 36.8072 74.6614 36.0387 74.7182C35.2701 74.775 34.4992 74.6475 33.7898 74.3464C32.2999 73.6117 31.9683 72.0708 31.9632 70.5401C31.9581 69.0094 32.1724 67.5909 31.8152 66.152C31.3917 64.4529 30.1263 63.6008 29.0905 62.3253C28.0548 61.0497 27.5139 59.0495 28.5803 57.5392C29.7538 55.8606 32.0652 56.3555 33.7694 56.7229C36.6336 57.3434 39.345 58.53 41.7444 60.2129C42.4077 60.6823 43.0353 61.1976 43.719 61.6313C43.3674 62.372 43.1927 63.1842 43.2088 64.0039C43.2398 65.3877 43.6549 66.7356 44.4078 67.897H44.4129ZM51.6583 65.3816C50.7551 71.1115 41.9638 67.1317 44.9129 62.0089C45.1599 61.576 45.5105 61.2113 45.9334 60.9476C45.983 60.9208 46.0341 60.8969 46.0865 60.8762C46.4048 60.8109 46.7123 60.701 46.9998 60.5496C47.3443 60.2963 47.7611 60.1604 48.1887 60.1619C48.6585 60.259 49.099 60.4653 49.4745 60.7639C50.2279 61.258 50.8302 61.9508 51.2146 62.7657C51.5991 63.5806 51.7509 64.4859 51.6532 65.3816H51.6583ZM65.2152 58.2383C64.5978 59.5598 63.6845 60.7588 63.8478 62.3202C64.0111 63.8815 65.0213 64.9632 64.6795 66.5245C64.5242 67.1827 64.2305 67.8003 63.8178 68.3361C63.4052 68.8718 62.8832 69.3136 62.2865 69.6318C61.5305 69.9867 60.7109 70.1859 59.8764 70.2174C59.0419 70.249 58.2096 70.1123 57.429 69.8155C55.6636 69.1981 54.286 67.943 52.9288 66.698C53.2575 65.7466 53.3428 64.7281 53.177 63.7353C53.0113 62.7425 52.5997 61.8069 51.9797 61.014C51.6676 60.6117 51.298 60.2575 50.8827 59.9629C51.8726 58.8199 52.74 57.5801 53.7859 56.478C54.9215 55.2615 56.1917 54.1779 57.5719 53.2482C59.8476 51.743 64.1335 50.6051 65.6132 53.8298C66.2561 55.2024 65.8377 56.8861 65.2101 58.223L65.2152 58.2383ZM75.7261 37.4258C75.9455 38.3595 76.1445 39.2983 76.3384 40.2371C76.4929 40.765 76.5954 41.3068 76.6445 41.8546C75.7669 41.4212 74.8177 41.1515 73.8433 41.0586C73.7377 41.045 73.6305 41.0591 73.532 41.0996C73.4336 41.1401 73.3474 41.2056 73.282 41.2896C73.2166 41.3735 73.1742 41.4731 73.159 41.5784C73.1438 41.6838 73.1563 41.7913 73.1953 41.8903C73.7852 43.1466 74.0131 44.5425 73.8535 45.9212C73.4021 45.6092 72.924 45.3377 72.4249 45.1099C72.3325 45.0716 72.2326 45.0548 72.1328 45.0609C72.033 45.0669 71.9359 45.0956 71.8489 45.1448C71.7618 45.194 71.6871 45.2623 71.6304 45.3447C71.5738 45.4271 71.5366 45.5213 71.5217 45.6201C71.3809 48.2985 70.686 50.9185 69.4808 53.3145C68.9101 54.4935 68.2266 55.6144 67.4399 56.6616L67.3735 56.7382C67.5871 55.7227 67.5414 54.6699 67.2409 53.6768C66.1183 50.202 61.914 49.5336 58.9036 50.7378C56.9466 51.6179 55.1765 52.865 53.689 54.4115C52.2246 55.8351 50.7449 57.4984 49.9388 59.3965C48.9754 58.9632 47.896 58.8593 46.8677 59.1009C45.8393 59.3426 44.9192 59.9163 44.2496 60.7333C43.122 59.3761 41.3515 58.376 39.8463 57.5648C38.1422 56.655 36.3278 55.9691 34.448 55.5238C32.6112 55.0748 30.3406 54.5901 28.6211 55.6412C27.9126 56.1135 27.3494 56.7735 26.9944 57.5475C26.6394 58.3215 26.5066 59.179 26.6108 60.0241C26.6084 60.041 26.6084 60.0582 26.6108 60.0751C26.4373 59.9067 26.2536 59.7537 26.1006 59.5649C25.3648 58.7955 24.6989 57.9622 24.1106 57.0749C23.4295 56.0433 22.868 54.9375 22.4371 53.7788C22.234 53.2281 22.0636 52.6659 21.9268 52.095C21.8554 51.794 21.7993 51.4879 21.7278 51.1868C21.6561 50.9661 21.5981 50.7412 21.5544 50.5133C21.5905 50.427 21.599 50.3317 21.579 50.2404C21.5589 50.1491 21.5111 50.0662 21.4421 50.0031L21.3707 49.9418C21.3043 49.8882 21.2246 49.8537 21.1401 49.8421C21.0556 49.8304 20.9695 49.8419 20.891 49.8755C20.7709 49.9365 20.6659 50.0236 20.5838 50.1304C20.5017 50.2373 20.4446 50.3611 20.4165 50.4929C19.8196 50.8552 19.2481 51.2531 18.6817 51.6613C18.591 50.7556 18.6305 49.8414 18.7991 48.9469C18.8264 48.7984 18.8082 48.645 18.7469 48.507C18.6857 48.369 18.5842 48.2527 18.4557 48.1733C18.3272 48.0939 18.1778 48.0551 18.027 48.0621C17.8761 48.069 17.7309 48.1213 17.6102 48.2121L16.4112 49.2326C16.25 43.4162 17.4742 37.6449 19.9828 32.3948C22.7199 26.7985 26.8949 22.0301 32.0805 18.5776C33.5093 17.6244 35.0028 16.772 36.5502 16.0265C37.9993 15.3172 39.53 14.7254 40.9076 13.9039C41.7709 13.6213 42.65 13.3896 43.5404 13.2099L42.6322 14.0978C42.5423 14.1721 42.4786 14.2733 42.4504 14.3865C42.4222 14.4997 42.431 14.6189 42.4755 14.7267C42.52 14.8345 42.5979 14.9253 42.6977 14.9856C42.7975 15.046 42.914 15.0728 43.0302 15.0621C49.1345 14.6887 55.2281 15.9479 60.6843 18.7103C64.4096 20.5326 67.6879 23.1528 70.2867 26.3846C72.8854 29.6165 74.7407 33.3809 75.721 37.4104L75.7261 37.4258ZM60.1435 17.0163C60.4612 16.6654 60.8559 16.393 61.2966 16.2204C61.5977 16.0367 61.8987 15.8479 62.2099 15.6795C62.9447 15.2645 63.6879 14.8699 64.4397 14.4958C65.7102 13.8529 66.9908 13.2406 68.3226 12.7048C68.6834 13.4806 68.9588 14.2932 69.144 15.1284C69.3184 16.1391 69.3885 17.1649 69.3532 18.1899C69.3226 19.2358 69.2206 20.2767 69.093 21.3125C69.042 21.7309 68.9808 22.1595 68.9195 22.5779C66.296 20.2794 63.3342 18.3984 60.1384 17.001L60.1435 17.0163ZM71.6952 9.75055C71.5578 9.85909 71.4592 10.0092 71.4141 10.1784C71.3691 10.3476 71.38 10.5269 71.4452 10.6894C72.6191 13.3203 73.2756 16.1526 73.379 19.0317C73.4268 20.4522 73.3362 21.874 73.1086 23.2769C72.9963 23.9708 72.8637 24.6596 72.6953 25.3179C72.6238 25.6291 72.532 25.9301 72.4402 26.2312C71.9623 25.6056 71.4514 25.0061 70.9095 24.4351C70.6594 24.1749 70.3992 23.9249 70.1288 23.68C70.2726 23.4517 70.3616 23.1933 70.389 22.9248C70.4758 22.3381 70.5472 21.7564 70.6135 21.1696C70.7538 20.032 70.8254 18.887 70.8278 17.7408C70.8278 15.6591 70.5523 13.0773 69.2257 11.3731C69.1365 11.2589 69.0127 11.1767 68.8728 11.139C68.733 11.1013 68.5846 11.11 68.4501 11.1639C66.8837 11.8884 65.3071 12.5722 63.7764 13.3732C62.2056 14.1046 60.7132 14.9936 59.322 16.0265C59.2047 16.1234 59.0006 16.3887 58.8628 16.4244C58.725 16.4602 58.424 16.2918 58.276 16.2357C57.827 16.0622 57.3729 15.8989 56.9188 15.7254C56.4647 15.5519 56.0463 15.4397 55.6075 15.307C55.4238 15.256 54.4135 14.8376 54.2758 14.9397C55.5156 14.0161 56.6433 12.8987 57.8474 11.9293C59.2754 10.7695 60.7826 9.71076 62.3579 8.76069C65.001 7.13051 67.9554 6.07041 71.0319 5.64826C70.7921 5.90338 70.5523 6.15849 70.287 6.3932C70.1715 6.48775 70.0855 6.61342 70.0393 6.75533C69.993 6.89723 69.9884 7.04942 70.026 7.19386C70.0636 7.3383 70.1418 7.46893 70.2513 7.57029C70.3609 7.67165 70.4972 7.73948 70.6441 7.76574C71.5156 7.94965 72.3447 8.29582 73.0882 8.78621C72.5934 9.06121 72.1268 9.38421 71.6952 9.75055Z" fill="#D47939"/>
<path d="M47.755 42.3246C47.4398 42.1616 47.0892 42.0793 46.7345 42.0848C46.1322 42.0312 45.5269 42.021 44.9232 42.0542C44.2998 42.088 43.6803 42.1733 43.071 42.3093C42.3873 42.4675 41.6525 42.7379 41.5403 43.539C41.5202 43.7935 41.5591 44.0493 41.6537 44.2864C41.7484 44.5235 41.8964 44.7357 42.0862 44.9064C42.1099 45.0179 42.1476 45.1259 42.1985 45.2279C42.4863 45.6578 42.8629 46.021 43.303 46.293C43.7431 46.565 44.2364 46.7394 44.7497 46.8045C45.263 46.8787 45.7867 46.8244 46.2739 46.6463C46.761 46.4681 47.1963 46.1719 47.5407 45.784C47.8461 45.4415 48.0681 45.033 48.1894 44.5904C48.3106 44.1478 48.3279 43.6832 48.2397 43.2328C48.1854 42.884 48.0146 42.5639 47.755 42.3246Z" fill="#875226"/>
<path d="M34.7591 42.6809C33.8555 42.073 32.8782 41.5826 31.8507 41.2216C30.822 40.8576 29.7498 40.6311 28.6617 40.5481C28.1254 40.4996 27.5857 40.4996 27.0494 40.5481C26.7591 40.5781 26.4732 40.6415 26.1973 40.7369C25.9416 40.8633 25.6975 41.0118 25.4677 41.1808C25.4188 41.2028 25.3782 41.24 25.3521 41.2868C25.3259 41.3336 25.3155 41.3875 25.3224 41.4407C25.3292 41.4939 25.353 41.5435 25.3902 41.5821C25.4274 41.6208 25.476 41.6464 25.5289 41.6553C25.7891 41.6961 26.0034 41.8186 26.2687 41.8543C26.4986 41.8867 26.7305 41.9037 26.9627 41.9053C27.4729 41.9053 27.9831 41.9053 28.4576 41.9461C29.4524 42.0154 30.4355 42.2021 31.3864 42.5023C32.3113 42.8071 33.1941 43.2271 34.0141 43.7524C34.4376 44.0228 34.8611 44.2983 35.2897 44.5585C35.6163 44.7575 36.0398 45.0688 36.4377 45.0127C36.4632 45.0106 36.4873 44.9998 36.5058 44.9822C36.5244 44.9645 36.5364 44.9411 36.5398 44.9157C36.6163 44.4922 36.254 44.0432 35.9989 43.7422C35.6386 43.3308 35.2211 42.9734 34.7591 42.6809Z" fill="#D47939"/>
<path d="M29.274 47.3148C30.1526 47.2772 31.0329 47.3268 31.9017 47.4628C32.713 47.575 33.6212 47.7791 34.4223 47.5444C34.4595 47.5286 34.492 47.5034 34.5166 47.4713C34.5412 47.4392 34.557 47.4013 34.5627 47.3613C34.5683 47.3212 34.5635 47.2804 34.5488 47.2428C34.534 47.2051 34.5098 47.172 34.4784 47.1464C33.7896 46.5801 32.7487 46.427 31.8915 46.2994C30.9263 46.1499 29.9481 46.102 28.973 46.1566C28.1168 46.2039 27.2732 46.3847 26.4728 46.6923C26.089 46.8498 25.7215 47.0446 25.3758 47.274C25.1847 47.396 25.0128 47.5456 24.8656 47.7179C24.738 47.8761 24.7431 48.0598 24.6462 48.2281C24.5492 48.3965 24.6921 48.7384 24.9574 48.6363C25.0195 48.602 25.0867 48.5779 25.1564 48.5649C25.4396 48.548 25.713 48.4546 25.9473 48.2945C26.2618 48.1233 26.5873 47.9733 26.9218 47.8455C27.6753 47.5531 28.468 47.3743 29.274 47.3148Z" fill="#D47939"/>
<path d="M34.0857 49.5942C33.6188 49.5661 33.1503 49.5867 32.6876 49.6554C31.8043 49.7726 30.944 50.0238 30.1365 50.4004C29.4394 50.7414 28.8114 51.2085 28.2843 51.778C28.0209 52.0607 27.8086 52.387 27.6567 52.7423C27.5903 52.9066 27.5424 53.0777 27.5138 53.2526C27.4908 53.4407 27.4908 53.6308 27.5138 53.8189C27.5138 54.0281 27.8149 54.074 27.9271 53.9312C28.0394 53.7883 28.1822 53.722 28.2894 53.5893L28.5751 53.2475C28.7736 52.997 28.9848 52.7569 29.2078 52.528C29.6681 52.0795 30.2035 51.7151 30.7896 51.4514C31.495 51.1412 32.2376 50.9234 32.9989 50.8035C33.3918 50.7371 33.7846 50.6657 34.1724 50.5789C34.5211 50.5574 34.8513 50.4148 35.1062 50.1759C35.1307 50.1407 35.1439 50.0988 35.1439 50.0559C35.1439 50.013 35.1307 49.9712 35.1062 49.936C34.8222 49.6958 34.457 49.5734 34.0857 49.5942Z" fill="#D47939"/>
<path d="M58.2046 39.1092C59.0427 38.5689 59.9441 38.1337 60.8884 37.8132C61.3629 37.6499 61.8477 37.5377 62.3273 37.3999C62.5518 37.3336 62.7712 37.2673 62.9906 37.1805C63.21 37.0938 63.409 36.905 63.6539 36.7978C63.7028 36.7758 63.7433 36.7387 63.7695 36.6919C63.7956 36.645 63.806 36.5911 63.7992 36.5379C63.7923 36.4847 63.7685 36.4351 63.7314 36.3965C63.6942 36.3579 63.6455 36.3322 63.5927 36.3233C63.3285 36.2171 63.0553 36.1351 62.7763 36.0784C62.4854 36.0562 62.1929 36.0648 61.9038 36.1039C61.3719 36.1918 60.8493 36.3285 60.3425 36.5121C59.3083 36.8642 58.3253 37.3515 57.4188 37.9612C56.5153 38.5673 55.6923 39.2857 54.9697 40.0991C54.5966 40.5053 54.2854 40.9644 54.0462 41.4614C53.9233 41.6454 53.8392 41.8525 53.7989 42.07C53.7585 42.2875 53.7628 42.511 53.8114 42.7268C53.8213 42.7504 53.8386 42.7702 53.8607 42.7831C53.8828 42.796 53.9085 42.8013 53.9339 42.7982C54.337 42.7574 54.6686 42.3441 54.9544 42.0737C55.3064 41.7114 55.6483 41.344 55.9748 40.9716C56.6364 40.259 57.3856 39.6333 58.2046 39.1092Z" fill="#D47939"/>
<path d="M65.7968 42.513C65.6146 42.381 65.4132 42.2778 65.1998 42.2068C64.8102 42.0775 64.4085 41.9886 64.0007 41.9415C63.1501 41.8458 62.2898 41.8803 61.4496 42.0435C60.4924 42.2379 59.5573 42.5285 58.6586 42.9109C57.8626 43.2477 56.8931 43.6559 56.3676 44.3753C56.2758 44.5029 56.3319 44.7427 56.5156 44.7478C57.3524 44.7733 58.184 44.3549 58.9392 44.0386C59.7464 43.6923 60.5855 43.4258 61.4445 43.2426C62.2324 43.0889 63.0383 43.0494 63.8375 43.1252C64.1938 43.1664 64.5468 43.2329 64.8936 43.3242C65.1608 43.4168 65.4475 43.4379 65.7253 43.3855C65.7966 43.3779 65.8684 43.3779 65.9396 43.3855C65.9955 43.3907 66.0517 43.3781 66.1 43.3494C66.1483 43.3207 66.1862 43.2774 66.2083 43.2258C66.2305 43.1742 66.2356 43.1169 66.2231 43.0621C66.2106 43.0074 66.181 42.958 66.1386 42.9211C66.0009 42.8089 65.96 42.6354 65.7968 42.513Z" fill="#D47939"/>
<path d="M64.6031 48.5435C64.5312 48.3889 64.444 48.2419 64.3429 48.1047C64.1074 47.796 63.8189 47.5316 63.4908 47.324C62.8402 46.9033 62.1169 46.6075 61.358 46.4515C60.4883 46.2884 59.599 46.2575 58.7201 46.3597C58.2544 46.4128 57.7948 46.5102 57.3475 46.6505C57.0057 46.7628 56.5669 46.8852 56.4036 47.2322C56.3872 47.2715 56.3838 47.3149 56.3939 47.3562C56.404 47.3976 56.4271 47.4346 56.4597 47.4618C56.7698 47.6354 57.1321 47.6915 57.4802 47.62C57.8782 47.62 58.2762 47.5792 58.6741 47.5486C59.4412 47.472 60.215 47.4977 60.9753 47.6251C61.6072 47.7346 62.2151 47.9539 62.7713 48.2731C63.0332 48.4375 63.287 48.6146 63.5316 48.8037L63.8939 49.064C64.0316 49.1609 64.2 49.2017 64.3276 49.3038C64.4551 49.4058 64.751 49.3038 64.7 49.0895C64.6893 48.9043 64.6568 48.721 64.6031 48.5435Z" fill="#D47939"/>
<path d="M70.8226 17.7608C70.8201 18.907 70.7486 20.052 70.6083 21.1895C70.5419 21.7763 70.4705 22.358 70.3838 22.9448C70.3564 23.2132 70.2673 23.4716 70.1235 23.6999C70.3838 23.955 70.6338 24.2101 70.9042 24.4551C71.4461 25.026 71.9571 25.6255 72.4349 26.2511C72.5267 25.95 72.6186 25.649 72.69 25.3378C72.8584 24.6592 72.991 23.9703 73.1033 23.2968C73.3309 21.8939 73.4215 20.4721 73.3737 19.0517C73.3181 17.5767 73.1199 16.1106 72.7819 14.6738C72.125 15.07 71.4225 15.3852 70.6899 15.6127C70.7748 16.3256 70.8191 17.0428 70.8226 17.7608Z" fill="#E1A159"/>
<path d="M55.6024 15.3477C56.0412 15.4804 56.48 15.6182 56.9137 15.7661C57.3474 15.9141 57.8219 16.0825 58.2709 16.2764C58.4189 16.3325 58.6995 16.506 58.8577 16.4651C59.0159 16.4243 59.1996 16.1641 59.3169 16.0672C59.8314 15.6523 60.3753 15.2754 60.9446 14.9395C60.469 14.9129 60.0146 14.734 59.6486 14.4293C58.9495 13.8476 58.5107 12.5772 58.4801 11.4648C58.2658 11.6332 58.0413 11.8016 57.827 11.9751C56.6382 12.9394 55.5106 14.0619 54.2554 14.9855C54.4084 14.8783 55.4187 15.2967 55.6024 15.3477Z" fill="#E1A159"/>
<path d="M13.3342 29.9858C13.9655 31.233 14.6797 32.4364 15.4721 33.5881C15.9823 34.3432 16.5997 35.0677 17.0946 35.8484C17.5549 34.5876 18.0794 33.3512 18.6661 32.1441C18.5553 31.9935 18.4531 31.8368 18.36 31.6747C18.0794 31.2002 17.8089 30.7205 17.5538 30.2358C17.0693 29.3071 16.6383 28.3514 16.2629 27.3734C15.9313 26.5111 15.6557 25.6284 15.4108 24.7406C14.1607 24.511 12.8954 24.164 11.6504 23.8477C11.7649 25.9908 12.3391 28.0842 13.3342 29.9858Z" fill="#E1A159"/>
<path d="M23.7329 21.419C24.4013 21.6179 25.1922 21.8323 25.3861 22.5721C26.4415 21.4858 27.5609 20.4635 28.7383 19.5107C27.9492 19.1999 27.1879 18.8227 26.4627 18.3831C25.9524 18.1279 25.4422 17.8728 24.932 17.6738C24.6092 18.9455 24.2088 20.1963 23.7329 21.419Z" fill="#E1A159"/>
<path d="M33.4273 55.2425C32.5566 54.0019 31.7724 52.7028 31.0802 51.3545C30.9986 51.3902 30.9169 51.4157 30.8353 51.4566C30.2492 51.7203 29.7139 52.0846 29.2536 52.5331C29.0306 52.762 28.8194 53.0022 28.6209 53.2526L28.3352 53.5944C28.228 53.7271 28.0749 53.8087 27.9729 53.9363C27.8708 54.0639 27.5596 54.0332 27.5596 53.824C27.5366 53.636 27.5366 53.4458 27.5596 53.2577C27.5881 53.0828 27.6361 52.9117 27.7025 52.7474C27.8523 52.3907 28.0629 52.0627 28.3249 51.778C28.8521 51.2085 29.48 50.7414 30.1771 50.4004C30.2996 50.3391 30.4322 50.2881 30.5598 50.232C30.1159 49.288 29.7077 48.3084 29.3352 47.3134H29.2944C28.4942 47.3592 27.705 47.5225 26.9524 47.7982C26.6179 47.926 26.2924 48.076 25.9779 48.2472C25.7436 48.4073 25.4702 48.5007 25.187 48.5176C25.1173 48.5306 25.0501 48.5547 24.988 48.589C24.7227 48.7013 24.5492 48.39 24.6768 48.1808C24.8043 47.9716 24.7686 47.8492 24.8962 47.6706C25.0434 47.4983 25.2153 47.3487 25.4064 47.2267C25.7531 47.0061 26.1205 46.8199 26.5034 46.6705C27.286 46.3783 28.1083 46.2063 28.9423 46.1603C28.4688 44.7643 28.0921 43.3374 27.8147 41.8896C27.5392 41.8896 27.2586 41.8896 26.983 41.8896C26.7508 41.8881 26.519 41.871 26.2891 41.8386C26.0238 41.8029 25.8095 41.6804 25.5493 41.6396C25.4964 41.6307 25.4478 41.6051 25.4106 41.5664C25.3734 41.5278 25.3496 41.4782 25.3427 41.425C25.3359 41.3719 25.3463 41.3179 25.3725 41.2711C25.3986 41.2243 25.4391 41.1871 25.488 41.1651C25.7178 40.9961 25.962 40.8476 26.2177 40.7212C26.4935 40.6258 26.7794 40.5625 27.0698 40.5324C27.2391 40.5121 27.4095 40.5019 27.58 40.5018C27.3615 39.0157 27.2932 37.5114 27.3759 36.0117C26.5354 36.3195 25.7626 36.7874 25.1003 37.3893C24.9523 34.4759 26.7483 31.2665 27.9474 28.7153C27.0494 28.7766 26.3452 29.6695 25.5033 29.9807C25.1003 29.098 26.6871 26.6591 27.1565 25.8019C28.5728 23.3489 30.3709 21.1374 32.4834 19.2504C33.798 18.0502 35.1981 16.9469 36.6724 15.9492L36.5755 15.9952C35.0281 16.7407 33.5346 17.5931 32.1058 18.5463C26.9202 21.9988 22.7452 26.7672 20.0081 32.3635C17.4995 37.6136 16.2752 43.3849 16.4365 49.2013L17.6355 48.1808C17.7534 48.0942 17.8941 48.0439 18.0402 48.0362C18.1863 48.0285 18.3314 48.0637 18.4578 48.1375C18.5841 48.2112 18.6862 48.3203 18.7513 48.4513C18.8164 48.5823 18.8418 48.7295 18.8244 48.8748C18.6558 49.7693 18.6163 50.6834 18.707 51.5892C19.2734 51.181 19.8448 50.783 20.4418 50.4208C20.4698 50.289 20.527 50.1651 20.6091 50.0583C20.6912 49.9515 20.7962 49.8644 20.9163 49.8034C20.9947 49.7698 21.0808 49.7582 21.1653 49.7699C21.2499 49.7816 21.3296 49.8161 21.3959 49.8697L21.4674 49.9309C21.5363 49.9941 21.5841 50.077 21.6042 50.1683C21.6243 50.2596 21.6157 50.3549 21.5796 50.4412C21.6234 50.6691 21.6813 50.894 21.7531 51.1147C21.8245 51.4157 21.8807 51.7219 21.9521 52.0229C22.0889 52.5937 22.2592 53.156 22.4623 53.7067C22.8933 54.8654 23.4547 55.9712 24.1359 57.0028C24.7241 57.8901 25.3901 58.7234 26.1258 59.4928C26.2942 59.6662 26.4779 59.8193 26.6361 60.003C26.6337 59.9861 26.6337 59.9689 26.6361 59.952C26.5318 59.1069 26.6647 58.2494 27.0197 57.4754C27.3747 56.7014 27.9379 56.0414 28.6464 55.5691C30.0495 54.7425 31.8252 54.9261 33.4273 55.2425Z" fill="#E1A159"/>
<path d="M59.0871 67.959C58.5412 67.0507 58.332 66.367 58.7606 65.4078C58.9749 64.923 60.1586 64.0046 59.929 63.4485C59.4749 62.3259 56.5411 63.423 56.4084 61.5351C56.3217 60.2646 58.0054 59.2237 58.2401 57.9634C57.2503 57.3409 54.893 58.8155 54.296 57.6216C54.0052 57.045 54.4746 56.0449 55.1175 55.1367C54.6532 55.5551 54.2042 55.9837 53.7807 56.4327C52.7602 57.5348 51.8673 58.7747 50.8774 59.9176C51.2927 60.2123 51.6623 60.5664 51.9744 60.9687C52.5961 61.7628 53.0087 62.7001 53.1745 63.6949C53.3403 64.6897 53.254 65.7102 52.9235 66.6629C54.2807 67.9079 55.6584 69.1631 57.4238 69.7805C58.6359 70.2195 59.9498 70.2957 61.2046 69.9999C60.3535 69.4886 59.6294 68.7907 59.0871 67.959Z" fill="#D6838D"/>
<path d="M43.6987 61.6169C43.015 61.1832 42.3874 60.6678 41.7241 60.1984C40.943 59.6518 40.1265 59.1575 39.2801 58.7188C39.5501 59.0394 39.7703 59.3989 39.9332 59.7851C40.4434 61.2291 39.3923 61.7444 38.479 62.7037C38.9892 63.5405 40.321 63.4793 40.6781 64.561C41.0353 65.6427 40.0607 66.3111 39.8005 67.2091C43.7191 68.7398 39.3617 71.8369 38.78 73.6431C40.0076 72.7319 41.1016 71.6533 42.0302 70.4389C42.7337 69.5144 43.5248 68.66 44.3926 67.8877C43.6334 66.7229 43.2146 65.3693 43.1834 63.9793C43.1705 63.1626 43.3469 62.354 43.6987 61.6169Z" fill="#D6838D"/>
<path d="M49.2907 65.6877C47.6171 65.7489 45.4078 65.4275 44.3159 64.0039C44.2036 68.0297 50.8724 70.3359 51.653 65.3815C51.653 65.3458 51.653 65.3101 51.653 65.2744C50.8923 65.5359 50.095 65.6754 49.2907 65.6877Z" fill="#D6838D"/>
<path d="M64.2561 54.56C63.7714 53.3813 62.006 52.121 60.8886 53.2793C60.8267 53.3599 60.784 53.4537 60.7638 53.5533C60.7436 53.653 60.7464 53.7559 60.772 53.8543C60.7976 53.9527 60.8453 54.044 60.9115 54.1212C60.9776 54.1984 61.0605 54.2594 61.1539 54.2997C61.2816 54.3657 61.417 54.4154 61.557 54.4477H61.6335L61.7611 54.4987L61.8019 54.5243L61.8988 54.5957L62.0366 54.7028C62.0621 54.7028 62.0621 54.7028 62.0621 54.7028C62.0703 54.7194 62.0806 54.7348 62.0927 54.7488C62.1233 54.7845 62.2254 54.9325 62.2407 54.9478C62.2816 55.027 62.3174 55.1088 62.3478 55.1927V55.2284C62.3478 55.2998 62.3478 55.3712 62.3785 55.4478C62.381 55.4886 62.381 55.5295 62.3785 55.5702C62.3749 55.6399 62.3749 55.7098 62.3785 55.7794C62.3655 55.9098 62.3451 56.0392 62.3172 56.1672C62.3172 56.1672 62.3172 56.2642 62.2866 56.305L62.2407 56.4427C62.1349 56.7429 62.014 57.0375 61.8784 57.3255C61.5927 57.9326 61.159 58.698 61.3682 59.3664C61.4377 59.6752 61.6061 59.9529 61.8478 60.1573C61.9756 60.243 62.1241 60.2925 62.2777 60.3006C62.4313 60.3087 62.5843 60.275 62.7203 60.2032C63.4398 59.9226 63.6643 59.1827 63.9347 58.5296C64.4194 57.3357 64.7868 55.8356 64.2561 54.56Z" fill="#EDD0DC"/>
<path d="M63.4139 61.6524C63.3829 61.5945 63.3489 61.5383 63.3119 61.484V61.4585L63.2557 61.3922L63.1333 61.2646L62.9802 61.1779C62.9204 61.1561 62.859 61.1391 62.7965 61.1268H62.7098C62.6369 61.1192 62.5633 61.1192 62.4904 61.1268C62.3457 61.147 62.2142 61.2219 62.123 61.336C62.0338 61.4522 61.9935 61.5987 62.0108 61.7442C62.0136 61.7662 62.0136 61.7885 62.0108 61.8105C62.0026 61.8905 62.0149 61.9713 62.0465 62.0453C62.0594 62.1452 62.0942 62.241 62.1485 62.3259V62.3718V62.4228C62.1936 62.5296 62.2657 62.6228 62.3577 62.6933C62.3814 62.7115 62.407 62.7269 62.4343 62.7392C62.4343 62.7392 62.4343 62.7392 62.47 62.7647C62.5288 62.8066 62.5972 62.8329 62.669 62.8412H62.8118C62.8665 62.8337 62.9198 62.8182 62.97 62.7953H63.0159C63.0971 62.7646 63.1691 62.7137 63.2251 62.6473C63.2703 62.6129 63.3055 62.5671 63.3272 62.5147C63.3479 62.4929 63.3636 62.4667 63.3731 62.4381C63.3854 62.4052 63.394 62.371 63.3986 62.3361C63.4199 62.2839 63.4337 62.2289 63.4394 62.1728C63.4472 62.0829 63.4472 61.9924 63.4394 61.9024C63.4414 61.894 63.4414 61.8853 63.4394 61.8769L63.4139 61.6524Z" fill="#EDD0DC"/>
<path d="M32.2286 60.9221C32.0436 60.6885 31.8908 60.431 31.7745 60.1567C31.7337 60.0649 31.6979 59.9679 31.6622 59.871C31.6622 59.871 31.6367 59.7944 31.6265 59.7536C31.6163 59.7128 31.6265 59.6669 31.6265 59.6567C31.6265 59.6465 31.6265 59.4934 31.5959 59.4118C31.5653 59.3301 31.5959 59.3659 31.5959 59.3505C31.5959 59.3352 31.5959 59.2128 31.5959 59.1413C31.5959 59.0699 31.5959 59.0189 31.5959 58.9577V58.8811C31.5959 58.8811 31.5959 58.7689 31.5959 58.7536C31.6595 58.5236 31.7396 58.2985 31.8357 58.0801C31.9326 57.7637 31.8 57.2688 31.3765 57.2637C30.9844 57.2986 30.6118 57.4498 30.3063 57.698C30.0008 57.9462 29.7765 58.28 29.6621 58.6566C29.4025 59.5034 29.4811 60.4178 29.8815 61.2078C30.2913 61.9683 30.7659 62.6921 31.3 63.3712C31.5305 63.6829 31.7304 64.0161 31.8969 64.3661C32.0302 64.6721 32.2435 64.9365 32.5143 65.1315C32.5945 65.1862 32.6822 65.2291 32.7745 65.2591L32.9786 65.3203C32.8919 65.2897 32.8868 65.3203 32.9786 65.3203C33.0619 65.3554 33.1531 65.3678 33.2427 65.3561C33.3324 65.3445 33.4173 65.3092 33.4889 65.254C35.0808 64.009 33.0297 62.0344 32.2286 60.9221Z" fill="#EDD0DC"/>
<path d="M34.6875 67.2792L34.6416 67.116C34.5801 66.897 34.4472 66.7048 34.264 66.57C34.1414 66.49 34.0116 66.4217 33.8763 66.3659C33.7826 66.3291 33.6813 66.3164 33.5814 66.3289C33.4816 66.3413 33.3865 66.3786 33.3048 66.4373C33.2277 66.4972 33.1678 66.5764 33.1313 66.667C33.1034 66.7259 33.0894 66.7905 33.0905 66.8557V67.0496C33.0698 67.2096 33.0872 67.3722 33.1415 67.5241C33.1623 67.5622 33.181 67.6014 33.1977 67.6415C33.2283 67.718 33.2589 67.7946 33.2844 67.8711C33.2939 67.9126 33.3059 67.9535 33.3201 67.9936C33.35 68.0629 33.3859 68.1294 33.4273 68.1926L33.5038 68.315C33.5531 68.3782 33.6136 68.4319 33.6824 68.4732L33.7283 68.5293C33.7708 68.5834 33.825 68.6272 33.8869 68.6573C33.9488 68.6873 34.0167 68.703 34.0855 68.703C34.1543 68.703 34.2222 68.6873 34.284 68.6573C34.3459 68.6272 34.4001 68.5834 34.4426 68.5293C34.4732 68.4885 34.4936 68.4426 34.5192 68.4018C34.6791 68.2413 34.7722 68.0261 34.7794 67.7997C34.7844 67.6218 34.7532 67.4447 34.6875 67.2792Z" fill="#EDD0DC"/>
<path d="M49.6124 62.855C49.6518 62.7918 49.6781 62.7212 49.6895 62.6475C49.7009 62.5739 49.6972 62.4986 49.6787 62.4264L49.6328 62.2733C49.6073 62.2121 49.5817 62.156 49.5511 62.0948C49.4802 61.9394 49.3715 61.8043 49.2348 61.7019L48.9133 61.508C48.7927 61.4436 48.6663 61.3907 48.5358 61.3498C48.3737 61.2862 48.198 61.2651 48.0255 61.2886C47.9133 61.2886 47.7959 61.3447 47.6888 61.3804C47.5895 61.4188 47.5029 61.4842 47.4388 61.5692C47.3669 61.6662 47.3248 61.782 47.3175 61.9025C47.3103 62.023 47.3382 62.143 47.3979 62.2478C47.4592 62.3498 47.5475 62.4329 47.6531 62.4877L47.6173 62.4621L47.8112 62.5897C47.882 62.6282 47.9575 62.6574 48.0357 62.6764C48.1761 62.7193 48.3112 62.7775 48.4388 62.8499C48.534 62.9199 48.644 62.967 48.7603 62.9877L48.8674 63.0234C49.0093 63.0898 49.1701 63.1043 49.3215 63.0642H49.3572C49.4014 63.07 49.4463 63.0612 49.485 63.0391C49.5237 63.0169 49.5541 62.9828 49.5715 62.9418V62.9163C49.5865 62.8968 49.6001 62.8763 49.6124 62.855Z" fill="#EDD0DC"/>
<path d="M75.7209 37.4107C74.7431 33.3802 72.8899 29.6144 70.293 26.3808C67.696 23.1471 64.4189 20.5249 60.6944 18.7003C55.7116 16.1842 50.1933 14.9132 44.6118 14.996C47.9641 15.6644 51.3163 16.2971 54.49 17.8992C57.6636 19.5014 60.9343 21.2413 64.0314 23.0016C65.6427 23.8287 67.0029 25.0726 67.9704 26.6039C68.9603 28.2366 70.1695 29.8439 71.0318 31.5327C72.7717 34.8952 74.8484 38.0178 76.0985 41.5997C76.2726 41.6707 76.4429 41.7507 76.6087 41.8395C76.5596 41.2917 76.4571 40.7499 76.3026 40.2221C76.1393 39.2832 75.9403 38.3444 75.7209 37.4107Z" fill="#FBE668"/>
<path d="M43.5508 13.1836L43.4487 13.2091V13.2754L43.5508 13.1836Z" fill="#FBE668"/>
<path d="M71.6952 9.75093C72.127 9.39904 72.5918 9.08975 73.0831 8.8274C72.3396 8.33701 71.5105 7.99084 70.6391 7.80693C70.4921 7.78067 70.3558 7.71284 70.2463 7.61148C70.1367 7.51012 70.0585 7.37949 70.0209 7.23505C69.9833 7.09061 69.9879 6.93842 70.0342 6.79652C70.0805 6.65461 70.1664 6.52894 70.2819 6.43439C70.5472 6.19968 70.7921 5.92416 71.0268 5.68945C67.9503 6.1116 64.9959 7.17172 62.3528 8.80189C61.9957 9.01109 61.6487 9.23049 61.3018 9.455C61.9381 9.19926 62.5889 8.98118 63.2509 8.80189C64.6948 8.44473 66.1745 8.29166 67.5521 7.75081C67.0878 8.17431 66.5878 8.70495 66.6898 9.34785C68.0692 9.12881 69.4588 8.98064 70.8534 8.90393C70.3575 9.37673 69.9754 9.95595 69.7359 10.5979C70.6157 11.0372 71.4172 11.6181 72.1085 12.3174C71.9146 11.7715 71.7055 11.2255 71.4656 10.6898C71.3982 10.5293 71.384 10.3515 71.4254 10.1824C71.4667 10.0134 71.5613 9.86209 71.6952 9.75093Z" fill="#FBE668"/>
<path d="M18.0339 15.9099C15.1664 15.6701 10.6151 15.7569 8.45166 18.1652C8.83255 18.1799 9.20498 18.2818 9.54026 18.4632C9.87553 18.6445 10.1647 18.9004 10.3855 19.2112C10.5384 19.4385 10.6431 19.6948 10.6931 19.9642C10.7431 20.2337 10.7374 20.5105 10.6763 20.7776C10.6081 21.0035 10.4953 21.2134 10.3446 21.395L11.0794 21.5021C11.2681 21.5336 11.4374 21.6364 11.5524 21.7894C11.6673 21.9423 11.719 22.1336 11.6968 22.3236C11.6943 22.3388 11.6943 22.3543 11.6968 22.3695C12.207 21.5429 12.6356 20.4306 12.508 19.8183C12.1674 19.9542 11.8179 20.0667 11.4621 20.1551C11.8549 19.5734 13.1866 18.007 11.7937 17.8692C12.6509 16.9406 14.651 16.5885 15.8756 16.3844C16.8748 16.2307 17.8856 16.1658 18.8962 16.1906C19.3605 16.1906 19.9167 16.2263 20.5391 16.2569C19.7119 16.0904 18.8752 15.9746 18.0339 15.9099Z" fill="#FBE668"/>
<path d="M38.5707 34.9266C38.301 34.5553 37.9932 34.2133 37.6523 33.9061C37.2781 33.5654 36.832 33.3133 36.3471 33.1684C35.8622 33.0236 35.3509 32.9897 34.8511 33.0694C33.7994 33.2655 32.8638 33.8594 32.2387 34.7276C31.9552 35.1355 31.7286 35.5801 31.5652 36.0491C31.3409 36.554 31.2395 37.1048 31.2692 37.6564C31.2894 37.7802 31.3448 37.8956 31.4288 37.9888C31.5128 38.082 31.6219 38.149 31.743 38.1819C31.8641 38.2147 31.9921 38.2119 32.1116 38.174C32.2312 38.136 32.3373 38.0643 32.4173 37.9676C32.6462 37.6076 32.8328 37.2224 32.9734 36.8196C33.1227 36.5016 33.3058 36.2005 33.5194 35.9216C33.7269 35.6272 33.9862 35.3731 34.2847 35.1715C34.3914 35.0976 34.5061 35.036 34.6266 34.9878C34.7692 34.9169 34.9227 34.8704 35.0807 34.8501C35.3476 34.7941 35.6253 34.8208 35.8767 34.9266C35.9532 34.9572 36.0246 34.998 36.0961 35.0338L36.1981 35.1001C36.2695 35.1562 36.3461 35.2123 36.4124 35.2736L36.5043 35.3552C36.7434 35.6005 36.9555 35.8708 37.1369 36.1614C37.3158 36.505 37.5562 36.8128 37.8462 37.0696C37.904 37.1177 37.9695 37.1557 38.0401 37.1819C38.1643 37.2339 38.2984 37.2582 38.4329 37.2533H38.4891C38.6765 37.2299 38.8511 37.146 38.9865 37.0143C39.1219 36.8826 39.2106 36.7103 39.2391 36.5236C39.3412 35.9318 38.8973 35.3858 38.5707 34.9266Z" fill="#875226"/>
<path d="M55.9491 32.7264C55.6794 32.3551 55.3716 32.0131 55.0307 31.7059C54.6571 31.3643 54.211 31.1115 53.726 30.9666C53.2409 30.8217 52.7293 30.7884 52.2295 30.8692C51.1778 31.0653 50.2422 31.6592 49.6171 32.5274C49.3343 32.9331 49.1094 33.3761 48.9487 33.8438C48.7209 34.3495 48.6177 34.9024 48.6476 35.4562C48.6678 35.58 48.7232 35.6954 48.8072 35.7886C48.8912 35.8818 49.0003 35.9488 49.1214 35.9817C49.2425 36.0145 49.3705 36.0117 49.4901 35.9738C49.6096 35.9358 49.7157 35.8641 49.7957 35.7674C50.0242 35.4064 50.2124 35.0215 50.3569 34.6194C50.5002 34.2993 50.6818 33.9977 50.8978 33.7214C51.1053 33.427 51.3646 33.1729 51.6631 32.9713C51.7704 32.8985 51.885 32.8369 52.005 32.7876C52.1476 32.7167 52.3011 32.6702 52.4591 32.6499C52.726 32.5936 53.0038 32.6203 53.2551 32.7264C53.3306 32.757 53.4039 32.7928 53.4745 32.8336L53.5765 32.8999L53.7959 33.0734L53.8827 33.155C54.1219 33.4016 54.3355 33.6717 54.5205 33.9612C54.6976 34.3089 54.9362 34.6218 55.2246 34.8847C55.2831 34.9317 55.3485 34.9696 55.4185 34.997C55.5427 35.049 55.6768 35.0733 55.8114 35.0684H55.8777C56.0649 35.0437 56.239 34.9586 56.3734 34.826C56.5079 34.6934 56.5954 34.5205 56.6226 34.3337C56.7196 33.7316 56.2757 33.1805 55.9491 32.7264Z" fill="#875226"/>
<path d="M50.5561 47.7123C50.424 47.6738 50.2835 47.674 50.1515 47.7129C50.0195 47.7518 49.9013 47.8278 49.8112 47.9318C49.4693 48.2583 49.5356 48.6461 49.3009 49.0339C49.1521 49.3189 48.9338 49.5618 48.6663 49.7401C48.3987 49.9185 48.0906 50.0266 47.7702 50.0543C47.1784 50.0288 47.0967 49.442 46.7089 49.1155C46.5893 49.0097 46.4473 48.9323 46.2936 48.889C46.1399 48.8457 45.9784 48.8377 45.8211 48.8655C45.6275 48.9152 45.4485 49.0107 45.2994 49.1438C45.1502 49.277 45.0352 49.444 44.9639 49.6308C44.6578 50.2074 44.219 50.9574 43.4332 50.7431C42.6475 50.5288 42.3617 49.5645 41.5862 49.3604C41.4781 49.3457 41.3686 49.3737 41.281 49.4385C41.1933 49.5033 41.1344 49.5998 41.1168 49.7074C41.0453 50.3248 41.5862 50.886 41.9995 51.284C42.4368 51.7252 43.0103 52.0057 43.6271 52.08C44.2603 52.125 44.8861 51.9218 45.3721 51.5136C45.5971 51.3253 45.7991 51.1112 45.9742 50.8758C45.993 50.8498 46.0101 50.8225 46.0252 50.7942V50.8248C46.2695 51.1104 46.5819 51.3297 46.9334 51.4626C47.2925 51.5908 47.6747 51.6412 48.0548 51.6104C48.4348 51.5796 48.8039 51.4683 49.1377 51.284C49.8337 50.9207 50.4136 50.3691 50.8112 49.6921C51.2449 49.0288 51.4184 48.0134 50.5561 47.7123Z" fill="#875226"/>
<path d="M63.3326 33.4972C63.2683 33.3764 63.1776 33.2718 63.0672 33.191C62.884 32.9505 62.6438 32.7594 62.3682 32.6349C61.9496 32.4728 61.4974 32.4167 61.0518 32.4716C60.6314 32.4998 60.2189 32.5999 59.8323 32.7675L59.7558 32.8083C59.6731 32.8396 59.5929 32.8771 59.516 32.9206C59.3935 32.9869 59.2762 33.0533 59.1639 33.1247C58.9643 33.2525 58.7996 33.4278 58.6843 33.6349C58.6239 33.7591 58.5761 33.889 58.5414 34.0227C58.514 34.1467 58.5198 34.2757 58.5583 34.3967C58.5969 34.5177 58.6667 34.6263 58.7608 34.7115C58.8087 34.8379 58.8778 34.9552 58.9649 35.0585C60.0926 36.3596 62.6131 35.4565 63.3172 34.1809C63.3723 34.0758 63.4023 33.9594 63.4049 33.8408C63.4076 33.7222 63.3828 33.6046 63.3326 33.4972Z" fill="#D6838D"/>
<path d="M30.0448 37.706C29.979 37.5834 29.8866 37.4771 29.7744 37.3948C29.5913 37.1574 29.3531 36.9682 29.0804 36.8437C28.66 36.6819 28.2062 36.6258 27.7589 36.6805C27.3401 36.7086 26.9293 36.8087 26.5446 36.9764L26.4629 37.0172C26.3806 37.0494 26.3005 37.0869 26.2231 37.1295C26.1058 37.1907 25.9884 37.2621 25.8762 37.3336C25.6658 37.4579 25.4902 37.6334 25.3659 37.8438C25.3077 37.9689 25.26 38.0986 25.223 38.2316C25.1966 38.3556 25.203 38.4843 25.2414 38.6051C25.2799 38.7259 25.3492 38.8345 25.4425 38.9204C25.4934 39.0464 25.564 39.1635 25.6517 39.2674C26.7793 40.5685 29.2998 39.6653 30.004 38.3897C30.0619 38.2863 30.0957 38.171 30.1028 38.0526C30.1099 37.9342 30.09 37.8157 30.0448 37.706Z" fill="#D6838D"/>
</g>
<defs>
<clipPath id="clip0_1031_34733">
<rect width="82" height="82.7398" fill="white" transform="translate(0.251953)"/>
</clipPath>
</defs>
</svg>
