<svg width="20" height="16" viewBox="0 0 20 16" fill="none" xmlns="http://www.w3.org/2000/svg">
<path fill-rule="evenodd" clip-rule="evenodd" d="M19.2741 2.69699C19.7085 2.26364 19.7085 1.55918 19.2741 1.12583C18.8407 0.691374 18.1374 0.691374 17.7029 1.12583L5.9759 12.8528L2.2969 9.17495C1.86356 8.7405 1.15909 8.7405 0.725745 9.17495C0.291288 9.60941 0.291288 10.3128 0.725745 10.7461L5.13476 15.1562C5.15254 15.1751 5.16921 15.194 5.1881 15.2118C5.40477 15.4296 5.68922 15.5374 5.97367 15.5374C6.02701 15.5374 6.08034 15.534 6.13368 15.5262C6.36369 15.494 6.58591 15.3896 6.76259 15.2118C6.78148 15.194 6.79925 15.1751 6.81592 15.1551L19.2741 2.69699Z" fill="white"/>
</svg>
