<svg width="22" height="24" viewBox="0 0 22 24" fill="none" xmlns="http://www.w3.org/2000/svg">
<g clip-path="url(#clip0_2961_546)">
<path d="M18.0003 0H6.27855C5.292 0.00155428 4.3463 0.394148 3.6487 1.09174C2.9511 1.78934 2.55851 2.73504 2.55696 3.72159V4.27856H0.911356C0.791534 4.27808 0.672803 4.30133 0.562009 4.34696C0.451216 4.3926 0.350553 4.45971 0.265825 4.54444C0.181098 4.62917 0.113982 4.72983 0.0683488 4.84062C0.0227156 4.95142 -0.000532138 5.07015 -5.3801e-05 5.18997V6.20265C-0.000532138 6.32247 0.0227156 6.4412 0.0683488 6.55199C0.113982 6.66279 0.181098 6.76345 0.265825 6.84818C0.350553 6.93291 0.451216 7.00002 0.562009 7.04566C0.672803 7.09129 0.791534 7.11454 0.911356 7.11406H2.55696V10.5825H0.911356C0.791534 10.582 0.672803 10.6052 0.562009 10.6509C0.451216 10.6965 0.350553 10.7636 0.265825 10.8484C0.181098 10.9331 0.113982 11.0337 0.0683488 11.1445C0.0227156 11.2553 -0.000532138 11.3741 -5.3801e-05 11.4939V12.5066C-0.000532138 12.6264 0.0227156 12.7451 0.0683488 12.8559C0.113982 12.9667 0.181098 13.0674 0.265825 13.1521C0.350553 13.2368 0.451216 13.3039 0.562009 13.3496C0.672803 13.3952 0.791534 13.4185 0.911356 13.418H2.55696V16.8859H0.911356C0.791534 16.8855 0.672803 16.9087 0.562009 16.9543C0.451216 17 0.350553 17.0671 0.265825 17.1518C0.181098 17.2365 0.113982 17.3372 0.0683488 17.448C0.0227156 17.5588 -0.000532138 17.6775 -5.3801e-05 17.7974V18.81C-0.000532138 18.9299 0.0227156 19.0486 0.0683488 19.1594C0.113982 19.2702 0.181098 19.3708 0.265825 19.4556C0.350553 19.5403 0.451216 19.6074 0.562009 19.653C0.672803 19.6987 0.791534 19.7219 0.911356 19.7214H2.55696V20.2784C2.55851 21.265 2.9511 22.2107 3.6487 22.9083C4.3463 23.6059 5.292 23.9984 6.27855 24H18.0003C18.9868 23.9984 19.9325 23.6059 20.6301 22.9083C21.3277 22.2107 21.7203 21.265 21.7219 20.2784V3.72159C21.7203 2.73504 21.3277 1.78934 20.6301 1.09174C19.9325 0.394148 18.9868 0.00155428 18.0003 0ZM19.8991 20.3295C19.8954 20.8319 19.6942 21.3128 19.3389 21.6681C18.9836 22.0234 18.5027 22.2246 18.0003 22.2283H6.27855C5.77609 22.2246 5.29526 22.0234 4.93997 21.6681C4.58467 21.3128 4.38344 20.8319 4.37978 20.3295V3.72159C4.38344 3.21914 4.58467 2.73831 4.93997 2.38301C5.29526 2.02771 5.77609 1.82649 6.27855 1.82282H18.0003C18.5027 1.82649 18.9836 2.02771 19.3389 2.38301C19.6942 2.73831 19.8954 3.21914 19.8991 3.72159V20.3295Z" fill="#7521E2"/>
<path d="M15.418 15.1396C15.2949 14.9271 15.0936 14.7712 14.8571 14.7049C14.6207 14.6387 14.3677 14.6675 14.1521 14.7851C13.6964 15.0383 13.3673 15.192 13.2661 15.2408C12.5065 15.57 11.6711 14.3041 10.9604 12.6332C10.2497 10.9623 9.89709 9.4939 10.6566 9.16478C10.7579 9.11415 11.087 9.01288 11.5933 8.83566C11.8266 8.75933 12.0208 8.59476 12.1343 8.37713C12.2479 8.15951 12.2718 7.9061 12.2009 7.67108L11.4939 5.28948C11.4308 5.09062 11.306 4.91706 11.1375 4.79404C10.9691 4.67102 10.7657 4.60496 10.5571 4.60547C9.97485 4.63079 9.34193 4.78314 9.01281 4.90927C7.18999 5.69636 6.96214 9.62003 8.68369 13.5948C10.4052 17.5696 13.3926 20.1017 15.1901 19.3169C15.6654 19.0822 16.101 18.7747 16.4813 18.4055C16.7851 18.1017 16.8611 17.646 16.6332 17.2662L15.418 15.1396Z" fill="#7521E2"/>
</g>
<defs>
<clipPath id="clip0_2961_546">
<rect width="21.7219" height="24" fill="white"/>
</clipPath>
</defs>
</svg>
