<svg width="20" height="20" viewBox="0 0 20 20" fill="none" xmlns="http://www.w3.org/2000/svg">
<path d="M10.0002 18.8891C8.24217 18.8891 6.52359 18.3678 5.06182 17.3911C3.60005 16.4143 2.46074 15.0261 1.78796 13.4019C1.11518 11.7776 0.93915 9.99036 1.28213 8.26608C1.62511 6.54181 2.47169 4.95796 3.71483 3.71483C4.95796 2.47169 6.54181 1.62511 8.26609 1.28213C9.99036 0.93915 11.7776 1.11518 13.4019 1.78796C15.0261 2.46074 16.4143 3.60005 17.3911 5.06182C18.3678 6.52359 18.8891 8.24216 18.8891 10.0002C18.8891 12.3577 17.9526 14.6186 16.2856 16.2856C14.6186 17.9526 12.3577 18.8891 10.0002 18.8891ZM10.0002 2.22244C8.46192 2.22244 6.95817 2.6786 5.67912 3.53324C4.40007 4.38787 3.40317 5.60259 2.81449 7.02379C2.22581 8.445 2.07178 10.0088 2.37189 11.5176C2.672 13.0263 3.41276 14.4122 4.5005 15.4999C5.58824 16.5877 6.97411 17.3284 8.48285 17.6285C9.99159 17.9287 11.5554 17.7746 12.9766 17.1859C14.3979 16.5973 15.6126 15.6004 16.4672 14.3213C17.3218 13.0423 17.778 11.5385 17.778 10.0002C17.778 7.93743 16.9586 5.95912 15.4999 4.5005C14.0413 3.04189 12.063 2.22244 10.0002 2.22244Z" fill="#8A9099" stroke="#8A9099" stroke-width="0.5"/>
<path d="M13.0493 11.7391C12.9211 11.6671 12.7695 11.6489 12.6279 11.6885C12.4863 11.728 12.3661 11.8221 12.2938 11.9502C12.067 12.36 11.7346 12.7017 11.3311 12.9396C10.9276 13.1774 10.4677 13.3029 9.99931 13.3029C9.5309 13.3029 9.07104 13.1774 8.66754 12.9396C8.26404 12.7017 7.93163 12.36 7.70486 11.9502C7.66839 11.8867 7.61976 11.831 7.56177 11.7863C7.50378 11.7417 7.43756 11.7088 7.36688 11.6898C7.29621 11.6707 7.22246 11.6657 7.14986 11.6751C7.07726 11.6845 7.00723 11.7081 6.94375 11.7446C6.88028 11.7811 6.82462 11.8297 6.77993 11.8877C6.73525 11.9457 6.70243 12.0119 6.68334 12.0826C6.66426 12.1533 6.65928 12.227 6.66869 12.2996C6.6781 12.3722 6.70172 12.4423 6.7382 12.5057C7.05913 13.0882 7.53175 13.5728 8.10591 13.9083C8.68007 14.2438 9.33434 14.4176 9.99931 14.4113C10.6654 14.4165 11.3204 14.2411 11.8947 13.9035C12.469 13.566 12.9409 13.0791 13.2604 12.4946C13.3324 12.3664 13.3506 12.2148 13.311 12.0732C13.2714 11.9316 13.1773 11.8114 13.0493 11.7391Z" fill="#8A9099" stroke="#8A9099" stroke-width="0.5"/>
<path d="M12.7771 8.88921C13.3908 8.88921 13.8882 8.39175 13.8882 7.7781C13.8882 7.16445 13.3908 6.66699 12.7771 6.66699C12.1635 6.66699 11.666 7.16445 11.666 7.7781C11.666 8.39175 12.1635 8.88921 12.7771 8.88921Z" fill="#8A9099" stroke="#8A9099" stroke-width="0.5"/>
<path d="M7.22244 8.88921C7.83609 8.88921 8.33355 8.39175 8.33355 7.7781C8.33355 7.16445 7.83609 6.66699 7.22244 6.66699C6.60879 6.66699 6.11133 7.16445 6.11133 7.7781C6.11133 8.39175 6.60879 8.88921 7.22244 8.88921Z" fill="#8A9099" stroke="#8A9099" stroke-width="0.5"/>
</svg>
