<svg width="12" height="10" viewBox="0 0 12 10" fill="none" xmlns="http://www.w3.org/2000/svg">
<path fill-rule="evenodd" clip-rule="evenodd" d="M11.41 1.90663C11.6634 1.65385 11.6634 1.24291 11.41 0.990124C11.1572 0.736691 10.7469 0.736691 10.4934 0.990124L3.65269 7.83088L1.50661 5.68544C1.25382 5.43201 0.842884 5.43201 0.590099 5.68544C0.336666 5.93888 0.336666 6.34917 0.590099 6.60195L3.16203 9.17453C3.1724 9.18555 3.18212 9.19656 3.19314 9.20694C3.31953 9.33398 3.48546 9.39685 3.65139 9.39685C3.6825 9.39685 3.71362 9.3949 3.74473 9.39037C3.8789 9.37157 4.00853 9.31064 4.11159 9.20694C4.12261 9.19656 4.13298 9.18555 4.1427 9.17388L11.41 1.90663Z" fill="white"/>
</svg>
