<svg width="22" height="24" viewBox="0 0 22 24" fill="none" xmlns="http://www.w3.org/2000/svg">
<g clip-path="url(#clip0_2961_12263)">
<path d="M1.55999 3.24C1.55999 2.59919 1.75001 1.97277 2.10603 1.43995C2.46204 0.907139 2.96806 0.49186 3.5601 0.246632C4.15213 0.00140388 4.80358 -0.062759 5.43208 0.0622572C6.06058 0.187273 6.63789 0.495853 7.09102 0.948976C7.54414 1.4021 7.85272 1.97941 7.97773 2.60791C8.10275 3.23641 8.03859 3.88786 7.79336 4.4799C7.54813 5.07193 7.13285 5.57795 6.60004 5.93396C6.06722 6.28998 5.4408 6.48 4.79999 6.48C4.374 6.4818 3.95188 6.39922 3.55797 6.23703C3.16407 6.07484 2.80618 5.83625 2.50496 5.53503C2.20374 5.23381 1.96515 4.87592 1.80296 4.48202C1.64077 4.08811 1.55819 3.66599 1.55999 3.24ZM9.63999 13.76V9.8C9.63811 9.15319 9.38053 8.53336 8.92343 8.07573C8.46633 7.61809 7.8468 7.35978 7.19999 7.35715H2.43999C1.79268 7.35903 1.17243 7.61701 0.71471 8.07472C0.256993 8.53244 -0.000984196 9.1527 -0.00286865 9.8V13.76C-0.00230307 13.972 0.0821643 14.1752 0.232071 14.3251C0.381978 14.475 0.585132 14.5594 0.797131 14.56H8.87999C9.27999 14.56 9.63999 14.24 9.63999 13.76ZM16.44 9.44C15.7992 9.44 15.1728 9.63003 14.6399 9.98604C14.1071 10.3421 13.6918 10.8481 13.4466 11.4401C13.2014 12.0321 13.1372 12.6836 13.2622 13.3121C13.3873 13.9406 13.6958 14.5179 14.149 14.971C14.6021 15.4242 15.1794 15.7327 15.8079 15.8577C16.4364 15.9828 17.0879 15.9186 17.6799 15.6734C18.2719 15.4281 18.7779 15.0129 19.134 14.4801C19.49 13.9472 19.68 13.3208 19.68 12.68C19.72 10.88 18.24 9.44 16.44 9.44ZM18.84 16.7971H14.08C13.4332 16.7998 12.8137 17.0581 12.3566 17.5157C11.8995 17.9734 11.6419 18.5932 11.64 19.24V23.2C11.6406 23.412 11.725 23.6152 11.8749 23.7651C12.0248 23.915 12.228 23.9994 12.44 24H20.52C20.732 23.9994 20.9351 23.915 21.0851 23.7651C21.235 23.6152 21.3194 23.412 21.32 23.2V19.24C21.28 17.92 20.2 16.8 18.84 16.8V16.7971ZM9.07999 17.76C8.98995 17.6267 8.86095 17.5244 8.71061 17.4671C8.56027 17.4099 8.39591 17.4004 8.23999 17.44C8.08387 17.4772 7.94113 17.557 7.82765 17.6705C7.71416 17.784 7.63436 17.9267 7.59713 18.0829L7.35713 19.2829C5.93242 18.6389 4.724 17.5971 3.87713 16.2829C3.59713 15.8029 2.95713 15.6829 2.51999 15.9629C2.03999 16.2429 1.91999 16.8829 2.19999 17.3629C3.33905 19.1339 5.00336 20.5045 6.95999 21.2829L6.67999 22.6829C6.63999 23.0036 6.75999 23.3257 7.03713 23.4829C7.17045 23.5615 7.32238 23.6029 7.47713 23.6029C7.63189 23.6029 7.78382 23.5615 7.91713 23.4829L10.64 21.6C10.8047 21.4699 10.918 21.2857 10.96 21.08C10.9811 20.9771 10.9814 20.8709 10.9608 20.7678C10.9402 20.6648 10.8991 20.5669 10.84 20.48L9.07999 17.76ZM12 6.11715C12.0733 6.22989 12.1743 6.32194 12.2934 6.38447C12.4124 6.447 12.5456 6.47793 12.68 6.47429H12.84C12.9961 6.43706 13.1388 6.35726 13.2523 6.24377C13.3658 6.13029 13.4456 5.98755 13.4828 5.83143L13.6828 4.67143C15.2001 5.2902 16.4865 6.36688 17.3628 7.75143C17.4498 7.89685 17.5728 8.01741 17.72 8.10149C17.8671 8.18556 18.0334 8.23031 18.2028 8.23143C18.3895 8.24012 18.5734 8.18355 18.7228 8.07143C19.2028 7.79143 19.3228 7.15143 19.0428 6.67143C17.8699 4.81695 16.1096 3.40873 14.0428 2.67143L14.3236 1.23143C14.3628 0.91143 14.2428 0.588573 13.9664 0.43143C13.69 0.274287 13.3236 0.27143 13.0864 0.43143L10.3664 2.31143C10.0093 2.55143 9.92642 3.07143 10.1664 3.43143L12 6.11715Z" fill="#7521E2"/>
</g>
<defs>
<clipPath id="clip0_2961_12263">
<rect width="21.32" height="24" fill="white"/>
</clipPath>
</defs>
</svg>
