<svg width="16" height="15" viewBox="0 0 16 15" fill="none" xmlns="http://www.w3.org/2000/svg">
<g clip-path="url(#clip0_846_2757)">
<path d="M13.1283 8.82101C12.9108 8.82033 12.7025 8.73367 12.5488 8.57994C12.3951 8.42621 12.3084 8.2179 12.3077 8.00049V5.66203C12.3077 3.44664 10.381 1.64151 8.00005 1.64151C5.6191 1.64151 3.69236 3.44664 3.69236 5.66203V8.00013C3.69466 8.10931 3.67515 8.21786 3.63496 8.31941C3.59477 8.42095 3.53472 8.51346 3.45831 8.59149C3.38191 8.66953 3.2907 8.73152 3.19002 8.77385C3.08935 8.81617 2.98124 8.83798 2.87203 8.83798C2.76282 8.83798 2.6547 8.81617 2.55403 8.77385C2.45336 8.73152 2.36214 8.66953 2.28574 8.59149C2.20934 8.51346 2.14928 8.42095 2.10909 8.31941C2.0689 8.21786 2.04939 8.10931 2.0517 8.00013V5.66166C2.0517 2.54408 4.718 0.000488281 8.00005 0.000488281C11.2821 0.000488281 13.9488 2.54408 13.9488 5.66203V8.00049C13.9481 8.2179 13.8614 8.42621 13.7077 8.57994C13.554 8.73367 13.3457 8.82033 13.1283 8.82101Z" fill="black"/>
<path d="M3.69231 14.3592H3.28205C1.47692 14.3592 0 12.8823 0 11.0771V10.4617C0 8.65662 1.47692 7.17969 3.28205 7.17969H3.69231C3.90968 7.18027 4.11799 7.26685 4.27173 7.42052C4.42547 7.57419 4.51214 7.78246 4.51282 7.99984V13.5383C4.51224 13.7558 4.42562 13.9642 4.27188 14.118C4.11814 14.2718 3.90978 14.3585 3.69231 14.3592Z" fill="black"/>
<path d="M12.7179 14.3592H12.3077C12.0903 14.3585 11.882 14.2719 11.7283 14.1181C11.5745 13.9644 11.4879 13.7561 11.4872 13.5387V8.0002C11.4879 7.7828 11.5745 7.57449 11.7283 7.42076C11.882 7.26703 12.0903 7.18036 12.3077 7.17969H12.7179C14.5231 7.17969 16 8.65661 16 10.4621V11.0775C16 12.8823 14.5231 14.3592 12.7179 14.3592Z" fill="black"/>
</g>
<defs>
<clipPath id="clip0_846_2757">
<rect width="16" height="14.3593" fill="white"/>
</clipPath>
</defs>
</svg>
