<svg width="21" height="24" viewBox="0 0 21 24" fill="none" xmlns="http://www.w3.org/2000/svg">
<g clip-path="url(#clip0_2961_1285)">
<path d="M18.5383 3.38481V5.84653C18.5379 5.88701 18.5456 5.92716 18.561 5.96463C18.5763 6.0021 18.5989 6.03614 18.6276 6.06476C18.6562 6.09339 18.6902 6.11603 18.7277 6.13136C18.7652 6.14669 18.8053 6.1544 18.8458 6.15405H19.7694V10.4619H18.8463C18.8058 10.4615 18.7655 10.4692 18.7279 10.4845C18.6904 10.4999 18.6563 10.5225 18.6276 10.5512C18.5989 10.5799 18.5762 10.614 18.5609 10.6516C18.5455 10.6892 18.5379 10.7294 18.5383 10.77V13.2312C18.5379 13.2718 18.5455 13.312 18.5609 13.3496C18.5762 13.3871 18.5989 13.4213 18.6276 13.4499C18.6563 13.4786 18.6904 13.5013 18.7279 13.5166C18.7655 13.532 18.8058 13.5396 18.8463 13.5392H19.7694V17.8471H18.8463C18.8058 17.8467 18.7655 17.8544 18.7279 17.8697C18.6904 17.885 18.6563 17.9077 18.6276 17.9364C18.5989 17.9651 18.5762 17.9992 18.5609 18.0368C18.5455 18.0743 18.5379 18.1146 18.5383 18.1552V20.6164C18.5379 20.6569 18.5455 20.6972 18.5609 20.7347C18.5762 20.7723 18.5989 20.8064 18.6276 20.8351C18.6563 20.8638 18.6904 20.8865 18.7279 20.9018C18.7655 20.9171 18.8058 20.9248 18.8463 20.9244H19.7694V24.0001H0.692215V0H19.7694V3.07676H18.8463C18.8058 3.07634 18.7655 3.08402 18.7279 3.09935C18.6904 3.11468 18.6563 3.13735 18.6276 3.16604C18.5989 3.19473 18.5762 3.22886 18.5609 3.26642C18.5455 3.30399 18.5379 3.34424 18.5383 3.38481ZM13.6771 8.50131C13.1572 7.98388 12.4536 7.6934 11.7201 7.6934C10.9867 7.6934 10.2831 7.98388 9.76321 8.50131L9.4367 8.82729L9.11072 8.50131C8.58992 7.99094 7.88875 7.70671 7.15958 7.71039C6.4304 7.71407 5.73214 8.00537 5.21652 8.52098C4.70091 9.0366 4.40961 9.73486 4.40592 10.464C4.40224 11.1932 4.68647 11.8944 5.19685 12.4152L9.22149 16.2304C9.27871 16.2843 9.35391 16.3149 9.43248 16.3164C9.51132 16.3163 9.58702 16.2854 9.64347 16.2304L13.6681 12.421C13.9264 12.1645 14.1316 11.8596 14.2721 11.5238C14.4125 11.188 14.4854 10.8278 14.4866 10.4638C14.4877 10.0998 14.4172 9.7391 14.2789 9.40237C14.1407 9.06564 13.9374 8.75946 13.6808 8.50131H13.6771Z" fill="#7521E2"/>
<path d="M21 11.0771H19.1538V12.9233H21V11.0771Z" fill="#7521E2"/>
<path d="M21 3.69238H19.1538V5.53854H21V3.69238Z" fill="#7521E2"/>
</g>
<defs>
<clipPath id="clip0_2961_1285">
<rect width="20.3078" height="24.0001" fill="white" transform="matrix(-1 0 0 1 21 0)"/>
</clipPath>
</defs>
</svg>
