<svg width="25" height="33" viewBox="0 0 25 33" fill="none" xmlns="http://www.w3.org/2000/svg">
<g clip-path="url(#clip0_2961_1639)">
<path d="M11.5001 18.5211L13.8856 16.9059L11.5001 15.3574V18.5211Z" fill="#7521E2"/>
<path d="M0.714233 9.29102V24.659H24.2859V9.29102H0.714233ZM16.4228 17.7749L11.026 21.4265C10.3238 21.8999 9.35679 21.3795 9.35679 20.5382V13.383C9.35679 12.5508 10.309 12.0284 11.0092 12.4834L16.4059 15.9876C16.5522 16.0857 16.6723 16.2179 16.7559 16.3728C16.8395 16.5278 16.884 16.7008 16.8857 16.8768C16.8873 17.0528 16.846 17.2266 16.7654 17.3831C16.6847 17.5396 16.5671 17.6741 16.4228 17.7749Z" fill="#7521E2"/>
<path d="M17.2604 4.30172C16.653 3.65022 15.9232 3.12476 15.1127 2.75533C14.3021 2.38591 13.4268 2.17976 12.5366 2.14865C11.6464 2.11754 10.7588 2.26209 9.92447 2.57405C9.09015 2.886 8.32544 3.35924 7.67402 3.96674L6.21124 2.39933C7.06847 1.59945 8.07491 0.976335 9.17306 0.565582C10.2712 0.154828 11.4395 -0.035509 12.6113 0.00544666C13.783 0.0464023 14.9352 0.317848 16.002 0.804272C17.0688 1.2907 18.0292 1.98256 18.8285 2.84034L17.2604 4.30172Z" fill="#7521E2"/>
<path d="M10.3412 6.94088L8.87915 5.37347C9.85364 4.46214 11.1336 3.94801 12.4677 3.93202C13.8019 3.91604 15.0938 4.39936 16.0898 5.28709L14.6636 6.88751C14.0679 6.35231 13.2927 6.0607 12.492 6.07059C11.6912 6.08048 10.9235 6.39114 10.3412 6.94088Z" fill="#7521E2"/>
<path d="M25 29.1602H8.29004V31.3048H25V29.1602Z" fill="#7521E2"/>
<path d="M5.42416 29.1602H0V31.3048H5.42416V29.1602Z" fill="#7521E2"/>
<path d="M6.82716 27.3184C6.27786 27.3171 5.74053 27.4789 5.28319 27.7831C4.82585 28.0874 4.46907 28.5205 4.25799 29.0276C4.04691 29.5348 3.99104 30.0931 4.09743 30.632C4.20383 31.1709 4.46772 31.6662 4.85569 32.055C5.24367 32.4439 5.73829 32.7089 6.27695 32.8165C6.81561 32.9241 7.37409 32.8695 7.8817 32.6596C8.38931 32.4497 8.82324 32.0939 9.12855 31.6373C9.43386 31.1806 9.59683 30.6437 9.59683 30.0943C9.59683 29.3592 9.30523 28.6541 8.786 28.1337C8.26676 27.6132 7.56231 27.32 6.82716 27.3184Z" fill="#7521E2"/>
</g>
<defs>
<clipPath id="clip0_2961_1639">
<rect width="25" height="32.8652" fill="white"/>
</clipPath>
</defs>
</svg>
