<svg width="249" height="172" viewBox="0 0 249 172" fill="none" xmlns="http://www.w3.org/2000/svg">
<g clip-path="url(#clip0_789_34947)">
<path d="M200.712 165.471C203.183 165.477 205.643 165.15 208.027 164.499C211.859 163.485 215.441 161.69 218.552 159.226C221.663 156.763 224.235 153.682 226.109 150.177C227.983 146.672 229.118 142.817 229.444 138.852C229.77 134.888 229.279 130.898 228.003 127.132C229.858 125.733 231.599 124.187 233.209 122.51C237.673 117.847 240.988 112.199 242.89 106.019C244.267 101.559 246.117 92.8221 242.987 84.4201C240.265 77.098 234.769 72.3786 229.379 68.2207C227.419 66.6151 225.332 65.1705 223.14 63.9009C223.747 60.8787 223.648 57.7565 222.851 54.7791C222.054 51.8018 220.581 49.0503 218.547 46.7404C213.614 41.3109 206.806 37.9708 199.508 37.3988C199.508 36.8049 199.508 36.2001 199.411 35.6061C198.75 27.14 194.783 19.2793 188.374 13.737C182.099 8.24949 174.042 5.25369 165.72 5.31337H164.817C157.588 5.48617 150.037 7.47329 141.044 11.5771C136.758 13.4761 132.734 15.9226 129.072 18.856C125.623 16.3307 121.652 14.618 117.454 13.845C113.478 13.1269 109.392 13.2964 105.488 14.3416C101.584 15.3868 97.9573 17.282 94.8648 19.8928C93.8484 18.8331 92.7708 17.8342 91.6378 16.9013C88.7414 14.3847 85.3506 12.5075 81.6851 11.3912C78.0197 10.2749 74.1615 9.94457 70.3607 10.4216C57.8504 12.0415 46.1362 20.4435 39.8004 32.3554C38.3024 35.1436 37.1224 38.0925 36.2829 41.1463C34.0231 41.4852 31.8392 42.216 29.8288 43.3062C26.6719 45.1069 24.1015 47.7861 22.4276 51.0208C20.7536 54.2555 20.0477 57.9073 20.395 61.5358C18.5846 62.5973 16.8648 63.8074 15.2532 65.1537C10.4739 69.0373 6.50116 73.8258 3.56053 79.2471C0.202869 85.3572 -0.83654 92.4816 0.634663 99.3018C2.24213 105.833 5.51986 111.83 10.1437 116.7C12.278 118.976 14.7847 120.868 17.5552 122.294C17.62 125.602 18.6295 128.823 20.464 131.572C22.2984 134.321 24.8805 136.483 27.9033 137.802C29.2767 145.79 33.6554 152.943 40.1339 157.781C45.315 161.627 51.6009 163.678 58.0441 163.624C63.4449 163.598 68.7632 162.292 73.5662 159.812C75.9404 158.586 78.1702 157.097 80.214 155.373C82.6248 156.468 85.2193 157.098 87.8621 157.231H89.3681C91.9004 157.264 94.4192 156.855 96.8118 156.021C102.999 163.092 111.138 168.158 120.197 170.579C126.592 172.202 133.291 172.177 139.674 170.506C146.056 168.835 151.915 165.573 156.706 161.021C157.725 160.052 158.691 159.029 159.6 157.954C161.191 158.72 162.882 159.258 164.623 159.552C165.661 159.725 166.712 159.812 167.764 159.812C171.095 159.814 174.372 158.963 177.284 157.339C179.951 159.208 182.806 160.789 185.803 162.058C190.489 164.205 195.563 165.366 200.712 165.471Z" fill="#A0B5C5"/>
<path d="M205.015 160.19C207.486 160.191 209.945 159.864 212.33 159.218C219.113 157.379 225.002 153.135 228.906 147.271C232.81 141.407 234.465 134.322 233.564 127.327C233.309 125.458 232.881 123.618 232.284 121.83C234.139 120.43 235.88 118.885 237.49 117.207C241.951 112.541 245.266 106.895 247.171 100.716C248.538 96.2562 250.398 87.5194 247.257 79.1174C244.547 71.7953 239.05 67.0759 233.661 62.918C231.698 61.3148 229.612 59.8704 227.422 58.5982C228.027 55.5752 227.926 52.4525 227.127 49.4751C226.329 46.4977 224.854 43.7466 222.818 41.4377C217.885 36.0064 211.077 32.666 203.778 32.0961C203.778 31.4914 203.778 30.8974 203.692 30.3034C203.015 21.8414 199.032 13.9916 192.613 8.46672C186.343 2.96828 178.283 -0.0324327 169.959 0.0322751H169.055C161.837 0.215867 154.286 2.19218 145.293 6.30681C141.006 8.20333 136.981 10.65 133.321 13.5857C129.867 11.0622 125.893 9.34967 121.693 8.57472C117.716 7.85656 113.631 8.0261 109.727 9.07131C105.823 10.1165 102.196 12.0118 99.1031 14.6225C98.0892 13.5602 97.0115 12.5611 95.876 11.631C90.904 7.38684 84.61 5.02203 78.0842 4.94607C76.9371 4.94842 75.7912 5.02055 74.6527 5.16206C62.1425 6.78199 50.439 15.184 44.0925 27.0959C42.5963 29.8837 41.4199 32.8328 40.5857 35.8868C38.3228 36.2123 36.1366 36.944 34.1316 38.0467C30.9738 39.8463 28.4026 42.5254 26.7286 45.7604C25.0545 48.9953 24.3492 52.6477 24.6978 56.2763C22.8874 57.3378 21.1676 58.5479 19.5561 59.8942C14.7741 63.778 10.7978 68.5663 7.8526 73.9876C4.50365 80.089 3.46813 87.2014 4.93748 94.0099C6.53152 100.544 9.80688 106.544 14.4358 111.408C16.5758 113.685 19.0856 115.58 21.858 117.013C21.9006 119.313 22.3978 121.582 23.321 123.687C25.1039 127.626 28.2659 130.769 32.2062 132.521C33.5705 140.51 37.9465 147.665 44.426 152.5C49.607 156.346 55.893 158.397 62.3361 158.343C67.7373 158.319 73.0562 157.013 77.8583 154.531C80.2355 153.31 82.4659 151.821 84.506 150.092C86.9169 151.187 89.5114 151.817 92.1542 151.95H93.6601C96.1961 151.984 98.7186 151.574 101.115 150.74C107.295 157.813 115.432 162.881 124.489 165.298C127.634 166.089 130.864 166.492 134.106 166.496C139.777 166.521 145.384 165.294 150.531 162.904C155.678 160.513 160.239 157.017 163.892 152.662C165.482 153.435 167.173 153.977 168.915 154.271C169.957 154.444 171.011 154.531 172.067 154.531C175.394 154.526 178.665 153.675 181.576 152.057C184.248 153.924 187.107 155.506 190.106 156.777C194.793 158.92 199.866 160.081 205.015 160.19Z" fill="white"/>
<path d="M70.6512 59.5802C70.4038 59.7314 70.1456 59.9258 69.866 60.0986C70.3088 63.0575 70.4995 66.0491 70.4361 69.0406C70.4361 72.0753 70.4361 75.1207 70.3285 78.1554C70.2209 81.1901 70.2102 84.4083 70.1994 87.5402C70.1994 89.1061 70.1994 90.6613 70.2532 92.2272C70.2532 92.4648 70.2532 92.7348 70.2532 92.994L70.6189 92.6268C71.1675 92.0436 71.6946 91.482 72.2863 90.9097C73.2902 89.9017 74.2799 88.8866 75.2552 87.8642C75.0313 87.1344 74.9581 86.3663 75.04 85.6071L74.9432 81.1361L74.8572 72.7016C74.7926 69.8074 74.7388 66.9023 74.6743 64.062C74.6743 62.5717 74.5882 61.0813 74.5882 59.5802C74.5882 58.9106 74.5882 58.2194 74.5882 57.5391L73.889 57.8414C73.344 58.1222 72.8062 58.4138 72.2755 58.7162C71.7054 58.9538 71.1783 59.267 70.6512 59.5802Z" fill="#CC5764"/>
<path d="M68.5964 58.9113C68.6673 58.9281 68.736 58.9535 68.8008 58.9869L69.0913 58.7817L69.8765 58.2525C70.3928 57.9069 70.9522 57.5829 71.4255 57.2698C71.8988 56.9566 72.2753 56.7622 72.7056 56.5138H72.4689C71.3932 56.5138 70.2422 56.4274 69.1235 56.3734L62.4112 56.1034C60.3299 55.8874 58.232 55.8874 56.1507 56.1034C54.3651 56.4166 53.5583 57.5613 52.4934 58.6845C54.0101 58.6845 55.5591 58.7601 57.0651 58.7925C60.873 58.8681 64.767 58.6521 68.5964 58.9113Z" fill="#CC5764"/>
<path d="M205.359 101.353C205.295 99.3519 205.219 97.354 205.133 95.3597C205.08 94.2257 204.951 93.0054 204.918 91.8066C204.585 92.3142 204.251 92.8326 203.907 93.3402C203.431 94.167 202.91 94.9674 202.347 95.7377C202.454 96.1792 202.49 96.6347 202.455 97.0876C202.39 98.1676 202.283 99.2475 202.165 100.273C202.277 101.271 202.277 102.278 202.165 103.276C202.089 104.939 202.003 106.602 201.874 108.254C201.67 111.062 201.336 113.848 200.949 116.635C201.562 116.138 202.175 115.652 202.756 115.134C203.373 114.577 203.962 113.99 204.52 113.373C204.807 113.064 205.087 112.74 205.359 112.401L205.424 112.326C205.424 111.635 205.607 110.954 205.596 110.241C205.596 109.291 205.596 108.319 205.542 107.369C205.488 105.36 205.435 103.373 205.359 101.353Z" fill="#CC5764"/>
<path d="M197.657 97.0885C196.582 97.0885 195.506 97.0885 194.43 97.0885C192.451 97.0885 190.472 97.0885 188.503 97.0021C186.535 96.9157 184.556 96.8509 182.576 96.7429C181.501 96.6889 180.425 96.6457 179.349 96.5593C178.957 96.5553 178.568 96.4859 178.198 96.3541C178.133 96.4304 178.052 96.4926 177.962 96.5373C177.872 96.5819 177.774 96.608 177.674 96.614C177.574 96.62 177.473 96.6059 177.379 96.5724C177.284 96.5389 177.197 96.4867 177.123 96.4189C176.176 95.339 176.38 93.8055 176.348 92.4771C176.348 90.922 176.284 89.356 176.284 87.7901C176.284 84.7446 176.348 81.71 176.413 78.6645C176.477 75.619 176.563 72.4116 176.563 69.2905C176.563 66.4934 176.413 63.6639 176.499 60.856C173.454 60.856 170.389 60.6725 167.345 60.5213C165.699 60.4457 164.053 60.4133 162.407 60.3593H161.331C160.974 60.3282 160.614 60.3282 160.256 60.3593C159.879 60.4673 159.987 60.3053 159.901 60.748C159.901 60.8776 159.901 60.9964 159.901 61.126C160.186 63.4582 160.251 65.8121 160.094 68.1565C160.094 70.608 160.094 73.0703 160.041 75.5218C159.987 77.9733 159.815 80.4356 159.912 82.8979C160.008 85.3602 159.912 87.9953 159.976 90.5332C160.026 95.5298 160.134 100.53 160.299 105.534C160.378 107.996 160.471 110.451 160.578 112.899C160.643 114.217 160.708 115.534 160.761 116.852C160.761 117.014 160.761 117.176 160.761 117.338C161.589 117.295 162.418 117.295 163.246 117.338C165.01 117.338 166.774 117.338 168.528 117.338H178.833C180.519 117.218 182.213 117.272 183.889 117.5C184.67 117.6 185.462 117.571 186.234 117.413C187.019 117.348 187.815 117.413 188.611 117.359C191.777 117.484 194.948 117.375 198.098 117.035C198.927 110.761 199.174 104.4 199.83 98.1037C199.83 97.8229 199.938 97.4665 199.97 97.1209C199.626 97.1209 199.249 97.1857 199.088 97.1857L197.657 97.0885Z" fill="#D6838D"/>
<path d="M203.649 89.8844L194.99 89.1932C193.301 89.0528 191.612 88.8801 189.913 88.7181C189.095 88.6425 188.256 88.5561 187.428 88.5453C186.843 88.5895 186.255 88.5678 185.674 88.4805C185.633 88.5521 185.586 88.6207 185.535 88.6857C184.351 89.8844 183.168 91.0832 181.963 92.2711C181.361 92.8543 180.748 93.4375 180.124 93.9991C179.833 94.269 179.532 94.5714 179.209 94.8414H180.339C181.554 94.8414 182.77 94.917 183.986 94.9278C186.417 94.9278 188.848 94.9278 191.279 94.9278C193.71 94.8738 196.141 94.7874 198.572 94.6362C199.142 94.6362 199.787 94.4958 200.411 94.5066C200.899 93.7049 201.434 92.9331 202.014 92.1955L203.649 89.8844Z" fill="#CC5764"/>
<path d="M177.047 58.9113C177.118 58.9281 177.187 58.9535 177.252 58.9869L177.542 58.7817L178.327 58.2525C178.844 57.9069 179.403 57.5829 179.876 57.2698C180.35 56.9566 180.726 56.7622 181.157 56.5138H180.931C179.855 56.5138 178.693 56.4274 177.574 56.3734L170.862 56.1034C168.781 55.8874 166.683 55.8874 164.602 56.1034C162.816 56.4166 162.009 57.5613 160.944 58.6845C162.461 58.6845 164.021 58.7601 165.516 58.7925C169.378 58.8681 173.25 58.6521 177.047 58.9113Z" fill="#CC5764"/>
<path d="M144.917 63.1243C142.562 59.9582 139.394 57.4944 135.752 55.9966C131.999 54.6078 127.893 54.5128 124.081 55.7266C120.457 56.8702 117.144 58.8361 114.399 61.472C117.256 59.6811 120.602 58.8385 123.962 59.0637C127.667 59.35 131.25 60.516 134.418 62.4655C140.022 65.8566 144.099 71.3751 146.638 77.3365C149.395 83.4207 150.544 90.1159 149.972 96.7757C149.217 103.337 147.012 109.646 143.518 115.243C143.4 115.426 143.26 115.578 143.142 115.761C145.568 113.717 147.63 111.274 149.241 108.536C153.242 101.754 154.254 93.6654 153.372 85.9221C152.489 78.1789 149.8 69.4852 144.917 63.1243Z" fill="#E1A159"/>
<path d="M179.199 59.5802C178.94 59.7314 178.682 59.9258 178.413 60.0986C178.847 63.0584 179.034 66.0495 178.973 69.0406C178.973 72.0753 178.973 75.1207 178.876 78.1554C178.779 81.1901 178.747 84.4083 178.736 87.5402C178.736 89.1061 178.736 90.6613 178.79 92.2272C178.79 92.4648 178.79 92.7348 178.79 92.994L179.156 92.6268C179.704 92.0436 180.231 91.482 180.823 90.9097C181.82 89.9017 182.809 88.8866 183.792 87.8642C183.568 87.1344 183.495 86.3663 183.577 85.6071C183.577 84.1167 183.512 82.6264 183.491 81.1361C183.426 78.3138 183.369 75.5023 183.318 72.7016C183.254 69.8074 183.2 66.9023 183.136 64.062C183.136 62.5717 183.06 61.0813 183.05 59.5802C183.05 58.9106 183.05 58.2194 183.05 57.5391L182.35 57.8414C181.805 58.1222 181.267 58.4138 180.737 58.7162C180.188 58.9538 179.661 59.267 179.199 59.5802Z" fill="#CC5764"/>
<path d="M148.004 91.947C147.696 86.0027 145.986 80.217 143.013 75.0673C140.451 70.3225 136.582 66.4193 131.868 63.825C128.482 62.0621 124.663 61.3124 120.864 61.665C120.782 61.737 120.681 61.7855 120.574 61.8054C117.816 62.294 115.197 63.3811 112.9 64.9908C110.604 66.6006 108.685 68.6942 107.278 71.1254C103.772 76.8276 102.975 83.7609 102.868 90.3271C102.782 96.2668 103.115 102.131 105.342 107.704C107.321 112.661 110.796 118.265 115.669 120.782C118.401 122.186 121.542 122.175 124.532 121.862C127.256 121.592 129.959 121.137 132.621 120.501C135.225 119.983 137.652 118.801 139.667 117.067C141.819 115.08 142.97 112.142 144.164 109.507C146.798 104.037 148.114 98.0218 148.004 91.947ZM131.868 99.8955C129.878 104.68 125.006 108.902 119.756 105.954C114.302 102.876 113.991 95.716 114.69 90.1974C115.324 85.3052 117.788 75.8989 124.285 76.4496C127.275 76.7088 129.545 79.0739 130.922 81.5794C132.409 84.3757 133.264 87.4661 133.428 90.6316C133.591 93.797 133.059 96.9598 131.868 99.8955Z" fill="#EFCA63"/>
<path d="M226.142 71.3518C224.133 69.5739 221.852 68.1334 219.386 67.086C218.051 66.5793 216.629 66.3408 215.202 66.384C214.524 66.384 213.879 66.5352 213.233 66.5784C212.781 66.9077 212.298 67.1933 211.792 67.4316C211.685 67.4931 211.563 67.5216 211.44 67.5135C211.318 67.5054 211.2 67.461 211.102 67.386C211.005 67.311 210.931 67.2087 210.891 67.0919C210.851 66.9751 210.847 66.849 210.878 66.7296C211.405 64.6345 212.792 62.9173 213.9 61.1246C215.136 59.3254 215.925 57.2555 216.202 55.0877C216.579 50.7678 213.535 47.528 210.06 45.5409C206.693 43.6389 202.846 42.7644 198.991 43.0246C197.101 43.1465 195.236 43.5318 193.452 44.1693C193 44.3313 192.548 44.5257 192.107 44.7093C191.182 46.1617 189.948 47.39 188.493 48.3055C188.009 48.6079 187.234 48.1004 187.417 47.5064C188.009 45.9837 188.546 44.4393 189.256 42.9598C189.942 41.5712 190.507 40.1259 190.945 38.64C191.836 35.5344 192.012 32.2664 191.462 29.0824C190.457 23.6576 187.487 18.7985 183.125 15.4425C178.091 11.6735 171.744 10.7447 165.613 11.5979C159.338 12.6009 153.27 14.6293 147.649 17.6024C142.41 20.2699 137.484 23.8446 134.3 28.8988C134.194 29.0925 134.038 29.2542 133.849 29.3668C133.66 29.4794 133.444 29.5388 133.224 29.5388C133.004 29.5388 132.788 29.4794 132.599 29.3668C132.409 29.2542 132.254 29.0925 132.148 28.8988C130.607 25.7338 128.158 23.1045 125.115 21.3491C122.073 19.5938 118.577 18.7929 115.077 19.0496C111.571 19.4099 108.259 20.8424 105.59 23.1534C103.085 25.4498 101.147 28.3006 99.9314 31.4798C99.8996 31.57 99.8486 31.6521 99.782 31.7204C99.7153 31.7887 99.6347 31.8417 99.5457 31.8756C99.4566 31.9095 99.3613 31.9236 99.2663 31.9168C99.1713 31.91 99.0789 31.8825 98.9955 31.8362C98.8362 31.9121 98.6588 31.9411 98.4837 31.9201C98.3086 31.8991 98.143 31.8288 98.0059 31.7174C97.0969 30.7488 96.3258 29.6585 95.7147 28.4776C95.0089 27.2716 94.2405 26.1036 93.4127 24.9785C91.7874 22.7074 89.8206 20.7036 87.5825 19.0388C85.5091 17.5569 83.1307 16.5615 80.6228 16.126C78.115 15.6904 75.5417 15.826 73.093 16.5225C68.5453 17.6763 64.3352 19.897 60.8087 23.0022C57.3768 26.003 54.5944 29.6786 52.6334 33.8018C51.6349 35.9274 50.8772 38.1589 50.3745 40.4543C49.9119 42.4954 49.8044 44.5581 49.5355 46.6208C49.7898 46.9394 49.9765 47.307 50.0841 47.7008C50.1023 47.7676 50.1023 47.8382 50.0843 47.9051C50.0662 47.972 50.0306 48.0329 49.9813 48.0813C49.9319 48.1298 49.8705 48.1641 49.8035 48.1808C49.7364 48.1974 49.6662 48.1957 49.6 48.176C49.292 48.1041 48.9927 47.9991 48.7072 47.8628L48.5351 47.7872C48.5351 47.7872 48.449 47.7872 48.406 47.7224C47.8985 47.455 47.378 47.2135 46.8462 46.9988C45.8788 46.6341 44.8567 46.4369 43.8236 46.4156C42.0073 46.3336 40.2176 46.8766 38.7505 47.9548C37.2834 49.0329 36.227 50.5816 35.7559 52.3446C35.3442 54.1717 35.4789 56.0802 36.1431 57.8308C36.4586 58.6991 36.9088 59.5119 37.477 60.2391C38.197 60.918 38.7875 61.7232 39.2196 62.6149C39.2472 62.7219 39.2503 62.8336 39.2289 62.942C39.2074 63.0503 39.162 63.1523 39.0958 63.2405C39.0296 63.3288 38.9445 63.4009 38.8468 63.4515C38.749 63.5021 38.6411 63.5299 38.5312 63.5329C38.3203 63.5315 38.1106 63.5025 37.9073 63.4465C35.584 63.6516 33.3114 64.2466 31.1842 65.2068C29.0022 66.3637 26.9896 67.8173 25.2034 69.5267C18.9322 75.3692 13.3709 83.6741 15.9955 92.6053C17.3217 96.9846 19.7351 100.954 23.009 104.139C24.6444 105.739 26.6246 106.94 28.7962 107.649C30.9476 108.308 33.099 107.887 35.2503 108.362C35.3565 108.389 35.4551 108.441 35.5389 108.512C35.6227 108.583 35.6895 108.672 35.7344 108.772C35.8504 108.847 35.9475 108.948 36.0181 109.067C36.0887 109.186 36.1309 109.32 36.1413 109.458C36.1517 109.596 36.1301 109.735 36.0782 109.863C36.0262 109.992 35.9454 110.106 35.842 110.198C34.5599 111.278 33.5903 112.684 33.0344 114.269C32.5527 115.827 32.6327 117.506 33.2603 119.01C34.0124 120.559 35.3022 121.778 36.8871 122.438C38.472 123.098 40.2427 123.154 41.8658 122.596C42.0783 122.543 42.3008 122.546 42.5118 122.604C42.7228 122.663 42.915 122.776 43.0698 122.931C43.2246 123.087 43.3368 123.28 43.3954 123.491C43.4539 123.703 43.4569 123.927 43.404 124.14C42.5469 128.239 43.1563 132.51 45.1251 136.203C46.8163 139.558 49.4495 142.343 52.6994 144.212C55.9493 146.081 59.6735 146.954 63.4118 146.722C67.2443 146.44 70.9441 145.192 74.1687 143.093C75.8136 142.036 77.3268 140.785 78.6758 139.367C79.8591 137.931 81.1462 136.585 82.5268 135.339C83.2045 134.821 83.9359 135.469 84.0542 136.16C86.1896 138.768 89.2149 140.484 92.5414 140.976C96.1665 141.441 100.265 139.27 102.427 136.451C102.547 136.255 102.716 136.093 102.916 135.98C103.117 135.867 103.343 135.808 103.573 135.808C103.802 135.808 104.028 135.867 104.229 135.98C104.429 136.093 104.598 136.255 104.718 136.451C107.518 141.306 111.33 145.495 115.895 148.731C123.736 154.13 133.557 156.355 142.69 153.126C146.905 151.641 150.704 149.163 153.77 145.901C156.911 142.521 158.416 138.341 160.503 134.313C160.579 134.139 160.718 134 160.891 133.924C161.065 133.848 161.26 133.841 161.439 133.903C161.557 133.861 161.682 133.845 161.806 133.855C161.931 133.864 162.052 133.899 162.162 133.958C162.272 134.017 162.369 134.098 162.446 134.196C162.524 134.295 162.58 134.408 162.612 134.529C163.386 138.568 166.398 142.337 170.539 143.169C172.434 143.522 174.393 143.186 176.063 142.22C177.733 141.254 179.005 139.722 179.651 137.899C179.716 137.664 179.841 137.45 180.014 137.279C180.186 137.108 180.4 136.984 180.635 136.921C180.869 136.858 181.116 136.857 181.351 136.919C181.585 136.98 181.8 137.102 181.974 137.272C185.826 141.429 190.624 144.586 195.958 146.473C200.583 148.223 205.499 149.055 210.265 147.402C214.201 145.98 217.517 143.217 219.634 139.594C221.702 135.978 222.324 131.709 221.376 127.65C220.944 125.669 220.184 123.774 219.128 122.045C218.053 120.231 216.17 118.891 215.525 116.861C215.483 116.694 215.479 116.52 215.513 116.351C215.547 116.182 215.618 116.023 215.721 115.885C215.824 115.747 215.957 115.635 216.109 115.555C216.261 115.475 216.429 115.431 216.6 115.425C217.26 115.495 217.896 115.712 218.461 116.062C219.233 115.525 220.072 115.093 220.957 114.777C222.04 114.259 223.093 113.679 224.109 113.038C226.227 111.686 228.152 110.051 229.831 108.178C232.8 104.86 235.003 100.926 236.285 96.6551C237.641 92.1085 238.125 86.59 236.146 82.1513C234.166 77.7127 229.896 74.4081 226.142 71.3518ZM99.2107 112.239C99.2107 112.239 99.2107 112.304 99.2107 112.325C99.0956 112.792 98.8491 113.216 98.5007 113.546C98.4286 113.588 98.3531 113.624 98.2748 113.654C98.0059 113.967 97.7262 114.28 97.4358 114.582C96.8367 115.22 96.2047 115.825 95.5426 116.397C94.8613 116.99 94.1427 117.538 93.3912 118.038C92.9786 118.327 92.5514 118.594 92.1111 118.837C92.0202 119.01 91.895 119.163 91.7433 119.285C91.5917 119.408 91.4167 119.498 91.2291 119.55C87.8192 120.241 84.3232 119.95 80.8702 119.82C79.9989 119.82 79.1061 119.82 78.2348 119.723C77.4523 119.579 76.6621 119.482 75.8683 119.431C75.0615 119.431 74.3085 119.637 73.4802 119.626H70.834L60.0019 119.388C57.4848 119.323 54.8494 119.615 52.3753 119.485C50.5359 119.399 50.0303 118.33 49.9227 116.559C49.8582 115.338 49.8044 114.107 49.7506 112.876C49.6323 110.425 49.5462 107.973 49.4602 105.511C49.2952 100.514 49.2056 95.514 49.1912 90.5102C49.1912 87.9723 49.1159 85.4128 49.245 82.8749C49.3741 80.337 49.245 77.9719 49.245 75.4988C49.245 73.0257 49.4064 70.585 49.5355 68.1335C49.5538 65.9623 49.7409 63.7958 50.0948 61.6538C49.9866 61.5381 49.9187 61.3903 49.9012 61.2326C49.8265 60.8435 49.8504 60.4418 49.9707 60.0644C50.091 59.687 50.3038 59.346 50.5896 59.0727C50.5855 58.9066 50.643 58.745 50.751 58.6191C51.988 57.0748 53.0529 55.5629 54.9892 54.8609C56.9285 54.3297 58.9499 54.1685 60.9485 54.3857C63.4226 54.4397 65.8967 54.5153 68.3707 54.5585L72.2002 54.6341C73.2959 54.4973 74.4082 54.65 75.4272 55.0769C75.5025 55.0769 75.5133 55.2065 75.5563 55.2605C75.6692 55.2819 75.7749 55.3318 75.8633 55.4054C75.9518 55.4791 76.0201 55.5742 76.0619 55.6816C76.4171 57.0264 76.5694 58.417 76.5137 59.8071C76.5782 61.2974 76.5997 62.7878 76.632 64.2781C76.7109 67.1004 76.7826 69.9118 76.8471 72.7125L77.073 81.3521C77.073 82.8425 77.1483 84.3437 77.1914 85.834C77.225 86.2942 77.225 86.7562 77.1914 87.2163C78.267 86.644 79.9559 86.8599 81.0853 86.9139C82.8387 86.9787 84.5813 87.0651 86.324 87.1947C89.906 87.4323 93.4773 87.7023 97.0808 87.9075C97.3661 87.9075 97.6397 88.0213 97.8414 88.2238C98.0432 88.4263 98.1565 88.701 98.1565 88.9874C98.2485 89.0634 98.3221 89.1595 98.3716 89.2682C99.0063 91.2446 98.8127 93.6853 98.8987 95.748C98.9848 97.8107 99.0816 99.9058 99.1461 101.99C99.2107 104.074 99.286 106.159 99.3398 108.232C99.47 109.568 99.4267 110.915 99.2107 112.239ZM149.176 111.839C147.092 114.828 144.491 117.418 141.496 119.485C135.268 123.676 126.813 124.583 119.53 123.74C116.681 123.414 114.002 122.211 111.861 120.295C107.406 116.169 104.193 110.871 102.588 105.003C100.792 98.7934 100.856 91.9141 101.416 85.564C102.009 79.2021 104.213 73.098 107.816 67.8311C108.446 66.6782 109.165 65.5768 109.968 64.5373C111.39 62.6719 113.005 60.9632 114.787 59.4399C118.242 56.4073 122.469 54.3994 126.996 53.6405C145.541 50.9514 154.458 73.5873 155.362 88.5231C155.813 96.6875 154.017 105.1 149.176 111.839ZM207.694 112.239C207.7 112.267 207.7 112.297 207.694 112.325C207.579 112.792 207.332 113.216 206.984 113.546C206.914 113.586 206.842 113.622 206.769 113.654C206.489 113.967 206.209 114.28 205.919 114.582C205.322 115.223 204.69 115.828 204.026 116.397C203.348 116.995 202.629 117.543 201.874 118.038C201.463 118.329 201.036 118.596 200.594 118.837C200.503 119.01 200.378 119.163 200.226 119.285C200.075 119.408 199.9 119.498 199.712 119.55C196.302 120.241 192.806 119.95 189.353 119.82C188.482 119.82 187.589 119.82 186.718 119.723C185.935 119.579 185.145 119.482 184.351 119.431C183.545 119.431 182.792 119.637 181.963 119.626H179.317L168.442 119.345C166.689 119.345 164.924 119.226 163.16 119.172C161.009 119.107 158.535 119.259 158.373 116.516C158.298 115.295 158.244 114.064 158.191 112.833C158.083 110.385 157.986 107.93 157.9 105.468C157.757 100.471 157.685 95.4708 157.685 90.467C157.685 87.9291 157.62 85.3696 157.685 82.8317C157.75 80.2938 157.685 77.9287 157.685 75.4556C157.685 72.9825 157.846 70.5418 157.975 68.0903C157.994 65.9191 158.181 63.7526 158.535 61.6106C158.427 61.4949 158.359 61.3471 158.341 61.1894C158.267 60.8003 158.29 60.3986 158.411 60.0212C158.531 59.6438 158.744 59.3028 159.03 59.0295C159.031 58.8644 159.088 58.7046 159.191 58.5759C160.428 57.0316 161.504 55.5196 163.429 54.8177C165.369 54.288 167.39 54.1268 169.388 54.3425C171.863 54.3965 174.337 54.4721 176.811 54.5153L180.64 54.5909C181.736 54.4541 182.848 54.6068 183.867 55.0337C183.943 55.0337 183.953 55.1633 183.996 55.2173C184.109 55.2387 184.215 55.2886 184.303 55.3622C184.392 55.4359 184.46 55.531 184.502 55.6384C184.862 56.9822 185.015 58.3736 184.954 59.7639C185.018 61.2542 185.04 62.7445 185.072 64.2349C185.151 67.0572 185.223 69.8687 185.287 72.6693L185.513 81.309C185.513 82.7993 185.588 84.3004 185.631 85.7908C185.659 86.2511 185.659 86.7128 185.631 87.1731C186.707 86.6007 188.385 86.8167 189.515 86.8707C191.268 86.9355 193.011 87.0219 194.753 87.1515C198.335 87.3891 201.917 87.6591 205.51 87.8643C205.786 87.8782 206.046 87.998 206.236 88.1991C206.426 88.4001 206.532 88.667 206.532 88.9443C206.627 89.0171 206.701 89.114 206.747 89.225C207.382 91.2013 207.188 93.642 207.274 95.7048C207.36 97.7675 207.457 99.8626 207.532 101.947C207.608 104.031 207.661 106.116 207.715 108.189C207.885 109.534 207.878 110.896 207.694 112.239Z" fill="#ADD6F5"/>
<path d="M124.134 103.287C123.227 102.189 122.501 100.953 121.983 99.6257C120.821 96.8105 120.155 93.814 120.014 90.77C119.815 87.6079 120.353 84.4427 121.585 81.5256C122.057 80.5144 122.665 79.5732 123.392 78.7285C122.447 78.8953 121.554 79.2834 120.786 79.8613C120.018 80.4392 119.396 81.1907 118.971 82.0548C118.328 83.1305 117.798 84.2706 117.39 85.4566C116.571 87.94 116.122 90.531 116.056 93.1459C115.884 97.6709 116.852 103.697 121.961 105.112C123.237 105.481 124.605 105.342 125.78 104.723C125.147 104.351 124.589 103.864 124.134 103.287Z" fill="#E1A159"/>
<path d="M96.8764 101.353C96.8119 99.3519 96.7365 97.354 96.6505 95.3597C96.6505 94.2257 96.4676 93.0054 96.4354 91.8066L95.4242 93.3402C94.9439 94.167 94.4197 94.9674 93.8537 95.7377C93.9712 96.1773 94.0076 96.6348 93.9613 97.0876C93.9613 98.1676 93.7999 99.2475 93.6816 100.273C93.7945 101.271 93.7945 102.278 93.6816 103.276C93.6063 104.939 93.5095 106.602 93.3912 108.254C93.176 111.062 92.8533 113.848 92.4661 116.635C93.0792 116.138 93.6924 115.652 94.2732 115.134C94.8541 114.615 95.478 113.989 96.0374 113.373C96.3314 113.064 96.6111 112.74 96.8764 112.401L96.9302 112.326C96.9302 111.635 97.1238 110.954 97.113 110.241C97.113 109.291 97.113 108.319 97.0485 107.369C97.0055 105.36 96.9517 103.373 96.8764 101.353Z" fill="#CC5764"/>
<path d="M95.1661 89.8844L86.5606 89.1932C84.8718 89.0528 83.1829 88.8801 81.4834 88.7181C80.6551 88.6425 79.8268 88.5561 78.9985 88.5453C78.4135 88.5895 77.8254 88.5678 77.2451 88.4805C77.2034 88.5521 77.1567 88.6207 77.1053 88.6857C75.922 89.8844 74.7388 91.0832 73.534 92.2711C72.9316 92.8543 72.3185 93.4375 71.6946 93.9991C71.4042 94.269 71.103 94.5714 70.7803 94.8414H71.9097C73.1253 94.8414 74.3408 94.917 75.5563 94.9278C77.9874 94.9278 80.4184 94.9278 82.8495 94.9278C85.2805 94.8738 87.7116 94.7874 90.1426 94.6362C90.702 94.6362 91.3582 94.4958 91.9713 94.5066C92.4628 93.7047 93.0016 92.9329 93.5848 92.1955L95.1661 89.8844Z" fill="#CC5764"/>
<path d="M89.1745 97.0885C88.0988 97.0885 87.0231 97.0885 85.9474 97.0885C83.9682 97.0885 81.9889 97.0885 80.0204 97.0021C78.0519 96.9157 76.0619 96.8509 74.0934 96.7429C73.0177 96.6889 71.942 96.6457 70.8663 96.5593C70.4775 96.5553 70.0921 96.4859 69.7261 96.3541C69.6591 96.4391 69.575 96.5088 69.4792 96.5587C69.3834 96.6086 69.2782 96.6376 69.1705 96.6437C69.0627 96.6498 68.9549 96.633 68.8542 96.5942C68.7534 96.5555 68.662 96.4957 68.5859 96.4189C67.65 95.339 67.8544 93.8055 67.8221 92.4771C67.7683 90.922 67.7576 89.356 67.7468 87.7901C67.7468 84.7446 67.8114 81.71 67.8867 78.6645C67.962 75.619 68.0373 72.4116 68.0373 69.2905C68.0373 66.4934 67.8867 63.6639 67.9727 60.856C64.9285 60.856 61.852 60.6725 58.8186 60.5213C57.1728 60.4457 55.527 60.4133 53.8705 60.3593H52.7948C52.4369 60.3282 52.077 60.3282 51.7191 60.3593C51.3318 60.4673 51.4502 60.3053 51.3641 60.748C51.3641 60.8776 51.3641 60.9964 51.3641 61.126C51.649 63.4582 51.7138 65.8121 51.5577 68.1565C51.5577 70.608 51.5577 73.0703 51.4932 75.5218C51.4286 77.9733 51.278 80.4356 51.3749 82.8979C51.4717 85.3602 51.3749 87.9953 51.4394 90.5332C51.4394 95.5334 51.6008 100.534 51.7621 105.534C51.8338 107.996 51.927 110.451 52.0418 112.899C52.1063 114.217 52.1709 115.534 52.2247 116.852C52.2247 117.014 52.2247 117.176 52.2247 117.338C53.0524 117.295 53.8818 117.295 54.7095 117.338C56.4736 117.338 58.2377 117.338 59.9911 117.338H70.2962C71.9825 117.218 73.6766 117.272 75.3519 117.5C76.133 117.6 76.9253 117.571 77.6969 117.413C78.4822 117.348 79.2782 117.413 80.0742 117.359C83.2404 117.484 86.4113 117.375 89.5617 117.035C90.39 110.761 90.6374 104.4 91.2829 98.1037C91.2829 97.8229 91.4012 97.4665 91.4334 97.1209C91.0892 97.1209 90.702 97.1857 90.5406 97.1857L89.1745 97.0885Z" fill="#D6838D"/>
<path d="M125.748 79.0742C125.354 79.3023 124.992 79.582 124.672 79.9058C123.949 80.7347 123.384 81.6902 123.005 82.7245C122.066 85.2141 121.663 87.8752 121.822 90.5325C121.947 93.2077 122.492 95.8464 123.435 98.3514C123.822 99.4263 124.347 100.446 124.995 101.386C125.371 101.918 125.807 102.404 126.297 102.833C126.441 102.988 126.567 103.158 126.673 103.341H126.759C126.88 103.305 127.009 103.308 127.128 103.348C127.247 103.389 127.351 103.466 127.426 103.568C129.099 101.73 130.289 99.5032 130.89 97.0879C132.196 92.3332 131.698 87.2608 129.491 82.8541C128.721 81.1944 127.397 79.8574 125.748 79.0742Z" fill="#ADD6F5"/>
<path d="M99.0707 102.077C99.0061 99.9927 98.9201 97.9192 98.8233 95.8349C98.7265 93.7505 98.9308 91.3314 98.2962 89.3551C98.2466 89.2464 98.173 89.1504 98.081 89.0744C98.081 88.7879 97.9677 88.5132 97.766 88.3107C97.5643 88.1082 97.2906 87.9944 97.0054 87.9944C93.4233 87.7892 89.852 87.5192 86.2485 87.2816C84.5059 87.152 82.7633 87.0656 81.0099 87.0008C79.8804 86.9468 78.2024 86.7308 77.1159 87.3032C77.1495 86.8431 77.1495 86.381 77.1159 85.9209C77.1159 84.4305 77.0406 82.9294 76.9976 81.4391L76.7717 72.7994C76.7071 69.9916 76.6354 67.1801 76.5566 64.365C76.5566 62.8747 76.5566 61.3843 76.4382 59.894C76.494 58.5039 76.3417 57.1133 75.9864 55.7686C75.9447 55.6611 75.8763 55.566 75.7879 55.4923C75.6994 55.4187 75.5938 55.3688 75.4809 55.3474C75.4809 55.2934 75.4809 55.207 75.3518 55.1638C74.3328 54.7369 73.2205 54.5842 72.1247 54.721L68.2953 54.6454C65.8212 54.6454 63.3471 54.5266 60.873 54.4726C58.8745 54.2554 56.8531 54.4166 54.9137 54.9478C52.9775 55.6498 51.9126 57.1617 50.6755 58.706C50.5676 58.8319 50.51 58.9936 50.5142 59.1596C50.2284 59.4329 50.0156 59.7739 49.8953 60.1513C49.775 60.5287 49.7511 60.9304 49.8257 61.3195C49.8432 61.4772 49.9112 61.625 50.0194 61.7407C49.6654 63.8827 49.4784 66.0492 49.46 68.2204C49.3309 70.6719 49.2233 73.1342 49.1696 75.5857C49.1158 78.0372 49.2341 80.4995 49.1696 82.9618C49.105 85.4241 49.0943 88.0592 49.1158 90.5971C49.1158 95.5937 49.2054 100.594 49.3847 105.598C49.4708 108.06 49.5568 110.511 49.6751 112.963C49.6751 114.194 49.7827 115.425 49.8472 116.646C49.9548 118.417 50.4604 119.486 52.2998 119.572C54.7739 119.702 57.4093 119.41 59.9264 119.475L70.7586 119.713H73.4048C74.2331 119.713 74.986 119.561 75.7928 119.518C76.5867 119.569 77.3769 119.666 78.1593 119.81C79.0306 119.875 79.9235 119.875 80.7948 119.907C84.2477 120.037 87.7437 120.328 91.1536 119.637C91.3412 119.585 91.5162 119.495 91.6679 119.372C91.8195 119.249 91.9447 119.097 92.0357 118.924C92.4759 118.68 92.9032 118.414 93.3158 118.125C94.0673 117.625 94.7859 117.077 95.4671 116.484C96.1293 115.912 96.7612 115.307 97.3603 114.669C97.6508 114.367 97.9305 114.054 98.1994 113.741C98.2776 113.711 98.3532 113.675 98.4253 113.633C98.7737 113.303 99.0201 112.879 99.1352 112.412C99.1352 112.412 99.1352 112.358 99.1352 112.326C99.3187 111.027 99.3368 109.709 99.189 108.406C99.2105 106.246 99.146 104.161 99.0707 102.077ZM73.8566 57.7989L74.5558 57.4965C74.5558 58.1769 74.5558 58.868 74.5558 59.5376C74.5558 61.0387 74.6096 62.5291 74.6418 64.0194C74.7064 66.9137 74.7602 69.8188 74.8247 72.659L74.986 81.0935L75.0829 85.5645C75.001 86.3237 75.0742 87.0918 75.298 87.8216C74.3227 88.844 73.3331 89.8591 72.3291 90.8671C71.7697 91.4395 71.2534 92.001 70.6618 92.5842L70.296 92.9514C70.296 92.6922 70.296 92.4222 70.296 92.1846C70.296 90.6187 70.2423 89.0635 70.2423 87.4976C70.2423 84.3657 70.3176 81.2447 70.3714 78.1128C70.4251 74.9809 70.4897 72.0327 70.4789 68.998C70.5423 66.0065 70.3516 63.015 69.9088 60.056C70.1885 59.8832 70.4467 59.6888 70.6941 59.5376C71.2211 59.2244 71.7697 58.9112 72.2861 58.6196C72.8024 58.328 73.308 58.0688 73.8566 57.7881V57.7989ZM56.1508 56.1357C58.2321 55.9197 60.33 55.9197 62.4113 56.1357L69.1236 56.4057C70.1992 56.4597 71.361 56.5137 72.4689 56.5461H72.7056C72.2753 56.7945 71.845 57.0429 71.4255 57.3021C71.006 57.5613 70.3498 57.9393 69.8765 58.2848L69.0913 58.814L68.8008 59.0192C68.736 58.9858 68.6674 58.9605 68.5965 58.9436C64.767 58.6844 60.8946 58.9436 57.0651 58.8464C55.5591 58.8464 54.0102 58.6952 52.4934 58.7384C53.5584 57.5829 54.4189 56.4381 56.1508 56.1249V56.1357ZM91.2827 97.9732C90.5835 104.269 90.3899 110.63 89.5616 116.905C86.4112 117.245 83.2402 117.353 80.0741 117.229C79.278 117.229 78.482 117.229 77.6968 117.283C76.9251 117.44 76.1329 117.47 75.3518 117.369C73.6765 117.142 71.9824 117.088 70.296 117.207H59.991C58.2376 117.207 56.4735 117.207 54.7094 117.207C53.8816 117.164 53.0522 117.164 52.2245 117.207C52.2245 117.045 52.2245 116.883 52.2245 116.721C52.2245 115.404 52.1062 114.086 52.0416 112.769C51.9341 110.321 51.8408 107.866 51.762 105.403C51.6006 100.403 51.4823 95.4029 51.4393 90.4027C51.4393 87.8648 51.4393 85.3053 51.3747 82.7674C51.3102 80.2295 51.4608 77.8644 51.493 75.3913C51.5253 72.9182 51.493 70.4775 51.5576 68.026C51.7137 65.6816 51.6489 63.3277 51.364 60.9955C51.364 60.8659 51.364 60.7471 51.364 60.6176C51.45 60.1748 51.364 60.3368 51.7189 60.2288C52.0768 60.1977 52.4367 60.1977 52.7946 60.2288H53.8703C55.5269 60.2288 57.1727 60.3152 58.8185 60.3908C61.8519 60.5419 64.9284 60.7687 67.9726 60.7255C67.8865 63.5334 68.0371 66.3629 68.0371 69.16C68.0371 72.2811 67.9618 75.4129 67.8865 78.534C67.8112 81.6551 67.7467 84.6142 67.7467 87.6596C67.7467 89.2256 67.7467 90.7915 67.822 92.3466C67.822 93.675 67.6499 95.2517 68.5857 96.2884C68.6618 96.3652 68.7533 96.425 68.854 96.4637C68.9548 96.5025 69.0626 96.5193 69.1703 96.5132C69.2781 96.5071 69.3833 96.4781 69.479 96.4282C69.5748 96.3783 69.659 96.3086 69.7259 96.2237C70.0919 96.3554 70.4773 96.4248 70.8662 96.4288C71.9418 96.5152 73.0175 96.5584 74.0932 96.6124C76.0617 96.7204 78.041 96.8068 80.0203 96.8716C81.9995 96.9364 83.968 96.958 85.9473 96.958C87.023 96.958 88.0987 96.958 89.1744 96.958H90.5405C90.7018 96.958 91.0891 96.958 91.4333 96.8932C91.401 97.3468 91.315 97.7032 91.2827 97.9732ZM91.9174 94.5173C91.3042 94.5173 90.6481 94.6145 90.0887 94.6469C87.6576 94.7981 85.2266 94.8845 82.7955 94.9385C80.3645 94.9925 77.9334 95.0033 75.5024 94.9385C74.2869 94.9385 73.0713 94.9385 71.8558 94.8521H70.7263C71.049 94.5821 71.3502 94.2797 71.6407 94.0097C72.2646 93.4482 72.8777 92.865 73.4801 92.2818C74.6849 91.0939 75.8681 89.8951 77.0514 88.6964C77.1028 88.6314 77.1495 88.5628 77.1912 88.4912C77.7714 88.5785 78.3595 88.6002 78.9446 88.556C79.7729 88.556 80.6011 88.6532 81.4294 88.7288C83.129 88.8908 84.8178 89.0636 86.5067 89.2039L95.1122 89.8951L93.4771 92.2278C92.9127 92.9632 92.3918 93.7313 91.9174 94.5281V94.5173ZM96.9301 112.315L96.8763 112.391C96.6109 112.729 96.3313 113.053 96.0372 113.363C95.4779 113.978 94.8863 114.561 94.2731 115.123C93.66 115.684 93.0791 116.127 92.466 116.624C92.8532 113.838 93.1759 111.051 93.391 108.244C93.5094 106.591 93.6062 104.928 93.6815 103.265C93.7944 102.267 93.7944 101.26 93.6815 100.263C93.7998 99.1827 93.9074 98.1028 93.9612 97.0768C94.0075 96.624 93.9711 96.1665 93.8536 95.7269C94.4196 94.9566 94.9438 94.1563 95.4241 93.3294L96.4352 91.7958C96.4352 92.9946 96.5966 94.2149 96.6504 95.3489C96.7364 97.3504 96.8117 99.3483 96.8763 101.343C96.9516 103.351 97.0054 105.349 97.0484 107.358C97.0484 108.308 97.1022 109.28 97.1129 110.231C97.1237 110.933 96.9839 111.635 96.9301 112.326V112.315Z" fill="#922734"/>
<path d="M207.565 102.078C207.489 99.9937 207.403 97.9202 207.306 95.8359C207.21 93.7516 207.414 91.3325 206.779 89.3561C206.734 89.2451 206.659 89.1483 206.564 89.0754C206.565 88.7981 206.459 88.5313 206.268 88.3302C206.078 88.1292 205.818 88.0093 205.542 87.9954C201.96 87.7902 198.378 87.5202 194.785 87.2826C193.043 87.1531 191.3 87.0666 189.547 87.0019C188.417 86.9479 186.739 86.7319 185.664 87.3042C185.691 86.8439 185.691 86.3823 185.664 85.9219C185.664 84.4316 185.588 82.9304 185.545 81.4401L185.319 72.8005C185.255 69.9926 185.183 67.1811 185.104 64.366C185.104 62.8757 185.104 61.3853 184.986 59.895C185.047 58.5047 184.895 57.1133 184.534 55.7696C184.492 55.6621 184.424 55.567 184.336 55.4934C184.247 55.4197 184.142 55.3698 184.029 55.3484C184.029 55.2944 184.029 55.208 183.9 55.1648C182.881 54.7379 181.768 54.5853 180.672 54.722L176.843 54.6464C174.369 54.6464 171.895 54.5276 169.421 54.4736C167.422 54.258 165.401 54.4191 163.461 54.9488C161.536 55.6508 160.46 57.1627 159.223 58.707C159.12 58.8357 159.063 58.9955 159.062 59.1606C158.776 59.4339 158.563 59.7749 158.443 60.1523C158.323 60.5297 158.299 60.9314 158.373 61.3205C158.391 61.4782 158.459 61.626 158.567 61.7417C158.213 63.8837 158.026 66.0502 158.008 68.2214C157.879 70.6729 157.771 73.1352 157.717 75.5867C157.664 78.0382 157.793 80.5005 157.717 82.9628C157.642 85.4251 157.653 88.0602 157.717 90.5981C157.717 95.5947 157.807 100.595 157.986 105.599C158.072 108.061 158.169 110.516 158.277 112.964C158.33 114.195 158.384 115.426 158.46 116.647C158.621 119.39 161.138 119.239 163.246 119.303C165.01 119.357 166.775 119.433 168.528 119.476L179.36 119.714H182.006C182.835 119.714 183.588 119.562 184.394 119.519C185.188 119.57 185.978 119.667 186.761 119.811C187.632 119.876 188.525 119.876 189.396 119.908C192.849 120.038 196.345 120.329 199.755 119.638C199.943 119.586 200.118 119.496 200.269 119.373C200.421 119.25 200.546 119.098 200.637 118.925C201.079 118.684 201.506 118.417 201.917 118.126C202.673 117.631 203.392 117.083 204.069 116.485C204.733 115.916 205.365 115.31 205.962 114.67C206.252 114.368 206.532 114.055 206.812 113.742C206.885 113.71 206.957 113.674 207.027 113.634C207.375 113.304 207.622 112.88 207.737 112.413C207.743 112.385 207.743 112.355 207.737 112.327C207.92 111.028 207.938 109.71 207.791 108.407C207.694 106.247 207.629 104.162 207.565 102.078ZM182.34 57.7999L183.039 57.4975C183.039 58.1779 183.039 58.869 183.039 59.5386C183.039 61.0397 183.093 62.5301 183.125 64.0204C183.19 66.9147 183.243 69.8198 183.308 72.6601C183.372 75.5003 183.415 78.2758 183.48 81.0945C183.48 82.5848 183.48 84.0752 183.566 85.5655C183.484 86.3248 183.557 87.0928 183.781 87.8226C182.806 88.845 181.816 89.8601 180.812 90.8681C180.253 91.4405 179.737 92.0021 179.145 92.5852L178.779 92.9524C178.779 92.6932 178.779 92.4232 178.779 92.1857C178.779 90.6197 178.725 89.0646 178.725 87.4986C178.725 84.3668 178.801 81.2457 178.865 78.1138C178.93 74.982 178.973 72.0337 178.962 68.999C179.024 66.0079 178.837 63.0168 178.403 60.057C178.672 59.8842 178.93 59.6898 179.188 59.5386C179.704 59.2254 180.264 58.9122 180.769 58.6206C181.275 58.3291 181.791 58.0699 182.34 57.7891V57.7999ZM164.634 56.1367C166.715 55.9207 168.813 55.9207 170.894 56.1367L177.607 56.4067C178.682 56.4607 179.844 56.5147 180.963 56.5471H181.189C180.759 56.7955 180.328 57.0439 179.909 57.3031C179.489 57.5623 178.833 57.9403 178.36 58.2859L177.574 58.815L177.284 59.0202C177.219 58.9868 177.151 58.9615 177.08 58.9446C173.25 58.6854 169.378 58.9446 165.548 58.8474C164.053 58.8474 162.493 58.6962 160.977 58.7394C162.042 57.5839 162.848 56.4391 164.634 56.126V56.1367ZM199.777 97.9742C199.067 104.27 198.873 110.631 198.045 116.906C194.894 117.246 191.723 117.354 188.557 117.23C187.761 117.23 186.965 117.23 186.18 117.284C185.408 117.441 184.616 117.471 183.835 117.37C182.16 117.143 180.466 117.089 178.779 117.208H168.474C166.721 117.208 164.957 117.208 163.193 117.208C162.365 117.165 161.535 117.165 160.708 117.208C160.708 117.046 160.708 116.884 160.708 116.722C160.654 115.405 160.589 114.087 160.525 112.77C160.417 110.322 160.324 107.867 160.245 105.404C160.087 100.408 159.98 95.4075 159.922 90.4037C159.922 87.8658 159.922 85.3063 159.858 82.7684C159.793 80.2306 159.944 77.8654 159.987 75.3923C160.03 72.9192 159.987 70.4786 160.041 68.0271C160.197 65.6827 160.132 63.3287 159.847 60.9965C159.847 60.8669 159.847 60.7482 159.847 60.6186C159.933 60.1758 159.847 60.3378 160.202 60.2298C160.56 60.1987 160.92 60.1987 161.278 60.2298H162.354C163.999 60.2298 165.645 60.3162 167.291 60.3918C170.335 60.543 173.401 60.7698 176.445 60.7266C176.359 63.5344 176.51 66.3639 176.51 69.161C176.51 72.2821 176.434 75.4139 176.359 78.535C176.284 81.6561 176.219 84.6152 176.23 87.6606C176.23 89.2266 176.23 90.7925 176.294 92.3476C176.294 93.676 176.122 95.2527 177.069 96.2895C177.143 96.3573 177.23 96.4094 177.325 96.443C177.42 96.4765 177.52 96.4906 177.62 96.4845C177.721 96.4785 177.819 96.4524 177.909 96.4078C177.999 96.3632 178.079 96.3009 178.145 96.2247C178.514 96.3565 178.903 96.4258 179.296 96.4299C180.371 96.5163 181.447 96.5594 182.523 96.6134C184.502 96.7214 186.47 96.8079 188.45 96.8727C190.429 96.9375 192.397 96.959 194.377 96.959C195.452 96.959 196.528 96.959 197.604 96.959H198.981C199.142 96.959 199.518 96.959 199.863 96.8942C199.884 97.3478 199.809 97.7042 199.777 97.9742ZM200.411 94.5183C199.787 94.5183 199.142 94.6156 198.572 94.6479C196.141 94.7991 193.71 94.8855 191.279 94.9395C188.848 94.9935 186.417 95.0043 183.986 94.9395C182.77 94.9395 181.555 94.9395 180.339 94.8531H179.21C179.532 94.5831 179.833 94.2807 180.124 94.0107C180.748 93.4492 181.361 92.866 181.963 92.2828C183.168 91.0949 184.351 89.8961 185.535 88.6974C185.586 88.6324 185.633 88.5638 185.674 88.4922C186.255 88.5795 186.843 88.6012 187.428 88.557C188.256 88.557 189.095 88.6542 189.913 88.7298C191.612 88.8918 193.301 89.0646 194.99 89.205L203.649 89.8961L202.014 92.2288C201.435 92.963 200.9 93.7311 200.411 94.5291V94.5183ZM205.424 112.316L205.359 112.392C205.094 112.73 204.814 113.054 204.52 113.364C203.962 113.98 203.373 114.567 202.756 115.124C202.175 115.642 201.562 116.128 200.949 116.625C201.336 113.839 201.67 111.052 201.874 108.245C202.003 106.592 202.089 104.929 202.165 103.266C202.278 102.268 202.278 101.261 202.165 100.264C202.283 99.1837 202.391 98.1038 202.455 97.0778C202.49 96.625 202.454 96.1694 202.348 95.7279C202.91 94.9576 203.431 94.1573 203.907 93.3304C204.252 92.8228 204.585 92.3044 204.918 91.7969C204.918 92.9956 205.08 94.216 205.134 95.3499C205.22 97.3514 205.295 99.3493 205.359 101.344C205.435 103.352 205.489 105.35 205.542 107.359C205.542 108.309 205.542 109.281 205.596 110.232C205.607 110.934 205.467 111.636 205.424 112.327V112.316Z" fill="#922734"/>
<path d="M126.953 53.5983C122.426 54.3571 118.199 56.3651 114.743 59.3976C112.962 60.921 111.347 62.6296 109.924 64.495C109.122 65.5345 108.403 66.6359 107.773 67.7889C104.169 73.0558 101.966 79.1598 101.373 85.5217C100.813 91.9151 100.749 98.7944 102.545 104.961C104.15 110.829 107.362 116.127 111.818 120.253C113.959 122.168 116.638 123.372 119.487 123.698C126.77 124.54 135.225 123.633 141.453 119.443C144.448 117.376 147.049 114.786 149.133 111.797C153.974 105.058 155.77 96.6777 155.275 88.4376C154.458 73.5451 145.497 50.9092 126.953 53.5983ZM139.656 117.067C137.641 118.801 135.214 119.984 132.611 120.501C129.948 121.137 127.245 121.592 124.521 121.862C121.531 122.186 118.39 122.197 115.658 120.782C110.785 118.266 107.31 112.661 105.331 107.704C103.105 102.131 102.771 96.2673 102.857 90.3275C102.954 83.7614 103.761 76.8281 107.267 71.1259C108.675 68.6947 110.593 66.6011 112.89 64.9913C115.186 63.3816 117.805 62.2945 120.563 61.8059C120.67 61.786 120.771 61.7375 120.853 61.6655C124.652 61.3129 128.471 62.0626 131.858 63.8255C136.563 66.4231 140.425 70.326 142.98 75.0678C145.965 80.2146 147.687 86.0005 148.004 91.9475C148.127 98.0351 146.819 104.066 144.185 109.551C142.959 112.143 141.765 115.08 139.656 117.067ZM149.262 108.503C147.651 111.241 145.589 113.684 143.163 115.728C143.281 115.544 143.421 115.393 143.54 115.21C147.033 109.613 149.238 103.304 149.994 96.7424C150.565 90.0827 149.417 83.3875 146.659 77.3033C144.088 71.3419 140.044 65.8234 134.439 62.4323C131.272 60.4828 127.688 59.3168 123.984 59.0305C120.623 58.8053 117.277 59.6479 114.421 61.4387C117.166 58.8029 120.478 56.837 124.102 55.6934C127.914 54.4796 132.021 54.5746 135.773 55.9634C139.415 57.4612 142.583 59.925 144.938 63.0911C149.822 69.452 152.468 77.9513 153.414 85.8565C154.361 93.7618 153.264 101.721 149.262 108.503Z" fill="#D47939"/>
<path d="M124.263 76.4509C117.809 75.9001 115.303 85.3065 114.668 90.1987C113.969 95.7173 114.281 102.877 119.735 105.955C124.984 108.904 129.857 104.681 131.847 99.8967C133.044 96.955 133.58 93.7844 133.416 90.6109C133.253 87.4375 132.394 84.3393 130.9 81.5375C129.524 79.0752 127.254 76.7101 124.263 76.4509ZM121.94 105.113C116.83 103.698 115.862 97.672 116.034 93.147C116.1 90.532 116.55 87.9411 117.368 85.4577C117.776 84.2717 118.306 83.1315 118.95 82.0559C119.374 81.1918 119.996 80.4403 120.764 79.8624C121.532 79.2845 122.425 78.8964 123.371 78.7296C122.643 79.5743 122.035 80.5155 121.563 81.5267C120.332 84.4438 119.794 87.609 119.993 90.7711C120.134 93.8151 120.8 96.8115 121.961 99.6267C122.48 100.954 123.206 102.19 124.113 103.288C124.561 103.863 125.112 104.35 125.737 104.724C124.568 105.337 123.209 105.476 121.94 105.113ZM130.857 97.078C130.257 99.4934 129.067 101.72 127.394 103.558C127.319 103.456 127.215 103.379 127.096 103.339C126.977 103.298 126.848 103.295 126.727 103.331H126.641C126.535 103.148 126.408 102.978 126.264 102.823C125.775 102.394 125.338 101.908 124.963 101.376C124.314 100.437 123.79 99.4165 123.403 98.3416C122.459 95.8365 121.915 93.1979 121.789 90.5227C121.63 87.8653 122.034 85.2043 122.973 82.7146C123.352 81.6804 123.917 80.7249 124.64 79.896C124.96 79.5722 125.322 79.2925 125.716 79.0644C127.368 79.8529 128.693 81.1981 129.459 82.8658C131.66 87.2664 132.159 92.3301 130.857 97.078Z" fill="#D47939"/>
<path d="M239.233 82.1405C237.243 76.7947 232.779 73.0797 228.411 69.6886C225.84 67.6907 223.205 65.682 220.042 64.71C218.648 64.2857 217.197 64.0781 215.74 64.0944C217.108 62.285 218.126 60.2335 218.741 58.0467C219.308 56.1726 219.389 54.1843 218.976 52.27C218.564 50.3556 217.672 48.5785 216.385 47.1068C211.706 41.707 203.81 39.7631 197.023 40.8106C195.894 40.9958 194.782 41.274 193.699 41.6422C194.968 38.2308 195.472 34.58 195.173 30.9506C194.935 27.8779 194.094 24.8827 192.698 22.1377C191.303 19.3926 189.38 16.9521 187.04 14.9565C182.137 10.6963 175.816 8.44474 169.335 8.64956C162.246 8.82235 155.351 11.2415 148.896 14.1573C142.916 16.8788 137.258 20.6371 133.396 26.0368C131.918 23.7282 129.988 21.7458 127.722 20.2103C125.457 18.6748 122.904 17.6185 120.219 17.1056C117.256 16.5924 114.215 16.7865 111.341 17.672C108.467 18.5575 105.84 20.1097 103.675 22.203C101.594 24.1109 99.9942 26.487 99.0061 29.1363C98.1642 27.3234 97.1019 25.6222 95.8436 24.0713C94.3107 21.957 92.5302 20.0353 90.5405 18.3476C88.5365 16.5981 86.1901 15.2889 83.6521 14.504C81.1142 13.7191 78.4407 13.476 75.8035 13.7902C65.5415 15.1077 56.5487 22.1814 51.7404 31.2206C50.3951 33.7139 49.3756 36.3709 48.707 39.1259C48.1651 41.1547 47.8902 43.246 47.8895 45.3464C46.9261 44.898 45.8991 44.6029 44.8453 44.4717C42.5972 44.165 40.3103 44.5848 38.3159 45.6704C34.0131 48.0139 32.4211 53.2301 33.7549 57.8199C34.1168 59.0578 34.6763 60.2285 35.4115 61.2866L35.6589 61.6213C31.7972 61.7833 27.8924 64.278 25.1064 66.5891C21.2023 69.7474 17.9533 73.644 15.5436 78.0583C13.153 82.3405 12.3887 87.3472 13.3922 92.1517C14.6437 97.1643 17.1718 101.764 20.7284 105.5C22.6871 107.613 25.1163 109.23 27.8172 110.219C29.1981 110.724 30.651 111.001 32.1199 111.04C31.2508 112.385 30.7169 113.92 30.5634 115.516C30.4099 117.112 30.6412 118.722 31.2378 120.209C32.0861 121.954 33.4453 123.397 35.1333 124.345C36.8213 125.292 38.7574 125.699 40.6824 125.511C39.6067 133.233 43.4361 140.987 49.6321 145.62C56.7531 150.955 66.2837 150.858 74.0072 146.895C76.1407 145.79 78.1192 144.406 79.8911 142.78C81.2543 141.594 82.4168 140.193 83.3334 138.633C84.4652 140.021 85.8719 141.159 87.4643 141.973C89.0567 142.787 90.8001 143.261 92.5843 143.363C94.781 143.558 96.9926 143.229 99.0384 142.402C100.67 141.716 102.153 140.718 103.406 139.465C108.72 147.877 116.992 154.584 126.694 157.003C131.683 158.274 136.91 158.257 141.891 156.954C146.871 155.651 151.442 153.105 155.178 149.551C157.207 147.636 158.934 145.422 160.299 142.985C161.04 141.716 161.611 140.354 161.998 138.935C162.735 140.69 163.889 142.237 165.359 143.44C166.829 144.644 168.571 145.466 170.432 145.836C172.572 146.179 174.764 145.876 176.733 144.967C178.701 144.058 180.357 142.582 181.49 140.728C184.942 144.226 189.047 147.008 193.57 148.914C198.798 151.15 204.542 152.467 210.157 150.934C214.929 149.662 219.079 146.693 221.834 142.578C224.588 138.464 225.76 133.485 225.13 128.568C224.676 124.91 223.224 121.45 220.935 118.567C221.301 118.416 221.677 118.254 222.011 118.071C223.212 117.514 224.37 116.868 225.475 116.137C231.904 111.904 236.687 105.577 239.018 98.221C240.513 93.1452 241.083 87.1731 239.233 82.1405ZM236.275 96.6659C234.992 100.936 232.789 104.871 229.82 108.189C228.141 110.062 226.216 111.697 224.098 113.049C223.082 113.689 222.029 114.27 220.946 114.788C220.061 115.104 219.222 115.536 218.45 116.073C217.885 115.723 217.249 115.505 216.589 115.436C216.418 115.442 216.25 115.486 216.098 115.566C215.946 115.645 215.813 115.758 215.71 115.896C215.607 116.034 215.536 116.193 215.502 116.362C215.468 116.53 215.472 116.705 215.514 116.872C216.159 118.902 218.02 120.241 219.117 122.056C220.173 123.785 220.933 125.679 221.366 127.661C222.314 131.72 221.691 135.989 219.623 139.605C217.506 143.228 214.191 145.991 210.254 147.413C205.488 149.065 200.572 148.234 195.947 146.484C190.613 144.597 185.815 141.44 181.963 137.283C181.789 137.113 181.575 136.991 181.34 136.929C181.105 136.868 180.858 136.869 180.624 136.932C180.389 136.995 180.175 137.118 180.003 137.29C179.83 137.461 179.705 137.675 179.64 137.909C178.994 139.732 177.722 141.265 176.052 142.23C174.382 143.196 172.423 143.533 170.529 143.18C166.387 142.348 163.375 138.579 162.601 134.54C162.569 134.419 162.513 134.305 162.435 134.207C162.358 134.109 162.261 134.028 162.151 133.969C162.041 133.91 161.92 133.875 161.795 133.865C161.671 133.856 161.546 133.872 161.428 133.914C161.249 133.851 161.054 133.859 160.88 133.935C160.707 134.011 160.568 134.15 160.492 134.324C158.406 138.341 156.9 142.532 153.759 145.912C150.693 149.174 146.894 151.651 142.679 153.137C133.546 156.377 123.725 154.152 115.884 148.741C111.3 145.536 107.462 141.373 104.632 136.538C104.512 136.341 104.343 136.179 104.143 136.066C103.942 135.954 103.716 135.895 103.486 135.895C103.257 135.895 103.031 135.954 102.83 136.066C102.63 136.179 102.461 136.341 102.341 136.538C100.189 139.356 96.0802 141.527 92.4552 141.063C89.1286 140.571 86.1034 138.854 83.968 136.246C83.8497 135.555 83.1182 134.907 82.4405 135.425C81.06 136.671 79.7729 138.018 78.5896 139.454C77.2405 140.872 75.7274 142.122 74.0824 143.18C70.8578 145.278 67.1581 146.526 63.3256 146.808C59.5872 147.04 55.863 146.168 52.6131 144.298C49.3632 142.429 46.7301 139.645 45.0389 136.289C43.0701 132.597 42.4607 128.325 43.3178 124.226C43.3707 124.013 43.3677 123.79 43.3091 123.578C43.2505 123.366 43.1384 123.173 42.9836 123.018C42.8288 122.862 42.6365 122.75 42.4255 122.691C42.2146 122.632 41.992 122.629 41.7796 122.682C40.1564 123.241 38.3858 123.185 36.8009 122.524C35.216 121.864 33.9261 120.645 33.1741 119.097C32.5465 117.592 32.4665 115.913 32.9482 114.356C33.5041 112.771 34.4737 111.364 35.7557 110.284C35.8591 110.192 35.94 110.078 35.9919 109.95C36.0439 109.821 36.0655 109.683 36.055 109.544C36.0446 109.406 36.0024 109.273 35.9318 109.154C35.8612 109.035 35.7642 108.934 35.6482 108.859C35.6033 108.758 35.5365 108.669 35.4527 108.598C35.3689 108.527 35.2703 108.476 35.1641 108.448C33.0127 107.973 30.8614 108.394 28.71 107.735C26.5383 107.027 24.5582 105.826 22.9228 104.226C19.6489 101.04 17.2355 97.071 15.9093 92.6916C13.2523 83.7604 18.8459 75.4124 25.1172 69.613C26.9033 67.9037 28.9159 66.45 31.098 65.2932C33.2252 64.333 35.4977 63.7379 37.821 63.5329C38.0244 63.5888 38.2341 63.6179 38.4449 63.6193C38.5549 63.6163 38.6628 63.5884 38.7605 63.5378C38.8583 63.4872 38.9434 63.4151 39.0096 63.3269C39.0757 63.2387 39.1212 63.1366 39.1426 63.0283C39.1641 62.92 39.1609 62.8082 39.1334 62.7013C38.7012 61.8095 38.1107 61.0044 37.3908 60.3254C36.8225 59.5982 36.3723 58.7854 36.0569 57.9171C35.3927 56.1665 35.258 54.2581 35.6697 52.4309C36.1407 50.6679 37.1972 49.1193 38.6642 48.0411C40.1313 46.963 41.9211 46.42 43.7373 46.502C44.7705 46.5233 45.7926 46.7205 46.76 47.0852C47.2917 47.2998 47.8123 47.5413 48.3197 47.8087C48.3197 47.8087 48.4058 47.8735 48.4488 47.8735L48.6209 47.9491C48.9065 48.0854 49.2058 48.1904 49.5138 48.2623C49.5799 48.2821 49.6502 48.2838 49.7172 48.2671C49.7843 48.2505 49.8456 48.2162 49.895 48.1677C49.9444 48.1192 49.98 48.0584 49.998 47.9915C50.0161 47.9246 50.016 47.854 49.9978 47.7871C49.8903 47.3933 49.7036 47.0258 49.4492 46.7072C49.7181 44.6445 49.8257 42.5818 50.2883 40.5406C50.7909 38.2453 51.5486 36.0138 52.5472 33.8881C54.5081 29.765 57.2905 26.0894 60.7224 23.0886C64.2489 19.9834 68.459 17.7626 73.0068 16.6088C75.4555 15.9123 78.0287 15.7768 80.5366 16.2123C83.0445 16.6478 85.4229 17.6433 87.4963 19.1251C89.7343 20.79 91.7012 22.7938 93.3265 25.0649C94.1543 26.19 94.9227 27.3579 95.6285 28.5639C96.2396 29.7449 97.0107 30.8352 97.9197 31.8038C98.0567 31.9152 98.2223 31.9854 98.3974 32.0065C98.5725 32.0275 98.75 31.9984 98.9093 31.9226C98.9927 31.9688 99.085 31.9963 99.18 32.0031C99.275 32.0099 99.3704 31.9959 99.4594 31.962C99.5485 31.9281 99.6291 31.8751 99.6957 31.8068C99.7623 31.7384 99.8133 31.6563 99.8451 31.5662C101.061 28.387 102.998 25.5361 105.503 23.2398C108.173 20.9287 111.484 19.4962 114.991 19.1359C118.505 18.8323 122.028 19.5969 125.103 21.3302C128.178 23.0636 130.663 25.6857 132.234 28.8555C132.34 29.0493 132.495 29.2109 132.685 29.3235C132.874 29.4361 133.09 29.4955 133.31 29.4955C133.53 29.4955 133.746 29.4361 133.935 29.3235C134.124 29.2109 134.28 29.0493 134.385 28.8555C137.613 23.8013 142.496 20.2159 147.735 17.5592C153.356 14.586 159.424 12.5577 165.699 11.5546C171.83 10.7015 178.177 11.6302 183.211 15.3993C187.573 18.7552 190.543 23.6144 191.547 29.0391C192.098 32.2232 191.921 35.4911 191.031 38.5967C190.593 40.0826 190.028 41.5279 189.342 42.9165C188.632 44.3961 188.094 45.9404 187.503 47.4631C187.277 48.0571 188.051 48.5431 188.579 48.2623C190.033 47.3467 191.268 46.1185 192.193 44.6661C192.634 44.4825 193.086 44.2881 193.537 44.1261C195.322 43.4886 197.187 43.1033 199.077 42.9813C202.932 42.7211 206.779 43.5956 210.146 45.4976C213.621 47.5171 216.665 50.7354 216.288 55.0444C216.011 57.2122 215.222 59.2821 213.986 61.0814C212.911 62.8741 211.491 64.5912 210.964 66.6863C210.932 66.8058 210.937 66.9318 210.977 67.0486C211.017 67.1654 211.09 67.2678 211.188 67.3428C211.286 67.4178 211.403 67.4621 211.526 67.4702C211.649 67.4783 211.771 67.4498 211.878 67.3883C212.384 67.1501 212.867 66.8644 213.319 66.5351C213.965 66.5351 214.61 66.3624 215.288 66.3408C216.715 66.2975 218.137 66.536 219.472 67.0427C221.938 68.0901 224.219 69.5306 226.228 71.3085C229.982 74.3648 234.188 77.5723 236.221 82.1081C238.254 86.6439 237.63 92.1193 236.275 96.6659Z" fill="#5D90B1"/>
<path d="M216.579 115.437C217.239 115.507 217.875 115.724 218.44 116.074C219.212 115.537 220.051 115.105 220.935 114.789C222.019 114.271 223.071 113.691 224.087 113.05C226.205 111.698 228.13 110.063 229.81 108.19C232.778 104.872 234.982 100.938 236.264 96.6672C237.138 93.8121 237.524 90.8287 237.404 87.844C234.382 92.6066 231.187 97.0668 225.066 98.9783C220.365 100.458 213.04 100.166 210.006 95.4253C209.081 96.0409 208.199 96.678 207.328 97.3368L207.522 102.078C207.586 104.162 207.651 106.246 207.704 108.32C207.852 109.624 207.834 110.941 207.651 112.24C207.657 112.269 207.657 112.298 207.651 112.327C207.536 112.793 207.289 113.217 206.941 113.547C206.871 113.587 206.799 113.623 206.726 113.655C206.446 113.968 206.166 114.281 205.876 114.584C205.279 115.224 204.647 115.83 203.983 116.398C203.305 116.996 202.587 117.545 201.831 118.04C201.42 118.33 200.993 118.597 200.551 118.839C200.46 119.012 200.335 119.164 200.183 119.286C200.032 119.409 199.857 119.499 199.669 119.551C196.259 120.243 192.763 119.951 189.31 119.821C188.439 119.821 187.546 119.821 186.675 119.724C185.892 119.581 185.102 119.483 184.308 119.433C183.502 119.433 182.749 119.638 181.92 119.627H179.274L168.442 119.346C166.689 119.346 164.924 119.227 163.16 119.174C161.009 119.109 158.535 119.26 158.373 116.517C158.298 115.296 158.244 114.065 158.191 112.834C158.083 110.386 157.986 107.931 157.9 105.469C157.836 103.223 157.782 100.965 157.739 98.7192C156.254 100.393 154.91 102.11 154.017 102.92L153.404 103.46C152.399 106.456 150.948 109.281 149.101 111.841C147.017 114.83 144.415 117.419 141.421 119.487C135.192 123.677 126.738 124.584 119.455 123.742C116.606 123.415 113.927 122.212 111.785 120.297C107.851 116.695 104.891 112.151 103.18 107.089C101.677 106.457 100.286 105.585 99.0601 104.508C99.0601 105.782 99.1462 107.056 99.1784 108.32C99.3262 109.624 99.3081 110.941 99.1246 112.24C99.1246 112.24 99.1246 112.305 99.1246 112.327C99.0095 112.793 98.7631 113.217 98.4147 113.547C98.3426 113.589 98.267 113.625 98.1888 113.655C97.9199 113.968 97.6402 114.281 97.3498 114.584C96.7506 115.221 96.1187 115.827 95.4565 116.398C94.7753 116.991 94.0567 117.539 93.3052 118.04C92.8926 118.328 92.4653 118.595 92.0251 118.839C91.9341 119.012 91.809 119.164 91.6573 119.286C91.5056 119.409 91.3306 119.499 91.143 119.551C87.7331 120.243 84.2371 119.951 80.7842 119.821C79.9129 119.821 79.02 119.821 78.1487 119.724C77.3663 119.581 76.5761 119.483 75.7822 119.433C74.9755 119.433 74.2225 119.638 73.3942 119.627H70.748L59.9158 119.389C57.3987 119.325 54.7633 119.616 52.2892 119.487C50.4498 119.4 49.9442 118.331 49.8367 116.56C49.7721 115.34 49.7183 114.108 49.6646 112.877C49.5462 110.426 49.4602 107.974 49.3741 105.512C49.2092 100.515 49.1195 95.5153 49.1052 90.5115C49.1052 87.9736 49.0299 85.4141 49.159 82.8762C49.2881 80.3383 49.159 77.9732 49.159 75.5001C49.159 73.027 49.3203 70.5863 49.4494 68.1348C49.4678 65.9636 49.6548 63.7971 50.0088 61.6551C49.9006 61.5394 49.8327 61.3916 49.8151 61.2339C49.7405 60.8448 49.7644 60.4431 49.8847 60.0657C50.005 59.6883 50.2178 59.3473 50.5036 59.074C50.4995 58.908 50.557 58.7463 50.6649 58.6204C47.653 56.6981 43.6837 57.2165 41.1236 53.685C39.9343 51.9672 39.1945 49.9766 38.9722 47.8965C37.3416 48.9307 36.1823 50.5679 35.7452 52.4539C35.3335 54.281 35.4682 56.1895 36.1324 57.9401C36.4478 58.8084 36.898 59.6212 37.4663 60.3484C38.1862 61.0273 38.7768 61.8325 39.2089 62.7243C39.2364 62.8312 39.2396 62.9429 39.2181 63.0512C39.1967 63.1596 39.1512 63.2616 39.0851 63.3498C39.0189 63.4381 38.9338 63.5102 38.836 63.5608C38.7383 63.6114 38.6304 63.6392 38.5204 63.6422C38.3096 63.6408 38.0999 63.6118 37.8965 63.5558C35.5732 63.7609 33.3006 64.3559 31.1735 65.3161C28.9914 66.473 26.9788 67.9266 25.1927 69.636C18.9214 75.4785 13.3601 83.7834 15.9848 92.7146C17.311 97.094 19.7244 101.063 22.9983 104.249C24.6337 105.849 26.6138 107.05 28.7855 107.758C30.9368 108.417 33.0882 107.996 35.2396 108.471C35.3458 108.499 35.4444 108.55 35.5282 108.621C35.612 108.692 35.6788 108.781 35.7236 108.882C35.8396 108.957 35.9368 109.057 36.0074 109.177C36.078 109.296 36.1201 109.429 36.1305 109.567C36.141 109.706 36.1194 109.844 36.0674 109.973C36.0155 110.101 35.9346 110.215 35.8312 110.307C34.5492 111.387 33.5796 112.793 33.0237 114.378C32.542 115.936 32.622 117.615 33.2496 119.119C34.0016 120.668 35.2915 121.887 36.8764 122.547C38.4613 123.208 40.2319 123.264 41.8551 122.705C42.0675 122.652 42.2901 122.655 42.501 122.714C42.712 122.772 42.9043 122.885 43.0591 123.04C43.2139 123.196 43.326 123.389 43.3846 123.601C43.4432 123.813 43.4462 124.036 43.3933 124.249C42.5362 128.348 43.1456 132.62 45.1144 136.312C46.8056 139.668 49.4387 142.452 52.6886 144.321C55.9385 146.191 59.6627 147.063 63.4011 146.831C67.2336 146.549 70.9333 145.301 74.1579 143.202C75.8029 142.145 77.316 140.895 78.6651 139.477C79.8483 138.041 81.1355 136.694 82.516 135.448C83.1937 134.93 83.9252 135.578 84.0435 136.269C86.1789 138.877 89.2041 140.594 92.5307 141.086C96.1557 141.55 100.254 139.379 102.416 136.561C102.537 136.364 102.705 136.202 102.906 136.089C103.106 135.977 103.332 135.918 103.562 135.918C103.792 135.918 104.018 135.977 104.218 136.089C104.419 136.202 104.587 136.364 104.707 136.561C107.523 141.377 111.338 145.529 115.895 148.732C123.736 154.132 133.557 156.356 142.69 153.127C146.905 151.642 150.704 149.164 153.77 145.902C156.911 142.522 158.417 138.343 160.503 134.314C160.579 134.14 160.718 134.002 160.891 133.926C161.065 133.85 161.26 133.842 161.439 133.904C161.557 133.863 161.682 133.846 161.806 133.856C161.931 133.865 162.052 133.901 162.162 133.959C162.272 134.018 162.369 134.099 162.446 134.198C162.524 134.296 162.58 134.409 162.612 134.53C163.386 138.569 166.398 142.339 170.54 143.17C172.434 143.524 174.393 143.187 176.063 142.221C177.733 141.255 179.005 139.723 179.651 137.9C179.716 137.665 179.841 137.452 180.014 137.28C180.186 137.109 180.4 136.985 180.635 136.922C180.869 136.859 181.116 136.858 181.351 136.92C181.585 136.981 181.8 137.103 181.974 137.274C185.826 141.43 190.624 144.588 195.958 146.475C200.583 148.224 205.499 149.056 210.265 147.403C214.202 145.982 217.517 143.219 219.634 139.595C221.702 135.98 222.324 131.71 221.376 127.651C220.944 125.67 220.184 123.776 219.128 122.046C218.053 120.232 216.17 118.893 215.525 116.862C215.485 116.698 215.482 116.526 215.516 116.36C215.549 116.194 215.619 116.038 215.719 115.902C215.82 115.766 215.949 115.654 216.098 115.573C216.246 115.493 216.41 115.446 216.579 115.437Z" fill="#80B6DC"/>
<path d="M219.386 67.086C218.051 66.5793 216.629 66.3408 215.202 66.384C214.524 66.384 213.879 66.5352 213.233 66.5784C212.781 66.9077 212.298 67.1933 211.792 67.4316C211.685 67.4931 211.563 67.5216 211.44 67.5135C211.317 67.5054 211.2 67.461 211.102 67.386C211.004 67.311 210.931 67.2087 210.891 67.0919C210.851 66.9751 210.846 66.849 210.878 66.7296C211.405 64.6345 212.792 62.9174 213.9 61.1246C215.136 59.3254 215.925 57.2555 216.202 55.0877C216.579 50.7678 213.535 47.528 210.06 45.5409C206.693 43.6389 202.846 42.7644 198.991 43.0246C197.101 43.1465 195.236 43.5318 193.451 44.1693C193 44.3313 192.548 44.5257 192.107 44.7093C191.182 46.1617 189.947 47.39 188.493 48.3055C188.009 48.6079 187.234 48.1004 187.417 47.5064C188.009 45.9837 188.546 44.4393 189.256 42.9598C189.942 41.5712 190.507 40.1259 190.945 38.64C191.836 35.5344 192.012 32.2664 191.461 29.0824C190.457 23.6576 187.487 18.7985 183.125 15.4425C178.091 11.6735 171.744 10.7447 165.613 11.5979C159.338 12.6009 153.27 14.6293 147.649 17.6024C142.41 20.2699 137.484 23.8446 134.299 28.8988C134.194 29.0925 134.038 29.2542 133.849 29.3668C133.66 29.4794 133.444 29.5388 133.224 29.5388C133.004 29.5388 132.788 29.4794 132.599 29.3668C132.409 29.2542 132.254 29.0925 132.148 28.8988C130.607 25.7338 128.157 23.1045 125.115 21.3491C122.073 19.5938 118.577 18.7929 115.077 19.0496C111.57 19.4099 108.259 20.8424 105.589 23.1534C103.085 25.4498 101.147 28.3006 99.9313 31.4798C99.8994 31.57 99.8484 31.6521 99.7818 31.7204C99.7152 31.7888 99.6346 31.8417 99.5456 31.8756C99.4565 31.9095 99.3612 31.9236 99.2662 31.9168C99.1712 31.91 99.0788 31.8825 98.9954 31.8362C98.8361 31.9121 98.6586 31.9411 98.4836 31.9201C98.3085 31.8991 98.1429 31.8288 98.0058 31.7174C97.0968 30.7488 96.3257 29.6585 95.7146 28.4776C95.0088 27.2716 94.2404 26.1036 93.4126 24.9785C91.7873 22.7074 89.8205 20.7036 87.5824 19.0388C85.509 17.5569 83.1306 16.5615 80.6227 16.126C78.1149 15.6904 75.5416 15.826 73.0929 16.5225C68.5452 17.6763 64.3351 19.897 60.8085 23.0022C57.6658 25.7641 55.0677 29.0941 53.1497 32.819C57.9687 27.5164 64.8639 23.8446 71.6837 23.7474C83.1613 23.5638 90.6373 33.3374 96.1771 42.1066C105.858 31.5879 121.208 28.6828 130.599 41.1779C136.472 36.858 140.711 30.8535 147.541 27.4408C154.103 24.201 161.654 21.7063 169.055 22.0411C176.456 22.3758 179.199 27.7756 181.113 34.3093C183.028 40.8431 180.705 47.528 181.576 54.0833C183.62 53.5973 185.083 51.6426 187.126 50.7895C191.268 49.0507 196.517 49.5043 200.605 51.1674C210.566 55.2281 204.596 63.2197 207.253 70.9198C211.136 67.0428 218.45 69.4295 223.011 70.4878C223.99 70.7146 224.98 70.963 225.948 71.2114C224.002 69.4824 221.785 68.0884 219.386 67.086Z" fill="#D6EAFA"/>
<path d="M123.424 37.6039C123.437 36.4352 123.38 35.2667 123.252 34.1049C123.201 33.4432 123.056 32.7923 122.822 32.1718C122.567 31.5759 122.202 31.0336 121.746 30.5734C121.68 30.5081 121.599 30.459 121.511 30.4296C121.422 30.4002 121.328 30.3915 121.236 30.404C121.144 30.4164 121.056 30.4499 120.978 30.5017C120.901 30.5535 120.836 30.6224 120.789 30.703C120.466 31.1502 120.215 31.6459 120.047 32.1718C119.891 32.8041 119.815 33.4535 119.821 34.1049C119.821 35.1848 119.885 36.3512 119.939 37.4743C120.047 39.7206 119.735 42.3665 121.133 44.2564C121.182 44.3355 121.247 44.4028 121.324 44.4534C121.402 44.504 121.49 44.5367 121.581 44.5491C121.673 44.5615 121.766 44.5533 121.854 44.5251C121.942 44.4969 122.023 44.4494 122.091 44.3861C122.47 43.9861 122.769 43.5169 122.973 43.0037C123.145 42.4441 123.264 41.869 123.328 41.2866C123.462 40.0639 123.494 38.8321 123.424 37.6039Z" fill="white"/>
<path d="M148.23 39.3204C148.23 39.3204 148.23 39.3204 148.23 39.2556C148.235 39.1765 148.235 39.0971 148.23 39.018L148.165 38.5428C148.165 38.3593 147.95 38.2297 147.789 38.1757C147.743 38.1654 147.695 38.1654 147.649 38.1757C147.556 38.1762 147.465 38.2002 147.384 38.2455C147.303 38.2908 147.235 38.356 147.186 38.4348L146.993 38.748L146.896 38.91C146.696 39.044 146.521 39.2122 146.38 39.4068C146.035 39.8752 145.715 40.3618 145.422 40.8647C145.142 41.2967 144.906 41.7503 144.626 42.1823C144.346 42.6143 144.142 43.0895 143.884 43.5322C143.712 43.8259 143.653 44.1727 143.718 44.507C143.784 44.8414 143.969 45.14 144.239 45.3466C144.508 45.5562 144.844 45.6607 145.184 45.6409C145.524 45.621 145.846 45.4781 146.089 45.2386C147.059 44.368 147.773 43.2476 148.154 41.9987C148.359 41.4231 148.464 40.817 148.466 40.206C148.445 39.8983 148.364 39.5977 148.23 39.3204Z" fill="white"/>
<path d="M177.047 35.1631C176.589 35.375 176.144 35.613 175.713 35.8759C175.509 36.0271 175.283 36.1027 175.079 36.2647C174.859 36.4421 174.654 36.6372 174.466 36.8479C173.68 37.6405 172.96 38.4966 172.314 39.4074C171.733 40.2173 171.174 41.0381 170.604 41.8589C170.315 42.3017 170.063 42.7676 169.851 43.252C169.58 43.817 169.519 44.4602 169.679 45.0663C169.73 45.2527 169.842 45.4169 169.995 45.534C170.148 45.651 170.336 45.7143 170.529 45.7143C171.112 45.7019 171.675 45.497 172.131 45.1311C172.522 44.8047 172.882 44.4432 173.207 44.0512L175.133 41.6537C175.807 40.797 176.411 39.8869 176.94 38.9322C177.058 38.7162 177.187 38.511 177.295 38.2842C177.392 38.0126 177.471 37.7348 177.531 37.4527C177.626 37.1877 177.705 36.9172 177.768 36.6427C177.791 36.3812 177.83 36.1215 177.886 35.8651C177.916 35.7538 177.913 35.6363 177.878 35.5266C177.843 35.4168 177.778 35.3194 177.69 35.2456C177.601 35.1719 177.494 35.125 177.38 35.1104C177.267 35.0957 177.151 35.114 177.047 35.1631Z" fill="white"/>
<path d="M201.229 55.6288C201.143 55.6288 201.143 55.6288 201.229 55.6288C201.126 55.5283 201 55.4542 200.863 55.4128H200.594L200.433 55.3588C200.301 55.312 200.163 55.2864 200.024 55.2832C199.927 55.2832 199.82 55.2832 199.712 55.2832C199.378 55.3018 199.047 55.3525 198.722 55.4344C198.475 55.4992 198.238 55.5964 198.002 55.6828C197.433 55.8653 196.882 56.1003 196.356 56.3848C196.06 56.5174 195.785 56.692 195.538 56.9031C195.377 57.0651 195.226 57.2595 195.076 57.4323C194.97 57.544 194.893 57.6807 194.854 57.8298C194.814 57.979 194.813 58.1357 194.85 58.2855C194.889 58.4334 194.966 58.5683 195.074 58.6765C195.181 58.7846 195.316 58.8621 195.463 58.9011L196.087 58.9983C196.492 59.0326 196.899 58.996 197.292 58.8902C197.539 58.8902 197.797 58.8039 198.045 58.7283C198.287 58.6488 198.524 58.555 198.755 58.4475L199.475 58.1667C199.787 58.0327 200.086 57.87 200.368 57.6807L200.637 57.4971C200.816 57.3932 200.964 57.2443 201.067 57.0651C201.095 57.0215 201.117 56.9743 201.132 56.9247L201.229 56.8167C201.334 56.7176 201.409 56.5901 201.444 56.4496C201.444 56.3848 201.444 56.3632 201.444 56.3956C201.514 56.2647 201.531 56.1115 201.491 55.9684C201.451 55.8253 201.357 55.7035 201.229 55.6288Z" fill="white"/>
<path d="M218.902 78.2544C218.3 78.114 217.762 77.9088 217.138 77.8116C216.532 77.7272 215.921 77.6911 215.31 77.7036C213.983 77.7493 212.662 77.9082 211.362 78.1788C210.179 78.3947 204.069 79.3667 205.79 81.6022C206.457 82.4662 208.135 82.0774 209.017 81.991C210.168 81.8722 211.319 81.6022 212.459 81.4402C213.599 81.2782 214.61 81.1379 215.686 80.9003C216.236 80.782 216.778 80.6305 217.31 80.4467C217.848 80.2631 218.321 79.9607 218.849 79.7663C219.376 79.5719 219.72 78.438 218.902 78.2544Z" fill="white"/>
<path d="M219.698 103.2C219.598 103.007 219.468 102.832 219.311 102.681C219.18 102.545 219.036 102.422 218.881 102.314C218.739 102.238 218.591 102.174 218.44 102.12L218.268 102.044C218.1 101.96 217.927 101.884 217.751 101.817C217.525 101.731 217.278 101.677 217.041 101.612C216.805 101.547 216.611 101.461 216.396 101.407C216.087 101.345 215.774 101.305 215.46 101.288H215.374L214.933 101.223C214.634 101.193 214.333 101.245 214.062 101.375C213.881 101.43 213.728 101.552 213.634 101.717C213.54 101.881 213.512 102.076 213.556 102.26C213.619 102.581 213.772 102.877 213.997 103.113C214.212 103.308 214.46 103.47 214.686 103.643C214.886 103.806 215.098 103.954 215.32 104.085C215.612 104.219 215.914 104.327 216.224 104.409C216.778 104.583 217.354 104.678 217.934 104.69C218.232 104.704 218.529 104.655 218.806 104.547C219.084 104.439 219.337 104.275 219.548 104.064H219.623C219.709 104.034 219.785 103.979 219.841 103.907C219.897 103.835 219.931 103.748 219.939 103.656C219.947 103.565 219.929 103.473 219.886 103.392C219.843 103.311 219.778 103.244 219.698 103.2Z" fill="white"/>
<path d="M209.092 135.371C209.038 135.22 208.974 135.069 208.909 134.918C208.844 134.767 208.909 134.821 208.909 134.918C208.853 134.721 208.781 134.53 208.694 134.346C208.567 134.105 208.423 133.874 208.264 133.654C207.588 132.629 206.821 131.668 205.972 130.782C205.184 129.923 204.316 129.142 203.38 128.449C202.936 128.123 202.468 127.831 201.982 127.574C201.515 127.357 201.011 127.233 200.497 127.207C200.452 127.208 200.408 127.218 200.368 127.238C200.328 127.258 200.293 127.286 200.265 127.321C200.237 127.356 200.218 127.397 200.207 127.441C200.197 127.485 200.197 127.53 200.207 127.574C200.232 127.825 200.29 128.072 200.379 128.309C200.469 128.559 200.573 128.804 200.691 129.043C200.927 129.507 201.261 129.961 201.541 130.404C202.078 131.257 202.778 132.045 203.401 132.974C203.756 133.492 204.111 133.989 204.477 134.475V134.551L204.725 134.885L205.219 135.555C205.423 135.863 205.65 136.156 205.897 136.43C206.034 136.543 206.178 136.647 206.327 136.743C206.381 136.821 206.442 136.894 206.51 136.959C206.97 137.407 207.563 137.692 208.199 137.769C208.395 137.766 208.585 137.701 208.742 137.582C208.898 137.464 209.013 137.299 209.07 137.11C209.263 136.548 209.27 135.938 209.092 135.371Z" fill="white"/>
<path d="M181.985 130.459C181.985 130.21 181.866 129.962 181.791 129.724C181.61 129.172 181.372 128.64 181.081 128.137C180.823 127.716 180.575 127.284 180.307 126.873C180.095 126.574 179.828 126.317 179.521 126.117C179.415 126.026 179.292 125.958 179.159 125.917C179.026 125.876 178.885 125.864 178.747 125.88C178.633 125.877 178.521 125.911 178.428 125.977C178.335 126.043 178.265 126.138 178.231 126.247C178.392 125.847 178.069 126.452 178.048 126.549C178.032 126.693 178.032 126.838 178.048 126.981C178.024 127.295 178.061 127.61 178.155 127.91L178.639 129.249C178.853 129.767 179.105 130.269 179.392 130.75C179.57 131.021 179.764 131.281 179.973 131.528C180.155 131.78 180.423 131.957 180.726 132.025C180.843 132.125 180.987 132.189 181.139 132.21C181.292 132.231 181.447 132.208 181.587 132.144C181.707 132.057 181.803 131.941 181.867 131.807C181.931 131.673 181.96 131.525 181.952 131.377C182.056 131.081 182.067 130.761 181.985 130.459Z" fill="white"/>
<path d="M155.964 131.085C155.944 130.704 155.898 130.325 155.824 129.951C155.727 129.605 155.598 129.259 155.491 128.871C155.274 128.161 155.015 127.465 154.716 126.786C154.576 126.473 154.447 126.128 154.275 125.825C154.061 125.513 153.816 125.224 153.544 124.961C153.444 124.862 153.32 124.791 153.184 124.754C153.048 124.718 152.906 124.717 152.77 124.753C152.634 124.789 152.51 124.86 152.41 124.959C152.31 125.058 152.237 125.182 152.199 125.318C152.117 125.672 152.07 126.034 152.059 126.398C152.094 126.815 152.155 127.23 152.242 127.639C152.366 128.303 152.528 128.959 152.726 129.605C152.912 130.323 153.176 131.018 153.511 131.679C153.865 132.3 154.337 132.847 154.899 133.288C154.959 133.347 155.033 133.39 155.115 133.412C155.197 133.433 155.282 133.433 155.364 133.412C155.445 133.39 155.52 133.347 155.58 133.287C155.64 133.228 155.683 133.153 155.706 133.072C155.911 132.43 155.998 131.757 155.964 131.085Z" fill="white"/>
<path d="M130.567 137.154C130.401 135.808 130.153 134.473 129.825 133.158C129.663 131.841 129.06 130.618 128.114 129.691C128.05 129.629 127.972 129.583 127.887 129.555C127.802 129.527 127.712 129.519 127.624 129.53C127.535 129.542 127.45 129.573 127.375 129.621C127.3 129.669 127.237 129.734 127.189 129.81C126.94 130.335 126.794 130.903 126.759 131.484C126.774 132.128 126.831 132.77 126.931 133.406C127.071 134.702 127.179 135.998 127.308 137.294C127.555 139.789 127.394 142.694 128.803 144.854C128.855 144.936 128.928 145.004 129.013 145.051C129.099 145.098 129.195 145.123 129.292 145.123C129.39 145.123 129.486 145.098 129.571 145.051C129.657 145.004 129.729 144.936 129.782 144.854C131.288 142.672 130.868 139.648 130.567 137.154Z" fill="white"/>
<path d="M103.535 126.636C103.499 126.462 103.445 126.292 103.374 126.129C103.374 125.999 103.374 125.859 103.374 125.718C103.374 125.673 103.361 125.629 103.337 125.591C103.312 125.553 103.276 125.523 103.235 125.506C103.193 125.488 103.147 125.484 103.103 125.493C103.058 125.502 103.018 125.524 102.986 125.556L102.685 125.837C102.513 125.883 102.347 125.948 102.19 126.032C102 126.143 101.832 126.289 101.696 126.464L101.341 126.906C101.154 127.107 100.985 127.324 100.835 127.554C100.654 127.905 100.492 128.266 100.351 128.634C100.247 128.882 100.178 129.144 100.147 129.412C100.104 129.647 100.104 129.889 100.147 130.125C100.197 130.285 100.281 130.432 100.394 130.557C100.453 130.72 100.57 130.856 100.723 130.938C100.876 131.02 101.054 131.042 101.222 130.999H101.341H101.233C101.391 131.014 101.549 130.993 101.698 130.939C101.847 130.885 101.982 130.799 102.094 130.686C102.212 130.567 102.33 130.438 102.438 130.308C102.753 129.87 103.007 129.391 103.191 128.883C103.334 128.466 103.435 128.035 103.492 127.597C103.565 127.283 103.58 126.957 103.535 126.636Z" fill="white"/>
<path d="M80.9239 124.669C80.341 124.872 79.7875 125.152 79.2781 125.501L77.9335 126.527C76.9331 127.294 75.965 128.093 74.9969 128.913C74.5774 129.291 74.1363 129.648 73.7168 129.993C73.2926 130.423 72.8904 130.873 72.5121 131.343C71.6781 132.179 70.955 133.119 70.3607 134.14C70.3061 134.235 70.2805 134.343 70.2872 134.451C70.2938 134.56 70.3323 134.664 70.398 134.751C70.4636 134.838 70.5533 134.903 70.6558 134.938C70.7583 134.974 70.8689 134.978 70.9738 134.95C72.0354 134.547 73.0434 134.014 73.975 133.363C74.4698 133.028 75.0507 132.78 75.4809 132.423C75.9112 132.067 76.5566 131.592 77.0192 131.171C77.9228 130.425 78.8156 129.669 79.6761 128.881L80.9239 127.726C81.3903 127.257 81.7952 126.731 82.1287 126.16C82.5267 125.49 81.763 124.313 80.9239 124.669Z" fill="white"/>
<path d="M57.1835 121.937C57.0624 121.993 56.9295 122.019 56.7962 122.013C56.5818 121.994 56.3658 122.02 56.1616 122.088C55.7917 122.164 55.431 122.28 55.0859 122.434C54.4616 122.783 53.8773 123.199 53.3433 123.676L52.6118 124.281C52.3644 124.497 52.1376 124.735 51.9341 124.993C51.7829 125.158 51.6461 125.335 51.5254 125.523C51.4501 125.685 51.3963 125.868 51.321 126.03C51.2457 126.192 50.9445 126.527 50.9768 126.829C50.9808 126.916 51.0106 126.999 51.0624 127.069C51.1142 127.138 51.1855 127.19 51.2672 127.218C51.5684 127.326 51.8804 127.143 52.1708 127.078C52.4612 127.013 52.4612 127.078 52.6011 127.013C52.8138 126.953 53.0194 126.87 53.2142 126.765C53.5169 126.633 53.8053 126.47 54.0747 126.279L54.8708 125.674C55.4512 125.262 55.9883 124.791 56.4735 124.27C56.71 123.981 56.9122 123.666 57.0759 123.33C57.1906 123.163 57.2744 122.977 57.3233 122.78C57.3128 122.701 57.3128 122.621 57.3233 122.542C57.3596 122.46 57.4066 122.384 57.4632 122.315C57.4868 122.272 57.4976 122.222 57.4942 122.173C57.4908 122.123 57.4733 122.076 57.4439 122.036C57.4145 121.996 57.3743 121.966 57.3281 121.948C57.282 121.931 57.2318 121.927 57.1835 121.937Z" fill="white"/>
<path d="M43.221 107.12C42.8282 107.12 42.4373 107.175 42.0592 107.282C41.6027 107.416 41.1626 107.601 40.7469 107.833C40.4252 108.029 40.1163 108.245 39.8218 108.481C39.3829 108.78 38.9913 109.144 38.6601 109.561C38.5429 109.738 38.4421 109.926 38.3589 110.122C38.171 110.421 38.0983 110.778 38.1545 111.126C38.223 111.338 38.3549 111.523 38.532 111.656C38.7091 111.789 38.9229 111.865 39.1441 111.872H39.6497C40.5815 111.776 41.4626 111.399 42.1776 110.792C43.0749 110.183 43.724 109.271 44.0063 108.221C44.0545 108.096 44.071 107.961 44.0542 107.827C44.0374 107.694 43.9878 107.567 43.9099 107.458C43.832 107.348 43.7282 107.26 43.608 107.201C43.4877 107.142 43.3547 107.114 43.221 107.12Z" fill="white"/>
<path d="M43.759 93.2434C43.4041 92.4982 42.1563 92.8006 41.5109 92.8654C40.6362 92.9693 39.7724 93.15 38.9292 93.4054L37.7675 93.697C37.3226 93.8231 36.8875 93.9819 36.4659 94.1722C36.092 94.3036 35.7521 94.5172 35.471 94.7975C35.19 95.0778 34.9749 95.4176 34.8416 95.7921C34.8247 95.8607 34.8257 95.9326 34.8445 96.0007C34.8633 96.0688 34.8994 96.1309 34.9492 96.1809C35.2971 96.4463 35.702 96.6264 36.1315 96.707C36.561 96.7877 37.0033 96.7665 37.4232 96.6453C38.2323 96.4867 39.0273 96.2628 39.8005 95.9757C40.6426 95.7315 41.463 95.4173 42.2531 95.0361C42.8985 94.7338 44.2216 94.1938 43.759 93.2434Z" fill="white"/>
<path d="M43.4147 80.4356C42.8446 80.3816 42.2852 80.2736 41.7043 80.2304C41.1301 80.2106 40.5552 80.2287 39.9833 80.2844C38.9076 80.3492 37.8319 80.5004 36.7562 80.5868C35.6805 80.6732 34.508 80.7596 33.4001 80.954C32.2921 81.1484 31.2487 81.5047 30.173 81.7315C30.075 81.7582 29.9884 81.8166 29.9267 81.8976C29.865 81.9786 29.8315 82.0777 29.8315 82.1797C29.8315 82.2817 29.865 82.3808 29.9267 82.4618C29.9884 82.5428 30.075 82.6012 30.173 82.6279C31.2269 82.9897 32.3054 83.2748 33.4001 83.4811C34.5962 83.6371 35.8074 83.6371 37.0036 83.4811C38.2094 83.3786 39.4042 83.1727 40.5749 82.8655C41.1485 82.7173 41.7067 82.5148 42.2422 82.2607C42.737 82.0015 43.1888 81.6667 43.6621 81.3644C43.7686 81.318 43.855 81.2349 43.9055 81.13C43.956 81.0251 43.9673 80.9054 43.9373 80.7929C43.9073 80.6803 43.838 80.5823 43.7421 80.5168C43.6462 80.4512 43.53 80.4224 43.4147 80.4356Z" fill="white"/>
<path d="M45.5877 63.9333L45.2542 63.5985C45.0506 63.3917 44.7936 63.2458 44.512 63.1774H44.2431L43.716 63.091C43.4565 63.0426 43.1903 63.0426 42.9307 63.091H42.8124H42.1562C41.8619 63.0925 41.569 63.1325 41.2849 63.2098C41.1963 63.2333 41.1156 63.2801 41.051 63.3453C40.9863 63.4105 40.9402 63.4918 40.9172 63.5808C40.8942 63.6699 40.8952 63.7634 40.9201 63.852C40.9451 63.9405 40.993 64.0207 41.059 64.0845C41.2873 64.3312 41.5478 64.5455 41.8335 64.7217C41.9626 64.8189 42.0917 64.9161 42.2315 65.0025L42.3714 65.1429C42.6745 65.3781 43.0169 65.5573 43.3825 65.672C43.5353 65.7514 43.6935 65.82 43.8558 65.8772C44.1166 65.9474 44.3911 65.9474 44.6518 65.8772L45.1036 65.7801C45.2942 65.7355 45.469 65.6396 45.6093 65.5027C45.7496 65.3658 45.85 65.1931 45.8998 65.0031C45.9496 64.8132 45.9469 64.6132 45.8919 64.4247C45.8369 64.2362 45.7317 64.0663 45.5877 63.9333Z" fill="white"/>
<path d="M60.8085 45.401C60.6746 44.9942 60.4903 44.606 60.2599 44.2454C59.991 43.8674 59.7436 43.4786 59.4639 43.1655L59.1627 42.7767L59.0336 42.6147L58.9476 42.4959L58.7324 42.2151C58.5496 41.9667 58.3667 41.7183 58.1731 41.4807L58.0117 41.2755L57.9149 41.1459C57.6137 40.7248 57.2587 40.3576 56.9253 39.958C56.7854 39.8068 56.6563 39.6448 56.5165 39.4828L56.3014 39.2236L56.097 38.9428C55.9572 38.7808 55.656 38.5864 55.5699 38.4892C55.4839 38.392 55.3333 38.2301 55.2257 38.1113C54.946 37.7981 54.6878 37.3337 54.3221 37.1393C54.2511 37.1026 54.1729 37.0818 54.093 37.0786C54.0132 37.0753 53.9336 37.0896 53.8598 37.1205C53.7861 37.1514 53.7199 37.198 53.666 37.2572C53.612 37.3165 53.5716 37.3868 53.5476 37.4633C53.4673 37.9359 53.5005 38.4209 53.6444 38.878C53.6711 39.344 53.7395 39.8067 53.8488 40.2604C54.1299 41.2187 54.5465 42.1316 55.0858 42.9711C55.6641 43.808 56.3314 44.5793 57.0759 45.2714C57.4926 45.6291 57.9388 45.9506 58.4097 46.2325C58.8537 46.4728 59.333 46.6406 59.8296 46.7293C60.0014 46.7768 60.1834 46.7709 60.3518 46.7125C60.5201 46.6542 60.6669 46.546 60.7729 46.4022C60.8788 46.2584 60.9389 46.0858 60.9453 45.9071C60.9516 45.7284 60.904 45.552 60.8085 45.401Z" fill="white"/>
<path d="M80.9025 45.5634C80.8629 45.1864 80.7534 44.8202 80.5798 44.4835C80.4723 44.2675 80.3539 44.0515 80.2356 43.8355C80.0268 43.4656 79.7493 43.1393 79.4181 42.8743L79.2782 42.6907C79.168 42.5241 79.0419 42.3686 78.9018 42.2264L78.7404 42.0968C78.7404 42.0968 78.7404 42.0968 78.6759 42.032C78.3694 41.6232 78.0073 41.2597 77.6002 40.952C77.5368 40.8948 77.4585 40.8569 77.3745 40.8424C77.2905 40.828 77.2041 40.8377 77.1254 40.8705C77.0467 40.9032 76.9788 40.9577 76.9295 41.0275C76.8803 41.0974 76.8518 41.1798 76.8472 41.2652C76.8038 41.8141 76.8584 42.3663 77.0085 42.8959V43.0255C77.0189 43.2265 77.0514 43.4257 77.1054 43.6195C77.1054 43.7275 77.1054 43.8247 77.1807 43.9219V44.0731C77.2565 44.7551 77.4648 45.4155 77.7938 46.017C77.9419 46.3608 78.1615 46.6687 78.4379 46.9202C78.7144 47.1717 79.0413 47.3608 79.3966 47.475C79.6441 47.5394 79.9057 47.5216 80.1423 47.4242C80.3788 47.3269 80.5776 47.1552 80.7089 46.935C80.9217 46.5115 80.9897 46.0296 80.9025 45.5634Z" fill="white"/>
<path d="M101.287 44.537C101.031 43.3868 100.671 42.2626 100.211 41.1784C99.7919 40.0145 99.2358 38.9051 98.5545 37.8737C98.201 37.3825 97.8051 36.9235 97.3713 36.5022C96.9518 36.1134 96.6075 35.6706 96.188 35.2926C96.1122 35.2174 96.0137 35.1694 95.9079 35.1561C95.8021 35.1428 95.6949 35.165 95.6029 35.2191C95.5109 35.2733 95.4393 35.3565 95.3993 35.4557C95.3592 35.5549 95.3529 35.6646 95.3813 35.7678C95.4888 36.3078 95.6717 36.8477 95.7685 37.3769C95.8531 37.9709 95.9753 38.5588 96.1342 39.1372C96.4462 40.2172 96.9087 41.1892 97.2745 42.2151C97.6402 43.2411 98.0275 44.2994 98.4255 45.3254C98.6406 45.9194 98.9418 46.4701 99.1999 47.0425C99.4083 47.5667 99.7875 48.0046 100.276 48.2845C100.428 48.3662 100.606 48.3871 100.774 48.3431C100.941 48.299 101.086 48.1933 101.179 48.0469C101.749 47.1181 101.502 45.5846 101.287 44.537Z" fill="white"/>
<path d="M120.853 61.6767C120.771 61.7487 120.671 61.7971 120.563 61.8171C117.805 62.3057 115.186 63.3928 112.89 65.0025C110.593 66.6123 108.675 68.7058 107.268 71.1371C103.761 76.8393 102.965 83.7726 102.857 90.3387C102.771 96.2784 103.105 102.143 105.331 107.715C106.593 110.952 108.366 113.964 110.581 116.636C109.326 113.115 108.334 109.505 107.612 105.836C106.168 99.8629 105.782 93.6814 106.471 87.574C107.311 79.442 111.043 65.9749 120.176 63.4046C126.372 61.6443 132.105 63.9986 137.225 67.6489C135.616 66.1238 133.806 64.8267 131.847 63.7934C128.459 62.0475 124.644 61.3129 120.853 61.6767Z" fill="#FBE668"/>
<path d="M167.366 60.531C165.72 60.4554 164.074 60.423 162.429 60.369H161.353C160.995 60.3379 160.635 60.3379 160.277 60.369C159.901 60.477 160.008 60.315 159.922 60.7578C159.922 60.8874 159.922 61.0062 159.922 61.1358C160.207 63.4679 160.272 65.8219 160.116 68.1663C160.116 70.6178 160.116 73.0801 160.062 75.5316C160.008 77.9831 159.836 80.4454 159.933 82.9077C160.03 85.37 159.933 88.0051 159.998 90.5429C160.048 95.5395 160.155 100.54 160.32 105.544C160.399 108.006 160.492 110.461 160.6 112.909C160.665 114.226 160.729 115.544 160.783 116.861C160.783 117.023 160.783 117.185 160.783 117.347C161.611 117.305 162.44 117.305 163.268 117.347H163.795C163.031 103.988 164.924 90.3486 164.343 77.1515C164.236 74.7756 163.612 66.028 164.881 64.1165C166.301 61.9566 171.335 61.6758 175.918 60.9738C173.024 60.8658 170.184 60.6714 167.366 60.531Z" fill="#E5B4BE"/>
<path d="M58.8938 60.531C57.248 60.4554 55.6022 60.423 53.9456 60.369H52.87C52.5121 60.3379 52.1522 60.3379 51.7943 60.369C51.407 60.477 51.5253 60.315 51.4393 60.7578C51.4393 60.8874 51.4393 61.0062 51.4393 61.1358C51.7242 63.4679 51.789 65.8219 51.6329 68.1663C51.6329 70.6178 51.6329 73.0801 51.5684 75.5316C51.5038 77.9831 51.3532 80.4454 51.4501 82.9077C51.5469 85.37 51.45 88.0051 51.5146 90.5429C51.5146 95.5431 51.6759 100.543 51.8373 105.544C51.909 108.006 52.0022 110.461 52.117 112.909C52.1815 114.226 52.2461 115.544 52.2998 116.861C52.2998 117.023 52.2998 117.185 52.2998 117.347C53.0162 117.3 53.7349 117.3 54.4512 117.347C55.9357 104.388 53.8811 90.7697 54.9675 77.6699C55.2795 73.9441 54.2899 68.3067 55.9141 64.9372C56.8976 63.2718 58.2078 61.8242 59.7651 60.6822L58.8938 60.531Z" fill="#E5B4BE"/>
</g>
<defs>
<clipPath id="clip0_789_34947">
<rect width="249" height="171.81" fill="white"/>
</clipPath>
</defs>
</svg>
