<svg width="18" height="16" viewBox="0 0 18 16" fill="none" xmlns="http://www.w3.org/2000/svg">
<g clip-path="url(#clip0_16220_531)">
<path d="M3.92725 10.5146C4.6691 11.5818 5.40192 12.6365 6.13542 13.6906C6.14613 13.6945 6.15745 13.6964 6.16885 13.6963C6.20228 13.6529 6.23805 13.6044 6.27282 13.5542C6.93778 12.5911 7.60474 11.6292 8.26469 10.6624C8.3476 10.5407 8.41881 10.5166 8.55688 10.5691C9.47793 10.9195 10.4043 11.2551 11.3247 11.6075C12.0749 11.8947 12.4183 12.5533 12.2574 13.3433C12.1648 13.7979 12.0826 14.255 11.999 14.7116C11.9322 15.069 11.6931 15.28 11.3304 15.28H0.980567C0.612818 15.28 0.375786 15.0817 0.305914 14.7213C0.211413 14.231 0.118139 13.7407 0.0260897 13.2503C-0.10396 12.554 0.260112 11.8853 0.923399 11.6312C1.89727 11.2585 2.87582 10.8984 3.85236 10.533C3.87375 10.5267 3.89615 10.5233 3.92725 10.5146Z" fill="#FF6B00"/>
<path d="M13.0164 6.34129C13.6456 5.72013 13.9131 4.95153 13.9692 4.08364C13.6881 4.12476 13.425 4.18394 13.1602 4.19798C11.8022 4.26117 10.7083 3.76638 9.94405 2.62C9.70602 2.26328 9.43957 1.93899 9.10124 1.67455C8.89496 1.51341 8.8836 1.4305 9.05343 1.23994C9.87618 0.311869 10.9119 -0.097336 12.1419 0.0193409C13.2374 0.122979 14.1143 0.629805 14.7328 1.54651C15.7097 2.99243 15.3011 4.96491 13.8225 5.95482C13.5784 6.11797 13.3093 6.24367 13.0519 6.38643L13.0164 6.34129Z" fill="#FF6B00"/>
<path d="M3.46028 7.77676C3.31753 7.30237 3.15505 6.83265 3.03637 6.3519C2.8659 5.68661 2.86349 4.98937 3.02935 4.32292C3.33993 3.09296 4.14563 2.37652 5.37358 2.1348C6.07799 1.99639 6.78073 2.03651 7.45772 2.29561C8.58772 2.72755 9.15439 3.59143 9.30918 4.75653C9.44758 5.7976 9.17545 6.77047 8.78864 7.7206C8.77005 7.751 8.74903 7.77984 8.72579 7.80685C8.8281 7.23965 8.79267 6.65617 8.62249 6.1055C8.50447 5.71402 8.33163 5.33657 8.14709 4.96882C8.01169 4.6997 7.88398 4.69635 7.66233 4.90196C7.32166 5.21956 6.9392 5.46328 6.47817 5.56692C5.92855 5.69162 5.44713 5.51443 4.99714 5.2209C4.85576 5.12299 4.72168 5.01495 4.59596 4.89761C4.37464 4.7017 4.26164 4.71173 4.10418 4.96448C3.78553 5.47193 3.58903 6.04644 3.53016 6.64276C3.49472 7.01051 3.52347 7.38427 3.52347 7.75537L3.46028 7.77676Z" fill="#FF6B00"/>
<path d="M14.2169 12.0468H14.165C13.9528 12.0468 13.705 12.112 13.5382 12.0244C13.3874 11.9452 13.3256 11.6978 13.2226 11.5256C12.8351 10.8764 12.2494 10.4956 11.5463 10.2552C10.9606 10.0546 10.3852 9.82728 9.80588 9.61131C9.61197 9.53877 9.5782 9.46087 9.6571 9.2683C9.736 9.07574 9.81524 8.88718 9.89547 8.69695C9.97571 8.50673 10.0208 8.49636 10.1776 8.63778C10.8526 9.2439 11.6319 9.43647 12.4935 9.15764C13.3259 8.88818 13.8444 8.30012 14.049 7.4456C14.1159 7.16645 14.1142 7.16444 14.389 7.26373C14.628 7.34999 14.8623 7.44852 15.0911 7.55894C16.1639 8.07613 16.6343 8.45859 16.7761 8.67155C17.1438 9.22551 17.1251 9.82895 17.1104 10.2569C17.0974 10.653 17.0846 11.0455 16.8095 11.309C16.6577 11.4537 16.4287 11.557 16.1603 11.6767C16.0261 11.7394 15.8878 11.7926 15.7464 11.8362C15.5922 11.8805 15.4351 11.914 15.2763 11.9365C15.176 11.9522 15.2125 11.9432 14.8287 11.9923C14.7434 12.0034 14.6635 12.0137 14.5488 12.0258C14.4386 12.0388 14.3278 12.0458 14.2169 12.0468Z" fill="#FF6B00"/>
</g>
<defs>
<clipPath id="clip0_16220_531">
<rect width="17.1167" height="15.28" fill="white"/>
</clipPath>
</defs>
</svg>
