<svg width="18" height="12" viewBox="0 0 18 12" fill="none" xmlns="http://www.w3.org/2000/svg">
<g clip-path="url(#clip0_2205_3882)">
<path d="M12.219 12C11.0722 12.0009 9.95123 11.6462 9 10.9814C8.04877 11.6462 6.92784 12.0009 5.78102 12C4.24833 11.9982 2.77892 11.3655 1.69514 10.2407C0.611367 9.11583 0.00173873 7.59076 0 6.00001C0.00173873 4.40926 0.611367 2.88419 1.69514 1.75936C2.77892 0.634532 4.24833 0.00181103 5.78102 6.67572e-06C6.92784 -0.000925064 8.04877 0.353791 9 1.01864C9.95123 0.353791 11.0722 -0.000925064 12.219 6.67572e-06C13.7517 0.00181103 15.2211 0.634532 16.3049 1.75936C17.3886 2.88419 17.9983 4.40926 18 6.00001C17.9983 7.59076 17.3886 9.11583 16.3049 10.2407C15.2211 11.3655 13.7517 11.9982 12.219 12ZM9 2.79001C8.19873 3.65161 7.75121 4.80253 7.75182 6.00001C7.75121 7.19749 8.19873 8.34841 9 9.21001C9.80127 8.34841 10.2488 7.19749 10.2482 6.00001C10.2488 4.80253 9.80127 3.65161 9 2.79001ZM1.31387 6.00001C1.31387 7.22965 1.78451 8.40893 2.62227 9.27842C3.46002 10.1479 4.59626 10.6364 5.78102 10.6364C6.54259 10.6374 7.29153 10.4345 7.95547 10.0473C6.97835 8.94355 6.43668 7.49891 6.43796 6.00001C6.43668 4.5011 6.97835 3.05647 7.95547 1.95274C7.29153 1.56555 6.54259 1.36265 5.78102 1.36364C4.59626 1.36364 3.46002 1.85212 2.62227 2.7216C1.78451 3.59109 1.31387 4.77037 1.31387 6.00001ZM12.219 1.36364C11.4574 1.36265 10.7085 1.56555 10.0445 1.95274C11.0217 3.05647 11.5633 4.5011 11.562 6.00001C11.5633 7.49891 11.0217 8.94355 10.0445 10.0473C10.7085 10.4345 11.4574 10.6374 12.219 10.6364C13.4037 10.6364 14.54 10.1479 15.3777 9.27842C16.2155 8.40893 16.6861 7.22965 16.6861 6.00001C16.6861 4.77037 16.2155 3.59109 15.3777 2.7216C14.54 1.85212 13.4037 1.36364 12.219 1.36364Z" fill="black"/>
</g>
<defs>
<clipPath id="clip0_2205_3882">
<rect width="18" height="12" fill="white" transform="matrix(1 0 0 -1 0 12)"/>
</clipPath>
</defs>
</svg>
