<svg width="24" height="22" viewBox="0 0 24 22" fill="none" xmlns="http://www.w3.org/2000/svg">
<g clip-path="url(#clip0_2961_6310)">
<path d="M3.89189 0V19.1351C3.89258 19.4335 3.83432 19.729 3.72048 20.0047C3.60663 20.2805 3.43943 20.531 3.22848 20.742C3.01752 20.9529 2.76698 21.1201 2.49123 21.234C2.21548 21.3478 1.91995 21.4061 1.62162 21.4054H21.7297C22.028 21.4061 22.3236 21.3478 22.5993 21.234C22.8751 21.1201 23.1256 20.9529 23.3366 20.742C23.5475 20.531 23.7147 20.2805 23.8286 20.0047C23.9424 19.729 24.0007 19.4335 24 19.1351V0H3.89189ZM7.13513 3.24324H13.6216V7.78378H7.13513V3.24324ZM16.2162 3.24324H20.7567C20.9288 3.24324 21.0938 3.31158 21.2154 3.43323C21.337 3.55487 21.4054 3.71986 21.4054 3.89189C21.4054 4.06392 21.337 4.22891 21.2154 4.35056C21.0938 4.4722 20.9288 4.54054 20.7567 4.54054H16.2162C16.0442 4.54054 15.8792 4.4722 15.7575 4.35056C15.6359 4.22891 15.5676 4.06392 15.5676 3.89189C15.5676 3.71986 15.6359 3.55487 15.7575 3.43323C15.8792 3.31158 16.0442 3.24324 16.2162 3.24324ZM0 11.6757V19.1351C0 19.5652 0.170848 19.9777 0.474961 20.2818C0.779074 20.5859 1.19154 20.7568 1.62162 20.7568C2.0517 20.7568 2.46417 20.5859 2.76828 20.2818C3.07239 19.9777 3.24324 19.5652 3.24324 19.1351V11.6757H0ZM16.2162 6.48649H20.7567C20.9288 6.48649 21.0938 6.55483 21.2154 6.67647C21.337 6.79812 21.4054 6.9631 21.4054 7.13513C21.4054 7.30717 21.337 7.47215 21.2154 7.5938C21.0938 7.71544 20.9288 7.78378 20.7567 7.78378H16.2162C16.0442 7.78378 15.8792 7.71544 15.7575 7.5938C15.6359 7.47215 15.5676 7.30717 15.5676 7.13513C15.5676 6.9631 15.6359 6.79812 15.7575 6.67647C15.8792 6.55483 16.0442 6.48649 16.2162 6.48649ZM7.13513 10.3784H20.7567C20.9288 10.3784 21.0938 10.4467 21.2154 10.5684C21.337 10.69 21.4054 10.855 21.4054 11.027C21.4054 11.1991 21.337 11.364 21.2154 11.4857C21.0938 11.6073 20.9288 11.6757 20.7567 11.6757H7.13513C6.9631 11.6757 6.79811 11.6073 6.67647 11.4857C6.55482 11.364 6.48648 11.1991 6.48648 11.027C6.48648 10.855 6.55482 10.69 6.67647 10.5684C6.79811 10.4467 6.9631 10.3784 7.13513 10.3784ZM7.13513 13.9459H20.7567C20.9288 13.9459 21.0938 14.0143 21.2154 14.1359C21.337 14.2576 21.4054 14.4226 21.4054 14.5946C21.4054 14.7666 21.337 14.9316 21.2154 15.0533C21.0938 15.1749 20.9288 15.2432 20.7567 15.2432H7.13513C6.9631 15.2432 6.79811 15.1749 6.67647 15.0533C6.55482 14.9316 6.48648 14.7666 6.48648 14.5946C6.48648 14.4226 6.55482 14.2576 6.67647 14.1359C6.79811 14.0143 6.9631 13.9459 7.13513 13.9459ZM7.13513 17.5135H20.7567C20.9288 17.5135 21.0938 17.5819 21.2154 17.7035C21.337 17.8251 21.4054 17.9901 21.4054 18.1622C21.4054 18.3342 21.337 18.4992 21.2154 18.6208C21.0938 18.7425 20.9288 18.8108 20.7567 18.8108H7.13513C7.04995 18.8108 6.9656 18.794 6.8869 18.7614C6.80821 18.7288 6.7367 18.6811 6.67647 18.6208C6.61623 18.5606 6.56845 18.4891 6.53586 18.4104C6.50326 18.3317 6.48648 18.2473 6.48648 18.1622C6.48648 18.077 6.50326 17.9926 6.53586 17.9139C6.56845 17.8352 6.61623 17.7637 6.67647 17.7035C6.7367 17.6433 6.80821 17.5955 6.8869 17.5629C6.9656 17.5303 7.04995 17.5135 7.13513 17.5135Z" fill="#7521E2"/>
</g>
<defs>
<clipPath id="clip0_2961_6310">
<rect width="24" height="21.4054" fill="white"/>
</clipPath>
</defs>
</svg>
