<svg width="18" height="14" viewBox="0 0 18 14" fill="none" xmlns="http://www.w3.org/2000/svg">
<path fill-rule="evenodd" clip-rule="evenodd" d="M14.8327 11.9999H3.16602C2.70685 11.9999 2.33268 11.6266 2.33268 11.1666V3.04159L8.49935 7.66659C8.64768 7.77825 8.82351 7.83325 8.99935 7.83325C9.17518 7.83325 9.35102 7.77825 9.49935 7.66659L15.666 3.04159V11.1666C15.666 11.6266 15.2918 11.9999 14.8327 11.9999ZM14.2768 1.99992L8.99935 5.95825L3.72185 1.99992H14.2768ZM14.8327 0.333252H3.16602C1.78768 0.333252 0.666016 1.45492 0.666016 2.83325V11.1666C0.666016 12.5449 1.78768 13.6666 3.16602 13.6666H14.8327C16.211 13.6666 17.3327 12.5449 17.3327 11.1666V2.83325C17.3327 1.45492 16.211 0.333252 14.8327 0.333252Z" fill="white"/>
</svg>
