<svg width="25" height="19" viewBox="0 0 25 19" fill="none" xmlns="http://www.w3.org/2000/svg">
<g clip-path="url(#clip0_2961_5593)">
<path d="M4.56338 10.4525C5.13146 10.4525 5.68677 10.284 6.1591 9.9684C6.63144 9.6528 6.99958 9.20422 7.21697 8.67939C7.43436 8.15456 7.49124 7.57705 7.38042 7.01989C7.26959 6.46273 6.99604 5.95095 6.59435 5.54926C6.19266 5.14758 5.68088 4.87402 5.12373 4.7632C4.56657 4.65237 3.98906 4.70925 3.46423 4.92664C2.9394 5.14404 2.49082 5.51218 2.17522 5.98451C1.85961 6.45685 1.69116 7.01216 1.69116 7.58023C1.69219 8.34168 1.99513 9.07164 2.53355 9.61006C3.07198 10.1485 3.80194 10.4514 4.56338 10.4525Z" fill="#7521E2"/>
<path d="M9.12734 19.0002V13.6973C9.12645 13.0754 8.94351 12.4675 8.6011 11.9484C8.2587 11.4294 7.77181 11.0219 7.20052 10.7764C6.4587 11.3898 5.52624 11.7253 4.56367 11.7253C3.6011 11.7253 2.66865 11.3898 1.92682 10.7764C1.35554 11.0219 0.868645 11.4294 0.526238 11.9484C0.183831 12.4675 0.000893132 13.0754 0 13.6973V19.0002H9.12734Z" fill="#7521E2"/>
<path d="M17.099 7.58023C17.099 8.1483 17.2675 8.70362 17.5831 9.17595C17.8987 9.64829 18.3472 10.0164 18.8721 10.2338C19.3969 10.4512 19.9744 10.5081 20.5316 10.3973C21.0887 10.2864 21.6005 10.0129 22.0022 9.6112C22.4039 9.20951 22.6774 8.69773 22.7883 8.14057C22.8991 7.58342 22.8422 7.00591 22.6248 6.48108C22.4074 5.95625 22.0393 5.50767 21.5669 5.19206C21.0946 4.87646 20.5393 4.70801 19.9712 4.70801C19.2098 4.70917 18.4799 5.01215 17.9415 5.55054C17.4031 6.08894 17.1002 6.81883 17.099 7.58023Z" fill="#7521E2"/>
<path d="M19.9721 11.7247C19.0094 11.7257 18.0766 11.3899 17.3355 10.7754C16.7642 11.0209 16.2772 11.4284 15.9347 11.9474C15.5922 12.4665 15.4092 13.0744 15.4082 13.6963V19.0002H24.5355V13.6973C24.5346 13.0755 24.3516 12.4675 24.0092 11.9485C23.6668 11.4294 23.18 11.022 22.6087 10.7764C21.8676 11.3909 20.9349 11.7267 19.9721 11.7257V11.7247Z" fill="#7521E2"/>
<path d="M9.04407 5.6739C9.04407 6.31149 9.23314 6.93476 9.58736 7.4649C9.94159 7.99503 10.4451 8.40822 11.0341 8.65222C11.6232 8.89621 12.2713 8.96005 12.8967 8.83566C13.522 8.71128 14.0964 8.40425 14.5473 7.9534C14.9981 7.50256 15.3051 6.92815 15.4295 6.30281C15.5539 5.67748 15.4901 5.0293 15.2461 4.44024C15.0021 3.85119 14.5889 3.34771 14.0588 2.99349C13.5286 2.63926 12.9054 2.4502 12.2678 2.4502C11.4131 2.4511 10.5936 2.79103 9.98927 3.39539C9.3849 3.99976 9.04497 4.8192 9.04407 5.6739Z" fill="#7521E2"/>
<path d="M16.4413 9.79945C16.1055 9.45754 15.6971 9.19564 15.2462 9.0332C14.4268 9.76558 13.3663 10.1704 12.2674 10.1704C11.1684 10.1704 10.1079 9.76558 9.28852 9.0332C8.83748 9.19528 8.42892 9.45722 8.09338 9.79945C8.79109 10.1837 9.373 10.748 9.7785 11.4336C10.184 12.1191 10.3983 12.9009 10.399 13.6974V19.0003H14.1358V13.6974C14.1364 12.9009 14.3506 12.1192 14.756 11.4336C15.1614 10.7481 15.7432 10.1838 16.4408 9.79945H16.4413Z" fill="#7521E2"/>
<path d="M16.7119 5.02872C17.085 4.55103 17.5586 4.16122 18.0991 3.88688C18.6397 3.61255 19.2339 3.4604 19.8397 3.44121C19.9787 2.7475 19.8567 2.02691 19.4972 1.41757C19.1377 0.808236 18.5659 0.353026 17.8915 0.139202C17.2171 -0.0746213 16.4875 -0.0320137 15.8426 0.258858C15.1976 0.549729 14.6827 1.0684 14.3966 1.71544C15.0139 2.04924 15.5447 2.52263 15.9467 3.09787C16.3486 3.6731 16.6107 4.33429 16.7119 5.02872Z" fill="#7521E2"/>
<path d="M7.82368 5.02897C7.92352 4.34464 8.17966 3.6925 8.57224 3.12314C8.96481 2.55378 9.48326 2.08251 10.0874 1.74587C9.80071 1.16486 9.32602 0.697838 8.74042 0.420659C8.15482 0.14348 7.49271 0.0724298 6.86163 0.219048C6.23056 0.365665 5.66759 0.721339 5.26416 1.2283C4.86074 1.73525 4.64057 2.36371 4.6394 3.0116C4.64062 3.15557 4.6525 3.29925 4.67494 3.44146C5.2844 3.45792 5.88268 3.60885 6.42701 3.88345C6.97134 4.15806 7.44827 4.54956 7.82368 5.02994V5.02897Z" fill="#7521E2"/>
</g>
<defs>
<clipPath id="clip0_2961_5593">
<rect width="24.5356" height="19" fill="white"/>
</clipPath>
</defs>
</svg>
