<svg width="24" height="24" viewBox="0 0 24 24" fill="none" xmlns="http://www.w3.org/2000/svg">
<path d="M21.0623 13.92C20.9663 13.5745 20.736 13.2864 20.4287 13.1136L16.4543 11.0591C15.9167 10.7712 15.2447 10.9247 14.8799 11.4047L13.6702 12.9407C12.883 12.4991 12.1918 12.0383 11.443 11.3662L19.9294 2.87983C20.2558 2.55345 20.2558 2.01587 19.9294 1.68947C19.603 1.36308 19.0654 1.36308 18.739 1.68947L10.2334 10.1759C9.54224 9.40793 9.08137 8.69743 8.63984 7.89103L10.1566 6.70066C10.6366 6.3167 10.7902 5.66393 10.5021 5.1262L8.46707 1.171C8.2943 0.844614 8.00624 0.614266 7.66067 0.518231C7.31514 0.422204 6.93104 0.49908 6.64307 0.691001L4.14704 2.3422C3.51344 2.7646 3.1486 3.49427 3.2062 4.2622C3.26379 5.14547 3.35982 5.83667 3.475 6.31667C4.07016 8.62063 5.43343 10.9823 7.3534 13.0751L3.1486 17.2799C2.82221 17.6062 2.82221 18.1438 3.1486 18.4702C3.32136 18.643 3.53256 18.7199 3.74376 18.7199C3.95497 18.7199 4.18533 18.6431 4.33893 18.4702L8.54373 14.2654C10.6173 16.1663 12.9789 17.5294 15.2829 18.1438C15.7629 18.2783 16.4541 18.355 17.3374 18.4126H17.4719C18.2015 18.4126 18.8734 18.0478 19.2574 17.4335L20.8702 14.9374C21.1007 14.6302 21.1582 14.2654 21.0622 13.9198L21.0623 13.92Z" fill="white"/>
</svg>
