<svg width="16" height="15" viewBox="0 0 16 15" fill="none" xmlns="http://www.w3.org/2000/svg">
<path d="M13.2267 11.9078L12.678 11.9689C12.5558 11.9825 12.4408 12.0342 12.3491 12.1168C12.2573 12.1994 12.1934 12.3088 12.1661 12.4298L12.0442 12.9731C12.0269 13.0504 11.9945 13.1234 11.9489 13.1878C11.9034 13.2523 11.8455 13.307 11.7788 13.3486C11.7121 13.3903 11.6378 13.4182 11.5603 13.4306C11.4828 13.4429 11.4036 13.4396 11.3273 13.4208L10.7912 13.2892C10.6717 13.2597 10.5461 13.2686 10.4319 13.3146C10.3177 13.3606 10.2205 13.4414 10.154 13.5458L9.85538 14.014C9.81288 14.0805 9.75767 14.1379 9.69298 14.1827C9.6283 14.2274 9.55542 14.2588 9.4786 14.2749C9.40178 14.291 9.32256 14.2915 9.24555 14.2764C9.16854 14.2612 9.09529 14.2308 9.03005 14.1868L8.5707 13.8777C8.46845 13.809 8.34754 13.7741 8.22475 13.7779C8.10196 13.7818 7.98339 13.8241 7.88554 13.899L7.44617 14.2361C7.3837 14.284 7.3124 14.3189 7.23642 14.3388C7.16044 14.3586 7.0813 14.363 7.00363 14.3517C6.92596 14.3403 6.8513 14.3135 6.78401 14.2727C6.71672 14.2319 6.65814 14.1781 6.6117 14.1142L6.28511 13.6654C6.21225 13.5653 6.11029 13.4907 5.99341 13.4519C5.87654 13.413 5.75057 13.4119 5.63306 13.4488L5.10548 13.6147C5.03051 13.638 4.9517 13.646 4.87363 13.6383C4.79556 13.6306 4.71979 13.6073 4.65072 13.5698C4.58165 13.5322 4.52067 13.4812 4.47131 13.4197C4.42196 13.3582 4.38521 13.2874 4.36322 13.2114L4.20735 12.6778C4.17282 12.5587 4.10235 12.4534 4.00575 12.3766C3.90914 12.2997 3.79121 12.2552 3.66835 12.2492L3.11708 12.2224C3.03877 12.2186 2.96199 12.1991 2.89121 12.165C2.82044 12.131 2.75708 12.0831 2.70482 12.0241C2.65256 11.9651 2.61245 11.8962 2.58682 11.8215C2.56119 11.7467 2.55055 11.6675 2.55553 11.5886L2.59121 11.0329C2.59916 10.909 2.56861 10.7857 2.50382 10.6802C2.43903 10.5747 2.34324 10.4922 2.22979 10.4443L1.72105 10.2288C1.64864 10.1981 1.58302 10.1531 1.52803 10.0965C1.47304 10.0399 1.42978 9.97274 1.40078 9.89907C1.37178 9.82539 1.35763 9.74662 1.35914 9.66735C1.36065 9.58809 1.3778 9.50993 1.40959 9.43743L1.63141 8.92752C1.68086 8.81388 1.69396 8.68752 1.66888 8.56601C1.64381 8.44451 1.58181 8.33392 1.49152 8.24965L1.08613 7.87139C1.02857 7.81759 0.982191 7.75278 0.949681 7.68072C0.91717 7.60866 0.899183 7.5308 0.896765 7.45166C0.894348 7.37253 0.907548 7.2937 0.935598 7.21976C0.963648 7.14581 1.00599 7.07824 1.06016 7.02096L1.44156 6.61764C1.52659 6.52793 1.58174 6.41368 1.59935 6.29082C1.61695 6.16796 1.59613 6.04262 1.53977 5.93228L1.2874 5.43706C1.2517 5.36672 1.2302 5.28993 1.22415 5.21114C1.2181 5.13235 1.22762 5.05313 1.25216 4.97808C1.27671 4.90303 1.31578 4.83365 1.36711 4.77397C1.41844 4.71429 1.48101 4.66549 1.55119 4.63042L2.04594 4.38381C2.15616 4.32875 2.24665 4.24041 2.30483 4.13106C2.363 4.0217 2.38597 3.89678 2.37053 3.77365L2.30087 3.22109C2.29092 3.14253 2.29656 3.06275 2.31747 2.98641C2.33838 2.91006 2.37413 2.83868 2.42265 2.77642C2.47117 2.71416 2.53148 2.66227 2.60007 2.62377C2.66866 2.58526 2.74416 2.56092 2.82217 2.55216L3.37059 2.49108C3.49281 2.47751 3.6078 2.42581 3.69955 2.34319C3.7913 2.26058 3.85524 2.15115 3.88246 2.03014L4.00437 1.4871C4.02175 1.40989 4.05418 1.33694 4.09976 1.27249C4.14534 1.20805 4.20317 1.15339 4.26988 1.11171C4.33658 1.07002 4.41084 1.04213 4.48832 1.02967C4.56581 1.01721 4.64498 1.02043 4.72122 1.03912L5.25736 1.17107C5.37688 1.20058 5.50254 1.1917 5.61682 1.14569C5.7311 1.09967 5.82829 1.01881 5.89485 0.914383L6.19346 0.446242C6.23597 0.379702 6.29118 0.322365 6.35587 0.277571C6.42056 0.232777 6.49343 0.20142 6.57025 0.185332C6.64707 0.169244 6.72629 0.168744 6.8033 0.183862C6.88031 0.19898 6.95357 0.229415 7.0188 0.27339L7.47787 0.582506C7.58014 0.651142 7.70105 0.685964 7.82382 0.682145C7.94659 0.678325 8.06514 0.636052 8.16303 0.561188L8.60239 0.224124C8.66488 0.176225 8.73619 0.141353 8.81216 0.121536C8.88814 0.101718 8.96726 0.0973514 9.04492 0.108693C9.12258 0.120034 9.19723 0.146854 9.26452 0.187593C9.33181 0.228332 9.3904 0.282178 9.43687 0.345988L9.76346 0.794826C9.83624 0.894897 9.93815 0.969553 10.055 1.00839C10.1718 1.04722 10.2978 1.0483 10.4152 1.01147L10.9422 0.846395C11.0172 0.823056 11.096 0.814997 11.1741 0.822692C11.2522 0.830388 11.328 0.853681 11.397 0.891215C11.4661 0.92875 11.5271 0.979778 11.5765 1.04132C11.6258 1.10287 11.6625 1.17371 11.6845 1.24972L11.8395 1.78412C11.874 1.90327 11.9445 2.00861 12.0411 2.08545C12.1377 2.16228 12.2556 2.2068 12.3785 2.21279L12.9298 2.23958C13.0081 2.24347 13.0848 2.26302 13.1555 2.29708C13.2263 2.33114 13.2896 2.37905 13.3419 2.43801C13.3941 2.49698 13.4342 2.56582 13.4599 2.64056C13.4855 2.7153 13.4962 2.79443 13.4913 2.87337L13.4556 3.42909C13.4477 3.55292 13.4782 3.67617 13.5429 3.78167C13.6076 3.88717 13.7034 3.96966 13.8168 4.01765L14.3258 4.23314C14.3983 4.26367 14.464 4.30846 14.5191 4.36489C14.5743 4.42132 14.6177 4.48827 14.647 4.56182C14.6762 4.63538 14.6906 4.71408 14.6894 4.79332C14.6882 4.87256 14.6713 4.95077 14.6398 5.02337L14.418 5.53328C14.3686 5.64692 14.3555 5.77329 14.3805 5.89479C14.4056 6.01629 14.4676 6.12688 14.5579 6.21115L14.963 6.58941C15.0206 6.64317 15.0671 6.70797 15.0996 6.78003C15.1322 6.85209 15.1502 6.92997 15.1526 7.00913C15.155 7.08829 15.1418 7.16714 15.1137 7.24109C15.0856 7.31504 15.0432 7.3826 14.989 7.43984L14.6079 7.84316C14.5228 7.93284 14.4676 8.04708 14.4499 8.16994C14.4323 8.29279 14.453 8.41815 14.5094 8.52852L14.762 9.02374C14.7979 9.09415 14.8196 9.17107 14.8257 9.25C14.8319 9.32894 14.8224 9.40833 14.7978 9.48353C14.7733 9.55874 14.7341 9.62826 14.6827 9.68805C14.6313 9.74785 14.5686 9.79672 14.4982 9.83182L14.0035 10.0784C13.8932 10.1334 13.8026 10.2217 13.7444 10.3311C13.6862 10.4405 13.6633 10.5655 13.6789 10.6886L13.7483 11.2411C13.758 11.3196 13.7521 11.3992 13.7311 11.4753C13.71 11.5514 13.6742 11.6225 13.6257 11.6846C13.5771 11.7466 13.5169 11.7983 13.4484 11.8366C13.3799 11.8749 13.3045 11.8991 13.2267 11.9078Z" fill="#FF6B00"/>
<path d="M7.2321 9.90952L4.86914 7.52618L5.61597 6.77225L7.20869 8.37863L10.5954 4.74585L11.3651 5.47644L7.2321 9.90952Z" fill="white"/>
</svg>
