<svg width="24" height="24" viewBox="0 0 24 24" fill="none" xmlns="http://www.w3.org/2000/svg">
<g clip-path="url(#clip0_2961_6739)">
<g clip-path="url(#clip1_2961_6739)">
<path d="M11.6272 0.320312C11.2986 0.692439 10.5738 1.07812 9.80001 1.38486C7.81019 2.17377 5.52427 2.54164 4.29545 2.73914C4.18063 2.75686 4.07315 2.77458 3.97303 2.7923L3.93688 2.82313C3.60064 3.15193 3.16924 3.60859 2.85638 3.95998C2.96483 3.85578 3.34759 3.7803 4.52165 3.59157C5.7502 3.39408 8.03692 3.02621 10.0262 2.23597C11.4536 1.67034 12.7148 0.833582 11.6272 0.320312Z" fill="#7521E2"/>
<path d="M9.79985 1.385C10.5736 1.07826 11.2985 0.69178 11.627 0.320451C11.6129 0.313805 11.5988 0.307161 11.5839 0.300781C10.627 1.02669 7.62637 1.36001 6.49643 1.48547C5.70725 1.57319 5.60306 1.58834 5.48265 1.63326L5.45607 1.65054C4.79156 2.09443 4.67115 2.19517 3.97314 2.79164C4.07326 2.77516 4.18074 2.75744 4.29557 2.73848C5.52412 2.54125 7.81004 2.17338 9.79985 1.385Z" fill="#7521E2"/>
<path d="M9.79985 1.385C10.5736 1.07826 11.2985 0.69178 11.627 0.320451C11.6129 0.313805 11.5988 0.307161 11.5839 0.300781C10.627 1.02669 7.62637 1.36001 6.49643 1.48547C5.70725 1.57319 5.60306 1.58834 5.48265 1.63326L5.45607 1.65054C4.79156 2.09443 4.67115 2.19517 3.97314 2.79164C4.07326 2.77516 4.18074 2.75744 4.29557 2.73848C5.52412 2.54125 7.81004 2.17338 9.79985 1.385Z" fill="#7521E2"/>
<path d="M14.0033 0.369141C14.402 0.980492 14.3427 1.75691 13.5926 2.57213C11.8649 4.44978 6.87386 6.40424 0.831843 7.57671L0.788782 7.68569C0.633287 8.18461 0.454931 8.85869 0.336914 9.36744C0.434199 9.14203 1.1136 9.00382 2.407 8.75901C8.56916 7.59319 13.6843 5.60842 15.4386 3.7026C16.8189 2.20133 15.8605 0.837223 14.0033 0.369141Z" fill="#7521E2"/>
<path d="M13.5914 2.57113C14.3415 1.75671 14.4018 0.980823 14.0031 0.368143C13.4598 0.235764 12.9007 0.178966 12.3419 0.199356C12.2153 0.211583 12.0881 0.226292 11.9602 0.243481C15.3093 0.677008 12.9498 3.6192 3.86401 5.15688C2.23038 5.43332 1.88961 5.51413 1.71923 5.6651L1.57464 5.92107C1.25567 6.5093 1.22909 6.5699 0.830383 7.57571C6.87266 6.40324 11.8639 4.44878 13.5914 2.57113Z" fill="#7521E2"/>
<path d="M13.5914 2.57113C14.3415 1.75671 14.4018 0.980823 14.0031 0.368143C13.4598 0.235764 12.9007 0.178966 12.3419 0.199356C12.2153 0.211583 12.0881 0.226292 11.9602 0.243481C15.3093 0.677008 12.9498 3.6192 3.86401 5.15688C2.23038 5.43332 1.88961 5.51413 1.71923 5.6651L1.57464 5.92107C1.25567 6.5093 1.22909 6.5699 0.830383 7.57571C6.87266 6.40324 11.8639 4.44878 13.5914 2.57113Z" fill="#7521E2"/>
<path d="M15.5027 0.332399C15.1614 0.255376 14.816 0.197867 14.4681 0.160156C14.8952 0.26174 15.3138 0.395832 15.7203 0.561257C15.6521 0.480949 15.5795 0.404542 15.5027 0.332399Z" fill="#7521E2"/>
<path d="M18.0168 1.31704L17.9498 1.27876C17.812 1.20026 17.6718 1.12557 17.5293 1.05469C21.6001 4.58059 18.259 9.8119 1.03188 13.883C0.776179 13.9433 0.556624 13.9951 0.367371 14.0403C0.383319 14.1264 0.400066 14.2176 0.41814 14.3152C0.511704 14.6985 0.665338 15.2019 0.7799 15.5793C0.855123 15.4047 0.855123 15.4047 2.66712 14.9768C21.3062 10.5724 23.6894 4.80865 18.0168 1.31704Z" fill="#7521E2"/>
<path d="M17.5292 1.05369C16.8852 0.732484 16.2048 0.49018 15.5027 0.332031C15.5794 0.403831 15.6521 0.479882 15.7204 0.559826C20.3409 2.46724 18.2003 7.47315 1.94104 10.8853C0.383156 11.2122 0.333718 11.271 0.125061 11.5179V11.641C0.160413 12.8124 0.208789 13.1608 0.369866 14.0393C0.558588 13.9941 0.778143 13.9423 1.03438 13.882C18.2591 9.8109 21.6002 4.57959 17.5292 1.05369Z" fill="#7521E2"/>
<path d="M17.5292 1.05369C16.8852 0.732484 16.2048 0.49018 15.5027 0.332031C15.5794 0.403831 15.6521 0.479882 15.7204 0.559826C20.3409 2.46724 18.2003 7.47315 1.94104 10.8853C0.383156 11.2122 0.333718 11.271 0.125061 11.5179V11.641C0.160413 12.8124 0.208789 13.1608 0.369866 14.0393C0.558588 13.9941 0.778143 13.9423 1.03438 13.882C18.2591 9.8109 21.6002 4.57959 17.5292 1.05369Z" fill="#7521E2"/>
<path d="M23.3452 7.75309C23.1134 7.0931 23.0927 7.05084 22.5584 5.97061C22.5013 5.86668 22.4521 5.77843 22.4077 5.69922C22.4609 5.83637 22.514 5.98283 22.5866 6.19069C24.044 11.4132 17.1745 16.0622 4.2107 18.6266C3.31068 18.8045 3.31068 18.8045 3.22111 18.8821C2.93749 18.6014 2.56111 18.2247 2.29318 17.9286C2.06167 17.6418 1.89926 17.4409 1.77327 17.2801C1.67864 17.3186 1.65073 17.3553 1.60236 17.4196L1.89474 17.9204C2.2791 18.5339 2.32269 18.5878 3.05179 19.491C3.31946 19.7869 3.69584 20.1638 3.97972 20.4442C4.06929 20.3669 4.06929 20.3669 4.96931 20.1888C17.9334 17.6256 24.8029 12.9756 23.3452 7.75309Z" fill="#7521E2"/>
<path d="M3.22103 18.8822C3.31061 18.8046 3.31061 18.8046 4.21062 18.6268C17.1745 16.0623 24.0439 11.4134 22.5865 6.19084C22.5134 5.98298 22.4613 5.83653 22.4076 5.69937C22.1828 5.30199 22.06 5.13135 21.4922 4.3419C21.3877 4.20528 21.2617 4.05616 21.1296 3.90625C21.1347 3.92565 21.1395 3.94479 21.144 3.9642C25.1013 9.32309 14.6249 14.4529 2.74497 17.0442C2.15276 17.1734 1.90158 17.2281 1.77319 17.2802C1.89918 17.4397 2.06159 17.642 2.29311 17.9288C2.56104 18.2249 2.93742 18.6015 3.22103 18.8822Z" fill="#7521E2"/>
<path d="M3.22103 18.8822C3.31061 18.8046 3.31061 18.8046 4.21062 18.6268C17.1745 16.0623 24.0439 11.4134 22.5865 6.19084C22.5134 5.98298 22.4613 5.83653 22.4076 5.69937C22.1828 5.30199 22.06 5.13135 21.4922 4.3419C21.3877 4.20528 21.2617 4.05616 21.1296 3.90625C21.1347 3.92565 21.1395 3.94479 21.144 3.9642C25.1013 9.32309 14.6249 14.4529 2.74497 17.0442C2.15276 17.1734 1.90158 17.2281 1.77319 17.2802C1.89918 17.4397 2.06159 17.642 2.29311 17.9288C2.56104 18.2249 2.93742 18.6015 3.22103 18.8822Z" fill="#7521E2"/>
<path d="M23.9229 10.3027C24.0271 11.8888 23.4357 13.3824 22.1603 14.7664C22.1603 14.7688 22.1603 14.7712 22.1582 14.7736C19.6091 21.1058 7.44616 22.3756 7.32788 22.378C7.07404 22.2935 6.73673 22.1773 6.48634 22.0835C6.05148 21.8974 5.82183 21.8007 5.56958 21.6765C5.76309 21.7993 5.99487 21.9352 6.17349 22.0449C6.82391 22.4016 6.97595 22.4662 7.70665 22.7772C7.95704 22.8711 8.29435 22.9872 8.54819 23.0717C8.66648 23.0717 20.8284 21.7996 23.3785 15.4671C23.526 14.9772 23.6927 14.3151 23.8038 13.8159C23.942 13.0201 23.9449 12.9443 23.9984 11.6817C24.0048 11.2673 23.9527 10.7158 23.9229 10.3027Z" fill="#7521E2"/>
<path d="M7.32789 22.3772C7.44618 22.3772 19.6081 21.1051 22.1582 14.7728C22.1582 14.7704 22.1595 14.768 22.1603 14.7656C21.4352 15.5526 20.4898 16.3033 19.3239 17.0178C17.1231 18.3654 14.2261 19.3553 13.6676 19.54C10.983 20.4286 8.15003 20.7337 5.46008 21.605C5.49464 21.6279 5.53132 21.6516 5.56959 21.6758C5.82158 21.7999 6.0515 21.8977 6.48636 22.0827C6.73674 22.1765 7.07405 22.2927 7.32789 22.3772Z" fill="#7521E2"/>
<path d="M7.32789 22.3772C7.44618 22.3772 19.6081 21.1051 22.1582 14.7728C22.1582 14.7704 22.1595 14.768 22.1603 14.7656C21.4352 15.5526 20.4898 16.3033 19.3239 17.0178C17.1231 18.3654 14.2261 19.3553 13.6676 19.54C10.983 20.4286 8.15003 20.7337 5.46008 21.605C5.49464 21.6279 5.53132 21.6516 5.56959 21.6758C5.82158 21.7999 6.0515 21.8977 6.48636 22.0827C6.73674 22.1765 7.07405 22.2927 7.32789 22.3772Z" fill="#7521E2"/>
<path d="M20.8283 19.4864C20.6117 19.7221 20.4464 19.8782 20.1149 20.1814C19.2994 20.8643 19.1742 20.9693 18.4095 21.4687L17.9537 21.7422C17.2772 22.1045 15.4801 23.067 12.8622 23.3424L12.7665 23.3504C12.3779 23.3769 12.3779 23.3769 12.1886 23.3847C11.8813 23.3924 11.8813 23.3924 11.6418 23.3924C11.2804 23.3854 11.2804 23.3854 11.0977 23.3761L10.875 23.3623C10.4231 23.4155 10.1188 23.432 10.0138 23.4232L10.32 23.4721C10.5194 23.5016 10.5342 23.5032 10.9114 23.5441C11.0892 23.5617 11.1028 23.5625 11.4518 23.5843C11.6256 23.593 11.6256 23.593 11.9699 23.5994C12.1979 23.5994 12.1979 23.5994 12.4903 23.5922C12.6702 23.5859 12.6702 23.5859 13.0402 23.5598L13.1312 23.5518C15.6225 23.29 17.333 22.3741 17.9768 22.0293L18.4108 21.7691C19.1383 21.2936 19.2577 21.1936 20.0338 20.5437C20.5965 20.0289 20.6564 19.959 21.3881 19.1102C21.6776 18.7525 22.0141 18.2373 22.2679 17.8535C21.8695 18.4574 21.3799 18.9997 20.8283 19.4864Z" fill="#7521E2"/>
<path d="M11.6416 23.3923C11.8808 23.3923 11.8808 23.3923 12.1884 23.3846C12.3776 23.378 12.3776 23.378 12.7662 23.3503L12.8619 23.3424C15.4798 23.067 17.2769 22.1045 17.9534 21.7422L18.4093 21.4687C19.174 20.9693 19.2992 20.8643 20.1147 20.1814C20.4461 19.8781 20.6115 19.7221 20.8281 19.4863C17.795 22.1595 12.885 23.1249 10.8748 23.3623L11.0975 23.3761C11.2801 23.3854 11.2801 23.3854 11.6416 23.3923Z" fill="#7521E2"/>
<path d="M11.6416 23.3923C11.8808 23.3923 11.8808 23.3923 12.1884 23.3846C12.3776 23.378 12.3776 23.378 12.7662 23.3503L12.8619 23.3424C15.4798 23.067 17.2769 22.1045 17.9534 21.7422L18.4093 21.4687C19.174 20.9693 19.2992 20.8643 20.1147 20.1814C20.4461 19.8781 20.6115 19.7221 20.8281 19.4863C17.795 22.1595 12.885 23.1249 10.8748 23.3623L11.0975 23.3761C11.2801 23.3854 11.2801 23.3854 11.6416 23.3923Z" fill="#7521E2"/>
</g>
</g>
<defs>
<clipPath id="clip0_2961_6739">
<rect width="24" height="24" fill="white"/>
</clipPath>
<clipPath id="clip1_2961_6739">
<rect width="23.8757" height="23.4389" fill="white" transform="translate(0.124329 0.160156)"/>
</clipPath>
</defs>
</svg>
