<svg width="23" height="23" viewBox="0 0 23 23" fill="none" xmlns="http://www.w3.org/2000/svg">
<g clip-path="url(#clip0_1453_15323)">
<path d="M18.7229 0H4.27715C3.14321 0.00144927 2.05613 0.452578 1.25436 1.25444C0.452585 2.0563 0.00157243 3.14342 0.000244141 4.27736V18.7231C0.00169317 19.857 0.452759 20.944 1.25452 21.7457C2.05628 22.5475 3.14329 22.9986 4.27715 23H12.0702C12.1747 23.0003 12.2781 22.9799 12.3746 22.9399C12.4712 22.9 12.5588 22.8413 12.6324 22.7673L22.7675 12.6313C22.8415 12.5576 22.9001 12.4699 22.9401 12.3734C22.98 12.2769 23.0005 12.1735 23.0002 12.0691V4.2769C22.9988 3.14296 22.5477 2.05589 21.7458 1.25412C20.9439 0.452341 19.8568 0.00132829 18.7229 0ZM3.58395 5.61538C3.58323 5.06803 3.77236 4.53737 4.1191 4.11386C4.46585 3.69035 4.94875 3.4002 5.48547 3.29289C6.0222 3.18557 6.57954 3.26773 7.06247 3.52535C7.5454 3.78297 7.92404 4.20012 8.13383 4.70567C8.34362 5.21121 8.37159 5.77388 8.21296 6.29774C8.05432 6.8216 7.71891 7.27422 7.26391 7.57846C6.8089 7.8827 6.26245 8.01971 5.71773 7.96614C5.17301 7.91258 4.66372 7.67174 4.27669 7.2847C3.83365 6.84207 3.58449 6.24164 3.58395 5.61538ZM11.2762 17.8433C9.63321 17.7833 8.07739 17.089 6.93551 15.9062C5.79362 14.7234 5.15452 13.1441 5.15243 11.5C5.14989 11.3942 5.16854 11.2889 5.2073 11.1903C5.24605 11.0918 5.30412 11.002 5.37808 10.9263C5.45204 10.8505 5.54041 10.7903 5.63799 10.7492C5.73556 10.7081 5.84037 10.6869 5.94625 10.6869C6.05212 10.6869 6.15693 10.7081 6.25451 10.7492C6.35208 10.7903 6.44045 10.8505 6.51441 10.9263C6.58838 11.002 6.64644 11.0918 6.6852 11.1903C6.72395 11.2889 6.7426 11.3942 6.74007 11.5C6.74146 12.7232 7.21319 13.899 8.05759 14.784C8.90199 15.669 10.0544 16.1954 11.2762 16.2542V17.8433ZM17.054 3.25331C17.6014 3.25259 18.132 3.44172 18.5555 3.78846C18.979 4.13521 19.2692 4.6181 19.3765 5.15483C19.4838 5.69156 19.4017 6.24889 19.144 6.73183C18.8864 7.21476 18.4693 7.5934 17.9637 7.80319C17.4582 8.01298 16.8955 8.04095 16.3717 7.88231C15.8478 7.72368 15.3952 7.38827 15.0909 6.93326C14.7867 6.47825 14.6497 5.93181 14.7032 5.38709C14.7568 4.84237 14.9976 4.33308 15.3847 3.94605C15.8273 3.50301 16.4278 3.25384 17.054 3.25331ZM12.8629 20.2897V15.5533C12.8638 14.8398 13.1478 14.1557 13.6526 13.6515C14.1575 13.1473 14.8418 12.864 15.5554 12.864H20.29L12.8629 20.2897Z" fill="#7521E2"/>
</g>
<defs>
<clipPath id="clip0_1453_15323">
<rect width="23" height="23" fill="white"/>
</clipPath>
</defs>
</svg>
