<svg width="16" height="16" viewBox="0 0 16 16" fill="none" xmlns="http://www.w3.org/2000/svg">
<path fill-rule="evenodd" clip-rule="evenodd" d="M6.96917 7.66682C9.3445 7.66682 11.4872 8.75615 12.8425 10.5062C12.2192 7.92682 9.8225 6.00015 6.96917 6.00015C6.6005 6.00015 6.3025 5.70215 6.3025 5.33348V4.05148L3.0865 6.83415L6.3025 9.64215V8.33348C6.3025 7.96482 6.6005 7.66682 6.96917 7.66682ZM13.4805 14.0002C13.1732 14.0002 12.9052 13.7902 12.8325 13.4915C12.2392 11.0588 10.1518 9.30148 7.63584 9.03548V9.78282C7.63584 10.2535 7.3565 10.6728 6.90717 10.8762C6.41984 11.0982 5.85117 11.0182 5.45584 10.6735L2.0785 7.72415C1.8165 7.49482 1.6665 7.17015 1.6665 6.83348C1.6665 6.49682 1.8165 6.17215 2.0785 5.94282L5.45584 2.99348C5.85117 2.64882 6.41984 2.56882 6.90717 2.79082C7.3565 2.99415 7.63584 3.41348 7.63584 3.88415V4.69615C11.3852 5.02482 14.3332 8.10015 14.3332 11.8335C14.3332 12.3735 14.2638 12.9308 14.1278 13.4908C14.0558 13.7902 13.7885 14.0002 13.4805 14.0002Z" fill="#3F434A"/>
</svg>
