<svg width="83" height="55" viewBox="0 0 83 55" fill="none" xmlns="http://www.w3.org/2000/svg">
<g clip-path="url(#clip0_18897_320270)">
<path d="M22.6655 31.4572C23.9935 31.4572 25.2917 31.06 26.3958 30.3159C27.5 29.5718 28.3606 28.5141 28.8688 27.2767C29.377 26.0393 29.51 24.6776 29.2509 23.364C28.9918 22.0503 28.3523 20.8437 27.4133 19.8966C26.4743 18.9495 25.2779 18.3045 23.9755 18.0432C22.673 17.7819 21.323 17.916 20.0961 18.4286C18.8692 18.9411 17.8205 19.8091 17.0827 20.9228C16.345 22.0365 15.9512 23.3458 15.9512 24.6851C15.9529 26.4807 16.6608 28.2022 17.9196 29.4718C19.1785 30.7415 20.8853 31.4555 22.6655 31.4572Z" fill="#D4D8DD"/>
<path d="M33.328 51.6002V39.1034C33.3232 37.6394 32.8944 36.2088 32.0942 34.9874C31.2941 33.766 30.1575 32.8071 28.8242 32.2285C27.093 33.6779 24.9139 34.4712 22.664 34.4712C20.4141 34.4712 18.235 33.6779 16.5039 32.2285C15.1705 32.8071 14.0339 33.766 13.2338 34.9874C12.4336 36.2088 12.0048 37.6394 12 39.1034V51.6002H33.328Z" fill="#D4D8DD"/>
<path d="M51.9561 24.6851C51.9561 26.0245 52.3498 27.3338 53.0876 28.4475C53.8254 29.5612 54.8741 30.4292 56.1009 30.9417C57.3278 31.4543 58.6779 31.5884 59.9803 31.3271C61.2828 31.0658 62.4792 30.4208 63.4182 29.4737C64.3572 28.5266 64.9967 27.32 65.2558 26.0063C65.5148 24.6927 65.3819 23.331 64.8737 22.0936C64.3655 20.8562 63.5049 19.7985 62.4007 19.0544C61.2965 18.3103 59.9984 17.9131 58.6704 17.9131C56.8902 17.9148 55.1833 18.6288 53.9245 19.8985C52.6657 21.1681 51.9577 22.8896 51.9561 24.6851Z" fill="#D4D8DD"/>
<path d="M58.6689 34.458C56.4202 34.4639 54.2406 33.675 52.5087 32.2285C51.1754 32.8071 50.0388 33.766 49.2386 34.9874C48.4385 36.2088 48.0096 37.6394 48.0049 39.1034V51.6002H69.3329V39.1034C69.3297 37.6391 68.9016 36.2077 68.1012 34.986C67.3008 33.7643 66.1633 32.8057 64.829 32.2285C63.0958 33.6727 60.917 34.4612 58.6689 34.458Z" fill="#D4D8DD"/>
<path d="M40.6651 27.7955C42.1556 27.7955 43.6126 27.3498 44.8519 26.5146C46.0912 25.6794 47.0572 24.4923 47.6276 23.1034C48.198 21.7145 48.3472 20.1862 48.0564 18.7118C47.7656 17.2374 47.0479 15.883 45.9939 14.82C44.94 13.757 43.5972 13.0331 42.1353 12.7398C40.6734 12.4465 39.1582 12.597 37.7811 13.1723C36.404 13.7476 35.2271 14.7219 34.399 15.9718C33.5709 17.2218 33.1289 18.6913 33.1289 20.1947C33.1323 22.2095 33.9273 24.1408 35.3399 25.5655C36.7525 26.9903 38.6674 27.7921 40.6651 27.7955Z" fill="#D4D8DD"/>
<path d="M50.4201 29.9158C49.6346 29.1124 48.6814 28.4956 47.6299 28.1104C45.716 29.8397 43.2367 30.7961 40.6671 30.7961C38.0975 30.7961 35.6182 29.8397 33.7043 28.1104C32.6535 28.4972 31.7007 29.1137 30.9141 29.9158C32.5449 30.8213 33.9051 32.1513 34.853 33.7673C35.8009 35.3833 36.3018 37.2261 36.3034 39.1037V51.607H45.0308V39.1037C45.0324 37.2261 45.5333 35.3833 46.4812 33.7673C47.4291 32.1513 48.7893 30.8213 50.4201 29.9158Z" fill="#D4D8DD"/>
<path d="M45.6426 10.8637C47.0854 11.6508 48.3259 12.7671 49.2649 14.1236C50.204 15.4802 50.8156 17.0393 51.051 18.6766C51.9221 17.55 53.0281 16.6304 54.2909 15.9831C55.5536 15.3358 56.9421 14.9765 58.3578 14.9308C58.452 14.4916 58.5011 14.0437 58.5044 13.5944C58.5063 12.0408 57.978 10.5339 57.0084 9.32683C56.0387 8.11974 54.6867 7.28601 53.1794 6.96569C51.6722 6.64537 50.1016 6.85799 48.7314 7.56782C47.3613 8.27766 46.2751 9.44146 45.6553 10.8637H45.6426Z" fill="#D4D8DD"/>
<path d="M30.2844 18.6698C30.5207 17.0618 31.1204 15.5301 32.0372 14.1932C32.954 12.8563 34.1634 11.7499 35.5718 10.9596C34.9084 9.5834 33.8019 8.47466 32.4332 7.81443C31.0644 7.1542 29.5141 6.98149 28.0355 7.3245C26.5568 7.66751 25.2371 8.50598 24.2919 9.703C23.3467 10.9 22.8317 12.3849 22.8311 13.9152C22.8328 14.2552 22.8605 14.5946 22.9139 14.9304C24.3396 14.9677 25.7396 15.3223 27.0138 15.9687C28.2879 16.6151 29.4047 17.5375 30.2844 18.6698Z" fill="#D4D8DD"/>
<path d="M38.3564 9.86917C39.1146 9.69099 39.8904 9.60046 40.6689 9.59931C41.401 9.60114 42.131 9.67864 42.8475 9.83062C43.7001 7.78226 45.2159 6.08584 47.1475 5.01821C46.7582 3.55572 45.8937 2.26723 44.6924 1.35896C43.4911 0.450693 42.0224 -0.0248391 40.5214 0.00847436C39.0204 0.0417879 37.5738 0.582021 36.4133 1.54271C35.2527 2.5034 34.4452 3.829 34.1201 5.30734C35.9878 6.32112 37.4755 7.92316 38.3564 9.86917Z" fill="#D4D8DD"/>
</g>
<line x1="80.0656" y1="15.2692" x2="2.66964" y2="52.534" stroke="#D4D8DD" stroke-width="4" stroke-linecap="round"/>
<defs>
<clipPath id="clip0_18897_320270">
<rect width="57.3333" height="51.6" fill="white" transform="translate(12)"/>
</clipPath>
</defs>
</svg>
