<svg width="77" height="94" viewBox="0 0 77 94" fill="none" xmlns="http://www.w3.org/2000/svg">
<g clip-path="url(#clip0_789_34235)">
<path d="M5.54934 65.9592C6.17343 66.1451 6.82016 66.2441 7.47128 66.2535C7.57694 66.7287 7.73614 67.1903 7.94584 67.6297C7.94584 68.1042 7.94584 68.65 7.90787 69.2337C7.83195 70.8851 7.74178 72.864 8.42988 74.8476C7.8794 77.135 8.19261 79.4081 8.42988 81.1735C8.59296 82.952 9.09727 84.6825 9.91524 86.2702C10.8162 87.8319 12.0751 89.1575 13.5883 90.1378C17.4844 92.7384 22.3913 94.0007 28.589 94.0007C29.1395 94.0007 29.6804 94.0007 30.2214 93.9722C36.2862 93.7634 42.2087 92.6956 47.6993 91.571C50.8219 90.9351 53.8922 90.2042 56.8202 89.4117L57.9544 89.108C60.4282 88.5294 62.8465 87.7354 65.1819 86.7352C68.7458 85.079 71.223 82.3788 72.3571 78.9288C73.2161 76.3093 73.3063 73.7087 73.2256 71.037C73.3669 70.7525 73.4936 70.4611 73.6052 70.1638C74.7916 66.9605 74.2886 63.7383 73.5435 60.9432C73.6597 60.2329 73.6597 59.5085 73.5435 58.7982C73.428 58.1581 73.2791 57.5245 73.0975 56.9C73.4884 56.3182 73.7833 55.6772 73.9706 55.0018C74.2985 53.7986 74.5443 52.5746 74.7062 51.3382C75.1001 48.3058 74.7062 45.6435 73.4818 43.4891C72.656 41.9796 71.4504 40.7119 69.9844 39.8113C68.3567 35.1464 64.9541 30.9276 60.2228 27.7955C55.6317 24.8126 50.5204 22.7198 45.1557 21.6263C44.534 21.4934 43.9076 21.3795 43.2859 21.2799C43.4911 20.0838 43.5959 18.8726 43.5991 17.659C43.5972 16.6307 43.529 15.6035 43.3951 14.5839L43.3619 14.3182C43.288 13.071 42.9188 11.8592 42.2846 10.7827C41.839 10.0689 41.2195 9.47982 40.4841 9.07064C39.7487 8.66147 38.9216 8.44558 38.0801 8.44318C37.2247 8.45118 36.3824 8.65405 35.6171 9.03638C35.011 7.5101 34.2726 6.03972 33.4104 4.642C32.9963 3.94699 32.4114 3.3694 31.7112 2.96407C31.011 2.55875 30.2189 2.33917 29.41 2.32617C28.9693 2.32666 28.5312 2.39222 28.1097 2.52074C25.2623 3.40816 24.4698 5.81415 24.0997 6.96732C23.7295 8.12049 23.4258 9.18349 23.1506 10.2892C23.1031 10.4648 23.0604 10.6451 23.0177 10.8254H22.657C21.9154 10.8254 21.1769 10.9211 20.4598 11.1102C19.8052 11.268 19.1925 11.5654 18.6635 11.982C18.1345 12.3986 17.7017 12.9246 17.3948 13.5239C17.0879 14.1233 16.9141 14.7819 16.8854 15.4546C16.8566 16.1274 16.9735 16.7984 17.2281 17.4218C18.2831 20.0606 19.5199 22.623 20.9297 25.0906C14.2456 28.8944 9.26174 35.1017 6.99198 42.4498C6.15943 44.9484 5.73793 47.5656 5.7439 50.1993C2.89658 52.3348 0.998356 55.6044 0.874972 58.9263C0.765825 62.3052 2.60235 65.0671 5.54934 65.9592Z" fill="#A0B5C5"/>
<path d="M7.43323 63.6381C8.04969 63.8218 8.68829 63.9208 9.33144 63.9323C9.4371 64.4075 9.59631 64.8692 9.806 65.3085C9.806 65.7831 9.806 66.3288 9.76803 66.9125C9.6921 68.5639 9.60194 70.5381 10.2948 72.5265C9.74431 74.8138 10.0575 77.0869 10.2948 78.8475C10.4573 80.6283 10.9634 82.3607 11.7849 83.949C12.6864 85.509 13.9453 86.8329 15.4579 87.8119C19.354 90.4124 24.2609 91.6795 30.4586 91.6795C31.0044 91.6795 31.5501 91.6795 32.0911 91.651C38.1559 91.4422 44.0736 90.3745 49.5689 89.2498C52.6915 88.6091 55.7382 87.8831 58.6899 87.0906L59.8241 86.7821C62.2967 86.205 64.7136 85.411 67.0468 84.4093C70.6107 82.7531 73.0926 80.0529 74.2221 76.6029C75.0857 73.9786 75.1712 71.3828 75.0905 68.7111C75.2338 68.4276 75.3605 68.136 75.4701 67.8379C76.6565 64.6346 76.1582 61.4124 75.4132 58.6173C75.5317 57.9056 75.5317 57.1792 75.4132 56.4676C75.3002 55.8352 75.1529 55.2094 74.9719 54.5931C75.366 54.005 75.6595 53.3555 75.8403 52.6711C76.1709 51.4703 76.4167 50.2476 76.5758 49.0123C76.9745 45.9751 76.5758 43.3176 75.3515 41.1632C74.5298 39.6507 73.3233 38.382 71.854 37.4854C70.2405 32.8252 66.838 28.6207 62.1114 25.4696C57.5195 22.4882 52.4086 20.3955 47.0443 19.3004C46.4179 19.1675 45.7962 19.0536 45.1746 18.954C45.3775 17.756 45.4823 16.5434 45.4878 15.3284C45.4833 14.3017 45.4151 13.2763 45.2837 12.258L45.2505 11.9923C45.1669 10.7487 44.7913 9.54235 44.1543 8.47108C43.708 7.75785 43.0883 7.16925 42.3531 6.76016C41.6179 6.35107 40.7911 6.1348 39.9497 6.13152C39.0929 6.14012 38.2492 6.34294 37.482 6.72472C36.8779 5.19604 36.1394 3.7239 35.2754 2.32559C34.8612 1.63058 34.2763 1.05299 33.5761 0.647668C32.876 0.242347 32.0838 0.0227605 31.2749 0.00976562C30.8354 0.00982141 30.3985 0.0770349 29.9793 0.209079C27.132 1.0965 26.3395 3.49774 25.9646 4.65566C25.5897 5.81357 25.2907 6.87183 25.0155 7.97754C24.968 8.15312 24.9253 8.33346 24.8779 8.51379H24.5219C23.7803 8.51345 23.0418 8.60915 22.3248 8.79852C21.6737 8.96035 21.0651 9.26043 20.5403 9.67836C20.0156 10.0963 19.5869 10.6223 19.2834 11.2206C18.98 11.8189 18.8089 12.4755 18.7818 13.1459C18.7547 13.8162 18.8722 14.4845 19.1263 15.1054C20.1823 17.7421 21.4191 20.3029 22.8278 22.7694C16.1404 26.5705 11.1541 32.7786 8.88536 40.1286C8.04058 42.6254 7.6047 45.2423 7.59457 47.8781C4.74725 50.0136 2.84903 53.3023 2.75411 56.6052C2.65446 59.984 4.48624 62.7222 7.43323 63.6381Z" fill="white"/>
<path d="M20.0232 53.5874C24.4413 54.6694 29.1489 54.4891 33.6524 54.2566C43.414 53.7535 53.2373 51.9218 61.8552 47.1098C63.5588 46.1607 65.7703 45.1024 66.8048 43.3608C67.958 41.4341 66.838 38.6152 65.8842 36.8357C63.687 32.6975 59.8668 29.8265 55.7334 27.8191C51.6049 25.7166 47.131 24.3759 42.5266 23.8613C40.3436 24.4545 37.4773 23.7664 35.1283 24.2789C29.2011 25.565 22.7234 28.6021 18.7893 33.2955C16.1329 36.516 14.3281 40.3524 13.5408 44.4523C13.1516 46.4644 12.6439 49.1978 14.2099 50.8398C15.6668 52.3678 18.0348 53.0986 20.0232 53.5874Z" fill="#F0D19D"/>
<path d="M12.9427 57.5021C14.3664 56.8235 15.8944 56.6574 17.2137 57.6539C18.1296 58.3563 18.7275 59.3623 19.5343 60.1738C20.6874 61.3412 22.1016 61.3127 23.5538 60.7196C24.2795 60.4003 24.9877 60.0423 25.675 59.6471C26.2326 59.2834 26.8685 59.0573 27.5305 58.9874C27.9044 59.0048 28.2709 59.0979 28.6078 59.261C28.9447 59.4242 29.2449 59.654 29.4904 59.9365C30.0225 60.4323 30.5818 60.8981 31.1656 61.3317C32.352 62.1859 33.7567 62.9262 35.261 62.8788C36.7654 62.8313 37.9423 61.9581 39.0575 61.0945C40.1727 60.2308 41.3069 59.3054 42.6783 58.8593C44.1608 58.4583 45.7231 58.4583 47.2056 58.8593C48.8997 59.2247 50.5275 59.7515 52.2643 59.9413C53.9416 60.1552 55.6446 60.0358 57.2756 59.5901C58.7591 59.1704 60.1113 58.3799 61.2049 57.2933C62.23 56.254 62.6808 54.7591 64.0523 54.1138C65.6353 53.4574 67.2723 52.9398 68.9449 52.5667C69.7232 52.3626 70.6249 52.2772 70.8859 51.3993C71.09 50.6203 71.2359 49.8272 71.3225 49.0265C71.6546 46.6158 71.3224 43.0329 68.8215 41.9082C68.7506 42.7415 68.5022 43.5499 68.0929 44.2792C67.6837 45.0085 67.1231 45.6418 66.4488 46.1365C64.4826 47.6404 62.3506 48.9142 60.0945 49.9329C50.5369 54.5361 39.7124 56.1021 29.1867 56.216C24.4412 56.2635 19.4346 55.955 15.1304 53.7199C14.1148 53.2306 13.2189 52.5242 12.5061 51.6508C12.3364 51.4257 12.1872 51.1859 12.06 50.9342C10.6523 51.6362 9.46883 52.7178 8.64324 54.0568C7.94565 55.2052 7.09145 57.355 8.21614 58.5129C9.54015 59.7989 11.7231 58.0953 12.9427 57.5021Z" fill="#B3D2B9"/>
<path d="M70.0033 60.4392C68.0623 61.9815 65.7323 62.8642 63.3595 63.5048C61.2667 64.0648 59.1264 64.4919 56.9862 64.8905C56.7916 65.0898 56.5591 65.2654 56.355 65.441C55.7998 65.9156 55.2304 66.3901 54.6609 66.8647L51.1492 69.712C49.251 71.2401 47.4287 72.5071 44.9468 72.7539C42.6216 72.9282 40.2835 72.7458 38.0135 72.2129C35.8979 71.7632 33.8316 71.1067 31.8443 70.253C30.8435 69.8311 29.8661 69.3559 28.9163 68.8293C28.0858 68.4452 27.3141 67.9451 26.6242 67.344C25.9266 67.3013 25.2005 67.2633 24.5219 67.2111C21.5607 66.9928 18.5188 66.6891 15.7094 65.5691C15.3109 65.4134 14.9239 65.2294 14.5515 65.0187C14.9074 67.0355 14.2763 69.7168 15.401 71.5106C15.4772 71.5638 15.5312 71.6432 15.5528 71.7336C15.7106 71.9494 15.8938 72.1454 16.0986 72.3173C17.1213 73.066 18.2528 73.6533 19.4537 74.0589C20.5976 74.5082 21.7729 74.873 22.9701 75.1504C27.2981 76.1565 31.906 76.0995 36.3146 75.8433C41.3544 75.5443 46.4843 75.1741 51.4292 74.1586C54.0746 73.5914 56.6883 72.8849 59.2593 72.0421C61.6321 71.2875 64.0523 70.6184 66.3777 69.7025C68.2094 68.9812 70.3402 67.8043 70.7863 65.7115C71.1612 63.9272 70.6486 62.0812 70.0744 60.3633L70.0033 60.4392Z" fill="#BD805F"/>
<path d="M15.8376 64.2918C16.4961 64.5643 17.1713 64.7941 17.8592 64.9799C20.4076 65.6727 23.0793 65.8008 25.7084 65.9527C28.6385 66.1568 31.5784 66.1805 34.5114 66.0239C37.0977 65.8483 40.0589 65.611 42.389 64.3677C42.8877 64.1282 43.3312 63.7877 43.6914 63.3678C44.0517 62.9479 44.3208 62.4578 44.4818 61.9285C44.629 61.4217 44.629 60.8835 44.4818 60.3767C44.4201 60.1869 44.3631 60.0255 44.3252 59.8737C43.2022 59.9872 42.1304 60.4002 41.2216 61.0695C39.9782 61.9475 38.8488 63.0247 37.4251 63.6416C34.2931 65.0226 31.1942 63.1908 28.8832 61.098C28.5944 60.7608 28.241 60.4849 27.8439 60.2865C27.3693 60.1299 26.8948 60.4147 26.4724 60.6282C25.7274 61.0173 25.0013 61.435 24.2325 61.7671C22.8421 62.3651 21.2618 62.7162 19.8524 61.9759C18.6518 61.3638 17.9542 60.1964 17.062 59.2283C16.6341 58.674 16.0238 58.2891 15.3394 58.1415C14.83 58.098 14.318 58.188 13.854 58.4025C13.9394 59.1286 13.9774 59.8547 14.0154 60.5855C14.0002 61.3803 14.0606 62.1748 14.1957 62.9583C14.4282 63.727 15.1828 64.0165 15.8376 64.2918Z" fill="#D06A49"/>
<path d="M45.2599 64.1025C45.1974 64.0046 45.1403 63.9032 45.0891 63.7988C44.6843 64.3766 44.1739 64.8725 43.5847 65.2605C42.4089 65.9677 41.1119 66.4505 39.7598 66.6841C38.1021 67.035 36.4208 67.2633 34.7295 67.3675C32.7007 67.4892 30.6669 67.5067 28.6362 67.4197C28.9637 67.6142 29.2864 67.8136 29.5853 67.9749C30.6481 68.5201 31.7378 69.0111 32.8503 69.446C34.8253 70.2155 36.8732 70.7831 38.9625 71.1402C41.1218 71.5008 43.4566 71.7903 45.6063 71.368C47.9791 70.8934 49.7587 69.1565 51.581 67.6759L54.4615 65.3364C53.4744 65.5072 52.4826 65.6638 51.4861 65.7682C50.2467 65.977 48.9812 65.977 47.7418 65.7682C46.7264 65.5641 45.8336 64.9649 45.2599 64.1025Z" fill="#EFCA63"/>
<path d="M45.8293 62.1189C45.8484 62.5401 45.9759 62.9493 46.1996 63.3069C46.4232 63.6644 46.7354 63.958 47.1059 64.1595C48.1214 64.6815 49.3695 64.5439 50.461 64.4062C52.8337 64.112 55.1401 63.6802 57.4559 63.2009C59.5677 62.7643 61.7032 62.3751 63.7722 61.7772C65.7766 61.2484 67.6494 60.3096 69.2723 59.02C69.7225 58.7289 70.0397 58.2719 70.155 57.7482C70.1319 57.1694 70.0182 56.5977 69.8181 56.0541C69.5592 55.3291 69.3996 54.5724 69.3435 53.8047C67.787 54.2413 66.1735 54.5023 64.6976 55.1762C63.796 55.589 63.4922 56.41 62.9513 57.1693C62.5067 57.7924 61.9817 58.3541 61.39 58.8397C60.1272 59.8588 58.6513 60.5806 57.0715 60.9515C55.2865 61.3536 53.4419 61.418 51.6331 61.1413C49.7681 60.885 47.9933 60.2302 46.1378 59.9454L45.7439 59.9027C45.9445 60.5818 45.9851 61.2981 45.8625 61.9955C45.8625 62.0287 45.8388 62.0714 45.8293 62.1189Z" fill="#D06A49"/>
<path d="M66.577 71.0891C61.3189 73.106 55.947 75.0042 50.3994 76.0577C47.5236 76.5987 44.6099 76.8692 41.6961 77.1254C39.2806 77.339 36.8651 77.5336 34.4449 77.6C29.6329 77.7566 24.7877 77.4197 20.2083 75.8109C19.0869 75.4198 17.9971 74.9439 16.9481 74.3873C16.2946 74.0597 15.6867 73.6481 15.14 73.1629C14.618 75.2367 15.0403 77.5525 15.5149 79.5836C15.7818 80.9324 16.4917 82.1533 17.5318 83.0526C18.5648 83.857 19.7157 84.4972 20.9438 84.9508C25.3002 86.7067 30.1264 86.7636 34.7344 86.3745C40.0766 85.8556 45.3813 85.0045 50.6177 83.8262C53.3701 83.2282 56.1052 82.5559 58.8228 81.8093C61.1481 81.1686 63.592 80.5802 65.7275 79.4365C66.6996 78.9207 67.5514 78.2049 68.227 77.3362C68.9026 76.4676 69.3866 75.4658 69.6474 74.3967C70.0359 72.6728 70.1812 70.9029 70.0792 69.1387C69.0326 69.9853 67.8478 70.6451 66.577 71.0891Z" fill="#F0D19D"/>
<path d="M12.8003 58.9248H12.862C12.862 59.4563 12.862 59.9878 12.9 60.5193C12.8959 61.3309 12.9371 62.142 13.0234 62.949C13.1053 63.5459 13.3942 64.0951 13.8396 64.5008C13.7564 64.5466 13.6889 64.6163 13.6457 64.7009C13.6026 64.7855 13.5858 64.8811 13.5976 64.9754C13.7209 67.296 13.0471 69.9914 14.2572 72.1222C14.2952 72.1934 14.3474 72.2456 14.3901 72.312C13.4932 74.1485 13.7921 76.3837 14.0674 78.3578C14.1754 79.6641 14.5263 80.9387 15.1019 82.1163C15.7257 83.148 16.5842 84.0179 17.6076 84.6552C21.7789 87.4408 27.0986 88.0245 32.0008 87.8537C37.6527 87.6638 43.3237 86.6625 48.8475 85.5283C51.8309 84.9209 54.7937 84.2202 57.7359 83.4261C60.327 82.719 63.0462 82.0831 65.4901 80.9441C67.9341 79.8052 69.8086 77.9829 70.658 75.4014C71.4648 72.9384 71.4031 70.3046 71.3034 67.7468C71.5686 67.3562 71.7869 66.9357 71.9536 66.494C72.8552 64.0642 72.3095 61.402 71.6214 58.9865C71.5896 58.8907 71.5449 58.7997 71.4885 58.716C71.7201 58.2067 71.7913 57.639 71.6926 57.0883C71.5644 56.3385 71.3224 55.5934 71.1326 54.8579C71.0384 54.3445 70.8706 53.8474 70.6343 53.382C71.0183 53.2462 71.3622 53.0167 71.6349 52.7142C71.9075 52.4117 72.1003 52.0458 72.1956 51.6499C72.4769 50.6166 72.6878 49.5654 72.8267 48.5036C73.0688 46.6433 72.9786 44.6597 72.0485 42.9893C71.7064 42.3268 71.2368 41.7385 70.6668 41.258C70.0967 40.7775 69.4374 40.4144 68.7266 40.1894C67.5307 35.3157 64.1139 31.3532 60.009 28.6292C55.8106 25.9156 51.1437 24.007 46.2469 23.001C41.6532 22.0519 36.7558 22.0139 32.295 23.5325C22.97 24.7569 15.2348 32.4921 12.5203 41.2571C11.837 43.4448 11.2865 45.8983 11.4146 48.1999C11.4453 48.7638 11.5392 49.3226 11.6946 49.8656C9.04184 50.9855 6.65483 53.7569 6.55517 56.7229C6.51246 58.1228 7.09142 59.5702 8.53406 60.002C9.97671 60.4339 11.5143 59.6461 12.8003 58.9248ZM14.224 62.9585C14.0889 62.1751 14.0285 61.3806 14.0436 60.5857C14.0057 59.8549 13.9677 59.1289 13.8823 58.4028C14.3463 58.1882 14.8583 58.0983 15.3677 58.1418C16.0521 58.2893 16.6624 58.6743 17.0903 59.2285C17.9682 60.1776 18.68 61.364 19.8807 61.9762C21.3043 62.6975 22.8704 62.3653 24.2608 61.7674C25.0296 61.4352 25.7557 61.0176 26.5007 60.6285C26.9088 60.4149 27.3976 60.1302 27.8722 60.2868C28.2693 60.4851 28.6227 60.761 28.9114 61.0983C31.2035 63.1911 34.3024 65.0228 37.4534 63.6419C38.8771 63.025 39.9876 61.9477 41.2499 61.0698C42.1586 60.4004 43.2305 59.9874 44.3535 59.8739C44.3914 60.0258 44.4484 60.1871 44.5101 60.3769C44.6573 60.8837 44.6573 61.422 44.5101 61.9287C44.3491 62.458 44.08 62.9482 43.7197 63.368C43.3595 63.7879 42.916 64.1284 42.4173 64.368C40.0872 65.6113 37.126 65.8486 34.5397 66.0241C31.6066 66.1808 28.6668 66.157 25.7367 65.953C23.1124 65.8011 20.4359 65.673 17.8875 64.9801C17.1996 64.7944 16.5243 64.5645 15.8659 64.292C15.1826 64.0168 14.428 63.7273 14.2287 62.9728L14.224 62.9585ZM45.7486 59.8739L46.1425 59.9166C47.998 60.2014 49.7729 60.8657 51.6379 61.1125C53.4466 61.3892 55.2912 61.3248 57.0763 60.9227C58.656 60.5518 60.132 59.83 61.3947 58.8109C61.9865 58.3253 62.5114 57.7636 62.956 57.1405C63.497 56.3812 63.8007 55.5602 64.7024 55.1473C66.1782 54.4735 67.7917 54.1982 69.3483 53.7759C69.4044 54.5436 69.564 55.3003 69.8228 56.0253C70.023 56.5689 70.1367 57.1406 70.1597 57.7194C70.0445 58.2431 69.7273 58.7001 69.2771 58.9912C67.6548 60.2898 65.7801 61.2368 63.7722 61.7721C61.7032 62.3843 59.5677 62.7734 57.4559 63.1958C55.1401 63.6704 52.81 64.1069 50.461 64.4012C49.3695 64.5388 48.1214 64.6764 47.1059 64.1544C46.7354 63.953 46.4232 63.6593 46.1996 63.3018C45.9759 62.9443 45.8484 62.5351 45.8293 62.1138C45.8293 62.0664 45.8625 62.0236 45.872 61.9762C45.9961 61.2757 45.9555 60.556 45.7534 59.8739H45.7486ZM47.7465 65.7584C48.9859 65.9672 50.2514 65.9672 51.4908 65.7584C52.4873 65.654 53.4791 65.4974 54.4662 65.3266L51.5857 67.6661C49.7634 69.1467 47.998 70.8931 45.611 71.3581C43.4423 71.7805 41.1075 71.491 38.9673 71.1304C36.8881 70.776 34.8499 70.2132 32.8835 69.4504C31.771 69.0155 30.6813 68.5245 29.6185 67.9793C29.3006 67.818 28.9779 67.6187 28.6694 67.4241C30.7001 67.5111 32.7338 67.4937 34.7627 67.3719C36.454 67.2678 38.1353 67.0394 39.793 66.6885C41.1451 66.4549 42.4421 65.9721 43.6179 65.2649C44.2071 64.8769 44.7175 64.381 45.1222 63.8032C45.1735 63.9076 45.2305 64.009 45.2931 64.1069C45.8612 64.9642 46.7445 65.5627 47.7513 65.7726L47.7465 65.7584ZM69.6425 74.3573C69.3818 75.4264 68.8977 76.4282 68.2221 77.2968C67.5465 78.1655 66.6947 78.8812 65.7227 79.3971C63.5872 80.5598 61.1432 81.1482 58.8179 81.7699C56.1003 82.5133 53.3653 83.1856 50.6128 83.7867C45.3764 84.9651 40.0717 85.8162 34.7295 86.3351C30.1216 86.7479 25.2953 86.691 20.9389 84.9114C19.7108 84.4578 18.5599 83.8176 17.5269 83.0132C16.4868 82.1139 15.777 80.893 15.51 79.5442C15.0355 77.5131 14.6131 75.1973 15.1351 73.1235C15.6825 73.6141 16.292 74.0305 16.9479 74.3621C17.9969 74.9187 19.0868 75.3947 20.2081 75.7857C24.7828 77.3945 29.628 77.7314 34.4448 77.5748C36.865 77.4989 39.2805 77.3043 41.696 77.1003C44.6097 76.844 47.5235 76.5735 50.3993 76.0325C55.9468 74.979 61.314 73.0808 66.5769 71.0639C67.8493 70.6126 69.0342 69.9448 70.0791 69.0898C70.1833 70.8619 70.0379 72.6399 69.6472 74.3716L69.6425 74.3573ZM70.8051 65.692C70.3591 67.799 68.2283 68.9616 66.3965 69.683C64.0665 70.5989 61.651 71.268 59.2782 72.0225C56.7072 72.8653 54.0935 73.5718 51.4481 74.139C46.5032 75.1546 41.3733 75.5247 36.3335 75.8237C31.9249 76.0895 27.3169 76.1369 22.989 75.1309C21.7918 74.8534 20.6165 74.4886 19.4726 74.0394C18.2717 73.6338 17.1402 73.0464 16.1174 72.2978C15.9141 72.1332 15.7309 71.9453 15.5717 71.7378C15.5501 71.6474 15.4961 71.568 15.4199 71.5147C14.2952 69.7209 14.9453 67.0397 14.5704 65.0228C14.9368 65.2311 15.3174 65.4135 15.7093 65.5686C18.4997 66.6933 21.5416 66.9922 24.5171 67.2153C25.2194 67.2675 25.9407 67.3054 26.6193 67.3482C27.2981 67.9429 28.0569 68.4397 28.8735 68.824C29.8233 69.3506 30.8007 69.8258 31.8015 70.2477C33.8023 71.1057 35.8831 71.7638 38.0134 72.2123C40.2729 72.7503 42.6013 72.9407 44.9182 72.7771C47.4001 72.5303 49.2414 71.2632 51.1206 69.7352L54.6323 66.8878C55.2018 66.4133 55.7712 65.9387 56.3265 65.4642C56.5305 65.2886 56.7631 65.113 56.9576 64.9137C59.0979 64.5151 61.2286 64.088 63.3309 63.528C65.7037 62.8873 68.048 62.0047 69.9747 60.4624L70.0696 60.3817C70.6723 62.0759 71.1848 63.9219 70.8099 65.7062L70.8051 65.692ZM13.5406 44.4509C14.3287 40.3527 16.1334 36.518 18.7892 33.2988C22.7233 28.5818 29.2009 25.5446 35.1281 24.2823C37.5009 23.7698 40.3482 24.4579 42.5264 23.8647C47.1308 24.3793 51.6047 25.72 55.7333 27.8225C59.8666 29.8536 63.6868 32.7246 65.884 36.839C66.8331 38.6328 67.9578 41.4375 66.8046 43.3641C65.7701 45.1058 63.5587 46.1593 61.855 47.1131C53.2371 51.9251 43.4138 53.7569 33.6522 54.2599C29.1487 54.4925 24.4411 54.6728 20.023 53.5908C18.0347 53.1162 15.6666 52.3712 14.2097 50.8431C12.6437 49.1964 13.1515 46.463 13.5406 44.4509ZM8.68592 54.0132C9.51151 52.6741 10.695 51.5926 12.1027 50.8906C12.2298 51.1422 12.3791 51.382 12.5488 51.6072C13.2616 52.4806 14.1574 53.1869 15.1731 53.6762C19.4773 55.9114 24.4696 56.2198 29.2294 56.1724C39.755 56.0775 50.5844 54.4925 60.1371 49.8893C62.3907 48.8762 64.521 47.6088 66.4867 46.1118C67.161 45.6171 67.7216 44.9839 68.1308 44.2546C68.5401 43.5253 68.7885 42.7168 68.8595 41.8835C71.3746 43.0035 71.7068 46.5864 71.3604 49.0019C71.2738 49.8025 71.1279 50.5956 70.9238 51.3746C70.6628 52.2526 69.7611 52.3237 68.9828 52.542C67.3182 52.918 65.6891 53.4372 64.1139 54.0938C62.7235 54.7392 62.2726 56.2341 61.2666 57.2734C60.173 58.36 58.8208 59.1505 57.3373 59.5702C55.7062 60.0159 54.0032 60.1353 52.326 59.9214C50.6033 59.7315 48.9614 59.2048 47.2672 58.8394C45.7848 58.4384 44.2224 58.4384 42.74 58.8394C41.3685 59.2855 40.2438 60.2061 39.1191 61.0745C37.9944 61.943 36.7843 62.8114 35.3227 62.8589C33.8611 62.9063 32.4137 62.166 31.2273 61.3118C30.6434 60.8782 30.0842 60.4124 29.5521 59.9166C29.3066 59.6341 29.0063 59.4043 28.6694 59.2411C28.3326 59.078 27.9661 58.9849 27.5922 58.9675C26.9072 59.0334 26.2489 59.2664 25.675 59.6461C24.9784 60.0423 24.2607 60.4003 23.5252 60.7186C22.0731 61.3118 20.6779 61.3403 19.5058 60.1729C18.699 59.3614 18.0821 58.3553 17.1852 57.653C15.8849 56.6564 14.3379 56.8225 12.9142 57.5011C11.6946 58.0943 9.52114 59.798 8.23035 58.4502C7.13413 57.3113 7.98833 55.1616 8.68592 54.0132Z" fill="#512627"/>
<path d="M39.6506 12.2145C39.6506 12.1481 39.6174 12.0057 39.5937 11.8681C39.3137 12.0769 38.9673 12.4043 38.8297 12.5088C38.4121 12.8314 37.9992 13.1636 37.6006 13.5101C36.7845 14.2062 36.0605 15.0036 35.4461 15.8828C35.0475 16.4713 33.9228 16.2957 33.8658 15.5269C33.6267 12.3338 32.7283 9.22492 31.2273 6.39648C31.1087 6.76189 30.9948 7.12255 30.8856 7.48796C30.6294 8.3469 30.4111 9.21534 30.1785 10.0838C29.7514 11.8206 29.424 13.5812 29.1725 15.3513C29.15 15.5387 29.0678 15.7137 28.938 15.8507C28.8082 15.9876 28.6378 16.0791 28.452 16.1116C28.2661 16.1441 28.0748 16.1158 27.9062 16.031C27.7377 15.9462 27.601 15.8094 27.5163 15.6408C27.206 15.1657 26.7845 14.7734 26.2884 14.498C25.7922 14.2226 25.2363 14.0725 24.6689 14.0605C25.6118 16.2759 26.6927 18.4298 27.9054 20.5097C28.1854 20.4386 28.4654 20.3769 28.7501 20.3152C30.3181 19.8667 31.9269 19.5757 33.5526 19.4467C35.5315 19.219 37.5294 19.1051 39.5225 19.0718C39.7837 17.8615 39.9205 16.6275 39.9306 15.3893C39.9386 14.6819 39.8989 13.9748 39.812 13.2728C39.7693 12.9169 39.7171 12.5657 39.6506 12.2145Z" fill="#EFCA63"/>
<path d="M40.9747 10.5216C39.9496 8.95085 38.1558 10.7684 37.2352 11.5087C36.5668 12.0389 35.9327 12.6111 35.337 13.2218C34.8288 10.0565 33.6999 7.02291 32.0151 4.29547C31.9274 4.12618 31.7883 3.98905 31.6177 3.90378C31.4472 3.81852 31.254 3.78951 31.066 3.82091C30.0884 4.12463 29.8369 4.89815 29.5474 5.7998C29.231 6.83433 28.9305 7.87519 28.6457 8.92238C28.2661 10.4077 27.9671 11.9121 27.6966 13.4259C27.0754 12.9367 26.3501 12.5967 25.5767 12.4321C24.8033 12.2676 24.0024 12.2828 23.2358 12.4768C23.1063 12.5032 22.9842 12.5583 22.8787 12.638C22.7731 12.7176 22.6867 12.8199 22.6258 12.9373C22.5648 13.0546 22.5309 13.1841 22.5264 13.3163C22.5219 13.4484 22.547 13.5799 22.5999 13.7011C23.7465 16.5254 25.1143 19.2546 26.6906 21.8635C26.7765 22.0343 26.9154 22.1727 27.0864 22.2583C27.2574 22.3438 27.4515 22.3717 27.6397 22.338C29.0634 21.9774 30.487 21.6784 31.9487 21.4554C32.4647 21.3861 32.9764 21.2878 33.4815 21.1611H33.6476C35.8075 20.9153 37.9798 20.7948 40.1537 20.8005C40.3432 20.8142 40.5323 20.7674 40.6935 20.6667C40.8547 20.5661 40.9797 20.4168 41.0506 20.2405C41.4766 18.6442 41.6966 17 41.7055 15.3478C41.7031 14.483 41.646 13.6192 41.5347 12.7615C41.4255 12.0497 41.3686 11.1433 40.9747 10.5216ZM39.5225 19.0636C37.5294 19.0968 35.5315 19.2107 33.5526 19.4385C31.9269 19.5675 30.3181 19.8584 28.7502 20.3069C28.4654 20.3686 28.1854 20.4303 27.9054 20.5015C26.6976 18.4212 25.6214 16.2673 24.6832 14.0523C25.2506 14.0642 25.8064 14.2144 26.3026 14.4898C26.7988 14.7651 27.2203 15.1574 27.5305 15.6326C27.6152 15.8012 27.752 15.938 27.9205 16.0228C28.089 16.1076 28.2804 16.1358 28.4662 16.1033C28.6521 16.0709 28.8225 15.9794 28.9523 15.8424C29.0821 15.7055 29.1643 15.5304 29.1867 15.3431C29.4383 13.573 29.7657 11.8124 30.1928 10.0755C30.4063 9.20711 30.6674 8.33867 30.8999 7.47973C31.009 7.11432 31.1229 6.75366 31.2416 6.38825C32.7426 9.21669 33.641 12.3256 33.8801 15.5187C33.937 16.2875 35.0617 16.4678 35.4604 15.8746C36.0748 14.9954 36.7988 14.198 37.6148 13.5018C38.0135 13.1554 38.4263 12.8232 38.8439 12.5005C38.9816 12.3961 39.3185 12.0687 39.608 11.8599C39.608 11.9975 39.6507 12.1399 39.6649 12.2063C39.7314 12.5575 39.7836 12.9086 39.8263 13.2646C39.9132 13.9666 39.9528 14.6737 39.9449 15.3811C39.9301 16.6198 39.7886 17.8537 39.5225 19.0636Z" fill="#D47939"/>
<path d="M39.6508 12.2156C39.6508 12.1491 39.6175 12.0068 39.5938 11.8691C39.3138 12.0779 38.9674 12.4054 38.8298 12.5098C38.6162 12.6759 38.4122 12.8515 38.2034 13.0223C39.2332 14.2609 39.5653 16.0215 39.7457 17.7963C39.8617 16.9994 39.9236 16.1956 39.9307 15.3903C39.9387 14.683 39.8991 13.9759 39.8121 13.2738C39.7694 12.9179 39.7172 12.5667 39.6508 12.2156Z" fill="#FBE668"/>
<path d="M31.2273 6.39648C31.1087 6.76189 30.9948 7.12255 30.8857 7.48796C30.6531 8.25674 30.4443 9.02552 30.2498 9.80379C31.6355 10.1882 32.7934 12.6226 33.7425 14.3168C33.3899 11.5463 32.5377 8.86281 31.2273 6.39648Z" fill="#FBE668"/>
<path d="M27.5163 15.6408C27.206 15.1657 26.7845 14.7734 26.2884 14.498C25.7922 14.2226 25.2363 14.0725 24.6689 14.0605C24.911 14.63 25.1435 15.1995 25.4235 15.7595C26.3109 15.7832 27.2126 16.234 27.9766 16.0394C27.7835 15.9607 27.6218 15.8206 27.5163 15.6408Z" fill="#FBE668"/>
<path d="M39.5273 19.0638C37.7151 19.144 35.8993 19.0567 34.1031 18.8028C32.0056 18.4944 28.883 18.6889 26.5103 17.9961C26.9516 18.8503 27.4119 19.6997 27.896 20.535C28.1759 20.4638 28.4559 20.4021 28.7407 20.3404C30.3109 19.8832 31.9229 19.5843 33.5526 19.4482C35.5315 19.2204 37.5294 19.1066 39.5225 19.0733C39.5225 19.0638 39.5273 19.0638 39.5273 19.0638Z" fill="#E1A159"/>
<path d="M61.7745 42.7903C58.8721 44.6903 55.6768 46.0995 52.3166 46.9616C44.5244 48.9595 31.3698 50.7343 26.5056 42.1496C22.7424 35.5059 26.928 28.5346 32.6036 24.9043C27.4262 26.4324 22.1634 29.2417 18.7893 33.2944C16.1329 36.515 14.3281 40.3513 13.5408 44.4512C13.1516 46.4633 12.6439 49.1968 14.2099 50.8387C15.6668 52.3668 18.0348 53.0976 20.0232 53.5864C24.4413 54.6684 29.1489 54.488 33.6524 54.2555C43.414 53.7525 53.2373 51.9207 61.8552 47.1087C63.5588 46.1596 65.7703 45.1013 66.8048 43.3597C67.7776 41.7368 67.1322 39.4921 66.3302 37.7505C65.1011 39.7579 63.8388 41.5232 61.7745 42.7903Z" fill="#E5B074"/>
<path d="M62.6524 80.3231C59.1787 80.8262 55.6765 81.3387 52.1837 81.6472C49.55 81.8797 46.7833 82.4634 44.178 81.7895C41.9381 81.2058 38.564 79.7916 37.1926 77.4711C36.2767 77.528 35.3608 77.5802 34.4449 77.6087C29.6329 77.7653 24.7877 77.4284 20.2083 75.8196C19.0869 75.4285 17.9971 74.9526 16.9481 74.396C16.294 74.0655 15.6862 73.6507 15.14 73.1621C14.618 75.2359 15.0403 77.5517 15.5149 79.5828C15.7818 80.9316 16.4917 82.1526 17.5318 83.0518C18.5648 83.8562 19.7157 84.4964 20.9438 84.9501C25.3002 86.7059 30.1264 86.7629 34.7344 86.3737C40.0766 85.8548 45.3813 85.0037 50.6177 83.8254C53.3701 83.2274 56.1052 82.5551 58.8228 81.8085C60.8352 81.3296 62.8074 80.695 64.7215 79.9103C64.0393 80.0834 63.3487 80.2212 62.6524 80.3231Z" fill="#E5B074"/>
<path d="M70.9239 51.3806C71.0812 50.8124 71.197 50.2334 71.2703 49.6484C71.1707 49.7291 71.0757 49.8145 70.9713 49.8952C69.6878 50.9007 68.0981 51.4351 66.4678 51.409C65.4097 51.4035 64.384 51.7734 63.573 52.4531C62.3155 53.4449 61.6274 54.3228 59.9522 54.1282C58.8531 53.9391 57.7228 54.0709 56.6967 54.5079C54.7131 55.3146 52.7817 56.7668 50.4848 56.5152C49.4977 56.4108 48.6293 55.7322 47.6375 55.5661C46.5887 55.3716 45.4877 55.6848 44.5007 55.9932C42.4031 56.6386 40.5049 57.8155 38.4216 58.5511C36.8414 59.1158 34.6584 59.9415 33.0924 58.926C31.8585 58.1287 32.0816 57.1132 32.1195 56.1166C31.1704 56.1546 30.1739 56.1831 29.2058 56.1878C24.4602 56.2353 19.4537 55.9268 15.1495 53.6916C14.1338 53.2023 13.238 52.496 12.5252 51.6226C12.3555 51.3975 12.2062 51.1576 12.0791 50.906C10.6713 51.608 9.48787 52.6896 8.66229 54.0286C7.96469 55.177 7.11049 57.3267 8.23519 58.4847C9.52598 59.8134 11.6994 58.1098 12.919 57.5355C14.3427 56.8569 15.8708 56.6908 17.19 57.6874C18.1059 58.3897 18.7039 59.3958 19.5106 60.2073C20.6638 61.3747 22.078 61.3462 23.5301 60.753C24.2647 60.4237 24.9807 60.0546 25.6751 59.6473C26.2326 59.2836 26.8686 59.0576 27.5306 58.9877C27.9045 59.0051 28.271 59.0982 28.6079 59.2613C28.9447 59.4244 29.245 59.6542 29.4905 59.9368C30.0226 60.4325 30.5819 60.8983 31.1657 61.332C32.3521 62.1862 33.7567 62.9265 35.2611 62.879C36.7654 62.8316 37.9423 61.9584 39.0575 61.0947C40.1727 60.231 41.3069 59.3056 42.6784 58.8595C44.1608 58.4586 45.7232 58.4586 47.2056 58.8595C48.8998 59.225 50.5275 59.7517 52.2644 59.9415C53.9417 60.1554 55.6446 60.0361 57.2757 59.5904C58.7592 59.1706 60.1114 58.3802 61.205 57.2935C62.23 56.2542 62.6809 54.7594 64.0523 54.114C65.6354 53.4577 67.2724 52.9401 68.945 52.567C69.7612 52.3439 70.6629 52.2822 70.9239 51.3806Z" fill="#7CB79F"/>
<path d="M68.8597 41.8789C68.8305 42.3651 68.7314 42.8446 68.5654 43.3026C69.6427 44.0429 70.4636 47.1797 71.3748 48.8644C71.6785 46.4489 71.3321 42.9799 68.8597 41.8789Z" fill="#D9E7D2"/>
<path d="M67.3077 54.3086C66.4167 54.5136 65.5462 54.7995 64.7072 55.1628C63.8055 55.5757 63.5018 56.3966 62.9608 57.1559C62.5162 57.7791 61.9912 58.3407 61.3995 58.8263C60.1368 59.8455 58.6608 60.5672 57.081 60.9381C55.296 61.3403 53.4514 61.4046 51.6427 61.1279C49.7776 60.8717 48.0028 60.2168 46.1473 59.9321L45.7534 59.8894C45.9541 60.5684 45.9947 61.2847 45.8721 61.9821C45.8721 62.0296 45.8388 62.0723 45.8293 62.1198C45.8484 62.541 45.9759 62.9502 46.1996 63.3077C46.4232 63.6652 46.7354 63.9589 47.1059 64.1603C48.1215 64.6824 49.3695 64.5447 50.461 64.4071C52.8338 64.1129 55.1401 63.681 57.456 63.2017L59.5298 62.7794C59.6962 62.1867 59.937 61.6175 60.2463 61.0852C60.9961 59.8704 62.4483 60.008 63.3926 59.0304C64.337 58.0528 64.5648 56.3729 65.5993 55.3763C66.1211 54.9493 66.6952 54.5905 67.3077 54.3086Z" fill="#B64C37"/>
<path d="M44.3203 59.8737C43.1973 59.9872 42.1255 60.4002 41.2167 61.0695C39.9734 61.9475 38.8439 63.0247 37.4203 63.6416C34.2882 65.0226 31.1894 63.1908 28.8783 61.098C28.5896 60.7608 28.2362 60.4849 27.839 60.2865C27.3644 60.1299 26.8899 60.4147 26.4675 60.6282C25.7225 61.0173 24.9964 61.435 24.2276 61.7671C22.8372 62.3651 21.2569 62.7162 19.8475 61.9759C18.6469 61.3638 17.9493 60.1964 17.0571 59.2283C16.6292 58.674 16.019 58.2891 15.3345 58.1415C14.8251 58.098 14.3132 58.188 13.8491 58.4025C13.9345 59.1286 13.9725 59.8547 14.0105 60.5855C13.9953 61.3803 14.0557 62.1748 14.1908 62.9583C14.3901 63.7128 15.1399 64.0023 15.7995 64.2775C16.4579 64.55 17.1332 64.7799 17.8211 64.9656C19.6875 65.4305 21.5947 65.7119 23.5158 65.8056C24.0236 65.089 24.5076 64.3819 25.3286 63.9833C28.2471 62.6166 32.11 64.4246 35.0902 64.8043C36.0947 64.9296 37.1146 64.8238 38.0719 64.4948C39.0292 64.1658 39.8987 63.6224 40.614 62.9061C41.9095 61.7007 42.759 60.5713 44.4389 60.3435C44.4152 60.1821 44.3582 60.0255 44.3203 59.8737Z" fill="#B64C37"/>
<path d="M64.2754 34.3711C62.0497 31.5237 58.9888 29.393 55.7334 27.7937C51.6048 25.6912 47.1309 24.3505 42.5265 23.8359C40.3436 24.4291 37.4773 23.741 35.1282 24.2535H35.0618C37.3491 24.6474 39.608 25.5538 41.8764 25.7104C43.2716 25.8101 44.6003 25.5016 45.967 25.7104C47.3083 25.9498 48.6263 26.3054 49.9058 26.7734C52.4178 27.6547 54.7896 28.8934 56.9482 30.4512C58.8464 31.7705 60.7826 33.2986 62.9988 34.0768C63.4148 34.2125 63.842 34.311 64.2754 34.3711Z" fill="#FDF4CB"/>
<path d="M68.5938 70.1431C68.7409 71.6047 68.404 73.6073 68.2711 74.6893C68.1375 75.8366 67.8928 76.9682 67.5403 78.0681C68.569 77.0529 69.2981 75.7738 69.6473 74.3714C70.0358 72.6474 70.1812 70.8775 70.0791 69.1133C69.6195 69.505 69.1219 69.85 68.5938 70.1431Z" fill="#FDF4CB"/>
<path d="M43.9786 71.5578C43.8942 71.5229 43.8118 71.4833 43.7318 71.4391C42.4173 70.6514 41.359 69.5409 42.5027 68.2786C43.7983 66.855 46.2992 66.6177 48.1642 65.8536C48.0265 65.8536 47.8889 65.8062 47.7513 65.773C47.2464 65.6725 46.7664 65.4731 46.3388 65.1865C45.9113 64.8998 45.5446 64.5314 45.2599 64.1025C45.1973 64.0046 45.1403 63.9032 45.0891 63.7988C44.6843 64.3766 44.1739 64.8725 43.5847 65.2605C42.4089 65.9677 41.1119 66.4505 39.7598 66.6841C38.1021 67.035 36.4208 67.2634 34.7295 67.3675C32.7007 67.4892 30.6669 67.5067 28.6362 67.4197C28.9637 67.6142 29.2864 67.8136 29.5853 67.9749C30.6481 68.5201 31.7378 69.0111 32.8503 69.446C34.8253 70.2155 36.8732 70.7831 38.9625 71.1402C40.6149 71.4574 42.2965 71.5974 43.9786 71.5578Z" fill="#E1A159"/>
<path d="M59.5346 65.313C60.5596 64.7483 61.6084 64.2025 62.6666 63.6758C60.7684 64.1503 58.8702 64.5347 56.972 64.8906C56.7774 65.09 56.5449 65.2655 56.3408 65.4411C55.7856 65.9157 55.2161 66.3902 54.6467 66.8648L51.1349 69.7121C49.2367 71.2402 47.4144 72.5073 44.9325 72.754C42.6121 72.9269 40.2789 72.7445 38.0135 72.213C35.8979 71.7633 33.8316 71.1069 31.8443 70.2531C30.8435 69.8313 29.8661 69.356 28.9163 68.8295C28.0858 68.4453 27.3141 67.9452 26.6242 67.3441C25.9266 67.3014 25.2005 67.2634 24.5219 67.2112C21.5607 66.9929 18.5188 66.6892 15.7094 65.5693C15.3109 65.4135 14.9239 65.2295 14.5515 65.0188C14.9074 67.0356 14.2763 69.7169 15.401 71.5107C15.4772 71.5639 15.5312 71.6433 15.5528 71.7337C15.7106 71.9496 15.8938 72.1455 16.0986 72.3174C17.1213 73.0661 18.2528 73.6535 19.4537 74.059C20.5976 74.5083 21.7729 74.8731 22.9701 75.1505C26.3542 75.8585 29.8143 76.1359 33.268 75.9762L33.3866 75.8861C35.3522 74.3343 37.8024 73.5259 40.3056 73.6035C44.3298 73.6035 48.4157 73.798 51.8231 71.2307C54.4046 69.2708 56.692 66.8695 59.5346 65.313Z" fill="#9D6242"/>
<path d="M70.1177 60.6587V60.4924L70.0749 60.3594L69.9799 60.4402C69.8611 60.5352 69.7376 60.6207 69.614 60.711C69.7807 60.6835 69.9489 60.6661 70.1177 60.6587Z" fill="#9D6242"/>
<path d="M66.4014 69.6986C68.2332 68.9773 70.3639 67.8004 70.81 65.7076C71.1849 63.9233 70.6724 62.0773 70.0982 60.3594L70.0033 60.44C69.5921 60.7642 69.161 61.0622 68.7125 61.3322C68.7633 61.5749 68.7981 61.8206 68.8169 62.0678C68.8573 63.1015 68.7159 64.1343 68.3993 65.1192C67.9247 66.8513 67.4502 67.7529 65.9269 68.7637C64.8828 69.4613 63.9147 70.1874 62.9087 70.9135C64.0856 70.5386 65.253 70.1494 66.4014 69.6986Z" fill="#DB916D"/>
<path d="M69.8087 56.0404C69.5499 55.3154 69.3903 54.5588 69.3342 53.791C68.945 53.9002 68.5559 53.9951 68.162 54.0947C68.7552 56.4058 68.4847 58.2234 67.2129 60.3826C67.9421 59.9961 68.6291 59.5349 69.263 59.0064C69.7132 58.7152 70.0304 58.2582 70.1456 57.7346C70.1226 57.1557 70.0089 56.5841 69.8087 56.0404Z" fill="#D98B5E"/>
<path d="M35.9207 65.9209C38.1321 65.7311 40.4716 65.3894 42.3888 64.3691C42.8875 64.1296 43.331 63.7891 43.6913 63.3692C44.0515 62.9494 44.3207 62.4592 44.4816 61.9299C44.5807 61.5702 44.6097 61.1949 44.567 60.8242C43.1766 61.9821 41.8906 63.5861 40.2961 64.4451C39.7029 64.7678 37.8284 65.2993 35.9207 65.9209Z" fill="#D98B5E"/>
<path d="M38.8344 39.1743C38.8092 39.1341 38.7742 39.101 38.7327 39.078C38.6912 39.055 38.6446 39.043 38.5971 39.043C38.5497 39.043 38.503 39.055 38.4615 39.078C38.42 39.101 38.385 39.1341 38.3599 39.1743C38.2934 39.3262 38.2175 39.4733 38.151 39.6489C38.0639 39.7895 37.9655 39.9228 37.8568 40.0475C37.7761 40.1756 37.7002 40.3085 37.6148 40.4319L37.5721 40.4793L37.4297 40.6644C37.3823 40.7356 37.3491 40.8115 37.3063 40.8827C37.2636 40.9539 37.2019 41.0441 37.145 41.12L37.0738 41.2054C36.9519 41.3399 36.8203 41.4652 36.6799 41.5803L36.5518 41.6752L36.3905 41.7796L36.1722 41.8983H36.1294L36.0298 41.9362C35.8637 41.9884 35.6976 42.0169 35.5268 42.0549H35.4746H35.4318H35.1946C34.8997 42.0639 34.6061 42.0139 34.3309 41.9078C34.0635 41.8152 33.8133 41.6789 33.5906 41.5044C33.3248 41.3003 33.116 41.0298 32.8787 40.8068C32.838 40.7726 32.7886 40.7504 32.736 40.7424C32.6835 40.7345 32.6297 40.7412 32.5807 40.7617C32.5317 40.7823 32.4893 40.816 32.4581 40.8591C32.427 40.9022 32.4083 40.9531 32.4042 41.0061C32.3283 41.8461 33.173 42.6528 33.8279 43.0562C34.6102 43.5564 35.5549 43.7365 36.4664 43.5592C37.4344 43.3351 38.277 42.7428 38.8154 41.9078C39.0768 41.5006 39.2173 41.0276 39.2207 40.5438C39.224 40.06 39.0901 39.5851 38.8344 39.1743Z" fill="#512627"/>
<path d="M51.6759 36.8164C51.6716 36.7628 51.6508 36.7118 51.6164 36.6704C51.582 36.629 51.5357 36.5992 51.4837 36.5852C51.4317 36.5712 51.3767 36.5735 51.3262 36.592C51.2756 36.6105 51.232 36.6441 51.2013 36.6883C51.0162 36.9398 50.7267 37.1628 50.5227 37.3811C50.3186 37.5994 50.0481 37.9506 49.8251 38.2401C49.4703 38.699 49.0004 39.0559 48.4631 39.2746C47.9452 39.5017 47.3637 39.5387 46.8212 39.379C46.5743 39.3035 46.3429 39.1846 46.1378 39.0278C45.921 38.8325 45.7239 38.6163 45.5493 38.3825C45.4828 38.3222 45.4005 38.282 45.312 38.2666C45.2236 38.2513 45.1325 38.2613 45.0496 38.2956C44.9666 38.3299 44.895 38.387 44.8432 38.4603C44.7914 38.5337 44.7614 38.6202 44.7568 38.7099C44.8251 39.1171 44.9899 39.502 45.2377 39.8323C45.4854 40.1625 45.8087 40.4286 46.1805 40.6081C46.9748 41.0293 47.8999 41.1311 48.7668 40.8928C49.6407 40.6239 50.4163 40.1041 50.9972 39.398C51.3101 39.0386 51.5387 38.6138 51.6664 38.1547C51.7417 37.712 51.7449 37.2601 51.6759 36.8164Z" fill="#512627"/>
<path d="M46.603 44.7367C46.603 44.6276 46.603 44.5184 46.603 44.414C46.5857 44.2926 46.562 44.1722 46.5319 44.0534C46.5185 44.0124 46.4937 43.9761 46.4605 43.9487C46.4273 43.9213 46.387 43.9038 46.3443 43.8983C46.3016 43.8929 46.2582 43.8996 46.2191 43.9178C46.1801 43.936 46.147 43.9649 46.1237 44.0012C46.0452 44.1696 45.9481 44.3288 45.8343 44.4757C45.7267 44.5386 45.6343 44.6245 45.5638 44.7272C45.4878 44.8411 45.4119 44.9503 45.3312 45.0594L45.2695 45.1401L45.1557 45.2587C45.075 45.3489 44.9848 45.4296 44.8994 45.5197C44.814 45.6099 44.8045 45.6146 44.7523 45.6574L44.6669 45.7285C44.5681 45.8007 44.4633 45.8643 44.3537 45.9184L44.2398 45.9706L44.1211 46.0085C44.0076 46.0442 43.8918 46.0727 43.7747 46.0939H43.3429H43.3049C43.1044 46.0625 42.9104 45.9984 42.7307 45.9041C42.5593 45.8041 42.4001 45.6847 42.2561 45.5482C42.1707 45.4723 42.0948 45.3916 42.0094 45.3204C41.9239 45.2492 41.8243 45.2255 41.7389 45.1496C41.7317 45.1407 41.7227 45.1335 41.7125 45.1286C41.7022 45.1236 41.6909 45.121 41.6795 45.121C41.6681 45.121 41.6569 45.1236 41.6466 45.1286C41.6364 45.1335 41.6273 45.1407 41.6202 45.1496C41.5707 45.2446 41.5279 45.3429 41.4921 45.4438C41.4705 45.5938 41.4852 45.7467 41.5348 45.8899C41.635 46.184 41.8139 46.4449 42.0521 46.6444C42.5494 47.0871 43.1813 47.3495 43.8459 47.3895C44.5701 47.3906 45.2676 47.1157 45.7963 46.6207C46.057 46.3875 46.267 46.1032 46.4132 45.7855C46.6099 45.4737 46.678 45.0977 46.603 44.7367Z" fill="#512627"/>
<path d="M33.3439 44.7828C33.3442 44.6792 33.3163 44.5775 33.2632 44.4885C33.2161 44.3435 33.1328 44.2128 33.0212 44.1089L32.7839 43.9286C32.6049 43.825 32.4022 43.7694 32.1954 43.7672C31.855 43.7585 31.5147 43.7855 31.1799 43.8479H31.123H31.0375C30.9949 43.8595 30.9536 43.8754 30.9141 43.8954C30.6816 43.9604 30.4559 44.0478 30.2403 44.1564C30.0164 44.3103 29.8496 44.5338 29.7657 44.7923L29.7278 45.077C29.723 45.2205 29.7557 45.3628 29.8227 45.4899C29.8466 45.5798 29.8941 45.6617 29.9603 45.7271C30.0358 45.8421 30.1385 45.9366 30.2593 46.0024L30.5155 46.1115C30.6274 46.1374 30.7425 46.147 30.8572 46.14L30.9521 46.178C31.0897 46.178 31.2273 46.2207 31.365 46.2302C31.4833 46.226 31.601 46.2101 31.7161 46.1827H31.7873L32.0341 46.1353C32.1954 46.102 32.3615 46.0783 32.5087 46.0403C32.6568 46.0086 32.7932 45.9363 32.9025 45.8315C33.0303 45.7504 33.1349 45.6376 33.2062 45.5041L33.3201 45.2289C33.367 45.0848 33.3752 44.931 33.3439 44.7828Z" fill="#D98B5E"/>
<path d="M54.9979 40.8648C54.9975 40.7613 54.9697 40.6598 54.9172 40.5706C54.8699 40.4269 54.7866 40.2978 54.6752 40.1957L54.4379 40.0153C54.2606 39.9077 54.0568 39.8518 53.8494 39.854C53.509 39.8429 53.1683 39.8699 52.8339 39.9347C52.8166 39.9325 52.799 39.9325 52.7817 39.9347H52.6915L52.5681 39.9821C52.3363 40.0493 52.1108 40.1366 51.8943 40.2431C51.7735 40.3089 51.6708 40.4034 51.5953 40.5184C51.4994 40.6202 51.4337 40.7467 51.4055 40.8838L51.3628 41.1685C51.358 41.3121 51.3907 41.4544 51.4577 41.5814C51.4817 41.6699 51.5293 41.7503 51.5953 41.8139C51.6693 41.9301 51.7724 42.025 51.8943 42.0892L52.1505 42.1983C52.2618 42.2281 52.3773 42.2393 52.4922 42.2315L52.5871 42.2647C52.7237 42.2907 52.8615 42.3097 53 42.3217C53.1181 42.3155 53.2356 42.2997 53.3512 42.2742H53.4223L53.6691 42.2268L54.1437 42.1366C54.2904 42.1011 54.4258 42.0293 54.5375 41.9278C54.6634 41.8444 54.7675 41.7321 54.8413 41.6004L54.9551 41.3204C55.0101 41.1751 55.0248 41.0177 54.9979 40.8648Z" fill="#D98B5E"/>
<path d="M32.281 27.2531C32.2813 27.1781 32.2616 27.1044 32.224 27.0395C32.1968 26.9924 32.1596 26.9519 32.1149 26.9209C32.0744 26.8853 32.0253 26.8608 31.9725 26.8497C31.9001 26.8261 31.822 26.8261 31.7495 26.8497L31.5122 26.9067C31.4817 26.9114 31.4525 26.9227 31.4268 26.9399C31.3981 26.946 31.3708 26.9572 31.3461 26.9731C31.2915 27.0051 31.2419 27.0451 31.199 27.0917L31.1468 27.1439L31.0756 27.2341C31.0223 27.2934 30.9847 27.3652 30.9665 27.4429C30.9379 27.5518 30.9379 27.6662 30.9665 27.7751C30.9771 27.8255 30.9964 27.8736 31.0234 27.9175C31.0584 27.9841 31.1109 28.0399 31.1753 28.0788C31.23 28.1299 31.297 28.1659 31.3699 28.1832C31.4273 28.199 31.488 28.199 31.5454 28.1832C31.6346 28.1825 31.7227 28.1637 31.8043 28.1278C31.8859 28.0919 31.9593 28.0397 32.02 27.9744L32.0674 27.9222C32.1146 27.8781 32.1547 27.8268 32.1861 27.7703C32.1861 27.7229 32.2288 27.6754 32.2478 27.6232C32.2668 27.571 32.2478 27.5093 32.2715 27.4524C32.2811 27.3864 32.2843 27.3197 32.281 27.2531Z" fill="#FDF4CB"/>
<path d="M36.8414 26.3712C36.7797 26.2858 36.718 26.2051 36.6468 26.1245C36.597 26.0725 36.551 26.0169 36.5092 25.9584L36.5756 26.0485C36.5448 25.9916 36.5009 25.9428 36.4475 25.9062L36.3763 25.854L36.3194 25.816L36.2292 25.7496L36.158 25.7068C36.1071 25.6767 36.0506 25.6573 35.9919 25.6499H35.9302H35.7879C35.7507 25.6396 35.711 25.6443 35.6773 25.6629C35.6436 25.6815 35.6185 25.7126 35.6075 25.7496C35.5791 25.8121 35.5568 25.8772 35.5411 25.9441C35.5032 26.0451 35.5032 26.1564 35.5411 26.2573C35.5696 26.3333 35.6028 26.4092 35.636 26.4851C35.668 26.5672 35.7146 26.6428 35.7736 26.7082L35.878 26.7983L36.0821 26.9597C36.122 26.9908 36.1669 27.0148 36.215 27.0309L36.3241 27.0783C36.3834 27.0924 36.4452 27.0924 36.5044 27.0783C36.6037 27.0674 36.6961 27.0221 36.7654 26.9502C36.8175 26.892 36.8578 26.8244 36.8841 26.7509C36.9037 26.6881 36.91 26.6219 36.9026 26.5566C36.8953 26.4912 36.8744 26.4281 36.8414 26.3712Z" fill="#FDF4CB"/>
<path d="M33.268 30.5606C33.2702 30.5448 33.2702 30.5289 33.268 30.5131V30.423C33.2702 30.3929 33.2702 30.3628 33.268 30.3328C33.2345 30.2223 33.162 30.1279 33.0639 30.067C32.9877 30.0051 32.8916 29.973 32.7934 29.9769C32.7297 29.9766 32.6666 29.9901 32.6085 30.0163C32.5504 30.0425 32.4985 30.0808 32.4565 30.1287L32.3995 30.1952L32.3426 30.2569C32.3342 30.2716 32.3229 30.2845 32.3094 30.2948L32.224 30.4135C32.1966 30.4594 32.1758 30.5089 32.1623 30.5606C32.1623 30.6223 32.1196 30.6887 32.1006 30.7504C32.0485 30.9043 32.0485 31.0711 32.1006 31.225C32.125 31.3199 32.1741 31.4067 32.2429 31.4765C32.3131 31.5458 32.3996 31.5964 32.4945 31.6236C32.5937 31.6521 32.6989 31.6521 32.7982 31.6236C32.8916 31.5962 32.9765 31.5456 33.0449 31.4765C33.0905 31.4356 33.129 31.3875 33.1588 31.3341C33.2092 31.2517 33.2416 31.1595 33.2537 31.0636C33.2537 30.9687 33.2917 30.8738 33.3059 30.7789C33.3134 30.704 33.3003 30.6285 33.268 30.5606Z" fill="#FDF4CB"/>
<path d="M27.2887 31.0224L27.265 30.9275C27.256 30.8991 27.2384 30.8742 27.2146 30.8563C27.1907 30.8384 27.1619 30.8285 27.1321 30.8279H27.0039C26.9693 30.823 26.9342 30.823 26.8995 30.8279C26.8411 30.8364 26.7848 30.8557 26.7335 30.8848H26.6955L26.5436 30.9655C26.4281 31.0437 26.3322 31.1477 26.2636 31.2692C26.2436 31.2926 26.2261 31.318 26.2114 31.3451C26.1553 31.4413 26.1289 31.5519 26.1355 31.6631C26.1372 31.745 26.1601 31.8251 26.2019 31.8956C26.2282 31.9502 26.2694 31.9962 26.3206 32.0285C26.366 32.0705 26.4216 32.1 26.4819 32.1139C26.5631 32.1329 26.6475 32.1329 26.7287 32.1139H26.7667C26.8306 32.0995 26.8895 32.0684 26.9375 32.0237C26.963 32.0132 26.9846 31.9949 26.9992 31.9715L27.0894 31.8577V31.8197C27.1581 31.7453 27.2084 31.656 27.2365 31.5587C27.2365 31.497 27.2602 31.44 27.2697 31.3831C27.2743 31.3247 27.2743 31.2659 27.2697 31.2075C27.2899 31.148 27.2963 31.0848 27.2887 31.0224Z" fill="#FDF4CB"/>
<path d="M31.3271 35.4249C31.2984 35.3414 31.2568 35.2629 31.2037 35.1923C31.1671 35.1355 31.1223 35.0843 31.0708 35.0405L31.0044 34.9835L30.8952 34.8696C30.8308 34.8011 30.7487 34.7519 30.658 34.7273C30.609 34.7224 30.5598 34.7224 30.5108 34.7273H30.4729C30.3834 34.7028 30.2878 34.7148 30.2071 34.7605C30.1313 34.8066 30.0755 34.8794 30.0505 34.9646C30.0505 35.0452 30.0505 35.1259 30.0173 35.2066C30.0128 35.2412 30.0128 35.2763 30.0173 35.311C30.016 35.356 30.0275 35.4004 30.0505 35.4391C30.055 35.4631 30.0647 35.4858 30.079 35.5055C30.1265 35.5625 30.1692 35.6242 30.2214 35.6811C30.2632 35.7308 30.3075 35.7783 30.3542 35.8235C30.3948 35.8635 30.4412 35.8971 30.4919 35.9232L30.6485 35.9896H30.6912C30.7624 35.9896 30.7624 35.9896 30.8336 35.9896C30.9183 35.991 31.0018 35.9697 31.0756 35.9279C31.1294 35.8984 31.1751 35.856 31.2084 35.8045C31.2516 35.758 31.2811 35.7006 31.2939 35.6384C31.3212 35.5707 31.3326 35.4977 31.3271 35.4249Z" fill="#FDF4CB"/>
<path d="M38.2602 33.2425L38.1843 33.1713C38.0827 33.0805 37.9578 33.0197 37.8236 32.9957L37.6908 32.9483C37.6174 32.9331 37.5427 32.9252 37.4677 32.9245H37.4203H37.3586C37.2733 32.9002 37.1829 32.9002 37.0976 32.9245L37.0217 32.953H36.9837C36.9533 32.9485 36.9223 32.9514 36.8933 32.9615C36.8643 32.9716 36.8382 32.9885 36.8172 33.0109C36.7962 33.0333 36.781 33.0605 36.7728 33.0901C36.7646 33.1197 36.7637 33.1508 36.7701 33.1808C36.7701 33.1808 36.7701 33.2235 36.7701 33.2472V33.2994C36.7679 33.3263 36.7679 33.3533 36.7701 33.3801C36.7755 33.5171 36.8312 33.6472 36.9267 33.7455L36.9742 33.7977L37.1355 33.9306C37.2212 34.0044 37.3215 34.0594 37.4298 34.0919C37.5234 34.1135 37.6186 34.1278 37.7145 34.1347C37.849 34.1529 37.9858 34.1262 38.1036 34.0587C38.1709 34.0151 38.2344 33.9659 38.2935 33.9116C38.3776 33.8184 38.4213 33.6956 38.4151 33.5702C38.4089 33.4448 38.3532 33.3269 38.2602 33.2425Z" fill="#FDF4CB"/>
<path d="M42.218 31.3395C42.2204 31.311 42.2204 31.2824 42.218 31.254C42.2206 31.243 42.2206 31.2316 42.218 31.2207V31.3395Z" fill="#FDF4CB"/>
<path d="M43.8933 31.1268C43.7325 31.051 43.5584 31.0075 43.3808 30.9987C43.2765 30.9825 43.1745 30.9538 43.0771 30.9132L43.2242 30.9797C43.1216 30.9246 43.0083 30.8922 42.892 30.8848H42.7591C42.6746 30.8921 42.5906 30.9047 42.5076 30.9227H42.593C42.513 30.9261 42.4355 30.9525 42.37 30.9987C42.3073 31.0458 42.2622 31.1127 42.2419 31.1885V31.2692C42.2159 31.3671 42.2159 31.4702 42.2419 31.5681C42.2686 31.6445 42.3003 31.719 42.3368 31.7912C42.4336 31.9565 42.5796 32.0876 42.7544 32.1661C42.8826 32.2344 43.0178 32.2885 43.1578 32.3274C43.4057 32.3908 43.6682 32.3639 43.8981 32.2515C43.9945 32.1944 44.0743 32.1131 44.1298 32.0158C44.1853 31.9184 44.2145 31.8083 44.2145 31.6963C44.2145 31.5842 44.1853 31.4741 44.1298 31.3767C44.0743 31.2794 43.9945 31.1981 43.8981 31.141L43.8933 31.1268Z" fill="#FDF4CB"/>
<path d="M47.0017 27.2256C46.955 27.0836 46.8772 26.9539 46.7739 26.8459C46.7264 26.7909 46.6636 26.7512 46.5935 26.732C46.5283 26.6959 46.4546 26.6779 46.38 26.6798H46.2329C46.1415 26.7036 46.058 26.7511 45.9908 26.8175L46.0905 26.7368L46.0193 26.7842C45.9911 26.7989 45.9654 26.8182 45.9434 26.8412L45.8675 26.9029C45.8529 26.9199 45.837 26.9357 45.82 26.9503C45.751 27.0229 45.692 27.1043 45.6444 27.1924C45.633 27.2106 45.6203 27.228 45.6065 27.2446L45.559 27.3395V27.2968C45.559 27.2968 45.559 27.3442 45.521 27.3727C45.4909 27.4274 45.4655 27.4845 45.4451 27.5435C45.4385 27.5987 45.4385 27.6544 45.4451 27.7096C45.4404 27.7538 45.4404 27.7983 45.4451 27.8425C45.4453 27.949 45.4731 28.0536 45.5258 28.1462C45.5766 28.2352 45.6504 28.3089 45.7393 28.3598C45.83 28.4129 45.9332 28.4407 46.0383 28.4404H46.1H46.1664C46.3 28.4407 46.4305 28.4011 46.5413 28.3265C46.6167 28.2825 46.6867 28.2299 46.7501 28.1699C46.8529 28.0589 46.9349 27.9303 46.9922 27.7903C47.0351 27.6948 47.0578 27.5913 47.0586 27.4866V27.4391C47.0484 27.3659 47.0293 27.2942 47.0017 27.2256Z" fill="#FDF4CB"/>
<path d="M55.1971 71.7676L55.1686 71.7106C55.1133 71.596 55.0238 71.5015 54.9123 71.4401L54.7747 71.3737C54.6861 71.3226 54.5922 71.2812 54.4947 71.2503L54.3239 71.2266L54.1483 71.2645H54.0866C53.9943 71.2919 53.9098 71.3407 53.8398 71.4069C53.7887 71.4576 53.7497 71.5192 53.7259 71.5872C53.6912 71.6528 53.6748 71.7266 53.6785 71.8008C53.6771 71.8994 53.7034 71.9964 53.7544 72.0808V72.1425V72.1709C53.7675 72.2002 53.7869 72.2261 53.8114 72.2469C53.8552 72.3147 53.9156 72.3702 53.9869 72.4082L54.1198 72.4841C54.2072 72.5413 54.3012 72.5875 54.3998 72.6218C54.5164 72.6525 54.6391 72.6525 54.7557 72.6218H54.7795H54.8411C54.9368 72.5964 55.0237 72.5456 55.0927 72.4746C55.1477 72.4244 55.1886 72.3606 55.2113 72.2896C55.248 72.2211 55.266 72.1442 55.2635 72.0665C55.2693 71.9627 55.2463 71.8592 55.1971 71.7676Z" fill="#9D6242"/>
<path d="M58.5 67.9649V67.9411L58.4573 67.9032C58.3951 67.8356 58.3167 67.785 58.2296 67.7561C58.1456 67.7097 58.0501 67.6883 57.9543 67.6944L57.7692 67.7181C57.6505 67.7514 57.5425 67.8152 57.456 67.9032L57.4133 67.9411L57.3896 67.9649C57.3125 68.0393 57.2514 68.1285 57.2098 68.2272C57.1682 68.3259 57.147 68.432 57.1476 68.5391C57.1356 68.6648 57.1452 68.7916 57.176 68.914C57.2045 68.9757 57.2282 69.0421 57.2567 69.1038C57.3053 69.1966 57.3773 69.2751 57.4655 69.3316C57.5147 69.3792 57.5751 69.4135 57.6411 69.4313C57.7353 69.4832 57.8421 69.5078 57.9496 69.5024L58.1631 69.474L58.3577 69.3933C58.4481 69.3432 58.5247 69.2714 58.5807 69.1845C58.6517 69.1088 58.7009 69.0154 58.7231 68.914C58.7575 68.7922 58.7703 68.6653 58.761 68.5391C58.7581 68.4308 58.7334 68.3242 58.6886 68.2256C58.6438 68.127 58.5797 68.0383 58.5 67.9649Z" fill="#9D6242"/>
<path d="M62.3819 68.6152C62.3191 68.5056 62.2292 68.4141 62.1208 68.3494L62.0639 68.3162C62.0079 68.2747 61.9428 68.247 61.8741 68.2355L61.6937 68.207H61.5704H61.5134C61.4263 68.2084 61.3406 68.2297 61.2628 68.2691C61.1851 68.3086 61.1174 68.3652 61.0648 68.4347C61.0122 68.5042 60.9761 68.5848 60.9593 68.6703C60.9425 68.7559 60.9453 68.8441 60.9677 68.9284C61.0122 69.0874 61.0935 69.2337 61.2049 69.3555C61.2481 69.3985 61.2958 69.4367 61.3473 69.4694L61.5087 69.5358C61.5371 69.5358 61.6463 69.5358 61.7127 69.5643H61.7839H61.8836C61.915 69.5689 61.947 69.5689 61.9785 69.5643C62.0947 69.5308 62.2007 69.4688 62.2869 69.3839L62.3819 69.2558C62.427 69.1863 62.4532 69.1061 62.4578 69.0233C62.4721 68.9688 62.4721 68.9116 62.4578 68.8572C62.4549 68.7711 62.4287 68.6874 62.3819 68.6152Z" fill="#9D6242"/>
<path d="M65.1724 64.7346C65.1465 64.5841 65.0753 64.445 64.9683 64.336C64.9017 64.2744 64.8285 64.2203 64.75 64.1747C64.6626 64.1221 64.5625 64.0942 64.4605 64.094C64.3829 64.0915 64.3059 64.1095 64.2375 64.1462C64.1665 64.1689 64.1027 64.2098 64.0524 64.2648C63.9831 64.335 63.9325 64.4215 63.9053 64.5163C63.9053 64.5543 63.8816 64.5923 63.8721 64.6302C63.863 64.6596 63.863 64.691 63.8721 64.7204V64.8248C63.8678 64.8817 63.8678 64.9388 63.8721 64.9956C63.8731 65.0684 63.8859 65.1405 63.91 65.2092C63.9233 65.2465 63.9344 65.2845 63.9433 65.3231C63.9433 65.3705 63.9812 65.4227 64.005 65.4702L64.0999 65.5936L64.2232 65.6885C64.2914 65.7329 64.3699 65.7591 64.451 65.7644C64.5055 65.7787 64.5627 65.7787 64.6171 65.7644C64.6707 65.7643 64.7232 65.7495 64.769 65.7217C64.8211 65.7072 64.8685 65.6794 64.9066 65.641C64.9721 65.5979 65.0259 65.5392 65.0632 65.4702C65.1088 65.3835 65.1469 65.293 65.1771 65.1997C65.182 65.1619 65.182 65.1236 65.1771 65.0858C65.1817 65.048 65.1817 65.0097 65.1771 64.9719C65.1961 64.8912 65.1818 64.8106 65.1724 64.7346Z" fill="#9D6242"/>
<path d="M42.8161 74.6663C42.7902 74.5772 42.743 74.4957 42.6785 74.429L42.6025 74.3436L42.5646 74.2914C42.5364 74.2593 42.5045 74.2307 42.4697 74.206C42.4095 74.1502 42.336 74.111 42.2561 74.0921C42.1955 74.0772 42.1334 74.0693 42.071 74.0684H42.0188H41.9049H41.7578L41.625 74.1253L41.5111 74.2107C41.4571 74.2591 41.4176 74.3215 41.3972 74.3911C41.3703 74.4335 41.3571 74.4832 41.3592 74.5334C41.3451 74.5814 41.3451 74.6325 41.3592 74.6805C41.3571 74.7307 41.3703 74.7804 41.3972 74.8229C41.4176 74.8924 41.4571 74.9549 41.5111 75.0032L41.587 75.0839L41.6297 75.1361L41.7721 75.2405C41.8416 75.2857 41.9218 75.3119 42.0046 75.3164C42.1043 75.3164 42.1992 75.3164 42.2988 75.3402C42.3946 75.3432 42.4894 75.3201 42.5731 75.2733C42.6567 75.2265 42.7259 75.1577 42.7734 75.0744C42.8129 75.015 42.8386 74.9475 42.8485 74.8769C42.8583 74.8062 42.8521 74.7342 42.8303 74.6663H42.8161Z" fill="#9D6242"/>
<path d="M51.5764 72.7679C51.5438 72.7123 51.5002 72.6638 51.4482 72.6256C51.3979 72.5818 51.3376 72.5508 51.2726 72.5354C51.184 72.5116 51.0907 72.5116 51.0021 72.5354H50.9357H50.9072L50.7649 72.5971L50.6415 72.692C50.5671 72.7664 50.5139 72.8592 50.4872 72.9609C50.4605 73.0627 50.4613 73.1697 50.4896 73.271V73.3374L50.5418 73.456C50.5702 73.5134 50.6147 73.5613 50.67 73.5937C50.6986 73.6243 50.7345 73.6472 50.7744 73.6601C50.8355 73.6879 50.9018 73.7025 50.9689 73.7028H51.0401C51.145 73.702 51.248 73.6742 51.3391 73.6221C51.4255 73.5696 51.4973 73.4962 51.5479 73.4086C51.5637 73.3856 51.575 73.3599 51.5811 73.3327C51.6087 73.2885 51.6235 73.2376 51.6238 73.1855C51.6261 73.154 51.6261 73.1222 51.6238 73.0906V73.0574C51.6238 73.0337 51.6238 73.01 51.6238 72.9862C51.6256 72.9107 51.6093 72.8359 51.5764 72.7679Z" fill="#9D6242"/>
<path d="M67.9105 63.9989C67.9146 63.9801 67.9146 63.9607 67.9105 63.9419C67.891 63.8938 67.862 63.8502 67.825 63.8138C67.7951 63.7844 67.7616 63.7589 67.7254 63.7378H67.6827C67.6469 63.7168 67.6055 63.7068 67.564 63.7094C67.5089 63.7089 67.4547 63.7237 67.4074 63.7521H67.36C67.2998 63.7885 67.2493 63.839 67.2129 63.8992L67.1702 63.9989V64.1127C67.1723 64.1614 67.1819 64.2094 67.1986 64.2551L67.2271 64.3453C67.2428 64.4163 67.2772 64.4818 67.3268 64.5351C67.382 64.5882 67.4527 64.6224 67.5286 64.6326C67.6046 64.6429 67.6818 64.6287 67.7491 64.592C67.8042 64.5621 67.8501 64.5179 67.882 64.4639C67.8967 64.4315 67.9094 64.3982 67.92 64.3643V64.3215C67.92 64.2883 67.92 64.2599 67.9532 64.2314C67.9604 64.1922 67.9604 64.152 67.9532 64.1127L67.9105 63.9989Z" fill="#9D6242"/>
<path d="M34.4876 72.8069C34.4876 72.7785 34.4876 72.7547 34.4876 72.7263C34.4507 72.5959 34.3724 72.481 34.2646 72.3988L34.1459 72.3086C34.0713 72.2644 33.986 72.2414 33.8992 72.2422H33.7426C33.6762 72.2618 33.6158 72.2977 33.567 72.3466C33.5174 72.3949 33.4813 72.4555 33.4626 72.5222L33.4958 72.4415C33.4756 72.483 33.4581 72.5258 33.4436 72.5697C33.4198 72.6583 33.4198 72.7516 33.4436 72.8402C33.4454 72.8702 33.4454 72.9003 33.4436 72.9303V72.7927C33.4495 72.8607 33.4639 72.9276 33.4863 72.992V73.1107C33.4819 73.1701 33.4951 73.2295 33.5243 73.2815C33.5566 73.3721 33.6207 73.448 33.7046 73.495C33.7751 73.532 33.8529 73.553 33.9324 73.5567C34.0506 73.5551 34.164 73.5094 34.2503 73.4286L34.3263 73.3622L34.3927 73.2862C34.4529 73.2182 34.4996 73.1392 34.5303 73.0537C34.5325 72.9694 34.518 72.8856 34.4876 72.8069Z" fill="#BD805F"/>
<path d="M29.8418 74.2545C29.8584 74.1988 29.8584 74.1394 29.8418 74.0837C29.8208 74.0166 29.7851 73.955 29.7374 73.9033C29.6503 73.7799 29.5227 73.6909 29.3767 73.6518C29.2443 73.6187 29.1058 73.6187 28.9733 73.6518C28.8242 73.711 28.6886 73.7998 28.5747 73.9128C28.5054 73.983 28.4548 74.0695 28.4276 74.1643C28.3991 74.2636 28.3991 74.3688 28.4276 74.4681C28.453 74.5643 28.5032 74.6521 28.5731 74.7229C28.6431 74.7937 28.7303 74.8449 28.8262 74.8714C28.9795 74.9203 29.1422 74.9317 29.3008 74.9046C29.4236 74.8637 29.5355 74.7956 29.6282 74.7053C29.6727 74.6634 29.711 74.6155 29.7421 74.563C29.7864 74.4912 29.8125 74.4098 29.8181 74.3257C29.8293 74.3032 29.8373 74.2792 29.8418 74.2545Z" fill="#BD805F"/>
<path d="M27.9339 70.0245L27.9055 69.9296V69.8916C27.9055 69.8537 27.8723 69.8062 27.8533 69.7682L27.7821 69.6733L27.6872 69.6022C27.6497 69.5815 27.6099 69.5655 27.5685 69.5547H27.4452C27.3652 69.5543 27.2871 69.5792 27.2221 69.6259L27.1794 69.6591H27.2079C27.157 69.6966 27.1135 69.7433 27.0797 69.7967C27.0363 69.8698 27.0149 69.9538 27.0181 70.0387C27.0205 70.0798 27.0205 70.121 27.0181 70.1621C27.0135 70.2031 27.0135 70.2445 27.0181 70.2855C27.0249 70.3524 27.046 70.4171 27.0797 70.4753C27.1022 70.5174 27.1329 70.5545 27.1699 70.5845C27.193 70.6059 27.2136 70.6298 27.2316 70.6557L27.1842 70.594C27.2168 70.6456 27.2606 70.6894 27.3123 70.7221C27.3535 70.7483 27.401 70.7631 27.4499 70.7648C27.4966 70.7767 27.5456 70.7767 27.5923 70.7648C27.6524 70.7455 27.7075 70.7131 27.7536 70.6699C27.7999 70.6258 27.8428 70.5782 27.8817 70.5275C27.9111 70.4942 27.9336 70.4556 27.9482 70.4136C27.9708 70.3765 27.9823 70.3337 27.9814 70.2903C27.9909 70.2465 27.9909 70.2012 27.9814 70.1574C27.9707 70.1114 27.9548 70.0668 27.9339 70.0245Z" fill="#BD805F"/>
<path d="M24.4032 72.8101C24.3774 72.721 24.3301 72.6395 24.2656 72.5728C24.2171 72.518 24.1548 72.477 24.0853 72.4542C24.0179 72.4195 23.9426 72.4031 23.867 72.4067C23.7927 72.4058 23.7191 72.4201 23.6505 72.4487C23.582 72.4772 23.52 72.5195 23.4683 72.5728L23.326 72.7294L23.2928 72.7627V72.7864C23.2458 72.8312 23.21 72.8865 23.1884 72.9477C23.1884 72.9904 23.1551 73.0284 23.1409 73.0711L23.0934 73.223C23.0723 73.2683 23.0613 73.3177 23.0613 73.3677C23.0613 73.4177 23.0723 73.4671 23.0934 73.5125C23.1143 73.5496 23.1446 73.5805 23.1813 73.6022C23.2179 73.6239 23.2597 73.6355 23.3023 73.6358H23.3782H23.5538H23.6297C23.7032 73.6383 23.7763 73.6237 23.8432 73.5931L24.0331 73.5172C24.1031 73.4989 24.168 73.4648 24.2229 73.4175C24.2838 73.3759 24.3342 73.3207 24.37 73.2562C24.4046 73.1877 24.4253 73.113 24.431 73.0365C24.4367 72.9599 24.4273 72.883 24.4032 72.8101Z" fill="#BD805F"/>
<path d="M21.5656 69.2949C21.5654 69.2434 21.5523 69.1929 21.5276 69.1478C21.5145 69.1013 21.4901 69.0589 21.4564 69.0244C21.4338 68.9907 21.4084 68.959 21.3805 68.9295C21.3504 68.8989 21.317 68.8718 21.2808 68.8488C21.2056 68.8072 21.1197 68.789 21.0341 68.7966H21.0008C20.9206 68.7925 20.8406 68.8088 20.7683 68.844C20.6971 68.8687 20.6334 68.9112 20.5832 68.9674L20.6876 68.8868L20.6259 68.9295C20.5978 68.9424 20.5722 68.96 20.55 68.9817C20.4798 69.0262 20.4225 69.0884 20.3839 69.162V69.2094C20.3643 69.2538 20.3388 69.2953 20.308 69.3328L20.3554 69.2759L20.2985 69.3518V69.385C20.2971 69.3945 20.2971 69.4041 20.2985 69.4135C20.2716 69.457 20.2494 69.5031 20.2321 69.5511V69.684C20.2276 69.748 20.2407 69.812 20.27 69.8691C20.2815 69.9109 20.3046 69.9488 20.3365 69.9782C20.3703 70.0311 20.4179 70.0737 20.4741 70.1016C20.5129 70.1253 20.5543 70.1444 20.5975 70.1586H20.6212L20.8158 70.1823C20.8585 70.1823 20.9344 70.1823 20.9771 70.1823H21.0103L21.1432 70.1301C21.1887 70.114 21.2331 70.095 21.2761 70.0731C21.3073 70.0525 21.3373 70.0304 21.3663 70.0067C21.3933 69.9557 21.4064 69.8983 21.4042 69.8406C21.4431 69.8002 21.4723 69.7515 21.4896 69.6982C21.4896 69.6555 21.5134 69.6413 21.5229 69.6081C21.5386 69.5361 21.5497 69.4632 21.5561 69.3898V69.3661C21.5641 69.3432 21.5673 69.319 21.5656 69.2949Z" fill="#BD805F"/>
<path d="M21.4517 69.0195L21.4902 69.0677L21.4517 69.0195Z" fill="#BD805F"/>
<path d="M21.4041 68.9531C21.4232 68.9744 21.4409 68.997 21.4571 69.0206C21.4441 68.9948 21.426 68.9719 21.4041 68.9531Z" fill="#BD805F"/>
<path d="M17.0533 69.7231V69.6709C17.0289 69.5819 16.9988 69.4945 16.963 69.4095L16.9202 69.3572C16.8982 69.3299 16.8684 69.31 16.8347 69.3002C16.8128 69.2954 16.7901 69.2954 16.7682 69.3002C16.7321 69.2932 16.695 69.2932 16.6589 69.3002C16.6207 69.3059 16.5855 69.3243 16.5591 69.3525L16.5211 69.4048C16.4995 69.4335 16.4878 69.4686 16.4878 69.5045C16.483 69.5158 16.4805 69.5279 16.4805 69.5402C16.4805 69.5524 16.483 69.5646 16.4878 69.5758C16.4862 69.612 16.4981 69.6476 16.5211 69.6756C16.5389 69.7075 16.5596 69.7377 16.5828 69.7659L16.6494 69.8514L16.6826 69.8989C16.6942 69.9198 16.7086 69.939 16.7254 69.956C16.7552 69.9831 16.791 70.0026 16.8299 70.013H16.9012C16.9351 70.0246 16.9719 70.0246 17.0058 70.013C17.0322 69.9942 17.0521 69.9676 17.0628 69.937C17.0628 69.9084 17.0628 69.8847 17.096 69.8609C17.0953 69.8118 17.0804 69.764 17.0533 69.7231Z" fill="#BD805F"/>
<path d="M20.2368 72.4028C20.2031 72.3605 20.1631 72.3236 20.1181 72.2936C20.0656 72.2661 20.0098 72.2454 19.952 72.2319C19.8789 72.2123 19.8075 72.1869 19.7385 72.156L19.8192 72.194C19.7798 72.1726 19.7385 72.1551 19.6958 72.1418C19.6565 72.135 19.6164 72.135 19.5771 72.1418C19.5251 72.1369 19.4726 72.1369 19.4205 72.1418H19.3873H19.2972C19.2758 72.1417 19.2547 72.1466 19.2355 72.156C19.2164 72.1655 19.1997 72.1793 19.1868 72.1963C19.1739 72.2134 19.1652 72.2332 19.1613 72.2542C19.1574 72.2752 19.1584 72.2968 19.1643 72.3173C19.1806 72.3788 19.2012 72.4391 19.226 72.4977C19.2719 72.6126 19.3579 72.707 19.468 72.7634C19.5546 72.8031 19.6433 72.838 19.7337 72.8678L19.8381 72.8963C19.9019 72.913 19.9689 72.913 20.0327 72.8963C20.0714 72.8866 20.1083 72.8705 20.1419 72.8488C20.2121 72.8155 20.2714 72.7629 20.3127 72.697C20.3744 72.6068 20.3032 72.4834 20.2368 72.4028Z" fill="#BD805F"/>
</g>
<defs>
<clipPath id="clip0_789_34235">
<rect width="75.8481" height="93.9998" fill="white" transform="translate(0.870117)"/>
</clipPath>
</defs>
</svg>
