<svg width="16" height="14" viewBox="0 0 16 14" fill="none" xmlns="http://www.w3.org/2000/svg">
<g clip-path="url(#clip0_16220_522)">
<path d="M7.45717 5.71426H0.925473C0.678693 5.71988 0.443843 5.82258 0.270969 6.00048C0.0980944 6.17838 0.000865212 6.41741 0 6.66664V10.9613C0.00140147 11.2087 0.0993563 11.4456 0.272613 11.6205C0.44587 11.7954 0.680454 11.8943 0.925473 11.8958H1.93993L1.81535 13.3333L4.21802 11.8958H7.45717C7.70219 11.8943 7.93678 11.7954 8.11003 11.6205C8.28329 11.4456 8.38125 11.2087 8.38265 10.9613V6.66664C8.38526 6.54236 8.36323 6.41881 8.31787 6.30325C8.27251 6.18769 8.20473 6.08245 8.1185 5.99372C8.03228 5.90499 7.92936 5.83456 7.81579 5.78657C7.70222 5.73858 7.58029 5.71399 7.45717 5.71426Z" fill="#2BBD54"/>
<path d="M14.3982 3.08166e-09H4.59178C4.16267 0.00142128 3.75154 0.174159 3.44812 0.480515C3.14469 0.786871 2.97361 1.20197 2.9722 1.63522V4.86972H7.45718C7.92419 4.87067 8.37181 5.0584 8.70203 5.39182C9.03226 5.72524 9.2182 6.17718 9.21914 6.6487V9.7035H9.39711L13.2948 12.0395L13.099 9.7035H14.3804C14.8095 9.70208 15.2207 9.52935 15.5241 9.22299C15.8275 8.91663 15.9986 8.50153 16 8.06828V1.63522C16.0024 1.42133 15.9627 1.2091 15.8832 1.01081C15.8038 0.812513 15.6862 0.632101 15.5372 0.480017C15.3882 0.327933 15.2108 0.207198 15.0153 0.124802C14.8198 0.0424063 14.6101 -1.32011e-05 14.3982 3.08166e-09Z" fill="#2BBD54"/>
</g>
<defs>
<clipPath id="clip0_16220_522">
<rect width="16" height="13.3333" fill="white"/>
</clipPath>
</defs>
</svg>
