<svg width="20" height="12" viewBox="0 0 20 12" fill="none" xmlns="http://www.w3.org/2000/svg">
<g clip-path="url(#clip0_16220_528)">
<path d="M9.97569 8.36486C11.2818 8.36486 12.3406 7.30606 12.3406 5.99997C12.3406 4.69388 11.2818 3.63508 9.97569 3.63508C8.6696 3.63508 7.6108 4.69388 7.6108 5.99997C7.6108 7.30606 8.6696 8.36486 9.97569 8.36486Z" fill="#474CD5"/>
<path d="M2.82195 8.89337C4.50148 10.3105 7.10604 12 9.97575 12C14.8483 12 18.9933 7.19838 19.9515 5.99956C19.1042 4.94844 18.1593 3.97982 17.1295 3.10666C15.45 1.68955 12.8455 1.52588e-05 9.97575 1.52588e-05C5.10316 1.52588e-05 0.958236 4.80165 0 6.00047C0.847329 7.05159 1.79219 8.02021 2.82195 8.89337ZM9.97575 2.22529C10.7223 2.22529 11.4521 2.44667 12.0729 2.86144C12.6936 3.27621 13.1774 3.86575 13.4631 4.55549C13.7488 5.24523 13.8236 6.0042 13.6779 6.73643C13.5323 7.46865 13.1728 8.14125 12.6449 8.66915C12.117 9.19706 11.4444 9.55657 10.7122 9.70221C9.97993 9.84786 9.22096 9.77311 8.53122 9.48741C7.84148 9.20171 7.25195 8.71789 6.83717 8.09714C6.4224 7.47639 6.20102 6.74659 6.20102 6.00002C6.2021 4.99923 6.60014 4.03974 7.30781 3.33208C8.01547 2.62441 8.97496 2.22637 9.97575 2.22529Z" fill="#474CD5"/>
</g>
<defs>
<clipPath id="clip0_16220_528">
<rect width="19.9515" height="12" fill="white"/>
</clipPath>
</defs>
</svg>
