<svg width="22" height="15" viewBox="0 0 22 15" fill="none" xmlns="http://www.w3.org/2000/svg">
<g clip-path="url(#clip0_14260_2232)">
<path d="M21.2143 13.037H0.785714C0.314286 13.037 0 13.363 0 13.8519C0 14.3408 0.314286 14.6667 0.785714 14.6667H21.2143C21.6857 14.6667 22 14.3408 22 13.8519C22 13.363 21.6857 13.037 21.2143 13.037Z" fill="white"/>
<path d="M18.857 0H3.14272C2.72631 0.00122853 2.3273 0.173315 2.03286 0.478664C1.73841 0.784013 1.57247 1.1978 1.57129 1.62963V11.5704C1.57247 12.0022 1.73841 12.416 2.03286 12.7213C2.3273 13.0267 2.72631 13.1988 3.14272 13.2H18.857C19.2734 13.1988 19.6724 13.0267 19.9669 12.7213C20.2613 12.416 20.4272 12.0022 20.4284 11.5704V1.62963C20.4272 1.1978 20.2613 0.784013 19.9669 0.478664C19.6724 0.173315 19.2734 0.00122853 18.857 0ZM11.8641 10.1852V7.98518C10.6857 7.98518 9.50715 8.22963 8.32843 8.71852C7.77843 8.96296 7.14986 9.28889 6.67843 9.61481C7.07129 9.04444 7.46415 8.47407 7.93557 7.98518C8.42267 7.48045 8.94818 7.01722 9.507 6.6C10.2927 6.02963 11.0784 5.62222 11.9427 5.21481V2.93333L15.3999 6.6L11.8641 10.1852Z" fill="white"/>
</g>
<defs>
<clipPath id="clip0_14260_2232">
<rect width="22" height="14.6667" fill="white"/>
</clipPath>
</defs>
</svg>
