<svg width="19" height="19" viewBox="0 0 19 19" fill="none" xmlns="http://www.w3.org/2000/svg">
<path fill-rule="evenodd" clip-rule="evenodd" d="M1.5 7.85731C1.5 4.34626 4.34626 1.5 7.85731 1.5C11.3684 1.5 14.2146 4.34626 14.2146 7.85731C14.2146 11.3684 11.3684 14.2146 7.85731 14.2146C4.34626 14.2146 1.5 11.3684 1.5 7.85731ZM7.85731 0C3.51784 0 0 3.51784 0 7.85731C0 12.1968 3.51784 15.7146 7.85731 15.7146C9.75714 15.7146 11.4995 15.0403 12.8581 13.9181L17.0996 18.1595C17.3925 18.4524 17.8673 18.4524 18.1602 18.1595C18.4531 17.8666 18.4531 17.3917 18.1602 17.0988L13.9187 12.8573C15.0406 11.4988 15.7146 9.75678 15.7146 7.85731C15.7146 3.51784 12.1968 0 7.85731 0Z" fill="#C6C9CC"/>
</svg>
