<svg width="11" height="16" viewBox="0 0 11 16" fill="none" xmlns="http://www.w3.org/2000/svg">
<g clip-path="url(#clip0_846_2754)">
<path d="M5.18925 0C4.32931 0.000715724 3.50479 0.342643 2.89672 0.950714C2.28865 1.55879 1.94672 2.3833 1.94601 3.24324V8C1.94601 8.86016 2.28771 9.68509 2.89593 10.2933C3.50416 10.9015 4.32909 11.2432 5.18925 11.2432C6.04941 11.2432 6.87434 10.9015 7.48257 10.2933C8.0908 9.68509 8.43249 8.86016 8.43249 8V3.24324C8.43178 2.3833 8.08985 1.55879 7.48178 0.950714C6.87371 0.342643 6.04919 0.000715724 5.18925 0ZM0.440218 6.26602C0.324587 6.26877 0.21446 6.31596 0.13271 6.39778C0.0509593 6.4796 0.00386974 6.58977 0.00122182 6.70541V8.00695C0.000368764 9.3082 0.488977 10.5622 1.37 11.5198C2.25102 12.4774 3.46 13.0687 4.75682 13.1761V15.1355H3.02709C2.9124 15.1355 2.80241 15.1811 2.72131 15.2622C2.64022 15.3433 2.59466 15.4533 2.59466 15.568C2.59466 15.6826 2.64022 15.7926 2.72131 15.8737C2.80241 15.9548 2.9124 16.0004 3.02709 16.0004H7.35141C7.4661 16.0004 7.57609 15.9548 7.65719 15.8737C7.73829 15.7926 7.78385 15.6826 7.78385 15.568C7.78385 15.4533 7.73829 15.3433 7.65719 15.2622C7.57609 15.1811 7.4661 15.1355 7.35141 15.1355H5.62168V13.1761C6.91874 13.069 8.12806 12.4779 9.00934 11.5203C9.89062 10.5626 10.3794 9.30841 10.3784 8.00695V6.70541C10.3802 6.64756 10.3703 6.58995 10.3493 6.536C10.3284 6.48204 10.2968 6.43284 10.2565 6.39131C10.2162 6.34978 10.168 6.31676 10.1147 6.29422C10.0614 6.27167 10.0041 6.26005 9.9462 6.26005C9.88832 6.26005 9.83104 6.27167 9.77774 6.29422C9.72443 6.31676 9.6762 6.34978 9.63589 6.39131C9.59558 6.43284 9.56402 6.48204 9.54308 6.536C9.52213 6.58995 9.51223 6.64756 9.51396 6.70541V8.00695C9.51396 8.57483 9.40211 9.13715 9.18479 9.6618C8.96747 10.1864 8.64895 10.6632 8.2474 11.0647C7.84585 11.4663 7.36914 11.7848 6.84448 12.0021C6.31983 12.2194 5.75752 12.3313 5.18964 12.3313C4.62176 12.3313 4.05944 12.2194 3.53479 12.0021C3.01014 11.7848 2.53343 11.4663 2.13188 11.0647C1.73033 10.6632 1.4118 10.1864 1.19448 9.6618C0.977166 9.13715 0.865314 8.57483 0.865314 8.00695V6.70541C0.862863 6.59214 0.817764 6.48397 0.739028 6.40252C0.660292 6.32106 0.553718 6.27232 0.440604 6.26602H0.440218Z" fill="black"/>
</g>
<defs>
<clipPath id="clip0_846_2754">
<rect width="10.3784" height="16" fill="white"/>
</clipPath>
</defs>
</svg>
