<svg width="16" height="16" viewBox="0 0 16 16" fill="none" xmlns="http://www.w3.org/2000/svg">
<g clip-path="url(#clip0_1124_35576)">
<path fill-rule="evenodd" clip-rule="evenodd" d="M15.9999 8.04293C15.1966 8.4421 14.2912 8.66655 13.3333 8.66655C10.0196 8.66655 7.33333 5.98026 7.33333 2.66655C7.33333 1.7087 7.55778 0.803277 7.95696 0C3.55827 0.0231696 0 3.59575 0 7.99988C0 12.4184 3.58151 15.9999 8 15.9999C12.4041 15.9999 15.9767 12.4416 15.9999 8.04293ZM11.6372 10.1252C11.6372 11.9047 9.81901 13.0908 8 13.0908C6.18016 13.0908 4.36364 11.9064 4.36447 10.1252C4.36447 9.99744 4.36447 9.92473 4.40081 9.88927C4.53319 9.76011 5.14776 10.1252 8.00083 10.1252C10.8539 10.1252 11.4685 9.76011 11.6009 9.88927C11.6372 9.92473 11.6372 9.99744 11.6372 10.1252ZM5.89901 7.02748C5.65981 7.1873 5.37859 7.27261 5.09091 7.27261C4.70514 7.27261 4.33517 7.11937 4.06239 6.84659C3.78961 6.57381 3.63636 6.20384 3.63636 5.81807C3.63636 5.53038 3.72167 5.24916 3.8815 5.00996C4.04133 4.77077 4.2685 4.58433 4.53428 4.47424C4.80006 4.36415 5.09252 4.33535 5.37468 4.39147C5.65683 4.44759 5.91601 4.58612 6.11943 4.78955C6.32285 4.99297 6.46138 5.25214 6.51751 5.5343C6.57363 5.81645 6.54483 6.10891 6.43473 6.3747C6.32464 6.64048 6.13821 6.86765 5.89901 7.02748Z" fill="#3F434A"/>
</g>
<path fill-rule="evenodd" clip-rule="evenodd" d="M12.7 1.83346C12.7 1.63096 12.5358 1.4668 12.3333 1.4668C12.1308 1.4668 11.9666 1.63096 11.9666 1.83346V3.30013H10.5C10.2975 3.30013 10.1333 3.46429 10.1333 3.6668C10.1333 3.8693 10.2975 4.03346 10.5 4.03346H11.9666V5.50013C11.9666 5.70263 12.1308 5.8668 12.3333 5.8668C12.5358 5.8668 12.7 5.70263 12.7 5.50013V4.03346H14.1666C14.3691 4.03346 14.5333 3.8693 14.5333 3.6668C14.5333 3.46429 14.3691 3.30013 14.1666 3.30013H12.7V1.83346Z" fill="#3F434A"/>
<defs>
<clipPath id="clip0_1124_35576">
<rect width="16" height="16" fill="white"/>
</clipPath>
</defs>
</svg>
