<svg width="24" height="24" viewBox="0 0 24 24" fill="none" xmlns="http://www.w3.org/2000/svg">
<g clip-path="url(#clip0_638_47991)">
<path fill-rule="evenodd" clip-rule="evenodd" d="M23.9998 12.0644C22.7949 12.6632 21.4368 12.9998 20 12.9998C15.0294 12.9998 11 8.97039 11 3.99983C11 2.56306 11.3367 1.20492 11.9354 3.38941e-06C5.3374 0.0347579 0 5.39362 0 11.9998C0 18.6276 5.37226 23.9998 12 23.9998C18.6062 23.9998 23.9651 18.6624 23.9998 12.0644ZM17.4558 15.1878C17.4558 17.8571 14.7285 19.6362 12 19.6362C9.27023 19.6362 6.54545 17.8596 6.5467 15.1878C6.5467 14.9962 6.5467 14.8871 6.60122 14.8339C6.79979 14.6402 7.72164 15.1878 12.0012 15.1878C16.2809 15.1878 17.2027 14.6402 17.4013 14.8339C17.4558 14.8871 17.4558 14.9962 17.4558 15.1878ZM8.84852 10.5412C8.48972 10.781 8.06789 10.9089 7.63636 10.9089C7.05771 10.9089 6.50276 10.6791 6.09359 10.2699C5.68442 9.86071 5.45455 9.30576 5.45455 8.7271C5.45455 8.29558 5.58251 7.87375 5.82225 7.51495C6.06199 7.15615 6.40274 6.8765 6.80142 6.71137C7.20009 6.54623 7.63878 6.50302 8.06201 6.58721C8.48525 6.67139 8.87401 6.87919 9.17914 7.18432C9.48427 7.48946 9.69207 7.87822 9.77626 8.30145C9.86045 8.72468 9.81724 9.16337 9.6521 9.56205C9.48696 9.96072 9.20732 10.3015 8.84852 10.5412Z" fill="#3F434A"/>
</g>
<path fill-rule="evenodd" clip-rule="evenodd" d="M19.05 2.7502C19.05 2.44644 18.8037 2.2002 18.5 2.2002C18.1962 2.2002 17.95 2.44644 17.95 2.7502V4.9502H15.75C15.4462 4.9502 15.2 5.19644 15.2 5.5002C15.2 5.80395 15.4462 6.0502 15.75 6.0502H17.95V8.2502C17.95 8.55395 18.1962 8.8002 18.5 8.8002C18.8037 8.8002 19.05 8.55395 19.05 8.2502V6.0502H21.25C21.5537 6.0502 21.8 5.80395 21.8 5.5002C21.8 5.19644 21.5537 4.9502 21.25 4.9502H19.05V2.7502Z" fill="#3F434A"/>
<defs>
<clipPath id="clip0_638_47991">
<rect width="24" height="24" fill="white"/>
</clipPath>
</defs>
</svg>
