<svg width="12" height="12" viewBox="0 0 12 12" fill="none" xmlns="http://www.w3.org/2000/svg">
<path fill-rule="evenodd" clip-rule="evenodd" d="M9.68746 10.609C9.94199 10.8636 10.3547 10.8636 10.6092 10.609C10.8638 10.3545 10.8638 9.94174 10.6092 9.6872L6.92202 5.99993L10.6093 2.31268C10.8638 2.05813 10.8638 1.64542 10.6093 1.39087C10.3547 1.13631 9.94199 1.13631 9.68746 1.39087L6.00018 5.0781L2.31292 1.39087C2.05837 1.13632 1.64566 1.13632 1.39111 1.39087C1.13656 1.64543 1.13656 2.05814 1.39111 2.3127L5.07835 5.99993L1.39112 9.6872C1.13657 9.94174 1.13657 10.3544 1.39112 10.609C1.64567 10.8636 2.05838 10.8636 2.31293 10.609L6.00018 6.92177L9.68746 10.609Z" fill="white"/>
</svg>
