<?xml version="1.0" encoding="UTF-8"?>
<!DOCTYPE svg PUBLIC "-//W3C//DTD SVG 1.1//EN" "http://www.w3.org/Graphics/SVG/1.1/DTD/svg11.dtd">
<svg xmlns="http://www.w3.org/2000/svg" version="1.1" width="18px" height="18px" style="shape-rendering:geometricPrecision; text-rendering:geometricPrecision; image-rendering:optimizeQuality; fill-rule:evenodd; clip-rule:evenodd" xmlns:xlink="http://www.w3.org/1999/xlink">
<g><path style="opacity:0.873" fill="#898f99" d="M 14.5,-0.5 C 15.1667,-0.5 15.8333,-0.5 16.5,-0.5C 16.5,0.166667 16.8333,0.5 17.5,0.5C 17.5,1.16667 17.5,1.83333 17.5,2.5C 15.5191,7.42912 13.5191,12.4291 11.5,17.5C 11.1667,17.5 10.8333,17.5 10.5,17.5C 9.31238,15.2779 8.31238,12.9446 7.5,10.5C 4.92607,8.97572 2.2594,7.64239 -0.5,6.5C -0.5,6.16667 -0.5,5.83333 -0.5,5.5C 4.57088,3.48089 9.57088,1.48089 14.5,-0.5 Z M 8.5,4.5 C 10.3786,4.39318 10.7119,4.89318 9.5,6C 8.16667,6.66667 6.83333,6.66667 5.5,6C 6.73747,5.76791 7.73747,5.26791 8.5,4.5 Z M 11.5,6.5 C 12.0431,6.55999 12.3764,6.89333 12.5,7.5C 11.9017,8.79457 11.4017,10.1279 11,11.5C 10.3603,9.73498 10.5269,8.06831 11.5,6.5 Z"/></g>
</svg>
