<svg width="18" height="16" viewBox="0 0 18 16" fill="none" xmlns="http://www.w3.org/2000/svg">
<path d="M15.4293 10.6667H12.2139V13.9824C12.2139 15.0951 11.3413 16 10.2684 16C9.67466 16 9.12096 15.7242 8.74919 15.2429L5.00661 10.3911C4.88961 10.5542 4.71112 10.6667 4.49984 10.6667H0.642834C0.287561 10.6667 0 10.3682 0 10V0.666667C0 0.298445 0.287561 0 0.642834 0H4.49984C4.84847 0 5.14268 0.253999 5.14268 0.754443L6.07179 0.112C6.17721 0.0391102 6.30149 0 6.42834 0H14.4462C15.3018 0 16.064 0.596666 16.2993 1.45089L17.8995 7.26756C18.3686 8.97244 17.1367 10.6667 15.4293 10.6667ZM3.85701 1.33333H1.28567V9.33333H3.85701C3.85701 6.66289 3.85701 3.998 3.85701 1.33333ZM16.6629 7.63356L15.0627 1.81689C14.9849 1.53222 14.7312 1.33333 14.4462 1.33333H6.62291L5.14268 2.35667V8.43289L9.75308 14.4098C9.87908 14.5729 10.0668 14.6667 10.2684 14.6667C10.6325 14.6667 10.9282 14.3598 10.9282 13.9824V10C10.9282 9.63178 11.2157 9.33333 11.571 9.33333H15.4293C16.2809 9.33333 16.8975 8.48733 16.6629 7.63356Z" fill="#8A9099"/>
</svg>
