<svg width="14" height="14" viewBox="0 0 14 14" fill="none" xmlns="http://www.w3.org/2000/svg">
<path fill-rule="evenodd" clip-rule="evenodd" d="M0 7C0 3.13401 3.13401 0 7 0C10.866 0 14 3.13401 14 7C14 10.866 10.866 14 7 14C3.13401 14 0 10.866 0 7ZM7 1.4C3.90721 1.4 1.4 3.90721 1.4 7C1.4 10.0928 3.90721 12.6 7 12.6C10.0928 12.6 12.6 10.0928 12.6 7C12.6 3.90721 10.0928 1.4 7 1.4Z" fill="#7521E2"/>
<path fill-rule="evenodd" clip-rule="evenodd" d="M7.7 3.5C7.7 3.1134 7.3866 2.8 7 2.8C6.6134 2.8 6.3 3.1134 6.3 3.5V6.3H3.5C3.1134 6.3 2.8 6.6134 2.8 7C2.8 7.3866 3.1134 7.7 3.5 7.7H6.3V10.5C6.3 10.8866 6.6134 11.2 7 11.2C7.3866 11.2 7.7 10.8866 7.7 10.5V7.7H10.5C10.8866 7.7 11.2 7.3866 11.2 7C11.2 6.6134 10.8866 6.3 10.5 6.3H7.7V3.5Z" fill="#7521E2"/>
</svg>
