<svg width="14" height="19" viewBox="0 0 14 19" fill="none" xmlns="http://www.w3.org/2000/svg">
<g clip-path="url(#clip0_1577_20488)">
<path d="M13.4841 12.6542C13.4335 12.2837 13.2419 11.9469 12.9491 11.7142C12.4325 11.327 8.54068 9.42714 8.52233 8.68942C8.52233 8.68942 8.46682 8.33891 8.89119 7.65625C8.89119 7.65625 10.3116 5.79314 10.0161 3.04547C10.0161 3.04547 10.0533 0.16799 6.73308 0.00146484C3.41242 0.167542 3.46793 3.04547 3.46793 3.04547C3.17248 5.79403 4.59332 7.65625 4.59332 7.65625C4.99889 8.33891 4.96218 8.68942 4.96218 8.68942C4.94383 9.42625 1.05153 11.3256 0.537178 11.7133C0.386642 11.8235 0.261004 11.9641 0.16845 12.1261C0.0758949 12.2881 0.0184988 12.4677 0 12.6533V15.1065H2.30584C2.30584 15.0147 2.28748 14.922 2.28748 14.8303C2.28748 13.6415 2.75972 12.5014 3.60032 11.6608C4.44091 10.8202 5.581 10.348 6.76978 10.348C7.95856 10.348 9.09865 10.8202 9.93925 11.6608C10.7798 12.5014 11.2521 13.6415 11.2521 14.8303C11.2521 14.922 11.2337 15.0147 11.2337 15.1065H13.5396V12.6533L13.4841 12.6542Z" fill="white"/>
<path d="M6.73284 11.197C6.01773 11.197 5.31868 11.4091 4.72409 11.8064C4.1295 12.2037 3.66607 12.7683 3.39241 13.429C3.11875 14.0897 3.04715 14.8167 3.18666 15.5181C3.32617 16.2194 3.67053 16.8637 4.17619 17.3693C4.68185 17.875 5.3261 18.2193 6.02746 18.3589C6.72883 18.4984 7.45582 18.4268 8.11649 18.1531C8.77717 17.8794 9.34186 17.416 9.73915 16.8214C10.1364 16.2268 10.3485 15.5278 10.3485 14.8127C10.347 13.8542 9.96553 12.9355 9.2878 12.2577C8.61006 11.58 7.6913 11.1986 6.73284 11.197ZM8.76203 15.2366H7.15721V16.8414H6.32683V15.2366H4.72201V14.3883H6.32727V12.7835H7.15721V14.3883H8.76203V15.2366Z" fill="white"/>
</g>
<defs>
<clipPath id="clip0_1577_20488">
<rect width="13.5396" height="18.4279" fill="white"/>
</clipPath>
</defs>
</svg>
