<svg width="33" height="32" viewBox="0 0 33 32" fill="none" xmlns="http://www.w3.org/2000/svg">
<g clip-path="url(#clip0_14215_544)">
<path d="M19.6741 27.3946H12.4952C12.3616 27.3981 12.2344 27.4527 12.1399 27.5472C12.0453 27.6417 11.9907 27.7689 11.9873 27.9026V29.5957C11.9907 29.7293 12.0453 29.8565 12.1399 29.9511C12.2344 30.0456 12.3616 30.1002 12.4952 30.1036H13.8836C13.9595 30.6262 14.2195 31.1044 14.6169 31.4521C15.0143 31.7998 15.5228 31.9941 16.0508 31.9999C16.5818 32.0048 17.096 31.8143 17.4956 31.4646C17.8953 31.115 18.1524 30.6306 18.218 30.1036H19.6064C19.74 30.1002 19.8672 30.0456 19.9617 29.9511C20.0562 29.8565 20.1109 29.7293 20.1143 29.5957V27.9026C20.126 27.8391 20.1233 27.7738 20.1064 27.7115C20.0894 27.6492 20.0587 27.5915 20.0164 27.5427C19.9741 27.4939 19.9214 27.4552 19.8621 27.4296C19.8029 27.404 19.7386 27.392 19.6741 27.3946Z" fill="#FF6B00"/>
<path d="M16.0846 5.7566C16.2493 5.75705 16.4124 5.72495 16.5646 5.66214C16.7168 5.59933 16.8551 5.50706 16.9715 5.39063C17.088 5.2742 17.1802 5.1359 17.243 4.98369C17.3058 4.83148 17.338 4.66835 17.3375 4.50369V1.2529C17.338 1.08824 17.3058 0.925115 17.243 0.772903C17.1802 0.620691 17.088 0.482394 16.9715 0.365961C16.8551 0.249529 16.7168 0.157257 16.5646 0.094451C16.4124 0.0316446 16.2493 -0.000457876 16.0846 -1.10359e-05C15.9192 -0.00323293 15.7548 0.0269731 15.6013 0.0887971C15.4479 0.150621 15.3085 0.242791 15.1915 0.359782C15.0745 0.476774 14.9823 0.616179 14.9205 0.769645C14.8587 0.923112 14.8285 1.08748 14.8317 1.2529V4.50369C14.8369 4.83435 14.9706 5.15 15.2044 5.38384C15.4383 5.61768 15.7539 5.75137 16.0846 5.7566Z" fill="#FF6B00"/>
<path d="M8.77034 7.04331L6.4677 4.74066C6.35389 4.6172 6.21631 4.51801 6.06321 4.44905C5.91011 4.38009 5.74466 4.34278 5.57678 4.33937C5.4089 4.33595 5.24207 4.3665 5.08629 4.42918C4.93052 4.49185 4.78901 4.58536 4.67028 4.7041C4.55155 4.82283 4.45804 4.96433 4.39536 5.12011C4.33269 5.27588 4.30214 5.44272 4.30556 5.61059C4.30897 5.77847 4.34628 5.94393 4.41524 6.09702C4.4842 6.25012 4.58339 6.3877 4.70685 6.50151L7.00949 8.80415C7.12378 8.92212 7.26061 9.01592 7.41185 9.07998C7.56309 9.14403 7.72567 9.17704 7.88992 9.17704C8.05417 9.17704 8.21674 9.14403 8.36798 9.07998C8.51923 9.01592 8.65606 8.92212 8.77034 8.80415C8.99875 8.56798 9.12643 8.25229 9.12643 7.92373C9.12643 7.59518 8.99875 7.27948 8.77034 7.04331Z" fill="#FF6B00"/>
<path d="M4.50366 14.8655H1.25287C1.08821 14.865 0.925084 14.8971 0.772873 14.9599C0.620661 15.0228 0.482363 15.115 0.365931 15.2315C0.249498 15.3479 0.157227 15.4862 0.0944204 15.6384C0.0316141 15.7906 -0.000488394 15.9537 -4.15534e-05 16.1184C-0.00326344 16.2838 0.0269426 16.4482 0.0887666 16.6016C0.150591 16.7551 0.24276 16.8945 0.359752 17.0115C0.476743 17.1285 0.616149 17.2207 0.769615 17.2825C0.923081 17.3443 1.08745 17.3745 1.25287 17.3713H4.50366C4.83596 17.3713 5.15464 17.2393 5.3896 17.0043C5.62457 16.7694 5.75657 16.4507 5.75657 16.1184C5.75657 15.7861 5.62457 15.4674 5.3896 15.2325C5.15464 14.9975 4.83596 14.8655 4.50366 14.8655Z" fill="#FF6B00"/>
<path d="M30.9164 14.8657H27.6656C27.5009 14.8653 27.3378 14.8974 27.1856 14.9602C27.0334 15.023 26.8951 15.1153 26.7787 15.2317C26.6622 15.3481 26.5699 15.4864 26.5071 15.6386C26.4443 15.7908 26.4122 15.954 26.4127 16.1186C26.4095 16.284 26.4397 16.4484 26.5015 16.6019C26.5633 16.7553 26.6555 16.8947 26.7725 17.0117C26.8895 17.1287 27.0289 17.2209 27.1823 17.2827C27.3358 17.3445 27.5002 17.3748 27.6656 17.3715H30.9164C31.081 17.372 31.2442 17.3399 31.3964 17.2771C31.5486 17.2143 31.6869 17.122 31.8033 17.0056C31.9197 16.8891 32.012 16.7508 32.0748 16.5986C32.1376 16.4464 32.1697 16.2833 32.1693 16.1186C32.1725 15.9532 32.1423 15.7888 32.0805 15.6354C32.0187 15.4819 31.9265 15.3425 31.8095 15.2255C31.6925 15.1085 31.5531 15.0163 31.3996 14.9545C31.2462 14.8927 31.0818 14.8625 30.9164 14.8657Z" fill="#FF6B00"/>
<path d="M27.4624 4.74086C27.2263 4.51245 26.9106 4.38477 26.582 4.38477C26.2535 4.38477 25.9378 4.51245 25.7016 4.74086L23.3989 7.0435C23.1705 7.27968 23.0428 7.59537 23.0428 7.92393C23.0428 8.25248 23.1705 8.56818 23.3989 8.80435C23.5132 8.92232 23.6501 9.01612 23.8013 9.08017C23.9525 9.14423 24.1151 9.17724 24.2794 9.17724C24.4436 9.17724 24.6062 9.14423 24.7574 9.08017C24.9087 9.01612 25.0455 8.92232 25.1598 8.80435L27.4624 6.5017C27.6908 6.26553 27.8185 5.94983 27.8185 5.62128C27.8185 5.29273 27.6908 4.97703 27.4624 4.74086Z" fill="#FF6B00"/>
<path d="M14.1544 8.33009C12.7512 8.6679 11.467 9.38269 10.4406 10.3973C9.41406 11.4118 8.68429 12.6876 8.33009 14.0867C7.93493 15.6094 7.99719 17.2148 8.50909 18.7024C9.021 20.1899 9.95986 21.4936 11.2084 22.4507C11.4592 22.662 11.6593 22.9268 11.7941 23.2257C11.9289 23.5246 11.9949 23.8499 11.9872 24.1777V25.329C11.9849 25.423 12.0017 25.5166 12.0366 25.6039C12.0715 25.6912 12.1238 25.7705 12.1903 25.837C12.2568 25.9035 12.3362 25.9558 12.4235 25.9907C12.5108 26.0257 12.6043 26.0425 12.6983 26.0401H15.3396V18.2856L12.6983 15.5089C12.6339 15.44 12.5836 15.359 12.5504 15.2707C12.5172 15.1823 12.5017 15.0883 12.5049 14.994C12.508 14.8996 12.5297 14.8068 12.5687 14.7209C12.6077 14.635 12.6633 14.5575 12.7322 14.493C12.8011 14.4286 12.8821 14.3783 12.9704 14.3451C13.0588 14.3119 13.1528 14.2964 13.2472 14.2996C13.3415 14.3027 13.4343 14.3244 13.5202 14.3634C13.6062 14.4024 13.6836 14.458 13.7481 14.5269L16.0507 16.965L18.3534 14.5269C18.4178 14.458 18.4953 14.4024 18.5812 14.3634C18.6672 14.3244 18.76 14.3027 18.8543 14.2996C18.9486 14.2964 19.0427 14.3119 19.131 14.3451C19.2194 14.3783 19.3003 14.4286 19.3692 14.493C19.4382 14.5575 19.4937 14.635 19.5327 14.7209C19.5717 14.8068 19.5934 14.8996 19.5966 14.994C19.5997 15.0883 19.5842 15.1823 19.551 15.2707C19.5179 15.359 19.4676 15.44 19.4031 15.5089L16.7618 18.2856V26.0063H19.4708C19.5648 26.0086 19.6584 25.9918 19.7457 25.9569C19.833 25.922 19.9123 25.8697 19.9788 25.8032C20.0453 25.7367 20.0976 25.6573 20.1325 25.57C20.1675 25.4827 20.1843 25.3892 20.1819 25.2952V24.0761C20.1781 23.7587 20.2462 23.4445 20.3811 23.1572C20.5159 22.8698 20.7141 22.6167 20.9608 22.4169C22.4269 21.3023 23.4625 19.715 23.892 17.9241C24.3215 16.1332 24.1184 14.2489 23.3171 12.5906C22.5159 10.9323 21.1659 9.6022 19.4959 8.82568C17.8259 8.04916 15.9388 7.87407 14.1544 8.33009Z" fill="#FF6B00"/>
</g>
<defs>
<clipPath id="clip0_14215_544">
<rect width="32.1693" height="32" fill="white"/>
</clipPath>
</defs>
</svg>
