<?xml version="1.0" encoding="UTF-8"?>
<!DOCTYPE svg PUBLIC "-//W3C//DTD SVG 1.1//EN" "http://www.w3.org/Graphics/SVG/1.1/DTD/svg11.dtd">
<svg xmlns="http://www.w3.org/2000/svg" version="1.1" width="21px" height="19px" style="shape-rendering:geometricPrecision; text-rendering:geometricPrecision; image-rendering:optimizeQuality; fill-rule:evenodd; clip-rule:evenodd" xmlns:xlink="http://www.w3.org/1999/xlink">
<g><path style="opacity:0.878" fill="#f427c8" d="M 4.5,-0.5 C 7.83333,-0.5 11.1667,-0.5 14.5,-0.5C 14.4606,0.583168 14.1272,1.58317 13.5,2.5C 14.7472,4.32298 15.4139,6.32298 15.5,8.5C 17.36,7.92855 19.0267,7.92855 20.5,8.5C 20.5,9.5 20.5,10.5 20.5,11.5C 18.3311,13.3403 16.9977,15.6737 16.5,18.5C 11.8333,18.5 7.16667,18.5 2.5,18.5C 2.53905,15.911 1.53905,13.911 -0.5,12.5C -0.5,10.8333 -0.5,9.16667 -0.5,7.5C 1.04181,8.30071 2.70848,8.63404 4.5,8.5C 4.17798,6.27759 4.84464,4.44425 6.5,3C 5.17723,2.18405 4.51056,1.01739 4.5,-0.5 Z M 10.5,6.5 C 13.1336,8.51941 12.967,10.5194 10,12.5C 6.68139,10.1549 6.84806,8.15493 10.5,6.5 Z M 7.5,13.5 C 10.4245,13.4598 13.0912,14.2932 15.5,16C 11.8333,16.6667 8.16667,16.6667 4.5,16C 5.94227,15.6232 6.94227,14.7899 7.5,13.5 Z"/></g>
</svg>
