<svg width="82" height="94" viewBox="0 0 82 94" fill="none" xmlns="http://www.w3.org/2000/svg">
<g clip-path="url(#clip0_789_34184)">
<path d="M77.1154 45.3049C74.4974 39.5836 70.3492 34.6917 65.1259 31.1662C59.8325 27.6891 53.7228 25.6448 47.3971 25.234C47.6786 23.765 47.8327 22.2746 47.8578 20.7793C47.8699 19.5811 47.8051 18.3834 47.6635 17.1934L47.6302 16.878C47.5517 15.4278 47.1294 14.0169 46.398 12.7609C45.8787 11.915 45.1502 11.2163 44.2822 10.7318C43.4143 10.2473 42.436 9.99324 41.4412 9.99401C40.4658 10.0029 39.5046 10.2279 38.6271 10.6525C37.9417 8.8607 37.0984 7.13295 36.107 5.48954C35.6285 4.66277 34.9435 3.97349 34.1187 3.48867C33.2939 3.00384 32.3574 2.73995 31.4001 2.72266C30.9077 2.7231 30.418 2.7939 29.9458 2.93292C26.5765 3.92347 25.6385 6.71802 25.1889 8.05719C24.7393 9.39636 24.3618 10.6304 24.0121 11.9308L23.8456 12.5561C23.6643 12.5561 23.4793 12.5561 23.2906 12.5561C22.4677 12.5568 21.6478 12.6552 20.8483 12.8494C20.0844 13.0291 19.3681 13.3705 18.7482 13.8504C18.1283 14.3303 17.6192 14.9376 17.2554 15.6309C16.8916 16.3243 16.6816 17.0875 16.6398 17.8689C16.5979 18.6503 16.7251 19.4315 17.0128 20.1595C18.2673 23.3678 19.7513 26.482 21.4533 29.4784C15.6022 31.7428 10.4765 35.5467 6.6219 40.485C0.0554656 49.0347 -1.80957 60.4066 1.87607 69.4377C2.67713 71.5057 3.89355 73.3888 5.45071 74.9714C6.59414 79.9518 9.85238 84.6887 14.5927 88.1418C19.5883 91.7664 25.8938 93.7198 33.3928 93.9577C33.9478 93.9577 34.5029 93.9854 35.058 93.9854C37.9658 93.9758 40.8704 93.791 43.7559 93.432C46.8868 93.0745 49.9947 92.5387 53.0643 91.8272C60.4245 90.0952 66.2694 87.1125 70.4268 82.9732C73.0173 80.4254 75.0392 77.3611 76.3605 73.9809C77.0309 72.2537 77.4858 70.4509 77.7148 68.6131C77.7964 67.9687 77.8428 67.3203 77.8536 66.6708C78.2177 65.8779 78.5311 65.0628 78.7917 64.2304C80.5679 58.431 79.974 51.7186 77.1154 45.3049Z" fill="#A0B5C5"/>
<path d="M79.319 42.5774C76.7047 36.8537 72.5557 31.961 67.3296 28.4386C62.0391 24.9714 55.9354 22.9348 49.6174 22.5286C49.8997 21.069 50.0538 19.5878 50.0781 18.1016C50.0918 16.9016 50.0288 15.7021 49.8894 14.5102L49.8505 14.2003C49.7743 12.7504 49.3539 11.3394 48.6238 10.0832C48.1037 9.23799 47.375 8.53986 46.5073 8.05546C45.6395 7.57106 44.6616 7.31656 43.6671 7.31627C42.6905 7.32522 41.7279 7.54814 40.8473 7.96925C40.1638 6.17934 39.3224 4.45343 38.3329 2.8118C37.8517 1.98605 37.1654 1.29772 36.34 0.813109C35.5147 0.328502 34.578 0.0639481 33.6203 0.0449219C33.1281 0.0461199 32.6384 0.116905 32.1661 0.255191C28.8024 1.24573 27.8588 4.04029 27.4091 5.37946C26.9595 6.71863 26.5877 7.95265 26.2324 9.25309L26.0659 9.87287H25.5108C24.6879 9.87351 23.868 9.97196 23.0685 10.1662C22.3046 10.346 21.5884 10.6874 20.9683 11.1672C20.3483 11.6471 19.8389 12.2541 19.4747 12.9473C19.1105 13.6405 18.8999 14.4036 18.8572 15.185C18.8146 15.9664 18.9408 16.7478 19.2275 17.4763C20.482 20.6845 21.966 23.7988 23.668 26.7951C17.8177 29.061 12.6924 32.8646 8.83662 37.8017C2.27018 46.3459 0.405153 57.7233 4.09635 66.7544C4.8953 68.8235 6.11197 70.707 7.67098 72.2881C8.80886 77.2685 12.0671 82.0109 16.8074 85.464C21.803 89.0886 28.1141 91.042 35.613 91.28C36.1681 91.28 36.7232 91.28 37.2782 91.28C40.1861 91.271 43.0907 91.0862 45.9761 90.7266C49.1118 90.3818 52.2253 89.8589 55.3013 89.1606C62.6614 87.4285 68.5007 84.4458 72.6637 80.3065C75.2523 77.7604 77.2725 74.698 78.5919 71.3197C79.2614 69.5923 79.7162 67.7896 79.9462 65.952C80.0304 65.3078 80.0767 64.6592 80.085 64.0096C80.4515 63.2178 80.7649 62.4025 81.023 61.5692C82.7771 55.7256 82.1776 49.0131 79.319 42.5774Z" fill="white"/>
<path d="M43.2952 14.354C43.2952 14.2766 43.2619 14.1106 43.2342 13.9501C42.9011 14.188 42.4904 14.5643 42.3294 14.6861C41.8409 15.0568 41.3525 15.4387 40.8807 15.8371C39.9121 16.6335 39.0519 17.5525 38.3218 18.5708C37.8445 19.2459 36.5401 19.0301 36.479 18.1336C36.2463 14.4093 35.2388 10.774 33.5205 7.45898C33.3817 7.87955 33.243 8.3001 33.1098 8.7262C32.7915 9.72228 32.5029 10.7276 32.2439 11.7421C31.7199 13.7611 31.3011 15.8058 30.9894 17.868C30.9576 18.0843 30.8575 18.2849 30.7037 18.4407C30.5499 18.5965 30.3503 18.6995 30.1338 18.7346C29.9174 18.7698 29.6953 18.7353 29.4999 18.6362C29.3044 18.5371 29.1457 18.3785 29.0467 18.1834C28.6926 17.6264 28.2079 17.1636 27.6345 16.8349C27.0611 16.5061 26.4161 16.3213 25.7551 16.2964C26.8201 18.892 28.0474 21.4185 29.4297 23.861L30.4177 23.6507C32.2592 23.1491 34.1467 22.8339 36.0516 22.71C38.3737 22.4776 40.7061 22.3612 43.0399 22.3614C43.3691 20.9522 43.555 19.5135 43.595 18.0672C43.6107 17.243 43.5736 16.4186 43.484 15.5991C43.4229 15.1896 43.3674 14.7746 43.2952 14.354Z" fill="#EFCA63"/>
<path d="M61.2737 32.5598C46.5201 24.6576 21.4366 29.2064 12.5444 44.1088C10.4717 47.555 9.26086 51.4478 9.01419 55.4585C8.80882 59.1717 9.32502 63.488 11.573 66.5814C12.0985 67.3269 12.7852 67.9453 13.5824 68.3909C14.359 68.7434 15.1948 68.948 16.0469 68.9941C16.9317 69.0826 17.776 69.4082 18.4903 69.9362C19.2046 70.4642 19.7624 71.1751 20.1044 71.9934C20.6983 73.2606 20.9981 74.8599 21.9805 75.9002C23.1517 77.1343 24.9335 76.4923 26.3045 75.9998C28.0474 75.38 29.8347 74.5832 31.7331 74.7492C33.7258 74.9208 35.3743 76.0441 36.9785 77.1398C38.4484 78.2462 40.1603 78.9896 41.9741 79.309C43.6335 79.5349 45.3228 79.3817 46.9142 78.8608C48.5837 78.3296 50.0868 77.3764 51.277 76.0939C51.9819 75.3303 52.5314 74.4338 53.2863 73.7033C53.9534 73.0722 54.751 72.5943 55.6231 72.3033C57.5881 71.6392 59.6751 72.0598 61.6678 71.6503C63.0222 71.3681 65.1425 70.2115 64.5042 68.5569C64.4526 68.3877 64.4424 68.2085 64.4746 68.0345C64.5067 67.8605 64.5802 67.6967 64.6889 67.5569C64.7977 67.417 64.9384 67.3052 65.0995 67.2308C65.2605 67.1564 65.437 67.1216 65.6144 67.1292C71.2261 67.8375 74.6397 61.5955 75.1615 56.8254C76.2605 46.848 69.8828 37.186 61.2737 32.5598ZM51.7266 57.1685C50.2001 58.9835 47.8411 60.0128 45.6208 60.7488C43.1656 61.6091 40.5481 61.9097 37.9609 61.6287C35.6629 61.3354 33.2817 60.5219 31.8552 58.6294C31.2684 57.8095 30.8588 56.8771 30.6524 55.8912C30.446 54.9052 30.4473 53.8873 30.6562 52.9019C31.0853 50.8601 32.3063 49.07 34.0532 47.9215C34.5093 47.6084 34.9901 47.3327 35.4909 47.097C37.3968 45.7282 39.6124 44.85 41.9408 44.5404C44.5353 44.1197 47.1959 44.6107 49.4675 45.9294C53.2142 48.2812 54.735 53.577 51.7266 57.1685Z" fill="#D6838D"/>
<path d="M46.3869 46.6165C42.4737 45.5097 37.2672 46.8378 34.1755 49.4609C33.4247 50.0788 32.8272 50.8612 32.4295 51.7472C32.0319 52.6331 31.8449 53.5987 31.883 54.5685C31.9157 55.4666 32.1651 56.3436 32.6102 57.1251C32.9841 56.499 33.4585 55.9381 34.0145 55.465C35.7409 53.7219 37.7751 52.3111 40.0148 51.3036C42.2456 50.2754 44.6629 49.7105 47.1196 49.6435C48.4279 49.5941 49.7312 49.8302 50.9385 50.3352C50.8824 50.2029 50.8194 50.0736 50.7498 49.9478C50.2836 49.1294 49.6571 48.4128 48.9077 47.8405C48.1582 47.2682 47.301 46.852 46.3869 46.6165Z" fill="#E5B074"/>
<path d="M66.8799 69.4316C66.8447 69.8804 66.7281 70.3192 66.5357 70.7265C65.6809 72.5305 63.5994 73.6594 61.6789 73.9139C59.664 74.1795 57.1995 73.7147 55.4066 74.8657C54.5296 75.4191 53.9468 76.3764 53.303 77.1733C52.6609 77.9445 51.9243 78.6324 51.1104 79.2208C49.5749 80.3406 47.8039 81.0975 45.9317 81.4343C43.9976 81.7994 42.006 81.7276 40.1035 81.224C38.0608 80.6706 36.44 79.4809 34.7027 78.3409C33.888 77.7414 32.9643 77.3053 31.9828 77.0571C31.0477 76.9215 30.0934 77.0223 29.2075 77.3504C27.3869 77.9038 25.594 78.8943 23.6568 78.8777C22.7705 78.8577 21.9068 78.5946 21.1606 78.1172C20.4145 77.6399 19.8147 76.9667 19.4272 76.1717C18.7056 74.827 18.467 73.0008 17.3624 71.8886C16.6297 71.147 15.4918 71.2079 14.5315 71.053C14.0279 70.9751 13.5357 70.8357 13.0662 70.6379C14.3539 75.5132 17.7676 79.42 22.1859 81.8991C27.1815 84.666 32.9764 85.3245 38.5937 85.164C44.3069 85.0399 49.9863 84.2544 55.5177 82.8233C60.7353 81.4232 65.7809 79.0382 69.4332 74.9764C71.1522 73.0992 72.4838 70.9029 73.352 68.513C73.7086 67.4875 73.9506 66.426 74.0735 65.3477C72.2585 67.622 69.794 69.332 66.8799 69.4316Z" fill="#F0D19D"/>
<path d="M44.8715 12.4281C43.6948 10.5854 41.5689 12.6771 40.481 13.5349C39.6986 14.1447 38.957 14.8046 38.2607 15.5104C37.7181 11.813 36.4486 8.2588 34.5251 5.05163C34.4276 4.84807 34.2671 4.68117 34.0672 4.57554C33.8673 4.46992 33.6386 4.43118 33.415 4.46505C32.266 4.80814 31.9607 5.7046 31.611 6.75602C31.2039 7.95131 30.8339 9.15952 30.5009 10.3806C30.0346 12.1072 29.6627 13.8558 29.3352 15.6156C28.6139 15.0361 27.7698 14.6278 26.8668 14.4216C25.9637 14.2155 25.0255 14.2169 24.1231 14.4258C23.9715 14.4547 23.8283 14.5172 23.7041 14.6086C23.5799 14.6999 23.4778 14.818 23.4053 14.9539C23.3329 15.0898 23.292 15.2402 23.2856 15.394C23.2791 15.5477 23.3074 15.701 23.3682 15.8425C24.6474 19.1509 26.186 22.3538 27.9697 25.4214C28.0674 25.6245 28.2281 25.7908 28.4282 25.8954C28.6282 26.0001 28.8568 26.0376 29.0799 26.0024C30.7451 25.604 32.4103 25.2775 34.1254 25.034C34.7326 24.9627 35.335 24.8555 35.9294 24.7131H36.1181C38.6502 24.4604 41.1947 24.3514 43.7392 24.3866C43.9605 24.4046 44.1818 24.3522 44.3714 24.2368C44.5609 24.1215 44.7088 23.9492 44.7938 23.7447C45.3145 21.8918 45.5943 19.9799 45.6264 18.056C45.6394 17.0464 45.5856 16.0371 45.4654 15.0345C45.3711 14.1989 45.3211 13.142 44.8715 12.4281ZM43.0454 22.3889C40.7116 22.3887 38.3792 22.505 36.0571 22.7375C34.1521 22.8614 32.2646 23.1766 30.4232 23.6783L29.4351 23.8885C28.048 21.4374 26.817 18.9016 25.7495 16.2962C26.4105 16.3212 27.0554 16.506 27.6289 16.8347C28.2023 17.1634 28.6869 17.6262 29.041 18.1832C29.14 18.3783 29.2988 18.5369 29.4942 18.636C29.6897 18.7351 29.9118 18.7696 30.1282 18.7345C30.3446 18.6993 30.5442 18.5964 30.6981 18.4405C30.8519 18.2847 30.952 18.0841 30.9838 17.8678C31.2955 15.8056 31.7142 13.7609 32.2382 11.7419C32.5009 10.7274 32.7896 9.72211 33.1041 8.72603C33.2373 8.29993 33.3761 7.87938 33.5149 7.45881C35.2327 10.7777 36.2384 14.4168 36.4678 18.1445C36.5289 19.041 37.8333 19.2513 38.3106 18.5817C39.0407 17.5634 39.9009 16.6444 40.8695 15.848C41.3413 15.4496 41.8298 15.0677 42.3182 14.697C42.4792 14.5752 42.8733 14.1989 43.223 13.961C43.2507 14.1215 43.2729 14.2875 43.284 14.3649C43.3562 14.7744 43.4117 15.1895 43.4561 15.599C43.5458 16.4185 43.5828 17.2428 43.5671 18.067C43.5381 19.5122 43.3633 20.9509 43.0454 22.3612V22.3889Z" fill="#D47939"/>
<path d="M75.2615 44.3971C72.9931 39.4229 69.3845 35.1739 64.8374 32.1232C59.8418 28.7365 53.7971 27.093 47.7968 26.8495C44.2163 26.7218 40.634 27.0434 37.134 27.8069C35.6076 28.1333 34.1033 28.5484 32.6157 29.0243C24.6148 30.0249 17.3316 34.1286 12.3447 40.446C7.18259 47.1639 4.91236 56.9919 8.1928 65.0324C8.89564 66.9525 10.1268 68.6364 11.7452 69.8911C12.3558 74.7718 15.503 78.972 19.4107 81.8163C24.1121 85.2362 29.9903 86.603 35.7352 86.7967C38.9722 86.8661 42.2099 86.6941 45.4211 86.2821C48.3905 85.9541 51.3389 85.4589 54.2522 84.799C59.8029 83.4875 65.3869 81.2132 69.4999 77.1182C71.6435 75.0043 73.3204 72.4673 74.4234 69.6697C74.9698 68.2818 75.3426 66.8322 75.5335 65.3534C75.643 64.5744 75.6672 63.7858 75.6057 63.0016C76.0801 62.108 76.4704 61.1725 76.7713 60.207C78.3421 55.0274 77.4263 49.2502 75.2615 44.3971ZM73.341 68.4966C72.4728 70.8865 71.1412 73.0828 69.4222 74.96C65.7699 79.0218 60.7243 81.4068 55.5067 82.8069C49.9753 84.238 44.2959 85.0235 38.5827 85.1476C32.9654 85.3081 27.1483 84.6662 22.1749 81.8827C17.7344 79.4036 14.3429 75.4968 13.0552 70.6215C13.5247 70.8193 14.0169 70.9587 14.5206 71.0366C15.4808 71.1915 16.6187 71.1306 17.3514 71.8722C18.4615 72.9789 18.6947 74.8106 19.4163 76.1553C19.8037 76.9503 20.4035 77.6235 21.1496 78.1009C21.8958 78.5782 22.7595 78.8414 23.6459 78.8613C25.5941 78.8613 27.387 77.8929 29.1965 77.334C30.0824 77.0059 31.0367 76.9051 31.9719 77.0407C32.9533 77.2889 33.8771 77.725 34.6917 78.3245C36.429 79.4645 38.0498 80.6542 40.0925 81.2076C41.995 81.7112 43.9866 81.783 45.9207 81.4179C47.793 81.0811 49.5639 80.3242 51.0995 79.2044C51.9133 78.616 52.6499 77.9281 53.292 77.1569C53.9358 76.36 54.5187 75.4138 55.3957 74.8493C57.1885 73.6983 59.653 74.1631 61.6679 73.8975C63.5885 73.643 65.67 72.5141 66.5248 70.7101C66.7172 70.3028 66.8338 69.864 66.8689 69.4152C69.783 69.3156 72.2475 67.6056 74.0515 65.3147C73.9333 66.3982 73.695 67.4654 73.341 68.4966ZM75.1505 56.8259C74.6287 61.5738 71.2151 67.8381 65.6033 67.1297C65.426 67.1221 65.2495 67.1569 65.0885 67.2313C64.9275 67.3057 64.7867 67.4175 64.678 67.5574C64.5692 67.6972 64.4957 67.861 64.4636 68.035C64.4314 68.209 64.4416 68.3882 64.4932 68.5575C65.1315 70.2176 63.0112 71.3686 61.6568 71.6508C59.6641 72.0603 57.5771 71.6508 55.6121 72.3038C54.74 72.5948 53.9424 73.0727 53.2753 73.7038C52.5204 74.4232 51.9709 75.3308 51.266 76.0944C50.0758 77.3769 48.5727 78.3301 46.9031 78.8613C45.3118 79.3822 43.6225 79.5355 41.9631 79.3095C40.1493 78.9901 38.4374 78.2467 36.9675 77.1403C35.3633 76.0335 33.7148 74.9268 31.7221 74.7497C29.8238 74.5837 28.0364 75.3806 26.2935 76.0003C24.9225 76.4929 23.1408 77.1348 21.9696 75.9007C20.9871 74.8604 20.6874 73.2611 20.0934 71.9939C19.7514 71.1756 19.1937 70.4647 18.4793 69.9367C17.765 69.4087 16.9207 69.0831 16.0359 68.9946C15.1839 68.9485 14.348 68.7439 13.5714 68.3914C12.7742 67.9458 12.0876 67.3274 11.5621 66.5819C9.31404 63.4885 8.78672 59.1722 9.0032 55.459C9.24986 51.4483 10.4607 47.5555 12.5334 44.1093C21.4145 29.2069 46.5091 24.6581 61.2627 32.5603C69.8829 37.1866 76.2606 46.8485 75.1505 56.8259Z" fill="#512627"/>
<path d="M49.4232 45.9243C47.1516 44.6056 44.4911 44.1146 41.8965 44.5353C39.5682 44.8449 37.3526 45.7231 35.4466 47.0919C34.9459 47.3276 34.4651 47.6033 34.009 47.9164C32.2621 49.0648 31.0411 50.855 30.612 52.8968C30.4031 53.8822 30.4018 54.9002 30.6082 55.8861C30.8146 56.872 31.2241 57.8044 31.811 58.6243C33.2597 60.5334 35.6409 61.3303 37.9167 61.6236C40.513 61.9089 43.1404 61.6081 45.6044 60.7437C47.8246 60.0077 50.1781 58.9784 51.7101 57.1633C54.7352 53.5775 53.2143 48.2817 49.4232 45.9243ZM51.0884 54.7451C50.278 56.538 48.413 57.6227 46.6812 58.3863C44.7277 59.26 42.6378 59.7917 40.5033 59.9579C38.3996 60.1018 36.0628 59.8694 34.1977 58.7737C33.9779 58.6363 33.7699 58.4808 33.5761 58.3088C33.6482 57.5396 34.1922 57.0527 34.7306 56.5159C35.3879 55.8502 36.099 55.2395 36.8565 54.6898C38.3838 53.5858 40.0674 52.7148 41.8521 52.1055C43.5479 51.4985 45.3297 51.1641 47.1308 51.115C48.7174 51.0239 50.2792 51.5384 51.4992 52.5537C51.5407 53.3072 51.4038 54.0597 51.0995 54.7506L51.0884 54.7451ZM50.933 50.3181C49.7257 49.8131 48.4224 49.577 47.1141 49.6264C44.6574 49.6934 42.2401 50.2583 40.0093 51.2865C37.7696 52.294 35.7355 53.7048 34.009 55.4479C33.4531 55.9211 32.9787 56.4819 32.6047 57.108C32.1597 56.3265 31.9103 55.4495 31.8776 54.5514C31.8394 53.5816 32.0264 52.616 32.4241 51.7301C32.8217 50.8441 33.4192 50.0617 34.17 49.4438C37.2562 46.8208 42.4627 45.4816 46.3815 46.5994C47.2956 46.8329 48.1533 47.2471 48.9037 47.8175C49.6541 48.3879 50.2819 49.1027 50.7498 49.9197C50.8219 50.0507 50.8867 50.1856 50.9441 50.3236L50.933 50.3181Z" fill="#512627"/>
<path d="M74.5122 48.9796C74.4123 49.5717 74.3068 50.1638 74.1736 50.7559C73.3743 54.3694 71.5981 58.7024 68.4619 60.9491C66.6635 62.2385 64.3655 61.923 62.6448 63.1903C60.6466 64.6678 59.9861 67.3572 57.3606 68.0821C55.6177 68.5635 54.4965 67.5287 52.8757 67.4402C50.9607 67.3406 49.9616 69.0118 48.5462 70.0521C47.1307 71.0925 45.1769 72.1051 43.273 72.0111C41.247 71.917 40.0425 70.2403 38.0221 69.9691C34.8471 69.5485 30.895 72.1826 28.0309 70.2237C26.6488 69.2774 26.4434 68.1374 24.7005 67.6117C23.3794 67.2078 22.1638 67.0583 20.9593 66.3334C17.8843 64.463 16.7852 60.3182 15.8749 57.0146C14.8458 53.5697 14.941 49.8879 16.1469 46.5004C17.4828 42.2319 19.5485 38.2256 22.2526 34.6582C18.276 36.9703 14.9306 40.2219 12.5112 44.1265C10.4385 47.5727 9.22766 51.4654 8.98099 55.4762C8.77562 59.1893 9.29182 63.5057 11.5398 66.5991C12.0653 67.3446 12.752 67.9629 13.5492 68.4086C14.3258 68.7611 15.1616 68.9656 16.0137 69.0118C16.8985 69.1003 17.7428 69.4258 18.4571 69.9539C19.1714 70.4819 19.7292 71.1927 20.0712 72.0111C20.6651 73.2783 20.9649 74.8776 21.9473 75.9179C23.1185 77.1519 24.9003 76.51 26.2713 76.0175C28.0142 75.3977 29.8015 74.6009 31.6999 74.7669C33.6926 74.9384 35.3411 76.0618 36.9453 77.1575C38.4152 78.2639 40.1271 79.0072 41.9409 79.3267C43.6003 79.5526 45.2896 79.3993 46.881 78.8785C48.5505 78.3473 50.0536 77.394 51.2438 76.1116C51.9487 75.3479 52.4982 74.4515 53.2531 73.721C53.9202 73.0899 54.7178 72.612 55.5899 72.321C57.5549 71.6569 59.6419 72.0775 61.6346 71.668C62.989 71.3858 65.1093 70.2292 64.471 68.5746C64.4194 68.4053 64.4092 68.2262 64.4414 68.0522C64.4735 67.8782 64.547 67.7144 64.6557 67.5745C64.7645 67.4347 64.9052 67.3229 65.0663 67.2485C65.2273 67.1741 65.4038 67.1392 65.5812 67.1469C71.1929 67.8552 74.6065 61.6131 75.1283 56.843C75.4119 54.2064 75.203 51.5403 74.5122 48.9796Z" fill="#CC5764"/>
<path d="M60.036 35.2225C59.9011 34.9303 59.7129 34.6657 59.4809 34.4422L59.1701 34.1434L58.9925 33.994L58.8925 33.8833C58.7209 33.6431 58.5195 33.4256 58.2931 33.2359C58.0276 33.0477 57.7407 32.8917 57.4383 32.771C56.8443 32.5054 56.2393 32.2564 55.6287 32.0184C51.7306 30.5067 47.5456 29.8718 43.3729 30.1591C41.04 30.3269 38.7292 30.7217 36.4734 31.3378C35.3724 31.6216 34.2883 31.9671 33.2262 32.3726C32.2493 32.7544 30.8561 33.1307 30.3066 34.1047C30.2583 34.1896 30.2299 34.2844 30.2235 34.3818C30.2172 34.4793 30.233 34.5769 30.2699 34.6674C30.3067 34.7579 30.3636 34.8389 30.4363 34.9043C30.509 34.9698 30.5956 35.018 30.6896 35.0454C31.6388 35.311 32.6934 34.8185 33.6037 34.5916C34.514 34.3647 35.6019 34.1323 36.6122 33.9774C38.5511 33.7192 40.5115 33.6599 42.4626 33.8003C44.3947 33.9349 46.3135 34.2179 48.202 34.647C50.17 35.036 52.1012 35.5914 53.9746 36.3071L54.7129 36.6004L54.9793 36.7166L55.7009 37.0486C55.974 37.1837 56.2659 37.2769 56.5668 37.3253C56.5668 37.3253 56.8166 37.3253 56.9554 37.3253C56.9221 37.3253 57.1496 37.3253 57.1663 37.3253C57.3106 37.3253 57.4605 37.3807 57.6048 37.4139C57.8955 37.4914 58.1928 37.5414 58.4929 37.5633C58.8026 37.5693 59.1094 37.5023 59.3881 37.3677C59.6669 37.233 59.9098 37.0346 60.097 36.7885C60.206 36.5398 60.2572 36.2697 60.2466 35.9985C60.236 35.7273 60.164 35.462 60.036 35.2225Z" fill="#E5B4BE"/>
<path d="M67.3797 41.1057C67.3567 40.4721 67.1332 39.8619 66.7413 39.3626C66.6525 39.2243 66.5582 39.0859 66.4582 38.9586C66.2374 38.6385 65.9677 38.3547 65.6589 38.1175C65.3415 37.8754 64.9991 37.6677 64.6376 37.4977C64.3971 37.3785 64.1412 37.2928 63.8772 37.2432C63.6949 37.1994 63.5092 37.1716 63.3221 37.1602C63.1559 37.1687 62.9907 37.1909 62.8281 37.2266C62.5263 37.3111 62.2694 37.5096 62.1121 37.7799C61.964 38.0622 61.9207 38.3876 61.99 38.6985C62.0474 38.9252 62.1312 39.1443 62.2397 39.3515C62.2926 39.5013 62.3595 39.6459 62.4396 39.7832C62.5062 39.8994 62.5783 40.0211 62.6394 40.1429C62.7615 40.3753 62.8614 40.6243 63.0002 40.8512C63.1389 41.0781 63.311 41.2939 63.4442 41.5263C63.5164 41.648 63.5775 41.7753 63.6496 41.8971C63.7747 42.1258 63.9402 42.3301 64.1381 42.5002L64.2269 42.6164L64.2768 42.6773C64.5198 42.9893 64.8562 43.2161 65.2371 43.3248C65.6058 43.4289 65.9998 43.3974 66.3472 43.2362C66.689 43.1001 66.976 42.8549 67.1632 42.539C67.4063 42.1029 67.4831 41.5939 67.3797 41.1057Z" fill="#E5B4BE"/>
<path d="M43.2951 14.3551C43.2951 14.2777 43.2618 14.1117 43.2341 13.9512C42.901 14.1891 42.4903 14.5654 42.3293 14.6872C42.0795 14.8753 41.8353 15.0801 41.5911 15.2737C42.7734 16.7347 43.1397 18.7877 43.3229 20.8628C43.4689 19.9342 43.5542 18.997 43.5782 18.0572C43.5939 17.233 43.5568 16.4087 43.4672 15.5892C43.4228 15.1907 43.3673 14.7757 43.2951 14.3551Z" fill="#FBE668"/>
<path d="M33.5204 7.45898C33.3816 7.87955 33.2428 8.3001 33.1096 8.7262C32.8265 9.61714 32.5545 10.5136 32.3325 11.4156C33.9478 11.886 35.2799 14.7359 36.3512 16.7391C35.9798 13.5002 35.0206 10.3556 33.5204 7.45898Z" fill="#FBE668"/>
<path d="M29.0799 18.1839C28.7258 17.6269 28.2411 17.1641 27.6677 16.8354C27.0943 16.5066 26.4493 16.3218 25.7883 16.2969C26.0659 16.9665 26.3434 17.6305 26.6431 18.289C27.6866 18.3278 28.7357 18.8424 29.6294 18.6542C29.4001 18.5606 29.2074 18.3956 29.0799 18.1839Z" fill="#FBE668"/>
<path d="M43.051 22.3177C40.9307 22.3857 38.8087 22.2579 36.7121 21.9359C34.2643 21.5485 30.6064 21.7256 27.8311 20.8789C28.3362 21.8861 28.8579 22.8821 29.413 23.8616L30.401 23.6513C32.2425 23.1497 34.13 22.8345 36.0349 22.7106C38.3571 22.4781 40.6894 22.3618 43.0232 22.3619C43.0232 22.3619 43.051 22.3343 43.051 22.3177Z" fill="#E1A159"/>
<path d="M74.0402 65.332C72.2363 67.623 69.7718 69.3329 66.8577 69.4325C66.8225 69.8814 66.7059 70.3201 66.5135 70.7274C65.6587 72.5315 63.5772 73.6603 61.6567 73.9149C59.6418 74.1805 57.1773 73.7157 55.3844 74.8667C54.5074 75.4201 53.9246 76.3774 53.2807 77.1743C52.6387 77.9455 51.9021 78.6334 51.0882 79.2218C49.5527 80.3416 47.7817 81.0985 45.9095 81.4353C43.9754 81.8004 41.9838 81.7286 40.0813 81.225C38.0386 80.6716 36.4178 79.4819 34.6804 78.3419C33.8658 77.7423 32.9421 77.3063 31.9606 77.0581C31.0255 76.9225 30.0711 77.0233 29.1853 77.3514C27.3647 77.9047 25.5718 78.8953 23.6346 78.8787C22.7483 78.8587 21.8846 78.5956 21.1384 78.1182C20.3922 77.6409 19.7925 76.9677 19.405 76.1727C18.6834 74.828 18.4448 73.0018 17.3402 71.8895C16.6075 71.148 15.4696 71.2089 14.5093 71.0539C14.0056 70.9761 13.5135 70.8367 13.0439 70.6389C14.3317 75.5141 17.7454 79.421 22.1637 81.9001C25.6937 83.7739 29.5932 84.8525 33.587 85.0599C33.9524 84.3998 34.5097 83.8654 35.1856 83.527C37.8166 82.2819 41.4967 83.0013 44.3331 82.7246C47.064 82.4535 49.5507 81.4187 52.0485 80.3728C53.9357 79.5815 55.1402 77.8937 56.9053 77.1688C58.9258 76.3332 61.2404 75.8628 63.3385 75.1655C66.1139 74.2469 67.0797 72.8026 68.7782 70.8049C69.8883 69.4879 72.1808 68.8294 73.6239 67.5179C73.8149 66.8001 73.954 66.0696 74.0402 65.332Z" fill="#E5B074"/>
<path d="M32.4104 36.5622C31.9271 36.3702 31.4097 36.2779 30.8896 36.291L29.0856 36.2578C28.8081 36.2578 28.5305 36.2578 28.2474 36.2578C28.0581 36.2352 27.866 36.252 27.6835 36.3073C27.501 36.3625 27.332 36.455 27.1873 36.5788C27.0889 36.6821 27.0262 36.814 27.0083 36.9554C26.9903 37.0967 27.018 37.24 27.0874 37.3646C27.4093 37.9179 28.1697 37.9179 28.7526 37.9622L30.3123 38.1338L31.0228 38.2168C30.5066 38.7978 29.9792 39.3678 29.4963 39.9876C29.1469 40.4066 28.8207 40.8444 28.5194 41.2991C28.2064 41.7256 28.0568 42.2497 28.0976 42.7766C28.0865 42.8796 28.0865 42.9835 28.0976 43.0865C28.1309 43.4462 28.475 43.8446 28.8858 43.6841C28.998 43.6392 29.1074 43.5874 29.2133 43.5292C29.8294 43.413 30.2956 42.7268 30.6287 42.2564L31.0783 41.62L31.3503 41.2603L31.4613 41.1109L31.5112 41.0445C31.8387 40.635 32.1773 40.2366 32.5159 39.8437C33.0334 39.3791 33.3614 38.7409 33.4373 38.0508C33.4286 37.7303 33.327 37.4192 33.1448 37.155C32.9626 36.8909 32.7075 36.685 32.4104 36.5622Z" fill="#512627"/>
<path d="M45.8152 37.5968C45.8129 37.5821 45.8129 37.5672 45.8152 37.5525C45.8094 37.4532 45.7927 37.3549 45.7653 37.2592C45.7109 37.0581 45.6165 36.8699 45.4878 36.7058C44.8605 35.9035 43.756 35.5991 42.8068 35.3335C42.287 35.2075 41.7608 35.1096 41.2304 35.0402L41.2748 34.9793C41.3414 34.8963 41.4025 34.8078 41.4635 34.7248L41.5912 34.5532L41.63 34.5034L41.7744 34.3208L42.013 34.0386C42.1796 33.8329 42.3352 33.6186 42.4793 33.3967C42.7679 32.965 43.2175 32.3176 42.7069 31.8417C42.1962 31.3658 41.5967 31.7255 41.1138 32.0409C40.6807 32.3409 40.2839 32.69 39.9315 33.0812C39.2563 33.8158 38.6575 34.6168 38.1442 35.4718C38.0437 35.6476 37.991 35.8464 37.9912 36.0487C37.9914 36.2511 38.0447 36.4498 38.1456 36.6253C38.2465 36.8009 38.3916 36.9471 38.5666 37.0495C38.7416 37.1519 38.9404 37.2071 39.1434 37.2094C39.6496 37.2095 40.1555 37.2372 40.6587 37.2924H40.7364H40.8752L41.2193 37.3477C41.4857 37.3976 41.7744 37.4584 42.0186 37.5193C42.2628 37.5802 42.4793 37.641 42.7013 37.713L42.9733 37.8015L43.1065 37.8513H43.1731L43.2619 37.8901L43.3896 37.9509L43.6394 38.0837C43.7227 38.128 44.1556 38.3162 43.9003 38.1944C44.0633 38.2823 44.2343 38.3545 44.4109 38.4102C44.5502 38.4503 44.6936 38.4744 44.8383 38.4822H44.8661C45.0212 38.5475 45.1943 38.5567 45.3555 38.5082C45.5166 38.4597 45.6557 38.3565 45.7486 38.2166C45.84 38.0716 45.8773 37.8992 45.8541 37.7296C45.8375 37.713 45.8263 37.6521 45.8152 37.5968Z" fill="#512627"/>
<path d="M39.5375 40.5065C39.527 40.4652 39.514 40.4245 39.4986 40.3848C39.4986 40.3073 39.4431 40.2354 39.4098 40.1634C39.3449 40.0572 39.2554 39.9681 39.1489 39.9033C39.1054 39.8631 39.0591 39.8261 39.0101 39.7926C38.9511 39.7558 38.8828 39.7363 38.8131 39.7363C38.7434 39.7363 38.6751 39.7558 38.616 39.7926H38.5772C38.4421 39.8392 38.319 39.9148 38.2164 40.014L38.1553 40.0638C38.1058 40.0943 38.0594 40.1295 38.0166 40.1689C37.9428 40.2452 37.8793 40.3308 37.8279 40.4235C37.7779 40.512 37.7224 40.595 37.6669 40.6836L37.5947 40.7777C37.5392 40.8441 37.4726 40.9049 37.4116 40.9658L37.3116 41.0267L37.2006 41.0875L36.9564 41.1539H36.8509C36.751 41.1539 36.6511 41.1539 36.5512 41.1539H36.3958C36.3137 41.132 36.2302 41.1154 36.146 41.1041L36.0294 41.0654C35.9104 41.0026 35.786 40.9508 35.6575 40.9105C35.7519 40.9437 35.6575 40.9105 35.6242 40.9105L35.5077 40.833C35.4272 40.788 35.3353 40.7675 35.2432 40.774C35.1512 40.7805 35.0631 40.8138 34.9898 40.8698C34.9166 40.9257 34.8614 41.0019 34.8311 41.0888C34.8008 41.1757 34.7967 41.2695 34.8194 41.3587C34.8911 41.6441 35.0279 41.9092 35.219 42.1334C35.4126 42.3334 35.6353 42.5032 35.8796 42.637C36.1603 42.7927 36.4693 42.891 36.7886 42.9262C37.1079 42.9614 37.431 42.9327 37.739 42.8418C38.377 42.65 38.9296 42.2456 39.3043 41.6963C39.4251 41.5255 39.5082 41.3312 39.5484 41.1262C39.5886 40.9212 39.5848 40.71 39.5375 40.5065Z" fill="#512627"/>
<path d="M30.1234 45.2052C30.1129 45.0505 30.0653 44.9006 29.9846 44.768L29.8014 44.5356C29.6569 44.3948 29.4795 44.2921 29.2852 44.2368C29.0648 44.1815 28.834 44.1815 28.6136 44.2368H28.5414L28.3804 44.2755C28.1715 44.3273 27.9701 44.4054 27.781 44.5079L27.6367 44.5909C27.4956 44.6755 27.3619 44.7717 27.237 44.8787C27.1926 44.9174 27.1482 44.9506 27.1038 44.9949C26.9312 45.1652 26.8051 45.3767 26.7375 45.6092C26.7051 45.7414 26.6884 45.877 26.6875 46.0131L26.7375 46.3562C26.7742 46.5218 26.8547 46.6747 26.9706 46.7989C27.0272 46.893 27.1051 46.9726 27.1982 47.0313C27.3255 47.1429 27.4778 47.2226 27.6422 47.2637C27.7163 47.2853 27.7927 47.2983 27.8698 47.3025C28.0514 47.3524 28.2432 47.3524 28.4249 47.3025C28.5482 47.2675 28.6673 47.2193 28.7801 47.1586L28.9133 47.0811C29.1003 46.9596 29.2767 46.8226 29.4406 46.6716C29.5927 46.5271 29.7252 46.3634 29.8347 46.1846C29.9682 46.0376 30.0651 45.8613 30.1178 45.67C30.1612 45.5183 30.1631 45.3579 30.1234 45.2052Z" fill="#E5B4BE"/>
<path d="M48.5518 38.7538C48.4984 38.5883 48.4028 38.4396 48.2743 38.3222C48.1071 38.1574 47.9009 38.0375 47.6748 37.9735C47.6026 37.9459 47.5249 37.9127 47.4472 37.8905C47.1201 37.8021 46.7752 37.8021 46.4481 37.8905C46.1493 37.9798 45.8594 38.0965 45.5822 38.2392L45.3435 38.3443C45.1547 38.4403 44.9824 38.5654 44.8328 38.715C44.5455 38.9254 44.3334 39.2222 44.2278 39.5617C44.1723 39.7682 44.1718 39.9855 44.2263 40.1922C44.2808 40.3989 44.3885 40.5879 44.5387 40.7404C44.6955 40.8936 44.8854 41.009 45.0937 41.078C45.2361 41.1113 45.3808 41.1335 45.5267 41.1444H45.782C46.0013 41.1627 46.2222 41.1478 46.437 41.1001L46.7201 41.0337L47.0032 40.9673C47.2144 40.9167 47.4192 40.8424 47.6137 40.7459C47.8007 40.6543 47.9713 40.5328 48.1188 40.3863C48.2508 40.2407 48.3662 40.0811 48.463 39.9103C48.5654 39.7371 48.6266 39.5428 48.642 39.3423C48.6574 39.1419 48.6265 38.9405 48.5518 38.7538Z" fill="#E5B4BE"/>
<path d="M22.9298 40.4908C22.8606 40.1983 22.7424 39.9195 22.5801 39.6663C22.4769 39.5151 22.3638 39.3709 22.2415 39.2347C22.0698 39.0703 21.8411 38.9785 21.6031 38.9785C21.3652 38.9785 21.1364 39.0703 20.9648 39.2347C20.8565 39.3471 20.776 39.4832 20.7298 39.6321C20.6835 39.781 20.6728 39.9386 20.6984 40.0924C20.707 40.2938 20.7349 40.4939 20.7816 40.69C20.855 40.9513 20.9088 41.2177 20.9426 41.4869L20.9037 41.1991C20.9296 41.4434 20.9723 41.6856 21.0314 41.9241C21.0644 42.0687 21.1167 42.2083 21.1868 42.3391C21.2331 42.4224 21.2931 42.4972 21.3645 42.5604L21.42 42.66C21.4827 42.7808 21.5774 42.882 21.6939 42.9526C21.8104 43.0233 21.9441 43.0607 22.0805 43.0607C22.2169 43.0607 22.3506 43.0233 22.4671 42.9526C22.5836 42.882 22.6783 42.7808 22.741 42.66C22.778 42.5983 22.8096 42.5335 22.8354 42.4664C23.2739 41.9517 23.1129 41.0995 22.9298 40.4908Z" fill="#FBE668"/>
<path d="M17.2014 47.7572C17.113 47.7312 17.0216 47.7163 16.9294 47.7129C16.7503 47.7287 16.5764 47.7815 16.4188 47.8678C16.2515 47.951 16.098 48.0593 15.9636 48.1888C15.7582 48.3714 15.5362 48.5374 15.342 48.7422C15.1477 48.9469 14.9812 49.124 14.7869 49.2956C14.6412 49.4278 14.5208 49.5853 14.4316 49.7604C14.3928 49.8489 14.3484 49.9375 14.3095 50.0315C14.2743 50.1221 14.2519 50.2171 14.2429 50.3138C14.2206 50.3583 14.2021 50.4045 14.1874 50.4521C14.1709 50.5548 14.1709 50.6594 14.1874 50.762C14.1932 50.8739 14.2329 50.9814 14.3013 51.0704C14.3696 51.1593 14.4635 51.2254 14.5704 51.26C14.7517 51.3126 14.9442 51.3126 15.1255 51.26H15.2531C15.3472 51.2479 15.4388 51.2218 15.5251 51.1826C15.6886 51.1264 15.8436 51.0482 15.9858 50.9501C16.0709 50.8844 16.1525 50.8142 16.2301 50.7399C16.502 50.5038 16.7527 50.2446 16.9794 49.9651C17.1459 49.7493 17.3124 49.528 17.4734 49.3011C17.5851 49.1334 17.6624 48.9453 17.701 48.7477C17.763 48.5502 17.7455 48.3365 17.6523 48.1516C17.5591 47.9668 17.3974 47.8253 17.2014 47.7572Z" fill="#FBE668"/>
<path d="M27.3093 58.4423C27.2139 58.2856 27.1003 58.1407 26.9707 58.0106C26.8243 57.8563 26.6625 57.7172 26.4878 57.5956C26.3824 57.5237 26.2713 57.4573 26.1603 57.3909L25.8384 57.1861C25.6639 57.0742 25.4778 56.9815 25.2833 56.9094L24.917 56.7711C24.7374 56.7153 24.5469 56.7039 24.3619 56.7379C24.2545 56.7395 24.1489 56.7653 24.0528 56.8132C23.9567 56.8611 23.8726 56.9299 23.8069 57.0146C23.7389 57.0999 23.692 57.1999 23.6698 57.3066C23.6477 57.4132 23.6509 57.5236 23.6792 57.6288L23.7125 57.7838C23.7622 57.9596 23.8536 58.1209 23.9789 58.2541L24.2343 58.564C24.4023 58.7495 24.5883 58.9182 24.7893 59.0676L25.1057 59.3221C25.259 59.4456 25.4246 59.5531 25.5997 59.6431C25.7706 59.7264 25.9467 59.7985 26.127 59.8589C26.3165 59.9199 26.5204 59.9199 26.7099 59.8589C26.8092 59.854 26.9062 59.8278 26.9944 59.7819C27.0825 59.7361 27.1597 59.6717 27.2205 59.5933C27.2969 59.4888 27.3465 59.3672 27.3648 59.2391V59.2004C27.4077 59.0769 27.4248 58.946 27.4153 58.8156C27.4058 58.6853 27.3697 58.5583 27.3093 58.4423Z" fill="#FBE668"/>
<path d="M16.7964 63.0074C16.6575 62.9233 16.4982 62.8789 16.3357 62.8789C16.1733 62.8789 16.0139 62.9233 15.875 63.0074C15.6937 63.1114 15.529 63.242 15.3866 63.3947C15.2298 63.5678 15.0869 63.7528 14.9592 63.9481C14.8355 64.1455 14.7367 64.3574 14.665 64.5789C14.6114 64.7991 14.5742 65.0229 14.554 65.2485C14.5478 65.3623 14.5653 65.4761 14.6054 65.5828C14.6455 65.6894 14.7074 65.7867 14.7871 65.8683C14.8523 66.009 14.9668 66.1212 15.109 66.1837C15.2172 66.2231 15.3329 66.2383 15.4476 66.228C15.5671 66.2476 15.6889 66.2476 15.8084 66.228C15.9736 66.181 16.1244 66.0935 16.2469 65.9734C16.5319 65.7293 16.7642 65.4299 16.9296 65.0936C17.026 64.8945 17.1041 64.687 17.1628 64.4738C17.2236 64.2597 17.2516 64.0377 17.246 63.8153C17.2499 63.6529 17.2103 63.4924 17.1313 63.3504C17.0523 63.2084 16.9367 63.09 16.7964 63.0074Z" fill="#FBE668"/>
<path d="M31.4944 72.5416C31.5937 72.3108 31.6113 72.0532 31.5444 71.8111C31.4961 71.6675 31.4348 71.5286 31.3612 71.3961C31.2611 71.2015 31.1211 71.0299 30.9505 70.8925C30.7662 70.7323 30.5715 70.5844 30.3676 70.4498L30.0235 70.2561C29.6971 70.0861 29.3596 69.9382 29.0133 69.8134L28.8579 69.7525C28.6231 69.6919 28.3766 69.6919 28.1418 69.7525C27.9707 69.7661 27.8044 69.8151 27.6534 69.8964C27.5191 69.9737 27.4078 70.0851 27.3307 70.2193C27.2537 70.3534 27.2137 70.5055 27.2149 70.6601C27.2405 70.9129 27.3179 71.1578 27.4424 71.3795C27.5418 71.5573 27.6781 71.712 27.8421 71.8332C28.1252 72.0601 28.3972 72.2925 28.6858 72.5084C28.9744 72.7242 29.1243 72.8238 29.3574 72.9677C29.5439 73.0911 29.7535 73.1758 29.9735 73.2167C30.1248 73.2523 30.279 73.2745 30.4342 73.2831C30.6855 73.2819 30.9293 73.1983 31.1281 73.0451C31.3119 72.9318 31.4435 72.7509 31.4944 72.5416Z" fill="#FBE668"/>
<path d="M42.3238 64.4854C42.3238 64.419 42.2961 64.3526 42.2794 64.2917C42.2411 64.1577 42.1728 64.034 42.0798 63.93C41.9867 63.826 41.8713 63.7444 41.7421 63.6911C41.6129 63.6379 41.4732 63.6145 41.3337 63.6227C41.1941 63.6309 41.0582 63.6704 40.9362 63.7383L40.7808 63.838C40.5888 63.9629 40.4276 64.1293 40.309 64.3249C40.216 64.4464 40.1343 64.5761 40.0647 64.7123C39.8594 65.1716 39.5097 65.7083 39.7206 66.2285C39.7343 66.3064 39.7566 66.3825 39.7872 66.4554C39.8123 66.5183 39.842 66.5794 39.876 66.638C39.9441 66.7556 40.042 66.8533 40.1599 66.9213C40.2777 66.9892 40.4115 67.0252 40.5476 67.0254C40.7749 67.0217 40.9978 66.9628 41.1971 66.8538L40.9584 66.9534H41.0416C41.3144 66.8711 41.5474 66.6919 41.6966 66.4499L41.8187 66.2839C41.909 66.15 41.9888 66.0094 42.0574 65.8633C42.1633 65.6517 42.2452 65.4289 42.3016 65.1993C42.3633 64.9661 42.3709 64.7219 42.3238 64.4854Z" fill="#FBE668"/>
<path d="M49.6618 71.1192C49.4986 70.9845 49.3281 70.8589 49.1511 70.7429C49.09 70.6918 49.0251 70.6456 48.9568 70.6045C48.8855 70.5657 48.8113 70.5324 48.7348 70.5049L48.4961 70.3887C48.2741 70.2891 48.041 70.2172 47.819 70.1231L47.93 70.1673C47.7868 70.1072 47.6351 70.0698 47.4804 70.0567C47.2289 69.9392 46.944 69.9137 46.6755 69.9847C46.5712 70.0016 46.4714 70.0398 46.3826 70.0969C46.2937 70.154 46.2177 70.2289 46.1593 70.3168C46.1232 70.3708 46.0969 70.4307 46.0816 70.4938C45.9516 70.8152 45.9516 71.1742 46.0816 71.4955C46.1005 71.6904 46.1611 71.8791 46.2592 72.0488L46.3758 72.2314C46.513 72.4336 46.6732 72.6193 46.8531 72.7848L47.0308 72.9287C47.1473 73.0172 47.2639 73.1224 47.386 73.2054C47.5197 73.2756 47.6589 73.3349 47.8023 73.3825C47.945 73.4376 48.0915 73.482 48.2408 73.5153C48.4422 73.5567 48.65 73.5567 48.8514 73.5153C49.129 73.4785 49.3896 73.3611 49.6007 73.1777C49.6007 73.15 49.8671 72.8844 49.906 72.818C49.9049 72.8051 49.9049 72.7922 49.906 72.7793C49.9933 72.6073 50.0426 72.4185 50.0503 72.2259C50.0697 72.0244 50.045 71.8211 49.9779 71.63C49.9108 71.439 49.8029 71.2647 49.6618 71.1192Z" fill="#FBE668"/>
<path d="M49.6174 73.206C49.6174 73.206 49.6174 73.206 49.6838 73.1562L49.6174 73.206Z" fill="#FBE668"/>
<path d="M55.7732 58.1702C55.7732 58.0983 55.7732 58.0319 55.7732 57.96C55.773 57.8127 55.7346 57.6681 55.6616 57.54C55.5887 57.412 55.4837 57.305 55.3569 57.2295C55.2275 57.1533 55.0799 57.1131 54.9295 57.1133C54.7791 57.1126 54.6313 57.1527 54.5021 57.2295C54.2889 57.3129 54.0986 57.4457 53.947 57.6169C53.7154 57.8601 53.5476 58.1567 53.4586 58.4801C53.3785 58.768 53.3503 59.0678 53.3753 59.3655C53.409 59.7166 53.5734 60.0423 53.836 60.2786C54.0061 60.4464 54.235 60.5417 54.4744 60.5442C54.594 60.5452 54.7127 60.5222 54.8233 60.4766C54.9339 60.4309 55.0342 60.3636 55.1182 60.2786C55.212 60.1862 55.2957 60.0842 55.368 59.9743C55.4237 59.8761 55.4684 59.7722 55.5012 59.6644C55.5012 59.6312 55.5012 59.5924 55.5456 59.5537V59.5039C55.5456 59.3877 55.5789 59.2659 55.59 59.1497C55.59 59.2493 55.5623 59.3489 55.5512 59.4485C55.5722 59.3103 55.6019 59.1736 55.64 59.039C55.6834 58.867 55.7076 58.6907 55.7122 58.5133C55.7495 58.4026 55.7701 58.287 55.7732 58.1702Z" fill="#FBE668"/>
<path d="M67.0742 61.5186C66.9903 61.3211 66.8507 61.1522 66.6723 61.0323C66.494 60.9125 66.2846 60.8469 66.0695 60.8434C65.8543 60.8299 65.6383 60.8411 65.4256 60.8767C65.3146 60.8767 65.2036 60.9265 65.0926 60.9431L64.5375 61.015L64.8483 60.9707C64.7318 60.9707 64.6152 60.9707 64.4931 60.9984C64.2696 61.0067 64.0496 61.0554 63.8437 61.1423L63.6438 61.2308H63.6161C63.4766 61.2689 63.3531 61.3509 63.2641 61.4645C63.1751 61.5782 63.1253 61.7175 63.1221 61.8617C63.1598 62.2172 63.3185 62.5492 63.5717 62.8024C63.8528 63.0565 64.2018 63.2237 64.5764 63.2838C64.7827 63.338 64.9958 63.3622 65.2091 63.3558C65.409 63.3558 65.6088 63.3115 65.8031 63.2783C66.0126 63.2456 66.2152 63.1782 66.4025 63.0791C66.5679 62.969 66.7206 62.8409 66.8577 62.6972C67.0034 62.5422 67.1014 62.3487 67.1398 62.1396C67.1782 61.9306 67.1554 61.715 67.0742 61.5186Z" fill="#FBE668"/>
<path d="M70.8488 46.1524C70.7055 46.1161 70.5555 46.1159 70.4122 46.1516C70.2688 46.1873 70.1365 46.2579 70.0273 46.3571C69.9385 46.4291 69.8608 46.5176 69.7719 46.5951C69.5809 46.7909 69.4133 47.0082 69.2724 47.2425L68.8949 47.7959C68.7964 47.9288 68.7196 48.0763 68.6674 48.2331C68.6341 48.3438 68.6063 48.4544 68.5786 48.5651C68.5428 48.689 68.5315 48.8187 68.5453 48.9469C68.5453 48.9469 68.5453 49.0465 68.5453 49.0963C68.5453 49.1461 68.5453 49.1683 68.5453 49.1738C68.5603 49.3188 68.6321 49.4521 68.7451 49.5446C68.8241 49.6124 68.9206 49.6567 69.0237 49.6724C69.1268 49.688 69.2322 49.6744 69.3279 49.6331H69.3667C69.4974 49.6211 69.6232 49.5774 69.7331 49.5058L69.9607 49.3454C70.0888 49.2623 70.2047 49.1617 70.3048 49.0465C70.3603 48.9746 70.4158 48.8971 70.4658 48.8197L70.8155 48.2663L71.0264 47.9453C71.1177 47.7902 71.1903 47.6249 71.2429 47.4528C71.2988 47.3132 71.3416 47.1687 71.3705 47.0212C71.397 46.8386 71.3595 46.6526 71.2645 46.4944C71.1694 46.3361 71.0226 46.2154 70.8488 46.1524Z" fill="#FBE668"/>
<path d="M60.8186 48.1546C60.7397 48.0362 60.6525 47.9234 60.5578 47.8171C60.4441 47.7206 60.3256 47.6301 60.2025 47.5459C59.9604 47.3847 59.7061 47.2422 59.4421 47.1198C59.2645 47.0313 59.0646 46.9704 58.887 46.8929C58.7587 46.8323 58.6271 46.7788 58.4929 46.7324C58.3541 46.6937 58.2098 46.6716 58.0766 46.6439C57.9727 46.6122 57.8634 46.6021 57.7555 46.6145C57.6475 46.6269 57.5433 46.6614 57.4494 46.7158C57.3868 46.7423 57.3332 46.786 57.2948 46.8419C57.2564 46.8979 57.235 46.9635 57.2329 47.0313V47.0755C57.2436 47.3901 57.3632 47.6912 57.5715 47.9277C57.6885 48.0859 57.8164 48.2357 57.9545 48.376C58.0489 48.4811 58.1377 48.5918 58.232 48.6914C58.488 48.9477 58.7647 49.1828 59.0591 49.3942C59.2545 49.5405 59.4782 49.645 59.716 49.7012C59.9538 49.7573 60.2007 49.764 60.4412 49.7207C60.6252 49.6659 60.7871 49.5545 60.9037 49.4024C61.0204 49.2503 61.0858 49.0654 61.0906 48.874C61.0836 48.6106 60.9878 48.3571 60.8186 48.1546Z" fill="#FBE668"/>
<path d="M54.4299 34.7623C54.391 34.6959 54.3189 34.6185 54.2689 34.5521C54.1822 34.4676 54.0701 34.4138 53.9499 34.3988C53.8296 34.3838 53.7077 34.4085 53.6028 34.4691C53.4324 34.5524 53.2954 34.6909 53.2143 34.862C53.1409 35.0163 53.0779 35.1753 53.0256 35.3379C52.9645 35.5703 52.9145 35.8082 52.859 36.0406C52.8035 36.2731 52.7425 36.511 52.6925 36.7434C52.6526 36.9251 52.6358 37.111 52.6426 37.2968C52.6486 37.4438 52.6941 37.5865 52.7741 37.71C52.8541 37.8336 52.9659 37.9336 53.0977 37.9996L53.1754 38.0328H53.2143C53.269 38.0554 53.3272 38.0684 53.3863 38.0715C53.5751 38.0439 53.5862 38.0439 53.4196 38.0715C53.5476 38.0705 53.6734 38.0382 53.786 37.9775C54.005 37.827 54.1626 37.6031 54.23 37.3466C54.3042 37.0877 54.3562 36.823 54.3855 36.5553C54.4299 36.2897 54.4687 36.0019 54.5131 35.7529C54.5453 35.5796 54.5584 35.4033 54.552 35.2272C54.5531 35.0642 54.511 34.9038 54.4299 34.7623Z" fill="#FBE668"/>
<path d="M64.2379 39.09C64.2255 39.0486 64.2107 39.008 64.1935 38.9683L64.1436 38.8576C64.1047 38.8078 64.0659 38.7525 64.0215 38.7026C63.9669 38.6454 63.9054 38.5952 63.8383 38.5532L63.7717 38.5145C63.6992 38.4769 63.6229 38.4472 63.5441 38.426C63.4683 38.4205 63.3923 38.4205 63.3165 38.426H63.1778C63.1126 38.4403 63.0529 38.473 63.0057 38.52C62.9679 38.542 62.9357 38.5723 62.9113 38.6086V38.6473C62.8908 38.6593 62.8721 38.6742 62.8558 38.6916L62.8003 38.758C62.7843 38.7894 62.7731 38.8229 62.767 38.8576C62.6878 38.9285 62.635 39.0241 62.6171 39.1287C62.555 39.2345 62.5225 39.3548 62.5228 39.4774C62.5194 39.5757 62.5424 39.6731 62.5894 39.7596C62.6187 39.853 62.6723 39.9371 62.7448 40.0031C62.8346 40.0946 62.9479 40.1597 63.0723 40.1912H63.2888H63.3554C63.4275 40.1963 63.4998 40.1963 63.5719 40.1912H63.6107C63.7607 40.144 63.8975 40.0625 64.0104 39.9533L64.0437 39.9201L64.1713 39.7541L64.249 39.5659V39.3667C64.2531 39.2743 64.2494 39.1818 64.2379 39.09Z" fill="white"/>
<path d="M54.0579 42.6588C53.9885 42.5412 53.8895 42.4436 53.7708 42.3757C53.652 42.3078 53.5176 42.2719 53.3807 42.2715C53.2407 42.2722 53.1032 42.3084 52.9811 42.3766C52.8657 42.4472 52.7688 42.5439 52.698 42.6588C52.6393 42.7457 52.6066 42.8474 52.6036 42.9521C52.5758 43.0554 52.5758 43.1642 52.6036 43.2676L52.6869 43.4557C52.7547 43.573 52.8523 43.6703 52.97 43.7379C53.036 43.7713 53.1047 43.799 53.1753 43.8209C53.2424 43.8383 53.3114 43.8475 53.3807 43.8486C53.5039 43.8509 53.6251 43.8183 53.7304 43.7545H53.7581C53.8196 43.7182 53.8757 43.6735 53.9247 43.6217C54.0694 43.473 54.1526 43.2755 54.1578 43.0683C54.1634 42.9252 54.1288 42.7834 54.0579 42.6588Z" fill="white"/>
<path d="M68.1955 55.1221C68.1447 54.9427 68.0492 54.779 67.918 54.6462L67.7015 54.4802C67.5335 54.3811 67.3416 54.3295 67.1465 54.3307C67.0018 54.325 66.8582 54.3574 66.7302 54.4248C66.6034 54.4722 66.4883 54.5462 66.3926 54.6416C66.2968 54.7371 66.2227 54.8518 66.1751 54.9782C66.1075 55.1058 66.075 55.249 66.0807 55.3932L66.1196 55.681C66.1704 55.8604 66.2659 56.0241 66.3971 56.1569L66.6191 56.3284C66.7883 56.424 66.9797 56.4736 67.1742 56.4723C67.3191 56.4809 67.4635 56.4483 67.5905 56.3782C67.7173 56.3308 67.8324 56.2569 67.9281 56.1614C68.0239 56.066 68.098 55.9512 68.1456 55.8249C68.2158 55.6982 68.2486 55.5543 68.2399 55.4098L68.1955 55.1221Z" fill="white"/>
<path d="M58.7205 53.678C58.6457 53.5488 58.5381 53.4414 58.4085 53.3666C58.279 53.2919 58.132 53.2523 57.9823 53.252C57.8329 53.2539 57.6866 53.2942 57.5573 53.3688C57.428 53.4434 57.3202 53.5499 57.244 53.678C57.168 53.8083 57.1279 53.9562 57.1279 54.1069C57.1279 54.2576 57.168 54.4056 57.244 54.5358V54.5635C57.3205 54.684 57.4229 54.786 57.5438 54.8623C57.6717 54.9367 57.8176 54.9749 57.9656 54.9729C58.1139 54.9764 58.2601 54.938 58.3875 54.8623C58.5108 54.7892 58.6139 54.6864 58.6872 54.5635V54.5358C58.7633 54.4056 58.8034 54.2576 58.8034 54.1069C58.8034 53.9562 58.7633 53.8083 58.6872 53.678H58.7205Z" fill="white"/>
<path d="M59.7528 64.0642C59.7236 64.0029 59.6976 63.9401 59.6751 63.876C59.6268 63.7892 59.5583 63.7152 59.4753 63.6602C59.3993 63.5929 59.3078 63.5454 59.2089 63.5219C59.1394 63.5072 59.0689 63.498 58.9979 63.4942C58.8593 63.4923 58.7229 63.5286 58.6038 63.5994C58.5447 63.6369 58.489 63.6795 58.4373 63.7266C58.3655 63.7965 58.3105 63.8816 58.2764 63.9757C58.2316 64.0669 58.2088 64.1674 58.2097 64.269V64.4737C58.2476 64.6009 58.3162 64.7168 58.4096 64.8113C58.4613 64.8584 58.517 64.901 58.5761 64.9385C58.6952 65.0092 58.8316 65.0456 58.9702 65.0437C59.0413 65.0427 59.1121 65.0334 59.1811 65.016L59.3643 64.9385C59.4541 64.8921 59.5305 64.8235 59.5863 64.7393C59.6312 64.6897 59.6652 64.6312 59.6862 64.5678C59.7331 64.4753 59.756 64.3725 59.7528 64.269V64.0642Z" fill="white"/>
<path d="M54.5075 70.0454C54.4665 69.9725 54.4072 69.9114 54.3354 69.8683C54.281 69.8327 54.2174 69.8134 54.1522 69.8129C54.1085 69.8019 54.0627 69.8019 54.019 69.8129H53.9413C53.8581 69.8331 53.7828 69.8774 53.7248 69.9402C53.6621 69.9992 53.6161 70.0736 53.5916 70.156C53.5677 70.2416 53.5674 70.3321 53.5909 70.4178C53.6143 70.5036 53.6606 70.5814 53.7248 70.643C53.7863 70.7014 53.8603 70.7449 53.9413 70.7703C54.0288 70.7919 54.1202 70.7919 54.2077 70.7703C54.2887 70.7449 54.3628 70.7014 54.4242 70.643C54.4855 70.5807 54.5311 70.5049 54.5574 70.4217V70.2888C54.5635 70.2046 54.5463 70.1204 54.5075 70.0454Z" fill="white"/>
<path d="M48.9013 64.7114L48.818 64.5177C48.7799 64.4559 48.7352 64.3984 48.6848 64.3461C48.5974 64.2584 48.4882 64.1953 48.3684 64.1635C48.2448 64.1304 48.1146 64.1304 47.991 64.1635H47.9465H48.0465C47.9767 64.1629 47.9079 64.1801 47.8466 64.2133L47.7467 64.2576L47.5913 64.3793C47.5147 64.4485 47.4574 64.5361 47.4248 64.6339C47.3897 64.6945 47.3706 64.7631 47.3693 64.8331C47.3417 64.9364 47.3417 65.0452 47.3693 65.1485C47.3911 65.2461 47.4391 65.336 47.5081 65.4086C47.5632 65.4913 47.6374 65.5597 47.7245 65.6078L47.9077 65.6853C48.0426 65.7186 48.1836 65.7186 48.3185 65.6853C48.4195 65.6631 48.5131 65.6155 48.5904 65.547C48.6735 65.4898 48.742 65.414 48.7903 65.3256L48.8735 65.1374C48.9226 65.0008 48.9322 64.8532 48.9013 64.7114Z" fill="white"/>
<path d="M40.9806 72.1387C40.9293 71.9551 40.8313 71.7878 40.6961 71.653C40.561 71.5183 40.3932 71.4206 40.209 71.3695C40.0161 71.3196 39.8136 71.3196 39.6207 71.3695C39.5258 71.3977 39.4346 71.4367 39.3487 71.4857C39.2599 71.5576 39.1822 71.5687 39.0878 71.6849C38.987 71.7796 38.9108 71.8974 38.8658 72.028C38.7982 72.1556 38.7656 72.2988 38.7714 72.443L38.8103 72.7252C38.8594 72.9038 38.9552 73.0661 39.0878 73.1956C39.226 73.3337 39.3983 73.433 39.5874 73.4834H39.6207C39.8092 73.535 40.008 73.5361 40.1971 73.4866C40.3862 73.437 40.5588 73.3385 40.6975 73.2011C40.8334 73.064 40.9311 72.8938 40.9807 72.7074C41.0304 72.521 41.0303 72.325 40.9806 72.1387Z" fill="white"/>
<path d="M32.2495 65.137C32.2495 65.137 32.2495 64.9046 32.2162 64.899C32.2047 64.8626 32.1899 64.8274 32.1718 64.7939C32.1554 64.7621 32.1423 64.7287 32.1329 64.6943C32.1051 64.65 32.0718 64.6113 32.0385 64.567C32.0052 64.5227 32.0385 64.567 32.0385 64.567C31.9759 64.501 31.905 64.4434 31.8276 64.3955C31.6143 64.2845 31.3683 64.2531 31.1338 64.3069C30.9844 64.3459 30.8482 64.4243 30.7397 64.5338C30.6275 64.6432 30.5465 64.7804 30.5048 64.9312C30.4631 65.082 30.4623 65.2411 30.5023 65.3924C30.5424 65.5437 30.6219 65.6817 30.7328 65.7923C30.8437 65.903 30.9821 65.9824 31.1338 66.0224C31.2898 66.0667 31.4551 66.0667 31.6111 66.0224C31.8378 65.9534 32.0338 65.8089 32.1662 65.6129C32.2485 65.4759 32.2908 65.3188 32.2883 65.1591L32.2495 65.137Z" fill="white"/>
<path d="M23.2184 66.9645C23.1796 66.8815 23.1463 66.7985 23.1074 66.71L22.9409 66.4942C22.8806 66.425 22.807 66.3685 22.7244 66.3282C22.6051 66.2508 22.467 66.2068 22.3248 66.2009C22.185 66.1622 22.0372 66.1622 21.8974 66.2009C21.7609 66.2338 21.635 66.3004 21.531 66.3946C21.4155 66.4702 21.3203 66.5727 21.2535 66.6934L21.148 66.9479C21.101 67.1294 21.101 67.3198 21.148 67.5013L21.2535 67.7559C21.3507 67.9136 21.4838 68.0463 21.6421 68.1432C21.6844 68.1664 21.729 68.1849 21.7753 68.1986C21.8569 68.2491 21.9511 68.276 22.0472 68.276C22.1403 68.2982 22.2373 68.2982 22.3303 68.276C22.3781 68.2844 22.4269 68.2844 22.4747 68.276C22.7389 68.1891 22.9659 68.0155 23.1185 67.7835C23.1518 67.7005 23.1907 67.6175 23.224 67.529C23.2711 67.3435 23.2692 67.1491 23.2184 66.9645Z" fill="white"/>
<path d="M14.8147 56.1621C14.5821 56.1621 14.3591 56.2542 14.1946 56.4182C14.0301 56.5822 13.9377 56.8046 13.9377 57.0364C13.9377 57.2683 14.0301 57.4907 14.1946 57.6547C14.3591 57.8187 14.5821 57.9108 14.8147 57.9108C15.0473 57.9108 15.2704 57.8187 15.4349 57.6547C15.5994 57.4907 15.6918 57.2683 15.6918 57.0364C15.6918 56.8046 15.5994 56.5822 15.4349 56.4182C15.2704 56.2542 15.0473 56.1621 14.8147 56.1621Z" fill="white"/>
<path d="M28.0141 50.3239C28.0094 50.2234 27.9964 50.1235 27.9753 50.0251C27.9266 49.8419 27.8287 49.6754 27.6922 49.5436C27.6323 49.4688 27.5565 49.4083 27.4701 49.3665C27.301 49.2709 27.1095 49.2213 26.9151 49.2227H26.7652C26.6187 49.2285 26.4766 49.2745 26.3545 49.3555C26.2698 49.407 26.1916 49.4683 26.1213 49.5381L26.0769 49.5768C25.9355 49.7155 25.8339 49.8894 25.7827 50.0804C25.741 50.2288 25.741 50.3858 25.7827 50.5342C25.7913 50.6832 25.8371 50.8278 25.9159 50.9548C26.0162 51.122 26.1576 51.2611 26.3267 51.3587L26.5987 51.4749C26.7965 51.5308 27.0059 51.5308 27.2037 51.4749C27.349 51.4418 27.483 51.3712 27.5923 51.2702C27.7156 51.1934 27.8155 51.0843 27.8809 50.9548C27.9807 50.7872 28.0343 50.5963 28.0363 50.4014C28.0323 50.3747 28.0248 50.3487 28.0141 50.3239Z" fill="white"/>
<path d="M19.2053 44.6081L19.1276 44.4144C19.0871 44.3496 19.0386 44.2901 18.9832 44.2373C18.9245 44.1732 18.8572 44.1174 18.7834 44.0713C18.6502 43.9944 18.4989 43.9543 18.3449 43.9551C18.1911 43.9548 18.0398 43.9949 17.9064 44.0713C17.7794 44.1483 17.6728 44.2545 17.5956 44.3812C17.5184 44.514 17.4782 44.6649 17.479 44.8184C17.4781 44.9701 17.5184 45.1192 17.5956 45.25C17.6455 45.3053 17.6899 45.3662 17.7343 45.4215C17.8112 45.5033 17.9063 45.5658 18.0119 45.6042C18.0795 45.6424 18.1562 45.6615 18.2339 45.6595C18.3462 45.6924 18.4657 45.6924 18.578 45.6595L18.7834 45.571C18.8445 45.5322 18.9999 45.3994 18.961 45.4381L19.0277 45.3551L19.0943 45.2721C19.1504 45.18 19.1829 45.0754 19.1886 44.9678C19.2291 44.852 19.2349 44.727 19.2053 44.6081Z" fill="white"/>
<path d="M26.1437 40.801C26.1437 40.7622 26.1437 40.7235 26.0993 40.6903C26.078 40.6538 26.0518 40.6203 26.0216 40.5907L25.9273 40.5187C25.8753 40.4865 25.8162 40.4674 25.7552 40.4634C25.7153 40.4523 25.673 40.4523 25.6331 40.4634C25.572 40.4674 25.5129 40.4865 25.461 40.5187L25.3666 40.5907L25.2945 40.6847C25.2629 40.7369 25.2439 40.7956 25.239 40.8563C25.2224 40.9161 25.2224 40.9792 25.239 41.0389C25.2335 41.0588 25.2335 41.0798 25.239 41.0998C25.2549 41.1578 25.2878 41.2098 25.3333 41.2492L25.4277 41.3211L25.4666 41.3488C25.5324 41.3863 25.6072 41.4054 25.683 41.4041C25.7571 41.4055 25.8302 41.3864 25.894 41.3488C25.9582 41.3118 26.0116 41.2586 26.0486 41.1944C26.0857 41.1303 26.1051 41.0576 26.1049 40.9836V40.9172C26.124 40.8808 26.1371 40.8415 26.1437 40.801Z" fill="white"/>
<path d="M48.8571 33.3083L48.7572 33.0759L48.6073 32.8767C48.5209 32.7841 48.4119 32.7154 48.2909 32.6774C48.1346 32.5854 47.9562 32.5376 47.7747 32.5391L47.5027 32.5723C47.3338 32.6211 47.1794 32.7104 47.0531 32.8324C46.9597 32.9246 46.8877 33.036 46.8422 33.1589C46.7812 33.2806 46.7526 33.4159 46.7589 33.5518C46.7574 33.7327 46.8054 33.9106 46.8977 34.0664C46.9874 34.2166 47.1134 34.3422 47.264 34.4316C47.3511 34.4784 47.4421 34.5172 47.536 34.5479L47.808 34.5866C47.911 34.5827 48.0134 34.5679 48.1133 34.5423C48.1629 34.5282 48.2112 34.5097 48.2576 34.487C48.305 34.4672 48.3513 34.4451 48.3964 34.4206L48.5962 34.2712C48.6891 34.185 48.7579 34.0764 48.796 33.9558C48.8406 33.8824 48.8637 33.798 48.8626 33.7123C48.9002 33.5799 48.8982 33.4396 48.8571 33.3083Z" fill="white"/>
</g>
<defs>
<clipPath id="clip0_789_34184">
<rect width="82" height="93.9356" fill="white"/>
</clipPath>
</defs>
</svg>
