<svg width="14" height="14" viewBox="0 0 14 14" fill="none" xmlns="http://www.w3.org/2000/svg">
<g clip-path="url(#clip0_1577_20509)">
<path d="M7.29883 6.49297V14.0002H12.1573C12.4503 13.9998 12.7312 13.8832 12.9384 13.676C13.1455 13.4688 13.2621 13.1879 13.2626 12.8949V6.49121L7.29883 6.49297Z" fill="#3F434A"/>
<path d="M6.70143 6.49316H0.736328V12.8969C0.73656 13.19 0.853085 13.471 1.06032 13.6782C1.26755 13.8854 1.54855 14.002 1.84163 14.0022H6.70187L6.70143 6.49316Z" fill="#3F434A"/>
<path d="M13.6316 2.94746H11.421C11.6262 2.67377 11.7512 2.34833 11.782 2.0076C11.8127 1.66687 11.7479 1.32432 11.5949 1.01832C11.4419 0.712329 11.2067 0.454984 10.9157 0.275126C10.6247 0.0952669 10.2894 0 9.94724 0C8.92265 0 8.06385 0.811867 7.64366 1.29522C7.39791 1.57548 7.18211 1.88066 6.99978 2.20577C6.81689 1.88112 6.60129 1.57602 6.35634 1.29522C5.93527 0.812744 5.07604 0 4.05232 0C3.71025 8.1439e-05 3.37495 0.0954072 3.084 0.275298C2.79304 0.455189 2.55792 0.71254 2.40498 1.01852C2.25204 1.3245 2.18731 1.66702 2.21805 2.00771C2.24879 2.3484 2.37378 2.6738 2.57903 2.94746H0.368433C0.270754 2.94758 0.177109 2.98643 0.10804 3.0555C0.0389705 3.12457 0.00011634 3.21821 2.62981e-07 3.31589V5.52649C-5.76063e-05 5.57487 0.00943573 5.62278 0.0279361 5.66749C0.0464365 5.71219 0.0735796 5.7528 0.107809 5.78699C0.142038 5.82117 0.18268 5.84827 0.227404 5.86671C0.272128 5.88516 0.320054 5.8946 0.368433 5.89448H13.6316C13.7292 5.89448 13.8229 5.85573 13.8919 5.78673C13.961 5.71773 13.9999 5.62413 14 5.52649V3.31589C13.9998 3.21825 13.9609 3.12467 13.8918 3.05563C13.8228 2.98658 13.7292 2.94769 13.6316 2.94746ZM4.05276 2.94746C3.75962 2.94746 3.47848 2.83101 3.2712 2.62373C3.06391 2.41644 2.94746 2.13531 2.94746 1.84216C2.94746 1.54902 3.06391 1.26788 3.2712 1.0606C3.47848 0.853316 3.75962 0.736865 4.05276 0.736865C4.58743 0.736865 5.22473 1.11714 5.8015 1.779C6.1559 2.18691 6.41555 2.62245 6.54187 2.94746H4.05276ZM9.94724 2.94746H7.45813C7.58577 2.62245 7.84367 2.18691 8.19938 1.779C8.7744 1.1167 9.41214 0.736865 9.94724 0.736865C10.2404 0.736865 10.5215 0.853316 10.7288 1.0606C10.9361 1.26788 11.0525 1.54902 11.0525 1.84216C11.0525 2.13531 10.9361 2.41644 10.7288 2.62373C10.5215 2.83101 10.2404 2.94746 9.94724 2.94746Z" fill="#3F434A"/>
</g>
<defs>
<clipPath id="clip0_1577_20509">
<rect width="14" height="14.0004" fill="white"/>
</clipPath>
</defs>
</svg>
