<svg width="18" height="16" viewBox="0 0 18 16" fill="none" xmlns="http://www.w3.org/2000/svg">
<path d="M2.57069 5.33333H5.78615V2.01756C5.78615 0.904889 6.65868 0 7.73158 0C8.32534 0 8.87904 0.275778 9.25081 0.757111L12.9934 5.60889C13.1104 5.44578 13.2889 5.33333 13.5002 5.33333H17.3572C17.7124 5.33333 18 5.63178 18 6V15.3333C18 15.7016 17.7124 16 17.3572 16H13.5002C13.1515 16 12.8573 15.746 12.8573 15.2456L11.9282 15.888C11.8228 15.9609 11.6985 16 11.5717 16H3.55379C2.69818 16 1.936 15.4033 1.70072 14.5491L0.100489 8.73244C-0.368567 7.02756 0.863319 5.33333 2.57069 5.33333ZM14.143 14.6667H16.7143V6.66667H14.143C14.143 9.33711 14.143 12.002 14.143 14.6667ZM1.33709 8.36644L2.93732 14.1831C3.0151 14.4678 3.26881 14.6667 3.55379 14.6667H11.3771L12.8573 13.6433V7.56711L8.24692 1.59022C8.12092 1.42711 7.93321 1.33333 7.73158 1.33333C7.36752 1.33333 7.07181 1.64022 7.07181 2.01756V6C7.07181 6.36822 6.78425 6.66667 6.42898 6.66667H2.57069C1.71915 6.66667 1.10245 7.51267 1.33709 8.36644Z" fill="#8A9099"/>
</svg>
