<?xml version="1.0" encoding="UTF-8"?>
<!DOCTYPE svg PUBLIC "-//W3C//DTD SVG 1.1//EN" "http://www.w3.org/Graphics/SVG/1.1/DTD/svg11.dtd">
<svg xmlns="http://www.w3.org/2000/svg" version="1.1" width="18px" height="16px" style="shape-rendering:geometricPrecision; text-rendering:geometricPrecision; image-rendering:optimizeQuality; fill-rule:evenodd; clip-rule:evenodd" xmlns:xlink="http://www.w3.org/1999/xlink">
<g><path style="opacity:0.785" fill="#898f98" d="M 5.5,-0.5 C 6.83333,-0.5 8.16667,-0.5 9.5,-0.5C 10.1667,0.833333 10.8333,2.16667 11.5,3.5C 10.8333,3.5 10.1667,3.5 9.5,3.5C 8.88258,3.38929 8.38258,3.05596 8,2.5C 7.69055,3.76591 7.19055,4.93257 6.5,6C 4.25602,6.04958 2.58935,6.88291 1.5,8.5C 0.596028,9.20895 0.262695,10.209 0.5,11.5C 0.166667,11.5 -0.166667,11.5 -0.5,11.5C -0.5,9.5 -0.5,7.5 -0.5,5.5C 1.04181,4.69929 2.70848,4.36596 4.5,4.5C 4.36596,2.70848 4.69929,1.04181 5.5,-0.5 Z"/></g>
<g><path style="opacity:0.898" fill="#898f98" d="M 9.5,3.5 C 10.1667,3.5 10.8333,3.5 11.5,3.5C 13.3792,4.34141 15.3792,4.67474 17.5,4.5C 17.5,8.16667 17.5,11.8333 17.5,15.5C 12.1667,15.5 6.83333,15.5 1.5,15.5C 0.765886,14.2921 0.432553,12.9587 0.5,11.5C 0.262695,10.209 0.596028,9.20895 1.5,8.5C 2.038,10.1172 2.37133,11.7839 2.5,13.5C 5.5,13.5 8.5,13.5 11.5,13.5C 11.8476,9.91533 11.181,6.582 9.5,3.5 Z"/></g>
</svg>
