<svg width="32" height="32" viewBox="0 0 32 32" fill="none" xmlns="http://www.w3.org/2000/svg">
<circle cx="16" cy="16" r="16" fill="#8A9099"/>
<g clip-path="url(#clip0_1111_35086)">
<path d="M11.79 10.9415C11.79 11.7508 11.9726 12.0633 12.1453 12.2217C12.1453 12.2217 12.4853 11.0348 13.3074 10.1157C14.0737 11.62 14.9722 11.609 15.5033 11.6124C14.8962 11.0496 14.715 10.7391 14.715 10.7391C14.715 10.7391 16.5347 11.5859 18.1494 12.0761C18.867 12.4454 18.6994 13.2189 18.8145 13.2262C19.0987 12.1084 19.195 11.4874 19.195 10.9411C18.5779 8.16454 16.3269 8.00275 15.4326 8C13.3571 8 11.79 9.31601 11.79 10.9415Z" fill="white"/>
<path d="M18.4293 21.494C18.4302 20.7621 18.7174 20.0577 19.2331 19.5229C19.7489 18.9882 20.4547 18.6628 21.2083 18.6124C20.2846 18.0482 18.9857 17.7962 18.1132 17.1033C17.9171 16.9484 17.7329 16.7801 17.5618 16.5997C17.5618 16.5653 17.5618 16.5332 17.5618 16.4981C17.5618 16.4038 17.5472 16.2265 17.5351 16.0654C16.9667 16.7195 16.2391 17.116 15.439 17.116C14.6954 17.116 14.0083 16.7718 13.4595 16.2007C13.4538 16.2978 13.4413 16.4344 13.4413 16.4988C13.4413 16.5394 13.4438 16.5818 13.446 16.6217C13.3006 16.7616 13.148 16.8942 12.9887 17.019C11.7534 18.0014 9.51736 18.2768 8.81357 19.6159C8.65619 19.915 8.12435 21.651 8 22.9084C10.3491 23.2344 12.9987 23.4217 15.8224 23.4217C16.9493 23.4217 18.0467 23.3897 19.1104 23.3325C18.6693 22.8152 18.4285 22.165 18.4293 21.494Z" fill="white"/>
<path d="M21.4135 18.9878C20.902 18.9878 20.4019 19.1348 19.9766 19.4101C19.5513 19.6855 19.2198 20.0769 19.024 20.5348C18.8283 20.9927 18.7771 21.4966 18.8768 21.9827C18.9766 22.4688 19.223 22.9154 19.5847 23.2658C19.9464 23.6163 20.4072 23.855 20.9089 23.9517C21.4107 24.0484 21.9307 23.9988 22.4033 23.8091C22.8759 23.6194 23.2798 23.2982 23.564 22.8861C23.8482 22.474 23.9999 21.9895 23.9999 21.4938C23.9991 20.8294 23.7263 20.1925 23.2414 19.7227C22.7566 19.2529 22.0992 18.9886 21.4135 18.9878ZM22.7636 20.9114L21.1385 22.488C21.1202 22.5058 21.0983 22.5199 21.0743 22.5295C21.0503 22.5391 21.0246 22.5441 20.9986 22.5441H20.9961C20.9697 22.5442 20.9436 22.5393 20.9192 22.5296C20.8948 22.52 20.8726 22.5057 20.854 22.4876C20.8525 22.4855 20.8512 22.4833 20.8501 22.4811L19.8752 21.5282C19.838 21.4917 19.8174 21.4424 19.8177 21.3911C19.8181 21.3398 19.8395 21.2908 19.8772 21.2547C19.9148 21.2187 19.9658 21.1987 20.0187 21.1991C20.0716 21.1994 20.1222 21.2201 20.1594 21.2566L20.9986 22.079L22.4832 20.6408C22.5016 20.6226 22.5235 20.6081 22.5477 20.5982C22.5718 20.5882 22.5978 20.583 22.6241 20.5829C22.6503 20.5827 22.6764 20.5876 22.7007 20.5973C22.7249 20.607 22.747 20.6212 22.7656 20.6392C22.7842 20.6571 22.7989 20.6785 22.8089 20.702C22.8189 20.7256 22.824 20.7508 22.8239 20.7762C22.8237 20.8017 22.8184 20.8268 22.8082 20.8503C22.7979 20.8737 22.783 20.8949 22.7643 20.9127L22.7636 20.9114Z" fill="white"/>
</g>
<defs>
<clipPath id="clip0_1111_35086">
<rect width="16" height="16" fill="white" transform="translate(8 8)"/>
</clipPath>
</defs>
</svg>
