<svg width="41" height="40" viewBox="0 0 41 40" fill="none" xmlns="http://www.w3.org/2000/svg">
<g clip-path="url(#clip0_14215_605)">
<path d="M39.9936 19.4353C40.1361 24.7286 38.1737 29.8625 34.5366 33.7111C30.8995 37.5597 25.8847 39.8088 20.5917 39.9654C15.2987 40.122 10.1597 38.1733 6.30144 34.5464C2.44319 30.9196 0.180669 25.9108 0.00998789 20.6182V20.5679C-0.130343 15.3068 1.80866 10.2024 5.40663 6.36138C9.00459 2.52036 13.9715 0.252285 19.2306 0.0488925C24.4896 -0.1545 29.6169 1.72314 33.5007 5.2748C37.3846 8.82646 39.7121 13.7659 39.9785 19.0221C39.9835 19.1581 39.9898 19.2967 39.9936 19.4353Z" fill="#E76F00"/>
<path d="M32.8609 32.8617C39.9637 25.7589 39.9637 14.2431 32.8609 7.14029C25.7581 0.0375226 14.2423 0.0375105 7.13951 7.14028C0.0367383 14.243 0.0367491 25.7589 7.13952 32.8617C14.2423 39.9645 25.7582 39.9645 32.8609 32.8617Z" fill="#FFF314"/>
<path d="M32.2889 32.2898C39.0758 25.5029 39.0759 14.4991 32.2889 7.7122C25.502 0.925284 14.4982 0.925274 7.71134 7.71219C0.924422 14.4991 0.924443 25.5029 7.71136 32.2898C14.4983 39.0767 25.502 39.0767 32.2889 32.2898Z" fill="#FFBB00"/>
<path d="M15.7888 25.6323L13.2199 25.7094L8.72817 19.3333L8.92332 25.8383L6.3544 25.9153L6.03802 15.3693L8.60694 15.2922L13.0995 21.6983L12.9035 15.1633L15.4724 15.0862L15.7888 25.6323ZM24.2 14.8244L24.2618 16.8825L19.9652 17.0114L20.0319 19.2348L23.2468 19.1384L23.3068 21.1364L20.0919 21.2329L20.2199 25.4994L17.6509 25.5764L17.3345 15.0304L24.2 14.8244ZM33.1368 14.5563L33.1985 16.6144L30.4043 16.6983L30.6589 25.1862L28.09 25.2633L27.8353 16.7753L25.0411 16.8592L24.9793 14.801L33.1368 14.5563Z" fill="white"/>
<g style="mix-blend-mode:multiply" opacity="0.2">
<path d="M39.9458 19.4592C40.0489 24.7259 38.0677 29.8203 34.4333 33.6334C30.7988 37.4465 25.8054 39.6697 20.5398 39.8192C15.2742 39.9687 10.1627 38.0323 6.3178 34.4316C2.47288 30.8308 0.205808 25.8571 0.0100071 20.593C-0.00511054 20.0652 0.00244889 19.5399 0.0263851 19.0196C2.74783 21.7819 6.21444 23.6924 10.0032 24.5179C13.7921 25.3435 17.7392 25.0485 21.3632 23.6688C24.9872 22.2891 28.1312 19.8845 30.4118 16.7483C32.6923 13.612 34.0107 9.87987 34.2061 6.00708C37.7577 9.59989 39.8097 14.4091 39.9458 19.4592Z" fill="#F7CF5D"/>
</g>
</g>
<defs>
<clipPath id="clip0_14215_605">
<rect width="40.0025" height="40" fill="white"/>
</clipPath>
</defs>
</svg>
