<svg width="88" height="89" viewBox="0 0 88 89" fill="none" xmlns="http://www.w3.org/2000/svg">
<g clip-path="url(#clip0_789_34299)">
<path d="M84.7528 43.4119C84.3998 41.7339 83.9056 39.529 83.2159 37.3405C82.6417 35.4852 81.8925 33.6886 80.9785 31.975C81.1143 31.5026 81.2446 30.9975 81.3749 30.4436C81.8493 28.3443 82.0879 26.1985 82.0863 24.0463C82.0913 21.2722 81.7037 18.5115 80.935 15.846C81.6456 15.1212 82.1223 14.1999 82.3036 13.2013C82.4648 12.3116 82.3958 11.3954 82.103 10.5399C81.8102 9.68445 81.3035 8.91809 80.6309 8.31372C80.5277 8.2214 80.4246 8.12908 80.3159 8.04219C80.366 7.10776 80.1574 6.1776 79.7132 5.35402C79.2689 4.53047 78.6094 3.84294 77.8051 3.36475C77.0008 2.88655 76.0817 2.63561 75.146 2.6387H74.9613C70.1716 2.87536 65.5172 4.30733 61.4228 6.80401C59.4483 7.97045 57.5738 9.29824 55.8183 10.7738C54.7329 11.6471 53.6959 12.5789 52.712 13.5651C51.7997 13.4239 50.8819 13.3099 49.9587 13.2339C49.4568 12.4306 48.7322 11.7904 47.8732 11.3912C47.0141 10.9921 46.0576 10.8512 45.12 10.9856C42.4573 11.3628 39.8645 12.1295 37.4248 13.261C34.7837 14.1741 32.2691 15.4186 29.9414 16.9647L29.2299 17.4209L28.9747 17.2743C27.7041 16.5224 26.3704 15.8828 24.9886 15.3627C22.2983 14.3637 19.4702 13.7849 16.6037 13.6466C16.0606 13.6466 15.5176 13.6032 14.9745 13.6032C6.04655 13.6032 2.31027 17.3557 0.751677 20.4946C0.367675 21.2608 0.187444 22.113 0.228344 22.969C0.269243 23.8251 0.529896 24.6561 0.985195 25.3822C1.38082 26.0129 1.90667 26.5517 2.5275 26.9625C2.75753 28.2205 3.45377 29.3453 4.4771 30.1123C4.7905 32.4115 5.46304 34.6472 6.47014 36.7377C7.21825 38.2867 8.07291 39.7819 9.02797 41.2125C9.15287 41.3972 9.27235 41.5872 9.39725 41.7556C9.75567 42.2987 10.1521 42.9286 10.6137 43.5531C10.5811 43.6726 10.554 43.7921 10.5214 43.917C9.48325 48.2209 9.11687 52.6595 9.43527 57.0754C9.50947 58.0261 9.84844 58.9369 10.4138 59.7048C10.9791 60.4726 11.7482 61.0668 12.6339 61.42C13.0725 62.2251 13.7167 62.8996 14.5009 63.3746C15.2851 63.8497 16.1812 64.1084 17.0979 64.1244C18.1054 66.4388 19.5013 68.5638 21.2252 70.4077C21.7248 70.9507 22.2461 71.4341 22.7838 71.9065L22.9738 72.0803C23.6274 72.7215 24.3813 73.2516 25.2058 73.6497L25.4665 73.9213C25.6566 74.1113 25.8412 74.296 26.0096 74.4969C26.0807 75.0989 26.0916 75.7066 26.0422 76.3108C26.0422 76.6312 26.0422 76.9516 26.0096 77.2665C25.9716 79.5311 26.2214 82.8384 28.8552 85.3853C30.7308 87.1538 33.2236 88.1186 35.801 88.0735C36.2622 88.0747 36.723 88.0457 37.1804 87.9866C40.0586 87.6228 42.7468 86.1293 45.4024 83.4249C46.0812 82.7298 46.684 82.0347 47.2651 81.3613C49.2118 81.7634 51.2358 81.5411 53.0487 80.7259C54.0791 81.4837 55.2036 82.1043 56.394 82.5723C57.9939 83.203 59.6976 83.529 61.4173 83.5335C62.5287 83.535 63.6354 83.3889 64.7083 83.0991C66.1535 82.6931 67.5036 82.0039 68.6801 81.0716C69.8567 80.1394 70.8362 78.9825 71.5618 77.6684C72.2372 76.4804 72.667 75.1687 72.8256 73.8113C72.9842 72.454 72.8683 71.0786 72.485 69.7668C72.396 69.4645 72.2909 69.1672 72.17 68.8762C74.1519 66.8619 75.7607 64.5121 76.9218 61.9359C77.5934 60.5674 78.1387 59.1404 78.551 57.6728C79.3719 57.3874 80.1094 56.9033 80.6978 56.2637C81.2863 55.6242 81.7073 54.8489 81.9234 54.0071C81.9994 53.6976 82.07 53.388 82.1189 53.073C82.8156 52.737 83.4266 52.2467 83.9056 51.6394C86.0779 48.8643 85.323 45.6657 84.9103 43.9767C84.8397 43.7975 84.7908 43.5966 84.7528 43.4119Z" fill="#A0B5C5"/>
<path d="M86.9087 40.7563C86.5557 39.0782 86.0615 36.8734 85.3773 34.6848C84.8007 32.8304 84.0516 31.0341 83.1399 29.3194C83.2702 28.8469 83.4005 28.3418 83.5309 27.7879C84.0109 25.6877 84.2496 23.5396 84.2423 21.3852C84.2513 18.613 83.8655 15.8537 83.0964 13.1904C83.806 12.4627 84.2824 11.54 84.4649 10.5402C84.625 9.65005 84.5549 8.73375 84.2612 7.87833C83.9675 7.0229 83.46 6.25675 82.7869 5.65264L82.4773 5.37567C82.5121 4.67736 82.4039 3.97929 82.1592 3.32432C81.9145 2.66935 81.5386 2.07128 81.0545 1.56682C80.5703 1.06236 79.9882 0.662145 79.3439 0.390733C78.6995 0.11932 78.0065 -0.0175726 77.3074 -0.0115269H77.1173C72.3293 0.225573 67.6768 1.65754 63.5841 4.15378C61.6089 5.3189 59.7342 6.64677 57.9797 8.12358C56.8931 8.99547 55.8561 9.92738 54.8734 10.9149C53.961 10.7737 53.0433 10.6597 52.1201 10.5837C51.6803 9.88007 51.0687 9.30002 50.3428 8.89813C49.617 8.49624 48.8007 8.28575 47.9711 8.28649C47.7385 8.28674 47.5062 8.30309 47.2759 8.33538C44.615 8.71266 42.024 9.47935 39.5861 10.6108C36.9436 11.5205 34.4287 12.7652 32.1027 14.3145C31.8638 14.4611 31.6303 14.6132 31.3913 14.7707L31.1361 14.6241C29.8636 13.8721 28.5281 13.2325 27.1446 12.7125C24.4539 11.7139 21.6261 11.1333 18.7597 10.991C18.2166 10.991 17.6735 10.9529 17.163 10.9529C8.23507 10.9529 4.49879 14.7001 2.9402 17.8444C2.55693 18.6106 2.37664 19.4622 2.41658 20.318C2.45651 21.1737 2.71533 22.0049 3.16829 22.732C3.55727 23.3559 4.07357 23.8908 4.68343 24.3015C4.91347 25.5594 5.60971 26.6843 6.63303 27.4512C6.94787 29.7525 7.62225 31.99 8.63151 34.082C9.3766 35.6326 10.2314 37.128 11.1893 38.5569L11.5532 39.0999C11.9116 39.643 12.3135 40.273 12.7697 40.8975C12.7425 41.017 12.7099 41.1364 12.6828 41.2559C11.6475 45.5622 11.2812 50.0021 11.5966 54.4198C11.6727 55.3699 12.0124 56.2799 12.5775 57.0474C13.1426 57.8149 13.9106 58.4095 14.7953 58.7643C15.2386 59.551 15.8796 60.2083 16.6549 60.6712C17.4302 61.1341 18.313 61.3866 19.2158 61.4036C20.2322 63.7134 21.6354 65.8328 23.3648 67.6705C23.8645 68.2136 24.3912 68.7024 24.9289 69.1748L25.1135 69.3432C25.7663 69.9868 26.5203 70.5188 27.3455 70.9181L27.6116 71.1896C27.7962 71.3742 27.9863 71.5643 28.1547 71.7598C28.2146 72.3647 28.2146 72.9741 28.1547 73.5791C28.1547 73.8995 28.1547 74.2145 28.1547 74.5349C28.1112 76.7994 28.3664 80.1067 30.9949 82.6808C32.874 84.4471 35.3675 85.4114 37.9461 85.369C38.4073 85.37 38.8681 85.341 39.3255 85.2821C42.2037 84.9182 44.8919 83.4248 47.5475 80.7204C48.2209 80.0252 48.8291 79.3301 49.4102 78.6567C50.0354 78.7868 50.6723 78.8523 51.3109 78.8522C52.6436 78.8528 53.9613 78.5715 55.1775 78.0268C56.2086 78.7834 57.333 79.404 58.5228 79.8732C60.1244 80.5045 61.83 80.8305 63.5515 80.8344C64.6521 80.8338 65.7477 80.6877 66.8099 80.3999C68.2531 79.9961 69.6021 79.3108 70.7792 78.3835C71.9564 77.4561 72.9384 76.305 73.6688 74.9965C74.3501 73.8211 74.7891 72.5212 74.9598 71.1734C75.1305 69.8256 75.0294 68.4573 74.6626 67.1492C74.5703 66.8179 74.4563 66.5192 74.3531 66.2531C76.6339 64.0809 78.1545 61.333 79.1049 59.3182C79.7724 57.9479 80.3176 56.5214 80.7341 55.0552C81.5545 54.7689 82.2916 54.2846 82.8799 53.6451C83.4682 53.0057 83.8895 52.2309 84.1065 51.3895C84.1825 51.0799 84.2477 50.7704 84.302 50.4554C84.9968 50.1164 85.6072 49.6266 86.0887 49.0217C88.2609 46.2467 87.5061 43.048 87.0879 41.3591C87.001 41.1364 86.9522 40.9409 86.9087 40.7563Z" fill="white"/>
<path d="M51.3109 64.0332C50.8558 64.0316 50.4122 64.1763 50.0456 64.4459C49.7395 64.607 49.4123 64.724 49.0735 64.7935C49.0177 64.8155 48.9633 64.8409 48.9106 64.8695C48.4605 65.1502 48.0872 65.5383 47.8245 65.9991C44.691 71.4297 54.0425 75.6873 55.0038 69.5887C55.1095 68.637 54.9504 67.6745 54.5441 66.8073C54.1378 65.9402 53.5001 65.202 52.7012 64.674C52.2952 64.353 51.8187 64.1334 51.3109 64.0332Z" fill="#E5B4BE"/>
<path d="M46.4938 65.5804C45.7661 65.1188 45.0981 64.5703 44.3921 64.0707C41.8384 62.2795 38.9525 61.0166 35.904 60.3561C34.0902 59.9651 31.6301 59.4384 30.3811 61.225C29.2623 62.8542 29.7946 64.8907 30.9241 66.319C32.0537 67.7472 33.3733 68.5835 33.8241 70.3919C34.2042 71.9234 33.9707 73.5091 33.9816 75.0623C33.9924 76.6155 34.34 78.3207 35.9257 79.1135C36.6807 79.434 37.5013 79.5697 38.3193 79.5092C39.1373 79.4488 39.929 79.194 40.6287 78.766C42.2579 77.8591 43.5286 76.3874 44.7179 74.9646C45.4667 73.9806 46.3087 73.0712 47.2323 72.2492C46.4243 71.0095 45.9785 69.5688 45.9453 68.0894C45.9324 67.222 46.1201 66.3633 46.4938 65.5804Z" fill="#E5B4BE"/>
<path d="M21.4749 23.0917C20.0575 22.6952 18.526 22.364 17.1304 22.8636C17.6955 26.1283 18.814 29.2726 20.4376 32.1608C20.4919 32.2586 20.5897 32.4052 20.6929 32.5681C22.2355 29.7248 24.1293 27.0865 26.3299 24.7154C26.2467 24.706 26.1658 24.6821 26.0909 24.6448C25.4102 24.2644 24.6788 23.9828 23.9187 23.8085C23.0715 23.5696 22.284 23.3198 21.4749 23.0917Z" fill="#E5B4BE"/>
<path d="M61.2543 56.6309C59.7853 57.6204 58.4335 58.7737 57.2248 60.0685C56.1387 61.2415 55.1883 62.5612 54.1348 63.7776C54.5767 64.0912 54.9702 64.4682 55.3024 64.8963C55.9631 65.7409 56.4017 66.7376 56.5782 67.7953C56.7546 68.8531 56.6633 69.9381 56.3125 70.9515C57.757 72.2766 59.2233 73.6125 61.1023 74.2696C61.9331 74.5855 62.8189 74.7309 63.7071 74.6973C64.5953 74.6638 65.4677 74.4518 66.2722 74.0741C66.9073 73.7354 67.463 73.2652 67.9021 72.6949C68.3413 72.1247 68.6539 71.4674 68.8192 70.7668C69.1831 69.1051 68.1241 67.8778 67.934 66.292C67.7439 64.7063 68.7323 63.3757 69.3894 61.9475C70.0465 60.5192 70.5027 58.7325 69.813 57.2283C68.2381 53.8178 63.6764 55.0288 61.2543 56.6309Z" fill="#E5B4BE"/>
<path d="M74.7928 6.86904C75.0752 6.61923 75.3359 6.32598 75.5857 6.07617C72.3112 6.52548 69.1667 7.6538 66.3536 9.38886C64.6769 10.4001 63.0728 11.5269 61.5529 12.7613C60.2876 13.7877 59.0874 14.9824 57.7515 15.9654C57.8981 15.8567 58.9734 16.3021 59.1689 16.3564C59.6359 16.4976 60.1029 16.6442 60.5645 16.8017C61.0261 16.9592 61.5312 17.1384 62.0091 17.3447C62.1666 17.4045 62.4653 17.5891 62.6336 17.5457C62.802 17.5022 62.9975 17.2253 63.1224 17.1221C64.6031 16.0228 66.1915 15.0766 67.8633 14.2981C69.4925 13.4455 71.1706 12.7178 72.8378 11.9467C72.9809 11.8893 73.1388 11.88 73.2877 11.9202C73.4366 11.9603 73.5684 12.0478 73.6632 12.1693C75.0752 13.9832 75.3685 16.7311 75.3685 18.9468C75.3659 20.1667 75.2897 21.3854 75.1404 22.5962C75.0698 23.2207 74.9937 23.8398 74.9014 24.4643C74.8723 24.75 74.7775 25.0251 74.6245 25.268C74.9014 25.5396 75.1675 25.8111 75.4554 26.0718C76.0321 26.6794 76.576 27.3176 77.0845 27.9834C77.1823 27.663 77.28 27.3425 77.3561 27.0113C77.5353 26.289 77.6765 25.5559 77.796 24.839C78.0382 23.3458 78.1346 21.8326 78.0838 20.3207C77.9738 17.2564 77.275 14.2419 76.0256 11.4416C75.9561 11.2687 75.9445 11.0779 75.9925 10.8978C76.0405 10.7177 76.1454 10.5579 76.2917 10.4424C76.7512 10.0679 77.2459 9.73868 77.7688 9.45945C76.9775 8.93751 76.095 8.56906 75.1675 8.37332C75.001 8.35252 74.8448 8.28182 74.7193 8.1705C74.5937 8.05919 74.5048 7.91247 74.4643 7.74968C74.4237 7.58689 74.4334 7.41563 74.4921 7.25844C74.5507 7.10125 74.6556 6.9655 74.7928 6.86904Z" fill="#EFCA63"/>
<path d="M64.5832 19.9031C58.7758 16.963 52.2902 15.6227 45.7932 16.0202C45.6695 16.0315 45.5455 16.003 45.4393 15.9388C45.333 15.8745 45.2502 15.7779 45.2028 15.6632C45.1554 15.5484 45.1461 15.4215 45.1761 15.3011C45.2061 15.1806 45.2739 15.0729 45.3696 14.9938L46.3362 14.0488C45.3885 14.24 44.4528 14.4866 43.534 14.7874C42.0678 15.6617 40.4386 16.2917 38.8963 17.0465C37.2493 17.84 35.6597 18.7473 34.139 19.7619C28.6198 23.4365 24.1762 28.5117 21.263 34.468C18.5929 40.0559 17.29 46.1985 17.4615 52.3891L18.7377 51.303C18.8632 51.2108 19.0129 51.1573 19.1684 51.1491C19.3239 51.1409 19.4784 51.1783 19.6129 51.2568C19.7474 51.3353 19.856 51.4514 19.9253 51.5909C19.9946 51.7303 20.0217 51.887 20.0031 52.0416C19.8237 52.9937 19.7816 53.9666 19.8782 54.9307C20.481 54.4962 21.0892 54.0726 21.7246 53.6871C21.7544 53.5468 21.8153 53.415 21.9026 53.3013C21.99 53.1876 22.1018 53.0949 22.2296 53.03C22.3131 52.9942 22.4047 52.9819 22.4947 52.9944C22.5846 53.0068 22.6695 53.0435 22.7401 53.1006L22.8161 53.1657C22.8895 53.2329 22.9404 53.3212 22.9618 53.4184C22.9832 53.5156 22.974 53.617 22.9356 53.7088C22.9822 53.9513 23.0439 54.1908 23.1203 54.4256C23.1963 54.746 23.256 55.0719 23.332 55.3923C23.4776 55.9998 23.659 56.5982 23.8751 57.1844C24.3338 58.4176 24.9314 59.5946 25.6564 60.6926C26.2824 61.637 26.9912 62.5238 27.7743 63.3427C27.9535 63.5274 28.149 63.6903 28.3174 63.8858C28.3149 63.8678 28.3149 63.8495 28.3174 63.8315C28.2064 62.932 28.3478 62.0194 28.7257 61.1956C29.1035 60.3718 29.703 59.6693 30.457 59.1666C32.2872 58.0479 34.7038 58.5638 36.6588 59.0417C38.6595 59.5156 40.5907 60.2457 42.4045 61.2139C44.0065 62.0774 45.8909 63.1418 47.0911 64.5863C47.8038 63.7167 48.7831 63.1061 49.8776 62.849C50.9721 62.5918 52.1209 62.7023 53.1463 63.1635C54.0043 61.1433 55.5792 59.3621 57.1378 57.8578C58.721 56.2118 60.605 54.8845 62.6879 53.9477C65.892 52.6661 70.3668 53.3775 71.5616 57.0758C71.8815 58.1328 71.93 59.2534 71.7028 60.3342L71.7733 60.2527C72.6107 59.1381 73.3382 57.945 73.9456 56.6902C75.2283 54.14 75.968 51.3515 76.1179 48.5008C76.1337 48.3956 76.1732 48.2953 76.2336 48.2076C76.2939 48.12 76.3734 48.0472 76.466 47.9949C76.5587 47.9425 76.6621 47.912 76.7683 47.9055C76.8745 47.8991 76.9808 47.917 77.0791 47.9577C77.6104 48.2002 78.1192 48.4891 78.5997 48.8212C78.7695 47.3538 78.5269 45.8681 77.8991 44.531C77.8576 44.4256 77.8443 44.3112 77.8604 44.1991C77.8766 44.0869 77.9217 43.981 77.9914 43.8916C78.061 43.8022 78.1527 43.7326 78.2575 43.6895C78.3622 43.6464 78.4764 43.6313 78.5888 43.6458C79.6258 43.7446 80.6362 44.0317 81.5702 44.493C81.518 43.9099 81.4088 43.3333 81.2444 42.7715C81.038 41.7722 80.8262 40.773 80.5927 39.7792C79.5452 35.4948 77.568 31.4933 74.8013 28.0583C72.0346 24.6234 68.5461 21.8392 64.5832 19.9031ZM27.6114 51.3519C27.3621 51.5223 27.0711 51.6218 26.7696 51.6397C26.6954 51.6536 26.6239 51.6792 26.5578 51.7157C26.2755 51.8352 26.0908 51.5039 26.2266 51.2813C26.3623 51.0586 26.3243 50.9283 26.4601 50.7382C26.6168 50.5548 26.7998 50.3956 27.0032 50.2658C27.3722 50.031 27.7633 49.8327 28.1707 49.6738C29.0227 49.3464 29.9205 49.154 30.8318 49.1036C31.8697 49.0455 32.9108 49.0965 33.9381 49.2557C34.8504 49.3914 35.9583 49.5543 36.6914 50.1571C36.7248 50.1843 36.7506 50.2196 36.7663 50.2597C36.782 50.2998 36.7871 50.3432 36.7811 50.3858C36.7751 50.4284 36.7582 50.4688 36.732 50.5029C36.7058 50.5371 36.6713 50.5639 36.6317 50.5807C35.7791 50.8305 34.8124 50.6133 33.9489 50.4938C33.0242 50.3491 32.0873 50.2964 31.1522 50.3364C30.3005 50.385 29.4606 50.5589 28.6595 50.8523C28.2992 50.9949 27.9491 51.1618 27.6114 51.3519ZM37.3865 53.3884C37.1153 53.6427 36.7639 53.7945 36.3927 53.8174C35.98 53.9097 35.5618 53.9858 35.1437 54.0564C34.3334 54.184 33.5431 54.4158 32.7922 54.746C32.1684 55.0267 31.5986 55.4145 31.1087 55.8919C30.8714 56.1355 30.6466 56.3911 30.4353 56.6576L30.1312 57.0215C30.0172 57.1627 29.8542 57.2496 29.7456 57.3853C29.637 57.5211 29.3058 57.4885 29.3058 57.2658C29.2813 57.0657 29.2813 56.8632 29.3058 56.6631C29.3361 56.477 29.3871 56.2948 29.4578 56.12C29.6227 55.7472 29.8505 55.4055 30.1312 55.1099C30.6923 54.5037 31.3606 54.0066 32.1025 53.6436C32.962 53.2428 33.8777 52.9754 34.8178 52.8507C35.3103 52.7776 35.8089 52.7557 36.3058 52.7856C36.5086 52.766 36.7132 52.7866 36.908 52.8462C37.1028 52.9059 37.2838 53.0034 37.4408 53.1331C37.4611 53.1749 37.4678 53.222 37.46 53.2677C37.4522 53.3135 37.4303 53.3557 37.3974 53.3884H37.3865ZM38.8582 47.8057C38.8546 47.8327 38.8419 47.8576 38.8221 47.8764C38.8024 47.8952 38.7768 47.9066 38.7496 47.9089C38.326 47.974 37.8753 47.6373 37.5277 47.4255C37.0716 47.1486 36.6208 46.8553 36.1701 46.5675C35.3024 46.0097 34.3683 45.5627 33.3896 45.237C32.3806 44.9068 31.3361 44.6972 30.2778 44.6125C29.7348 44.5744 29.1917 44.5853 28.6867 44.569C28.4395 44.5674 28.1928 44.5492 27.9481 44.5147C27.6657 44.4767 27.4376 44.3464 27.1606 44.3029C27.1044 44.2935 27.0526 44.2662 27.013 44.225C26.9735 44.1839 26.9481 44.1312 26.9408 44.0746C26.9335 44.0179 26.9446 43.9605 26.9725 43.9107C27.0003 43.8609 27.0434 43.8213 27.0955 43.7979C27.3401 43.618 27.5999 43.4599 27.8721 43.3254C28.1657 43.2239 28.47 43.1565 28.779 43.1245C29.3498 43.0729 29.9242 43.0729 30.4951 43.1245C31.6531 43.2128 32.7944 43.4539 33.8892 43.8413C34.9828 44.2256 36.0229 44.7475 36.9847 45.3945C37.469 45.7179 37.9043 46.1093 38.2772 46.5566C38.565 46.877 38.9506 47.3549 38.8691 47.8057H38.8582ZM50.5396 48.7397C50.173 49.1525 49.7097 49.4679 49.1912 49.6574C48.6728 49.847 48.1153 49.9049 47.569 49.8259C47.0227 49.7566 46.4977 49.571 46.0292 49.2815C45.5608 48.992 45.16 48.6054 44.8537 48.1478C44.7995 48.0393 44.7593 47.9243 44.7342 47.8057C44.5321 47.624 44.3746 47.3981 44.2738 47.1458C44.1731 46.8934 44.1318 46.6212 44.1531 46.3503C44.2726 45.4977 45.0546 45.2098 45.7823 45.0415C46.4308 44.8967 47.0902 44.8059 47.7536 44.77C48.3962 44.7346 49.0405 44.7455 49.6815 44.8025C50.0591 44.7966 50.4322 44.8843 50.7676 45.0578C51.0341 45.32 51.2044 45.6644 51.251 46.0353C51.3488 46.5096 51.3366 47.0001 51.2151 47.469C51.0937 47.9378 50.8663 48.3726 50.5504 48.7397H50.5396ZM57.3767 45.552C57.3497 45.5552 57.3223 45.5496 57.2988 45.5359C57.2752 45.5221 57.2569 45.5011 57.2464 45.4759C57.1946 45.2462 57.1901 45.0084 57.233 44.7769C57.2759 44.5454 57.3655 44.325 57.4962 44.1291C57.7508 43.6001 58.082 43.1116 58.4791 42.6792C59.2483 41.8134 60.1242 41.0489 61.0858 40.4037C62.0506 39.7548 63.0969 39.2362 64.1976 38.8614C64.737 38.666 65.2933 38.5205 65.8594 38.427C66.1671 38.3853 66.4784 38.3762 66.788 38.3998C67.085 38.4601 67.3758 38.5474 67.6569 38.6605C67.7132 38.6699 67.765 38.6972 67.8045 38.7384C67.8441 38.7795 67.8694 38.8322 67.8767 38.8888C67.884 38.9454 67.8729 39.0029 67.8451 39.0527C67.8173 39.1025 67.7741 39.1421 67.7221 39.1655C67.4614 39.2796 67.2713 39.4588 67.0161 39.5728C66.7609 39.6869 66.5491 39.7357 66.3101 39.8063C65.7996 39.953 65.2837 40.0724 64.7787 40.2462C63.7736 40.5873 62.8143 41.0506 61.9222 41.6256C61.0486 42.183 60.2493 42.849 59.5436 43.6078C59.1797 44.0042 58.8158 44.3952 58.4574 44.7808C58.1696 45.0686 57.8275 45.5085 57.3876 45.552H57.3767ZM68.4715 52.4869C68.3358 52.3783 68.1565 52.3348 68.0099 52.2316L67.6026 51.9438C67.3301 51.7377 67.0474 51.5456 66.7554 51.3682C66.1634 51.0285 65.5164 50.7951 64.8438 50.6785C64.0347 50.5429 63.211 50.5155 62.3946 50.597C61.971 50.6296 61.5475 50.6622 61.1239 50.6731C60.7534 50.7492 60.3678 50.6894 60.0377 50.5047C60.003 50.4757 59.9784 50.4363 59.9677 50.3923C59.9569 50.3484 59.9605 50.3021 59.978 50.2603C60.1518 49.891 60.6188 49.7607 60.9827 49.6412C61.4587 49.4919 61.9478 49.3883 62.4435 49.3317C63.379 49.2229 64.3255 49.2558 65.2511 49.4294C66.0589 49.5954 66.8287 49.9103 67.5212 50.3581C67.8704 50.579 68.1775 50.8604 68.4281 51.189C68.5358 51.335 68.6286 51.4915 68.705 51.656C68.7704 51.8475 68.8124 52.0463 68.8299 52.2479C68.9223 52.4869 68.629 52.6009 68.4715 52.4869ZM70.1604 46.1928C70.0846 46.1848 70.0082 46.1848 69.9324 46.1928C69.6367 46.2486 69.3315 46.2261 69.0472 46.1276C68.678 46.0304 68.3023 45.9596 67.923 45.9158C67.0724 45.8351 66.2147 45.8771 65.3761 46.0407C64.4618 46.2357 63.5687 46.5194 62.7096 46.8879C61.9059 47.2246 61.0207 47.6699 60.1301 47.6428C59.9346 47.6428 59.8748 47.3821 59.9726 47.2463C60.5156 46.4806 61.5637 46.0462 62.4109 45.6877C63.3675 45.2807 64.3627 44.9714 65.3815 44.7645C66.2758 44.5907 67.1914 44.5541 68.0968 44.6559C68.5308 44.7061 68.9584 44.8007 69.373 44.9383C69.6002 45.0139 69.8145 45.1237 70.0084 45.2641C70.1822 45.3945 70.2256 45.5791 70.3668 45.7149C70.4053 45.755 70.4311 45.8055 70.4409 45.8602C70.4508 45.9149 70.4443 45.9713 70.4223 46.0223C70.4003 46.0734 70.3637 46.1168 70.3171 46.1471C70.2705 46.1774 70.216 46.1933 70.1604 46.1928Z" fill="#EFCA63"/>
<path d="M73.3157 24.0035C73.3809 23.5582 73.446 23.102 73.5003 22.6567C73.6361 21.5706 73.7447 20.4465 73.7773 19.3332C73.8148 18.2423 73.7402 17.1504 73.5546 16.0748C73.3687 15.1834 73.0865 14.3148 72.7129 13.4844C71.3118 14.0546 69.9324 14.7063 68.5802 15.3905C67.7837 15.7924 66.9926 16.2124 66.207 16.6504C65.8757 16.8297 65.5553 17.0306 65.2349 17.2261C64.7658 17.4098 64.3457 17.6998 64.0076 18.0733C67.3953 19.5624 70.5345 21.5624 73.3157 24.0035Z" fill="#E5B4BE"/>
<path d="M19.8511 34.2125C19.7332 34.0523 19.6244 33.8855 19.5253 33.7129C19.2266 33.2078 18.9388 32.6974 18.6673 32.1815C18.1516 31.1929 17.6928 30.1758 17.2933 29.1349C16.4777 26.9964 15.9092 24.7717 15.599 22.5041C15.5833 22.3479 15.6174 22.1908 15.6964 22.0553C15.7754 21.9197 15.8953 21.8126 16.0388 21.7492C17.8961 20.7771 20.0032 21.2061 21.9148 21.7492C23.0009 22.0587 24.0327 22.3955 25.0971 22.7213C25.8303 22.9494 26.7698 23.1503 26.987 23.9866C28.1103 22.8304 29.3018 21.7423 30.5549 20.7282C29.715 20.3975 28.9048 19.996 28.1329 19.5281C27.2144 19.0541 26.2677 18.637 25.2981 18.279C23.3315 17.5377 21.2719 17.0716 19.1777 16.8942C16.1257 16.639 11.2816 16.7313 8.979 19.2946C9.38767 19.3146 9.78615 19.4289 10.1432 19.6286C10.5003 19.8284 10.8063 20.1081 11.0372 20.4459C11.2 20.6879 11.3114 20.9606 11.3647 21.2474C11.4179 21.5341 11.4118 21.8288 11.3468 22.1131C11.2742 22.3535 11.1542 22.5769 10.9938 22.7702L11.7758 22.8842C11.9766 22.9177 12.1569 23.0272 12.2792 23.1899C12.4016 23.3527 12.4566 23.5563 12.4329 23.7585C12.1342 26.6151 12.9162 29.3521 14.1761 31.9045C14.848 33.2319 15.6082 34.5128 16.4516 35.7385C16.9946 36.5423 17.6517 37.3134 18.1785 38.1443C18.6687 36.8061 19.227 35.4938 19.8511 34.2125Z" fill="#EFCA63"/>
<path d="M76.8349 7.09169C77.2595 6.62589 77.648 6.12846 77.997 5.6037C78.0882 5.48024 78.1416 5.33297 78.1507 5.17977C78.1598 5.02657 78.1243 4.87401 78.0484 4.74062C77.9725 4.60722 77.8595 4.49872 77.7231 4.42828C77.5868 4.35784 77.4329 4.3285 77.2802 4.34379C73.2127 4.56343 69.2637 5.79141 65.789 7.91715C64.0214 8.96754 62.3415 10.1589 60.7656 11.4796C59.3048 12.6961 57.6647 14.0646 56.5786 15.6667C53.4892 14.9801 50.3246 14.6917 47.1619 14.8086C47.5855 14.385 48.0091 13.9669 48.4272 13.5379C48.8454 13.1088 48.3621 12.5821 47.9167 12.6472C45.5746 12.9779 43.2977 13.6685 41.1665 14.6946C38.7661 15.3843 36.4472 16.7474 34.4107 18.0181C33.3086 18.7164 32.2428 19.4704 31.2175 20.2773C30.6318 19.4749 29.8604 18.8265 28.9693 18.3874C27.914 17.7656 26.8076 17.2351 25.662 16.8017C23.3961 15.9623 21.0155 15.4734 18.6022 15.3517C14.5509 15.1562 8.91934 15.6775 6.87742 19.794C6.82166 19.9195 6.80019 20.0576 6.8152 20.1941C6.83021 20.3306 6.88117 20.4607 6.96288 20.5712C7.04459 20.6816 7.15412 20.7684 7.2803 20.8226C7.40648 20.8769 7.5448 20.8967 7.68115 20.8801C8.26766 20.8312 10.0924 20.6846 9.89685 21.7436C9.84798 22.0368 9.40809 22.2866 9.23974 22.5147C9.03507 22.8008 8.9494 23.1551 9.0008 23.5031C9.02321 23.6697 9.0987 23.8246 9.21608 23.9449C9.33346 24.0652 9.48649 24.1445 9.65247 24.171L10.8907 24.3557C10.7973 27.0947 11.387 29.8139 12.6067 32.2681C13.2499 33.6274 13.9885 34.9395 14.817 36.1945C15.6316 37.4327 16.4462 38.8718 17.5921 39.8602C17.3368 40.6748 17.1033 41.4894 16.9024 42.3365C15.9766 46.2083 15.656 50.2 15.952 54.1699C15.9684 54.3079 16.0208 54.4391 16.1039 54.5505C16.187 54.6619 16.2979 54.7494 16.4255 54.8044C16.5531 54.8594 16.6929 54.8799 16.8309 54.8639C16.969 54.8478 17.1003 54.7958 17.2119 54.713L18.2546 53.8223C18.2359 54.7067 18.3179 55.5904 18.499 56.4562C18.5164 56.5943 18.5696 56.7254 18.6533 56.8366C18.737 56.9477 18.8483 57.0351 18.9762 57.09C19.1041 57.1449 19.2441 57.1654 19.3823 57.1495C19.5206 57.1336 19.6523 57.0818 19.7643 56.9993C20.4594 56.4996 21.1546 55.9946 21.8334 55.4733C21.8334 55.571 21.8768 55.6633 21.8931 55.7448C22.1273 56.8464 22.4561 57.9256 22.8761 58.9706C23.7177 61.1187 24.9577 63.0884 26.5309 64.7759C26.9382 65.205 27.3618 65.6123 27.8071 66.0033C28.2163 66.4343 28.6888 66.8005 29.2082 67.0894C29.3803 67.1601 29.5654 67.1934 29.7513 67.1872C30.2943 67.8497 30.9243 68.4036 31.4891 69.0444C32.8956 70.641 32.5752 72.7481 32.5317 74.714C32.4992 76.4898 32.7055 78.3308 34.0523 79.6342C34.6972 80.1997 35.4588 80.616 36.283 80.8535C37.1071 81.091 37.9735 81.1438 38.8204 81.0081C41.0687 80.7203 42.9477 79.2757 44.4846 77.7063C45.31 76.87 46.0595 75.9631 46.8306 75.0779C47.3194 74.5348 47.8081 73.9917 48.2915 73.4487C48.7502 73.8473 49.2864 74.1468 49.8663 74.3284C50.8638 74.6269 51.9281 74.6177 52.9202 74.3018C53.9123 73.986 54.786 73.3783 55.4273 72.558C56.8393 73.8723 58.311 75.1593 60.1411 75.8653C61.9148 76.5877 63.8732 76.7228 65.7292 76.2509C69.0582 75.3385 71.5183 71.8141 70.4919 68.371C70.215 67.4207 69.5578 66.5083 69.7099 65.4819C69.7996 64.9572 69.9836 64.4531 70.253 63.9939C72.4524 62.4245 74.0218 59.7798 75.1677 57.412C76.2896 55.0086 77.0228 52.4424 77.3399 49.8091C77.8039 50.1111 78.245 50.4469 78.6596 50.8138C78.7635 50.8909 78.8855 50.94 79.0138 50.9564C79.1422 50.9728 79.2726 50.956 79.3926 50.9074C79.5126 50.8589 79.618 50.7803 79.6989 50.6793C79.7798 50.5783 79.8333 50.4581 79.8543 50.3304C80.2681 48.6669 80.1755 46.9176 79.5882 45.3071C80.2754 45.5983 80.9144 45.992 81.4835 46.4747C81.6575 46.6056 81.8756 46.6636 82.0916 46.6362C82.3076 46.6088 82.5045 46.4983 82.6402 46.3281C83.6829 45.0084 82.9769 43.1403 82.6402 41.674C82.2329 39.7678 81.7931 37.8726 81.2066 35.999C80.534 33.8176 79.5773 31.7343 78.3609 29.8026C78.4098 29.6994 78.4641 29.6017 78.5075 29.4876C78.8206 28.616 79.0781 27.7254 79.2787 26.8212C79.6838 25.0396 79.8843 23.2176 79.876 21.3906C79.8741 17.9483 79.1758 14.5419 77.8233 11.3765C78.3955 10.9557 79.0198 10.6107 79.6805 10.3501C79.8134 10.2914 79.9288 10.1995 80.0159 10.0833C80.103 9.96713 80.1588 9.83051 80.1779 9.68656C80.1969 9.54262 80.1787 9.39618 80.1249 9.26132C80.0711 9.12645 79.9835 9.00767 79.8706 8.91638C78.986 8.11792 77.9551 7.4983 76.8349 7.09169ZM16.4516 35.7492C15.6083 34.5235 14.8481 33.2426 14.1762 31.9151C12.9163 29.3736 12.1343 26.6366 12.433 23.7692C12.4567 23.5669 12.4016 23.3634 12.2793 23.2006C12.157 23.0378 11.9767 22.9283 11.7759 22.8949L10.9938 22.7808C11.1542 22.5876 11.2743 22.3641 11.3468 22.1237C11.4119 21.8394 11.418 21.5448 11.3647 21.258C11.3115 20.9713 11.2001 20.6985 11.0373 20.4565C10.8006 20.1288 10.4921 19.8595 10.1353 19.6694C9.7786 19.4793 9.38309 19.3733 8.97907 19.3595C11.2817 16.7962 16.1258 16.7039 19.1778 16.9592C21.272 17.1366 23.3316 17.6026 25.2981 18.344C26.2677 18.7019 27.2145 19.119 28.1329 19.593C28.9048 20.0609 29.7151 20.4625 30.555 20.7932C29.3018 21.8073 28.1104 22.8954 26.9871 24.0516C26.7698 23.2153 25.8303 23.0143 25.0972 22.7862C24.0111 22.4604 22.9793 22.1237 21.9149 21.8141C20.0033 21.2711 17.8962 20.8203 16.0389 21.8141C15.8953 21.8775 15.7755 21.9846 15.6965 22.1202C15.6175 22.2558 15.5834 22.4129 15.599 22.569C15.9141 24.8145 16.4825 27.0171 17.2934 29.1347C17.6935 30.17 18.1522 31.1817 18.6673 32.1649C18.9389 32.6809 19.2104 33.1913 19.5254 33.6964C19.6245 33.869 19.7332 34.0358 19.8512 34.196C19.2281 35.4863 18.6716 36.8076 18.184 38.1549C17.6409 37.3241 16.9947 36.5529 16.4516 35.7492ZM26.33 24.7141C24.1313 27.0855 22.2393 29.7238 20.6984 32.5668C20.5952 32.4039 20.4975 32.2573 20.4431 32.1595C18.8195 29.2713 17.701 26.127 17.1359 22.8623C18.5316 22.3627 20.063 22.6939 21.4804 23.0904C22.2896 23.3184 23.1096 23.5683 23.9025 23.8072C24.6626 23.9815 25.394 24.2631 26.0747 24.6435C26.1547 24.6827 26.2412 24.7066 26.33 24.7141ZM47.2542 72.2648C46.3306 73.0868 45.4885 73.9961 44.7398 74.9801C43.5505 76.3975 42.296 77.8692 40.6506 78.7816C39.9509 79.2095 39.1591 79.4643 38.3412 79.5248C37.5232 79.5853 36.7026 79.4496 35.9476 79.1291C34.3619 78.3471 34.0089 76.7071 34.0035 75.0779C33.998 73.4487 34.2261 71.939 33.846 70.4075C33.3952 68.5991 32.0484 67.6922 30.946 66.3345C29.8436 64.9769 29.2679 62.8481 30.4029 61.2406C31.652 59.4539 34.1121 59.9807 35.9259 60.3717C38.9744 61.0322 41.8603 62.2951 44.414 64.0862C45.12 64.5859 45.7879 65.1344 46.5156 65.596C46.1414 66.3843 45.9555 67.2488 45.9726 68.1212C46.0056 69.594 46.4475 71.0286 47.2488 72.2648H47.2542ZM54.9657 69.5875C54.0045 75.6861 44.6475 71.4502 47.7864 65.9978C48.0492 65.5371 48.4224 65.1489 48.8725 64.8683C48.9253 64.8397 48.9797 64.8143 49.0355 64.7922C49.3742 64.7228 49.7015 64.6057 50.0075 64.4447C50.3742 64.175 50.8178 64.0304 51.2729 64.032C51.773 64.1354 52.2417 64.3549 52.6414 64.6728C53.4433 65.1987 54.0843 65.936 54.4935 66.8033C54.9028 67.6706 55.0643 68.6341 54.9603 69.5875H54.9657ZM69.3949 61.9846C68.7378 63.3911 67.7657 64.6673 67.9395 66.3291C68.1133 67.9909 69.1886 69.1422 68.8247 70.804C68.6594 71.5045 68.3468 72.1618 67.9076 72.7321C67.4685 73.3023 66.9128 73.7725 66.2777 74.1112C65.4732 74.4889 64.6008 74.7009 63.7126 74.7345C62.8244 74.768 61.9386 74.6226 61.1078 74.3067C59.2288 73.6496 57.7625 72.3137 56.3179 70.9886C56.6678 69.976 56.7586 68.892 56.5822 67.8353C56.4058 66.7786 55.9677 65.7829 55.3078 64.9389C54.9756 64.5107 54.5822 64.1338 54.1403 63.8201C55.1938 62.6037 56.117 61.284 57.2303 60.111C58.4389 58.8163 59.7908 57.663 61.2598 56.6734C63.6819 55.0714 68.2436 53.8604 69.8185 57.2925C70.5028 58.7534 70.0575 60.5455 69.3895 61.9683L69.3949 61.9846ZM80.582 39.833C80.8155 40.8268 81.0273 41.8261 81.2337 42.8253C81.3982 43.3871 81.5073 43.9637 81.5595 44.5468C80.6255 44.0856 79.6152 43.7985 78.5781 43.6996C78.4658 43.6851 78.3516 43.7002 78.2468 43.7433C78.142 43.7864 78.0503 43.8561 77.9807 43.9454C77.9111 44.0348 77.8659 44.1408 77.8498 44.2529C77.8336 44.365 77.8469 44.4794 77.8884 44.5848C78.5162 45.922 78.7588 47.4076 78.589 48.875C78.1086 48.543 77.5997 48.254 77.0684 48.0116C76.9701 47.9708 76.8638 47.9529 76.7576 47.9594C76.6514 47.9658 76.548 47.9964 76.4554 48.0487C76.3627 48.1011 76.2832 48.1738 76.2229 48.2615C76.1626 48.3491 76.123 48.4494 76.1072 48.5546C75.9573 51.4053 75.2176 54.1938 73.9349 56.744C73.3275 57.9989 72.6 59.1919 71.7627 60.3065L71.6921 60.388C71.9193 59.3072 71.8708 58.1866 71.5509 57.1296C70.3561 53.4313 65.8813 52.7199 62.6772 54.0016C60.5943 54.9383 58.7103 56.2656 57.1271 57.9116C55.5685 59.4268 53.9936 61.1972 53.1356 63.2174C52.1102 62.7561 50.9614 62.6456 49.8669 62.9028C48.7724 63.16 47.7931 63.7706 47.0804 64.6402C45.8803 63.1956 43.9958 62.1312 42.3938 61.2678C40.58 60.2995 38.6489 59.5694 36.6482 59.0955C34.6931 58.6176 32.2765 58.1017 30.4464 59.2204C29.6923 59.7231 29.0928 60.4256 28.715 61.2494C28.3371 62.0732 28.1958 62.9858 28.3067 63.8853C28.3042 63.9033 28.3042 63.9216 28.3067 63.9396C28.1221 63.7604 27.9266 63.5975 27.7636 63.3966C26.9805 62.5777 26.2718 61.6908 25.6457 60.7464C24.9207 59.6484 24.3231 58.4714 23.8645 57.2382C23.6483 56.6521 23.467 56.0537 23.3214 55.4461C23.2454 55.1257 23.1856 54.7999 23.1096 54.4795C23.0332 54.2446 22.9715 54.0052 22.9249 53.7626C22.9634 53.6708 22.9725 53.5694 22.9511 53.4722C22.9297 53.375 22.8789 53.2868 22.8055 53.2195L22.7294 53.1544C22.6588 53.0973 22.574 53.0606 22.484 53.0482C22.3941 53.0357 22.3024 53.0481 22.219 53.0838C22.0911 53.1487 21.9794 53.2414 21.892 53.3551C21.8046 53.4688 21.7438 53.6006 21.7139 53.7409C21.0785 54.1265 20.4703 54.5501 19.8675 54.9845C19.771 54.0204 19.813 53.0475 19.9924 52.0954C20.0215 51.9373 20.0021 51.7742 19.9369 51.6272C19.8717 51.4803 19.7637 51.3566 19.6269 51.2721C19.4902 51.1876 19.3312 51.1463 19.1706 51.1537C19.0101 51.161 18.8555 51.2167 18.7271 51.3134L17.4509 52.3995C17.2793 46.2089 18.5823 40.0662 21.2523 34.4784C24.1655 28.5221 28.6091 23.4468 34.1284 19.7722C35.6491 18.7577 37.2387 17.8504 38.8856 17.0569C40.4279 16.3021 42.0571 15.6721 43.5234 14.7978C44.4422 14.497 45.3779 14.2504 46.3256 14.0592L45.3589 15.0041C45.2633 15.0833 45.1954 15.191 45.1654 15.3114C45.1354 15.4319 45.1448 15.5588 45.1921 15.6736C45.2395 15.7883 45.3224 15.8849 45.4286 15.9491C45.5349 16.0134 45.6589 16.0419 45.7825 16.0305C52.2795 15.6331 58.7652 16.9733 64.5725 19.9134C68.5374 21.853 72.0267 24.6417 74.7927 28.0815C77.5586 31.5213 79.5333 35.5279 80.5766 39.8167L80.582 39.833ZM63.9969 18.1105C64.335 17.737 64.7551 17.447 65.2242 17.2633C65.5446 17.0678 65.865 16.8668 66.1963 16.6876C66.9783 16.2459 67.7693 15.826 68.5695 15.4277C69.9217 14.7435 71.2848 14.0918 72.7022 13.5216C73.0862 14.3472 73.3793 15.2121 73.5765 16.1011C73.7621 17.1768 73.8367 18.2686 73.7992 19.3595C73.7666 20.4728 73.658 21.5806 73.5222 22.6831C73.4679 23.1284 73.4027 23.5845 73.3376 24.0299C70.5452 21.5835 67.3929 19.5815 63.9914 18.0942L63.9969 18.1105ZM76.2918 10.3772C76.1456 10.4928 76.0406 10.6525 75.9927 10.8326C75.9447 11.0127 75.9563 11.2035 76.0257 11.3765C77.2751 14.1767 77.9739 17.1912 78.0839 20.2556C78.1348 21.7674 78.0384 23.2807 77.7961 24.7739C77.6766 25.5124 77.5354 26.2456 77.3562 26.9461C77.2802 27.2774 77.1824 27.5978 77.0847 27.9182C76.5761 27.2524 76.0323 26.6143 75.4555 26.0066C75.1894 25.7296 74.9124 25.4636 74.6246 25.2029C74.7777 24.9599 74.8725 24.6848 74.9016 24.3991C74.9939 23.7746 75.0699 23.1555 75.1405 22.531C75.2899 21.3202 75.366 20.1016 75.3686 18.8816C75.3686 16.6659 75.0754 13.918 73.6634 12.1042C73.5685 11.9826 73.4367 11.8952 73.2878 11.855C73.139 11.8148 72.9811 11.8242 72.8379 11.8815C71.1707 12.6527 69.4927 13.3804 67.8635 14.233C66.1917 15.0115 64.6032 15.9576 63.1225 17.0569C62.9976 17.1601 62.7804 17.4425 62.6338 17.4805C62.4872 17.5185 62.1667 17.3393 62.0093 17.2796C61.5314 17.0949 61.048 16.9212 60.5647 16.7365C60.0814 16.5519 59.6361 16.4324 59.169 16.2912C58.9735 16.2369 57.8983 15.7916 57.7516 15.9002C59.0713 14.9172 60.2714 13.7279 61.5531 12.6961C63.073 11.4618 64.6771 10.3349 66.3538 9.32368C69.1669 7.58862 72.3114 6.46031 75.5858 6.011C75.3306 6.28253 75.0754 6.55406 74.793 6.80387C74.6701 6.9045 74.5786 7.03826 74.5293 7.18929C74.4801 7.34033 74.4752 7.5023 74.5152 7.65604C74.5552 7.80977 74.6384 7.94881 74.7551 8.05669C74.8717 8.16457 75.0167 8.23676 75.1731 8.26471C76.1006 8.46046 76.9831 8.8289 77.7744 9.35084C77.2477 9.64354 76.7512 9.98731 76.2918 10.3772Z" fill="#D47939"/>
<path d="M50.8112 45.0464C50.4757 44.8729 50.1026 44.7852 49.725 44.7911C49.084 44.7341 48.4397 44.7232 47.7971 44.7586C47.1337 44.7945 46.4743 44.8853 45.8258 45.0301C45.0981 45.1984 44.3161 45.4863 44.1966 46.3389C44.1753 46.6098 44.2166 46.882 44.3174 47.1344C44.4181 47.3868 44.5756 47.6126 44.7777 47.7943C44.8028 47.9129 44.843 48.0279 44.8972 48.1364C45.2035 48.594 45.6043 48.9806 46.0728 49.2701C46.5412 49.5596 47.0662 49.7452 47.6125 49.8145C48.1589 49.8935 48.7163 49.8356 49.2348 49.6461C49.7532 49.4565 50.2165 49.1411 50.5831 48.7284C50.9081 48.3638 51.1444 47.929 51.2735 47.4579C51.4026 46.9869 51.4209 46.4924 51.3271 46.013C51.2693 45.6418 51.0875 45.301 50.8112 45.0464Z" fill="#875226"/>
<path d="M36.9794 45.4279C36.0176 44.7809 34.9775 44.259 33.8839 43.8747C32.789 43.4872 31.6478 43.2462 30.4898 43.1578C29.9189 43.1062 29.3445 43.1062 28.7737 43.1578C28.4647 43.1898 28.1604 43.2572 27.8668 43.3588C27.5946 43.4933 27.3348 43.6514 27.0902 43.8312C27.0381 43.8547 26.995 43.8942 26.9672 43.9441C26.9393 43.9939 26.9282 44.0513 26.9355 44.1079C26.9428 44.1645 26.9682 44.2173 27.0077 44.2584C27.0473 44.2995 27.0991 44.3268 27.1553 44.3363C27.4323 44.3797 27.6604 44.5101 27.9428 44.5481C28.1875 44.5826 28.4342 44.6007 28.6814 44.6024C29.2244 44.6024 29.7675 44.6024 30.2725 44.6458C31.3313 44.7196 32.3776 44.9183 33.3897 45.2378C34.3741 45.5622 35.3137 46.0092 36.1865 46.5683C36.6372 46.8561 37.088 47.1494 37.5442 47.4263C37.8917 47.6381 38.3425 47.9694 38.7661 47.9097C38.7932 47.9074 38.8188 47.896 38.8385 47.8772C38.8583 47.8584 38.871 47.8335 38.8747 47.8065C38.9561 47.3557 38.5705 46.8778 38.299 46.5574C37.9156 46.1196 37.4711 45.7392 36.9794 45.4279Z" fill="#D47939"/>
<path d="M31.1413 50.3575C32.0765 50.3175 33.0134 50.3703 33.9381 50.515C34.8016 50.6345 35.7682 50.8517 36.6209 50.6019C36.6604 50.585 36.695 50.5582 36.7212 50.5241C36.7474 50.4899 36.7643 50.4496 36.7703 50.407C36.7763 50.3644 36.7712 50.3209 36.7555 50.2809C36.7398 50.2408 36.714 50.2055 36.6806 50.1783C35.9475 49.5755 34.8396 49.4126 33.9273 49.2768C32.9 49.1177 31.8588 49.0667 30.8209 49.1248C29.9096 49.1752 29.0118 49.3675 28.1599 49.695C27.7514 49.8626 27.3603 50.0699 26.9923 50.3141C26.789 50.4439 26.606 50.6031 26.4493 50.7866C26.3135 50.9549 26.3189 51.1504 26.2158 51.3296C26.1126 51.5088 26.2646 51.8727 26.547 51.7641C26.6131 51.7276 26.6846 51.7019 26.7588 51.688C27.0603 51.6701 27.3512 51.5706 27.6006 51.4002C27.9353 51.218 28.2818 51.0584 28.6378 50.9223C29.4398 50.6112 30.2835 50.4208 31.1413 50.3575Z" fill="#D47939"/>
<path d="M36.2625 52.7864C35.7656 52.7565 35.267 52.7784 34.7745 52.8516C33.8344 52.9762 32.9187 53.2436 32.0592 53.6444C31.3173 54.0074 30.649 54.5045 30.0879 55.1107C29.8076 55.4116 29.5816 55.7589 29.4199 56.1371C29.3493 56.3119 29.2983 56.494 29.2679 56.6801C29.2434 56.8803 29.2434 57.0828 29.2679 57.2829C29.2679 57.5056 29.5883 57.5545 29.7078 57.4024C29.8272 57.2504 29.9793 57.1798 30.0933 57.0386L30.3975 56.6747C30.6087 56.4082 30.8335 56.1526 31.0709 55.909C31.5608 55.4316 32.1306 55.0438 32.7544 54.7631C33.5052 54.4329 34.2956 54.2011 35.1058 54.0734C35.524 54.0028 35.9421 53.9268 36.3549 53.8345C36.726 53.8116 37.0775 53.6598 37.3487 53.4055C37.3748 53.3681 37.3889 53.3235 37.3889 53.2778C37.3889 53.2322 37.3748 53.1876 37.3487 53.1502C37.0465 52.8945 36.6578 52.7643 36.2625 52.7864Z" fill="#D47939"/>
<path d="M61.9332 41.6253C62.8252 41.0502 63.7846 40.587 64.7897 40.2459C65.2947 40.0721 65.8106 39.9527 66.3211 39.806C66.5601 39.7354 66.7936 39.6648 67.0271 39.5725C67.2606 39.4802 67.4724 39.2793 67.7331 39.1652C67.7851 39.1418 67.8282 39.1022 67.8561 39.0524C67.8839 39.0026 67.895 38.9451 67.8877 38.8885C67.8804 38.8319 67.8551 38.7792 67.8155 38.738C67.7759 38.6969 67.7242 38.6696 67.6679 38.6602C67.3868 38.5471 67.096 38.4598 66.799 38.3995C66.4894 38.3759 66.1781 38.385 65.8704 38.4266C65.3043 38.5202 64.748 38.6656 64.2086 38.8611C63.1079 39.2359 62.0616 39.7545 61.0968 40.4034C60.1352 41.0485 59.2593 41.8131 58.4901 42.6788C58.093 43.1112 57.7618 43.5998 57.5072 44.1288C57.3765 44.3247 57.2869 44.5451 57.244 44.7766C57.201 45.0081 57.2056 45.2459 57.2574 45.4756C57.2678 45.5008 57.2862 45.5218 57.3098 45.5356C57.3333 45.5493 57.3607 45.5549 57.3877 45.5517C57.8167 45.5082 58.1697 45.0683 58.4738 44.7805C58.8486 44.3949 59.2124 44.0039 59.56 43.6075C60.2641 42.8491 61.0615 42.1831 61.9332 41.6253Z" fill="#D47939"/>
<path d="M70.0139 45.2484C69.82 45.108 69.6057 44.9982 69.3785 44.9226C68.9639 44.785 68.5362 44.6904 68.1023 44.6402C67.1969 44.5384 66.2813 44.575 65.387 44.7488C64.3682 44.9557 63.373 45.265 62.4164 45.672C61.5692 46.0304 60.5374 46.4649 59.9781 47.2306C59.8803 47.3664 59.94 47.6216 60.1355 47.627C61.0262 47.6542 61.9114 47.2089 62.7151 46.8722C63.5742 46.5037 64.4673 46.22 65.3815 46.025C66.2202 45.8614 67.0779 45.8194 67.9285 45.9001C68.3078 45.9439 68.6835 46.0147 69.0527 46.1119C69.337 46.2104 69.6422 46.2328 69.9379 46.1771C70.0137 46.1691 70.0901 46.1691 70.1659 46.1771C70.2255 46.1827 70.2852 46.1692 70.3366 46.1387C70.388 46.1082 70.4284 46.0621 70.4519 46.0071C70.4755 45.9522 70.481 45.8912 70.4676 45.8329C70.4543 45.7747 70.4228 45.7221 70.3777 45.6829C70.2311 45.5634 70.1877 45.3788 70.0139 45.2484Z" fill="#D47939"/>
<path d="M68.7432 51.6663C68.6667 51.5018 68.5739 51.3453 68.4662 51.1993C68.2156 50.8707 67.9085 50.5893 67.5593 50.3684C66.8669 49.9206 66.0971 49.6057 65.2893 49.4398C64.3637 49.2661 63.4171 49.2332 62.4817 49.342C61.986 49.3986 61.4968 49.5022 61.0208 49.6515C60.657 49.771 60.1899 49.9014 60.0162 50.2706C59.9987 50.3124 59.9951 50.3587 60.0058 50.4027C60.0166 50.4466 60.0411 50.486 60.0759 50.515C60.406 50.6997 60.7915 50.7595 61.162 50.6834C61.5856 50.6834 62.0092 50.6399 62.4328 50.6073C63.2492 50.5259 64.0728 50.5533 64.882 50.6888C65.5546 50.8054 66.2015 51.0388 66.7936 51.3785C67.0724 51.5534 67.3424 51.7419 67.6028 51.9433L67.9883 52.2202C68.135 52.3234 68.3142 52.3669 68.4499 52.4755C68.5857 52.5841 68.9007 52.4755 68.8464 52.2474C68.835 52.0503 68.8004 51.8553 68.7432 51.6663Z" fill="#D47939"/>
<path d="M75.3631 18.9047C75.3605 20.1246 75.2844 21.3433 75.135 22.5541C75.0645 23.1786 74.9884 23.7977 74.8961 24.4222C74.867 24.7079 74.7722 24.983 74.6191 25.2259C74.8961 25.4975 75.1622 25.769 75.45 26.0297C76.0268 26.6374 76.5706 27.2755 77.0792 27.9413C77.177 27.6209 77.2747 27.3005 77.3507 26.9692C77.53 26.2469 77.6712 25.5138 77.7906 24.7969C78.0329 23.3037 78.1293 21.7905 78.0784 20.2786C78.0192 18.7088 77.8083 17.1484 77.4485 15.6191C76.7493 16.0408 76.0017 16.3763 75.2219 16.6184C75.3124 17.3772 75.3595 18.1405 75.3631 18.9047Z" fill="#E1A159"/>
<path d="M59.1634 16.3358C59.6305 16.477 60.0975 16.6237 60.5591 16.7811C61.0207 16.9386 61.5258 17.1178 62.0036 17.3242C62.1611 17.3839 62.4598 17.5686 62.6282 17.5251C62.7965 17.4817 62.992 17.2047 63.1169 17.1016C63.6645 16.66 64.2435 16.2588 64.8493 15.9014C64.3431 15.8731 63.8595 15.6827 63.4699 15.3583C62.7259 14.7392 62.2589 13.387 62.2263 12.2031C61.9982 12.3823 61.7593 12.5615 61.5312 12.7462C60.2658 13.7726 59.0657 14.9673 57.7297 15.9503C57.8927 15.8362 58.9679 16.2815 59.1634 16.3358Z" fill="#E1A159"/>
<path d="M14.1761 31.9159C14.8481 33.2433 15.6083 34.5242 16.4516 35.7499C16.9946 36.5536 17.6518 37.3248 18.1785 38.1557C18.6684 36.8138 19.2267 35.4978 19.8512 34.213C19.7332 34.0528 19.6244 33.886 19.5253 33.7134C19.2266 33.2084 18.9388 32.6979 18.6673 32.182C18.1516 31.1935 17.6929 30.1763 17.2933 29.1354C16.9403 28.2176 16.6471 27.2781 16.3864 26.3332C15.0559 26.0888 13.7091 25.7195 12.384 25.3828C12.5059 27.6638 13.1171 29.8919 14.1761 31.9159Z" fill="#E1A159"/>
<path d="M25.2437 22.7986C25.9551 23.0104 26.7968 23.2385 27.0032 24.0259C28.1265 22.8697 29.318 21.7816 30.5711 20.7675C29.7312 20.4368 28.921 20.0353 28.149 19.5674C27.606 19.2958 27.0629 19.0243 26.5199 18.8125C26.1763 20.166 25.7501 21.4972 25.2437 22.7986Z" fill="#E1A159"/>
<path d="M35.5619 58.7979C34.6352 57.4775 33.8005 56.0949 33.0638 54.6598C32.9769 54.6978 32.89 54.725 32.8031 54.7684C32.1793 55.0491 31.6096 55.4369 31.1197 55.9143C30.8823 56.1579 30.6575 56.4134 30.4463 56.68L30.1421 57.0438C30.0281 57.185 29.8652 57.2719 29.7566 57.4077C29.6479 57.5434 29.3167 57.5109 29.3167 57.2882C29.2922 57.088 29.2922 56.8856 29.3167 56.6854C29.3471 56.4993 29.3981 56.3172 29.4687 56.1423C29.6282 55.7626 29.8524 55.4135 30.1313 55.1105C30.6923 54.5044 31.3607 54.0072 32.1026 53.6442C32.2329 53.5791 32.3741 53.5248 32.5099 53.465C32.0374 52.4604 31.603 51.4177 31.2065 50.3587H31.1631C30.3114 50.4074 29.4715 50.5812 28.6704 50.8746C28.3144 51.0107 27.9679 51.1703 27.6332 51.3525C27.3838 51.5229 27.0929 51.6224 26.7914 51.6403C26.7172 51.6542 26.6457 51.6799 26.5796 51.7164C26.2972 51.8358 26.1126 51.5046 26.2484 51.2819C26.3841 51.0593 26.3461 50.9289 26.4819 50.7389C26.6386 50.5554 26.8216 50.3962 27.0249 50.2664C27.394 50.0316 27.785 49.8334 28.1925 49.6745C29.0255 49.3635 29.9007 49.1804 30.7884 49.1314C30.2844 47.6456 29.8834 46.1269 29.5882 44.5859C29.295 44.5859 28.9963 44.5859 28.703 44.5859C28.4559 44.5843 28.2092 44.5661 27.9645 44.5316C27.6821 44.4936 27.454 44.3633 27.177 44.3198C27.1207 44.3104 27.069 44.2831 27.0294 44.242C26.9898 44.2008 26.9645 44.1481 26.9572 44.0915C26.9499 44.0349 26.961 43.9774 26.9888 43.9276C27.0167 43.8778 27.0598 43.8382 27.1118 43.8148C27.3564 43.6349 27.6163 43.4769 27.8884 43.3423C28.182 43.2408 28.4863 43.1734 28.7953 43.1414C28.9756 43.1198 29.1569 43.1089 29.3384 43.1088C29.1059 41.5271 29.0331 39.9261 29.1212 38.3298C28.2266 38.6575 27.4041 39.1554 26.6991 39.7961C26.5416 36.6952 28.4532 33.2794 29.7294 30.564C28.7736 30.6292 28.0242 31.5796 27.1281 31.9108C26.6991 30.9713 28.388 28.3755 28.8877 27.4631C30.395 24.8524 32.3089 22.4985 34.5572 20.4902C35.9565 19.2127 37.4466 18.0384 39.0158 16.9766L38.9126 17.0255C37.2657 17.8189 35.6761 18.7262 34.1554 19.7408C28.6362 23.4154 24.1925 28.4906 21.2793 34.4469C18.6093 40.0348 17.3063 46.1774 17.4779 52.368L18.7541 51.2819C18.8796 51.1897 19.0293 51.1362 19.1848 51.128C19.3403 51.1198 19.4948 51.1572 19.6293 51.2357C19.7637 51.3142 19.8723 51.4304 19.9417 51.5698C20.011 51.7092 20.038 51.8659 20.0194 52.0205C19.84 52.9726 19.798 53.9455 19.8945 54.9096C20.4973 54.4751 21.1056 54.0516 21.7409 53.666C21.7708 53.5257 21.8316 53.3939 21.919 53.2802C22.0064 53.1665 22.1181 53.0738 22.246 53.0089C22.3295 52.9731 22.4211 52.9608 22.511 52.9733C22.601 52.9857 22.6858 53.0224 22.7565 53.0795L22.8325 53.1446C22.9059 53.2118 22.9568 53.3001 22.9781 53.3973C22.9995 53.4945 22.9904 53.5959 22.952 53.6877C22.9986 53.9302 23.0602 54.1697 23.1366 54.4045C23.2126 54.7249 23.2724 55.0508 23.3484 55.3712C23.494 55.9787 23.6753 56.5771 23.8915 57.1633C24.3501 58.3965 24.9477 59.5735 25.6727 60.6715C26.2988 61.6159 27.0076 62.5028 27.7907 63.3217C27.9699 63.5063 28.1654 63.6692 28.3337 63.8647C28.3312 63.8467 28.3312 63.8284 28.3337 63.8104C28.2228 62.9109 28.3642 61.9983 28.742 61.1745C29.1199 60.3507 29.7193 59.6482 30.4734 59.1455C31.9668 58.2657 33.8567 58.4612 35.5619 58.7979Z" fill="#E1A159"/>
<path d="M62.8727 72.3308C62.2916 71.3641 62.0689 70.6364 62.5251 69.6155C62.7532 69.0996 64.0131 68.1221 63.7687 67.5301C63.2854 66.3354 60.1628 67.503 60.0216 65.4936C59.9293 64.1414 61.7214 63.0335 61.9712 61.6922C60.9176 61.0296 58.4087 62.5991 57.7733 61.3283C57.4637 60.7147 57.9634 59.6502 58.6476 58.6836C58.1534 59.1289 57.6755 59.5851 57.2248 60.063C56.1387 61.236 55.1883 62.5556 54.1348 63.7721C54.5767 64.0857 54.9702 64.4626 55.3024 64.8908C55.964 65.736 56.4032 66.7336 56.5796 67.7924C56.7561 68.8512 56.6642 69.9373 56.3125 70.9514C57.757 72.2765 59.2233 73.6124 61.1023 74.2695C62.3924 74.7368 63.7908 74.8179 65.1264 74.5031C64.2205 73.9588 63.4499 73.2161 62.8727 72.3308Z" fill="#D6838D"/>
<path d="M46.4938 65.5807C45.7661 65.1191 45.0981 64.5706 44.3921 64.071C43.5607 63.4892 42.6917 62.9631 41.7908 62.4961C42.0782 62.8374 42.3126 63.22 42.486 63.6311C43.029 65.168 41.9103 65.7165 40.9382 66.7374C41.4813 67.628 42.8987 67.5629 43.2788 68.7142C43.659 69.8655 42.6217 70.5769 42.3448 71.5327C46.5155 73.1619 41.8777 76.4583 41.2586 78.3807C42.5652 77.4108 43.7296 76.2629 44.718 74.9703C45.4667 73.9863 46.3087 73.0769 47.2323 72.2549C46.4243 71.0152 45.9785 69.5745 45.9453 68.0951C45.9316 67.2259 46.1193 66.3653 46.4938 65.5807Z" fill="#D6838D"/>
<path d="M52.4458 69.9132C50.6645 69.9784 48.3131 69.6362 47.1509 68.1211C47.0314 72.4059 54.1293 74.8605 54.9602 69.5874C54.9602 69.5493 54.9602 69.5113 54.9602 69.4733C54.1505 69.7517 53.3019 69.9002 52.4458 69.9132Z" fill="#D6838D"/>
<path d="M68.3738 58.0703C67.8579 56.8159 65.9789 55.4745 64.7895 56.7072C64.7237 56.7931 64.6783 56.8929 64.6568 56.9989C64.6353 57.105 64.6382 57.2146 64.6655 57.3193C64.6927 57.424 64.7435 57.5212 64.8139 57.6033C64.8843 57.6855 64.9726 57.7505 65.0719 57.7934C65.2078 57.8635 65.3519 57.9164 65.501 57.9509H65.5824L65.7182 58.0052L65.7616 58.0323L65.8648 58.1084L66.0114 58.2224C66.0386 58.2224 66.0386 58.2224 66.0386 58.2224C66.0473 58.24 66.0583 58.2564 66.0712 58.2713C66.1038 58.3093 66.2124 58.4668 66.2287 58.4831C66.2722 58.5674 66.3103 58.6545 66.3427 58.7437V58.7818C66.3427 58.8578 66.3427 58.9338 66.3753 59.0153C66.378 59.0587 66.378 59.1022 66.3753 59.1456C66.3715 59.2198 66.3715 59.2941 66.3753 59.3683C66.3615 59.507 66.3398 59.6448 66.3101 59.781C66.3101 59.781 66.3101 59.8842 66.2775 59.9276L66.2287 60.0742C66.1161 60.3937 65.9874 60.7073 65.8431 61.0138C65.539 61.66 65.0774 62.4746 65.3 63.186C65.374 63.5147 65.5533 63.8102 65.8105 64.0278C65.9465 64.119 66.1046 64.1717 66.2681 64.1803C66.4316 64.1889 66.5944 64.1531 66.7391 64.0766C67.5049 63.7779 67.7438 62.9905 68.0316 62.2954C68.5475 61.0246 68.9386 59.428 68.3738 58.0703Z" fill="#EDD0DC"/>
<path d="M67.4778 65.6182C67.4448 65.5566 67.4086 65.4968 67.3692 65.439V65.4118L67.3095 65.3412L67.1791 65.2055L67.0162 65.1132C66.9526 65.09 66.8872 65.0719 66.8207 65.0588H66.7284C66.6508 65.0507 66.5725 65.0507 66.4949 65.0588C66.3409 65.0804 66.201 65.16 66.1039 65.2815C66.0089 65.4052 65.966 65.5611 65.9844 65.7159C65.9874 65.7394 65.9874 65.7631 65.9844 65.7865C65.9757 65.8717 65.9888 65.9577 66.0224 66.0364C66.0362 66.1427 66.0733 66.2447 66.131 66.335V66.3839V66.4382C66.179 66.5519 66.2558 66.651 66.3537 66.7261C66.3788 66.7455 66.4062 66.7619 66.4351 66.7749C66.4351 66.7749 66.4351 66.7749 66.4732 66.8021C66.5358 66.8466 66.6086 66.8747 66.685 66.8835H66.837C66.8952 66.8755 66.9519 66.8591 67.0054 66.8347H67.0542C67.1406 66.802 67.2173 66.7478 67.2769 66.6772C67.3249 66.6405 67.3624 66.5918 67.3855 66.536C67.4076 66.5128 67.4243 66.4849 67.4344 66.4545C67.4475 66.4194 67.4566 66.383 67.4615 66.3459C67.4842 66.2903 67.4989 66.2318 67.505 66.1721C67.5132 66.0764 67.5132 65.9801 67.505 65.8843C67.5071 65.8754 67.5071 65.8661 67.505 65.8571L67.4778 65.6182Z" fill="#EDD0DC"/>
<path d="M34.2857 64.841C34.0888 64.5924 33.9262 64.3184 33.8024 64.0264C33.7589 63.9287 33.7209 63.8255 33.6829 63.7223C33.6829 63.7223 33.6558 63.6409 33.6449 63.5974C33.634 63.554 33.6449 63.5051 33.6449 63.4942C33.6449 63.4834 33.6449 63.3205 33.6123 63.2336C33.5797 63.1467 33.6123 63.1847 33.6123 63.1684C33.6123 63.1521 33.6123 63.0218 33.6123 62.9458C33.6123 62.8697 33.6123 62.8154 33.6123 62.7502V62.6688C33.6123 62.6688 33.6123 62.5493 33.6123 62.533C33.68 62.2882 33.7653 62.0486 33.8675 61.8162C33.9707 61.4795 33.8295 60.9527 33.3788 60.9473C32.9615 60.9844 32.5649 61.1454 32.2397 61.4095C31.9146 61.6737 31.6758 62.029 31.5541 62.4298C31.2778 63.3311 31.3615 64.3043 31.7876 65.1452C32.2238 65.9546 32.7289 66.725 33.2973 67.4477C33.5427 67.7795 33.7555 68.1341 33.9327 68.5067C34.0746 68.8324 34.3016 69.1137 34.5898 69.3213C34.6752 69.3795 34.7685 69.4252 34.8668 69.4571L35.084 69.5222C34.9917 69.4897 34.9863 69.5222 35.084 69.5222C35.1727 69.5596 35.2697 69.5728 35.3651 69.5604C35.4605 69.548 35.5509 69.5105 35.6271 69.4516C37.3214 68.1266 35.1383 66.0249 34.2857 64.841Z" fill="#EDD0DC"/>
<path d="M36.9034 71.6082L36.8545 71.4345C36.7891 71.2014 36.6476 70.9969 36.4526 70.8534C36.3221 70.7683 36.184 70.6956 36.0399 70.6362C35.9402 70.597 35.8324 70.5835 35.7261 70.5967C35.6199 70.61 35.5186 70.6497 35.4317 70.7122C35.3496 70.7759 35.2859 70.8602 35.247 70.9566C35.2173 71.0193 35.2024 71.0881 35.2036 71.1575V71.3639C35.1815 71.5342 35.2001 71.7072 35.2579 71.8689C35.28 71.9095 35.3 71.9512 35.3176 71.9938C35.3502 72.0753 35.3828 72.1567 35.41 72.2382C35.4201 72.2823 35.4328 72.3259 35.448 72.3685C35.4798 72.4423 35.518 72.5132 35.562 72.5803L35.6435 72.7107C35.696 72.778 35.7604 72.835 35.8335 72.879L35.8824 72.9388C35.9276 72.9964 35.9854 73.0429 36.0512 73.0749C36.1171 73.107 36.1893 73.1236 36.2626 73.1236C36.3358 73.1236 36.4081 73.107 36.4739 73.0749C36.5398 73.0429 36.5975 72.9964 36.6427 72.9388C36.6753 72.8953 36.697 72.8464 36.7242 72.803C36.8944 72.6323 36.9935 72.4032 37.0011 72.1622C37.0065 71.9728 36.9732 71.7843 36.9034 71.6082Z" fill="#EDD0DC"/>
<path d="M52.7879 66.8998C52.8299 66.8325 52.8578 66.7573 52.87 66.6789C52.8821 66.6005 52.8782 66.5205 52.8585 66.4436L52.8096 66.2807C52.7825 66.2155 52.7553 66.1558 52.7227 66.0906C52.6473 65.9252 52.5315 65.7815 52.3861 65.6724L52.0439 65.4661C51.9155 65.3976 51.781 65.3412 51.6421 65.2977C51.4696 65.23 51.2826 65.2076 51.099 65.2326C50.9795 65.2326 50.8546 65.2923 50.7406 65.3303C50.6349 65.3712 50.5427 65.4408 50.4745 65.5312C50.398 65.6345 50.3531 65.7577 50.3454 65.8859C50.3377 66.0142 50.3675 66.1419 50.431 66.2535C50.4962 66.3621 50.5902 66.4504 50.7025 66.5088L50.6645 66.4816L50.8709 66.6174C50.9462 66.6584 51.0265 66.6894 51.1098 66.7097C51.2592 66.7553 51.4031 66.8172 51.5389 66.8943C51.6402 66.9688 51.7572 67.0189 51.881 67.041L51.995 67.079C52.1461 67.1497 52.3172 67.165 52.4784 67.1224H52.5164C52.5634 67.1286 52.6112 67.1192 52.6524 67.0956C52.6936 67.0721 52.7259 67.0357 52.7445 66.9921V66.9649C52.7604 66.9442 52.7749 66.9224 52.7879 66.8998Z" fill="#EDD0DC"/>
<path d="M80.5764 39.8179C79.5357 35.5281 77.5633 31.52 74.7993 28.0783C72.0352 24.6366 68.5473 21.8457 64.5832 19.9037C59.2798 17.2258 53.4064 15.8729 47.4658 15.9611C51.0337 16.6725 54.6017 17.3459 57.9795 19.0511C61.3574 20.7563 64.8384 22.6082 68.1348 24.4818C69.8498 25.3621 71.2976 26.6861 72.3273 28.3158C73.3808 30.0536 74.6679 31.7642 75.5857 33.5618C77.4375 37.1406 79.6478 40.4641 80.9783 44.2764C81.1636 44.352 81.3449 44.4372 81.5213 44.5317C81.4691 43.9486 81.36 43.372 81.1955 42.8102C81.0217 41.8109 80.8099 40.8117 80.5764 39.8179Z" fill="#FBE668"/>
<path d="M46.3364 14.0332L46.2278 14.0603V14.131L46.3364 14.0332Z" fill="#FBE668"/>
<path d="M76.2917 10.3775C76.7512 10.0029 77.2459 9.67376 77.7688 9.39453C76.9775 8.87259 76.0951 8.50414 75.1675 8.3084C75.0112 8.28045 74.8661 8.20825 74.7495 8.10038C74.6329 7.9925 74.5496 7.85346 74.5096 7.69972C74.4696 7.54599 74.4745 7.38401 74.5238 7.23298C74.573 7.08194 74.6645 6.94818 74.7874 6.84756C75.0698 6.59775 75.3305 6.3045 75.5803 6.05469C72.3058 6.50399 69.1613 7.63232 66.3482 9.36738C65.9681 9.59004 65.5988 9.82355 65.2295 10.0625C65.9068 9.79031 66.5995 9.55821 67.304 9.36738C68.8409 8.98724 70.4157 8.82432 71.882 8.24867C71.3878 8.69941 70.8556 9.2642 70.9642 9.94846C72.4323 9.71533 73.9114 9.55762 75.3956 9.47598C74.8678 9.9792 74.4612 10.5957 74.2063 11.279C75.1426 11.7465 75.9958 12.3648 76.7316 13.1091C76.5252 12.528 76.3026 11.9469 76.0473 11.3767C75.9755 11.206 75.9604 11.0167 76.0045 10.8367C76.0485 10.6568 76.1492 10.4958 76.2917 10.3775Z" fill="#FBE668"/>
<path d="M19.1777 16.9333C16.1257 16.678 11.2816 16.7704 8.979 19.3336C9.3844 19.3493 9.7808 19.4578 10.1376 19.6508C10.4945 19.8438 10.8022 20.1162 11.0372 20.4469C11.2 20.6889 11.3114 20.9617 11.3647 21.2484C11.4179 21.5352 11.4118 21.8298 11.3468 22.1141C11.2742 22.3545 11.1542 22.578 10.9938 22.7712L11.7758 22.8852C11.9766 22.9187 12.1569 23.0282 12.2792 23.191C12.4016 23.3538 12.4566 23.5574 12.4329 23.7596C12.4303 23.7758 12.4303 23.7923 12.4329 23.8085C12.976 22.9287 13.4321 21.7448 13.2964 21.0931C12.9338 21.2377 12.5619 21.3575 12.1831 21.4516C12.6012 20.8325 14.0186 19.1653 12.5361 19.0186C13.4484 18.0303 15.5772 17.6555 16.8806 17.4383C17.944 17.2747 19.0199 17.2056 20.0955 17.232C20.5897 17.232 21.1817 17.27 21.8442 17.3026C20.9637 17.1254 20.0732 17.0021 19.1777 16.9333Z" fill="#FBE668"/>
<path d="M41.0362 37.1718C40.7491 36.7767 40.4215 36.4126 40.0587 36.0857C39.6604 35.7231 39.1856 35.4547 38.6695 35.3006C38.1534 35.1464 37.6092 35.1104 37.0772 35.1951C35.9579 35.4039 34.962 36.036 34.2967 36.9601C33.995 37.3942 33.7539 37.8674 33.5799 38.3666C33.3412 38.9039 33.2333 39.4901 33.2649 40.0772C33.2864 40.2091 33.3453 40.3319 33.4347 40.4311C33.5242 40.5303 33.6402 40.6016 33.7691 40.6366C33.898 40.6715 34.0343 40.6686 34.1615 40.6281C34.2888 40.5877 34.4017 40.5115 34.4868 40.4085C34.7305 40.0253 34.9291 39.6153 35.0788 39.1866C35.2377 38.8481 35.4325 38.5277 35.6598 38.2308C35.8807 37.9175 36.1567 37.647 36.4744 37.4325C36.588 37.3538 36.71 37.2883 36.8383 37.237C36.9901 37.1615 37.1535 37.112 37.3216 37.0904C37.6057 37.0308 37.9012 37.0592 38.1688 37.1718C38.2503 37.2044 38.3263 37.2479 38.4023 37.2859L38.5109 37.3565C38.587 37.4162 38.6684 37.476 38.739 37.5411L38.8368 37.628C39.0913 37.8891 39.317 38.1768 39.5102 38.4861C39.7005 38.8518 39.9563 39.1794 40.265 39.4527C40.3265 39.504 40.3963 39.5444 40.4714 39.5722C40.6036 39.6276 40.7463 39.6535 40.8895 39.6482H40.9493C41.1487 39.6233 41.3346 39.534 41.4787 39.3939C41.6228 39.2537 41.7172 39.0703 41.7476 38.8716C41.8562 38.2417 41.3837 37.6606 41.0362 37.1718Z" fill="#875226"/>
<path d="M59.5327 34.833C59.2457 34.4379 58.9181 34.0738 58.5552 33.7469C58.1576 33.3833 57.6828 33.1143 57.1665 32.96C56.6502 32.8058 56.1057 32.7704 55.5738 32.8563C54.4544 33.065 53.4586 33.6972 52.7933 34.6213C52.4924 35.053 52.2529 35.5246 52.0819 36.0223C51.8395 36.5605 51.7296 37.149 51.7615 37.7384C51.7829 37.8702 51.8419 37.9931 51.9313 38.0923C52.0207 38.1915 52.1368 38.2628 52.2657 38.2977C52.3946 38.3327 52.5308 38.3298 52.6581 38.2893C52.7854 38.2489 52.8983 38.1726 52.9834 38.0697C53.2266 37.6855 53.427 37.2757 53.5808 36.8478C53.7332 36.5071 53.9265 36.1861 54.1564 35.892C54.3773 35.5787 54.6533 35.3082 54.971 35.0937C55.0852 35.0162 55.2071 34.9506 55.3349 34.8982C55.4867 34.8227 55.65 34.7732 55.8182 34.7516C56.1023 34.6917 56.3979 34.7201 56.6654 34.833C56.7458 34.8656 56.8238 34.9037 56.8989 34.9471L57.0075 35.0177L57.241 35.2023L57.3333 35.2892C57.5879 35.5516 57.8153 35.8391 58.0122 36.1473C58.2007 36.5174 58.4546 36.8504 58.7616 37.1302C58.8239 37.1803 58.8935 37.2206 58.968 37.2497C59.1002 37.305 59.2429 37.331 59.3861 37.3257H59.4567C59.656 37.2994 59.8412 37.2088 59.9843 37.0677C60.1274 36.9266 60.2206 36.7426 60.2496 36.5437C60.3528 35.9029 59.8803 35.3164 59.5327 34.833Z" fill="#875226"/>
<path d="M53.7925 50.7826C53.6519 50.7415 53.5024 50.7418 53.3619 50.7832C53.2213 50.8245 53.0956 50.9054 52.9996 51.0161C52.6358 51.3636 52.7064 51.7764 52.4566 52.1891C52.2981 52.4925 52.0658 52.751 51.7811 52.9408C51.4963 53.1306 51.1683 53.2457 50.8274 53.2752C50.1974 53.2481 50.1105 52.6235 49.6978 52.276C49.5705 52.1634 49.4194 52.081 49.2558 52.0349C49.0922 51.9889 48.9203 51.9803 48.7529 52.0099C48.5467 52.0628 48.3563 52.1644 48.1976 52.3061C48.0388 52.4479 47.9164 52.6256 47.8405 52.8245C47.5147 53.4381 47.0477 54.2364 46.2113 54.0084C45.375 53.7803 45.0709 52.7539 44.2454 52.5367C44.1305 52.521 44.0139 52.5508 43.9206 52.6198C43.8273 52.6888 43.7646 52.7914 43.7458 52.9059C43.6698 53.563 44.2455 54.1604 44.6853 54.584C45.1508 55.0536 45.7613 55.3522 46.4177 55.4312C47.0916 55.4791 47.7577 55.2629 48.275 54.8284C48.5144 54.628 48.7295 54.4001 48.9158 54.1496C48.9358 54.1218 48.954 54.0928 48.9701 54.0627V54.0952C49.2301 54.3992 49.5626 54.6327 49.9368 54.7741C50.3189 54.9105 50.7257 54.9642 51.1302 54.9314C51.5347 54.8986 51.9276 54.7802 52.2828 54.584C53.0236 54.1973 53.6408 53.6102 54.064 52.8896C54.5256 52.1837 54.7103 51.103 53.7925 50.7826Z" fill="#875226"/>
<path d="M67.3909 35.6524C67.3225 35.5239 67.226 35.4125 67.1085 35.3265C66.9135 35.0705 66.6578 34.8671 66.3645 34.7346C65.919 34.5621 65.4377 34.5024 64.9634 34.5608C64.516 34.5908 64.077 34.6973 63.6655 34.8758L63.5841 34.9192C63.496 34.9524 63.4107 34.9924 63.3288 35.0387C63.1985 35.1093 63.0736 35.1799 62.9541 35.2559C62.7417 35.392 62.5663 35.5785 62.4436 35.799C62.3793 35.9312 62.3284 36.0694 62.2916 36.2117C62.2623 36.3437 62.2685 36.481 62.3096 36.6097C62.3506 36.7385 62.4249 36.8541 62.5251 36.9449C62.5761 37.0794 62.6495 37.2042 62.7423 37.3141C63.9425 38.6989 66.6252 37.7377 67.3746 36.3801C67.4332 36.2682 67.4651 36.1443 67.468 36.0181C67.4708 35.8919 67.4444 35.7667 67.3909 35.6524Z" fill="#D6838D"/>
<path d="M31.9615 40.1327C31.8915 40.0022 31.7931 39.889 31.6737 39.8014C31.4789 39.5488 31.2254 39.3474 30.9351 39.2149C30.4876 39.0427 30.0046 38.983 29.5286 39.0411C29.0829 39.0711 28.6456 39.1777 28.2361 39.3561L28.1492 39.3996C28.0616 39.4338 27.9764 39.4737 27.894 39.519C27.769 39.5842 27.6441 39.6602 27.5247 39.7363C27.3008 39.8686 27.1139 40.0554 26.9816 40.2793C26.9197 40.4125 26.8688 40.5505 26.8295 40.6921C26.8014 40.824 26.8082 40.961 26.8491 41.0896C26.8901 41.2181 26.9638 41.3338 27.0631 41.4252C27.1173 41.5593 27.1925 41.6839 27.2857 41.7945C28.4859 43.1793 31.1686 42.2181 31.9181 40.8604C31.9798 40.7503 32.0157 40.6276 32.0232 40.5015C32.0308 40.3755 32.0097 40.2494 31.9615 40.1327Z" fill="#D6838D"/>
</g>
<defs>
<clipPath id="clip0_789_34299">
<rect width="87.2758" height="88.0632" fill="white" transform="translate(0.251953)"/>
</clipPath>
</defs>
</svg>
