<svg width="32" height="22" viewBox="0 0 32 22" fill="none" xmlns="http://www.w3.org/2000/svg">
<rect width="32" height="22" rx="4" fill="#3F434A"/>
<path d="M13.55 10.12C13.39 9.82667 13.17 9.60333 12.89 9.45C12.61 9.29667 12.2833 9.22 11.91 9.22C11.4967 9.22 11.13 9.31333 10.81 9.5C10.49 9.68667 10.24 9.95333 10.06 10.3C9.88 10.6467 9.79 11.0467 9.79 11.5C9.79 11.9667 9.88 12.3733 10.06 12.72C10.2467 13.0667 10.5033 13.3333 10.83 13.52C11.1567 13.7067 11.5367 13.8 11.97 13.8C12.5033 13.8 12.94 13.66 13.28 13.38C13.62 13.0933 13.8433 12.6967 13.95 12.19H11.55V11.12H15.33V12.34C15.2367 12.8267 15.0367 13.2767 14.73 13.69C14.4233 14.1033 14.0267 14.4367 13.54 14.69C13.06 14.9367 12.52 15.06 11.92 15.06C11.2467 15.06 10.6367 14.91 10.09 14.61C9.55 14.3033 9.12333 13.88 8.81 13.34C8.50333 12.8 8.35 12.1867 8.35 11.5C8.35 10.8133 8.50333 10.2 8.81 9.66C9.12333 9.11333 9.55 8.69 10.09 8.39C10.6367 8.08333 11.2433 7.93 11.91 7.93C12.6967 7.93 13.38 8.12333 13.96 8.51C14.54 8.89 14.94 9.42667 15.16 10.12H13.55ZM17.7658 8.02V15H16.3658V8.02H17.7658ZM23.459 8.02V9.15H20.549V10.94H22.779V12.05H20.549V15H19.149V8.02H23.459Z" fill="white"/>
</svg>
