<svg width="24" height="24" viewBox="0 0 24 24" fill="none" xmlns="http://www.w3.org/2000/svg">
<g clip-path="url(#clip0_635_47588)">
<path d="M12.512 11.1309V24.0001H20.8406C21.3429 23.9993 21.8243 23.7994 22.1795 23.4443C22.5347 23.0891 22.7345 22.6076 22.7353 22.1054V11.1279L12.512 11.1309Z" fill="#3F434A"/>
<path d="M11.4872 11.1309H1.26166V22.1083C1.26206 22.6107 1.46181 23.0924 1.81705 23.4477C2.1723 23.8029 2.654 24.0027 3.15639 24.0031H11.488L11.4872 11.1309Z" fill="#3F434A"/>
<path d="M23.3677 5.05263H19.5782C19.9301 4.58347 20.1443 4.02558 20.197 3.44149C20.2497 2.8574 20.1387 2.27019 19.8764 1.74564C19.6141 1.2211 19.211 0.779949 18.7121 0.471629C18.2132 0.16331 17.6383 0 17.0519 0C15.2955 0 13.8233 1.39173 13.103 2.2203C12.6817 2.70074 12.3118 3.22388 11.9992 3.7812C11.6857 3.22468 11.3161 2.70166 10.8962 2.2203C10.1744 1.39323 8.7015 0 6.94662 0C6.36022 0.000139605 5.78545 0.16355 5.28668 0.471925C4.78792 0.7803 4.38488 1.22146 4.12269 1.74598C3.86051 2.2705 3.74955 2.85766 3.80225 3.44168C3.85495 4.0257 4.06922 4.58352 4.42105 5.05263H0.631579C0.464135 5.05283 0.303606 5.11944 0.185205 5.23784C0.0668045 5.35624 0.000199434 5.51677 4.5081e-07 5.68421V9.47369C-9.87505e-05 9.55662 0.016175 9.63876 0.047889 9.71538C0.0796029 9.79201 0.126132 9.86163 0.18481 9.92024C0.243487 9.97884 0.313157 10.0253 0.389824 10.0569C0.466491 10.0885 0.548647 10.1047 0.631579 10.1045H23.3677C23.535 10.1045 23.6956 10.0381 23.814 9.91979C23.9324 9.80151 23.9991 9.64106 23.9993 9.47369V5.68421C23.9989 5.51683 23.9322 5.35641 23.8138 5.23806C23.6955 5.1197 23.5351 5.05303 23.3677 5.05263ZM6.94737 5.05263C6.44485 5.05263 5.96292 4.85301 5.60759 4.49768C5.25226 4.14234 5.05263 3.66041 5.05263 3.15789C5.05263 2.65538 5.25226 2.17345 5.60759 1.81811C5.96292 1.46278 6.44485 1.26316 6.94737 1.26316C7.86391 1.26316 8.95639 1.91504 9.94511 3.04962C10.5526 3.74887 10.9977 4.49549 11.2143 5.05263H6.94737ZM17.0519 5.05263H12.785C13.0038 4.49549 13.4459 3.74887 14.0556 3.04962C15.0414 1.91429 16.1346 1.26316 17.0519 1.26316C17.5544 1.26316 18.0363 1.46278 18.3917 1.81811C18.747 2.17345 18.9466 2.65538 18.9466 3.15789C18.9466 3.66041 18.747 4.14234 18.3917 4.49768C18.0363 4.85301 17.5544 5.05263 17.0519 5.05263Z" fill="#3F434A"/>
</g>
<defs>
<clipPath id="clip0_635_47588">
<rect width="23.9992" height="24" fill="white"/>
</clipPath>
</defs>
</svg>
