<svg width="16" height="16" viewBox="0 0 16 16" fill="none" xmlns="http://www.w3.org/2000/svg">
<path fill-rule="evenodd" clip-rule="evenodd" d="M12.9163 14.1451C13.2557 14.4844 13.806 14.4844 14.1453 14.1451C14.4848 13.8057 14.4848 13.2553 14.1453 12.9159L9.22908 7.99958L14.1454 3.08325C14.4848 2.74384 14.4848 2.19357 14.1454 1.85416C13.8059 1.51476 13.2557 1.51476 12.9163 1.85416L7.99996 6.77047L3.08361 1.85417C2.74421 1.51477 2.19393 1.51477 1.85453 1.85417C1.51512 2.19358 1.51512 2.74387 1.85453 3.08327L6.77084 7.99958L1.85454 12.9159C1.51514 13.2553 1.51514 13.8056 1.85454 14.1451C2.19394 14.4844 2.74422 14.4844 3.08362 14.1451L7.99996 9.2287L12.9163 14.1451Z" fill="#3F434A"/>
</svg>
