<svg width="20" height="14" viewBox="0 0 20 14" fill="none" xmlns="http://www.w3.org/2000/svg">
<rect width="20" height="13.5385" rx="1.81818" fill="#3F434A"/>
<path d="M8.13531 5.32696C8.00731 5.09229 7.83131 4.91362 7.60731 4.79096C7.38331 4.66829 7.12198 4.60696 6.82331 4.60696C6.49265 4.60696 6.19931 4.68162 5.94331 4.83096C5.68731 4.98029 5.48731 5.19362 5.34331 5.47096C5.19931 5.74829 5.12731 6.06829 5.12731 6.43096C5.12731 6.80429 5.19931 7.12962 5.34331 7.40696C5.49265 7.68429 5.69798 7.89762 5.95931 8.04696C6.22065 8.19629 6.52465 8.27096 6.87131 8.27096C7.29798 8.27096 7.64731 8.15896 7.91931 7.93496C8.19131 7.70562 8.36998 7.38829 8.45531 6.98296H6.53531V6.12696H9.55931V7.10296C9.48465 7.49229 9.32465 7.85229 9.07931 8.18296C8.83398 8.51362 8.51665 8.78029 8.12731 8.98296C7.74331 9.18029 7.31131 9.27896 6.83131 9.27896C6.29265 9.27896 5.80465 9.15896 5.36731 8.91896C4.93531 8.67362 4.59398 8.33496 4.34331 7.90296C4.09798 7.47096 3.97531 6.98029 3.97531 6.43096C3.97531 5.88162 4.09798 5.39096 4.34331 4.95896C4.59398 4.52162 4.93531 4.18296 5.36731 3.94296C5.80465 3.69762 6.28998 3.57496 6.82331 3.57496C7.45265 3.57496 7.99931 3.72962 8.46331 4.03896C8.92731 4.34296 9.24731 4.77229 9.42331 5.32696H8.13531ZM11.5079 3.64696V9.23096H10.3879V3.64696H11.5079ZM16.0625 3.64696V4.55096H13.7345V5.98296H15.5185V6.87096H13.7345V9.23096H12.6145V3.64696H16.0625Z" fill="white"/>
</svg>
