<svg width="22" height="22" viewBox="0 0 22 22" fill="none" xmlns="http://www.w3.org/2000/svg">
<path fill-rule="evenodd" clip-rule="evenodd" d="M12.8327 2.75008V3.0158C15.4832 3.80464 17.416 6.25998 17.416 9.16675V15.5834H18.3327V17.4167H3.66602V15.5834H4.58268V9.16675C4.58268 6.25998 6.51548 3.80464 9.16602 3.0158V2.75008C9.16602 1.73756 9.98683 0.916748 10.9993 0.916748C12.0119 0.916748 12.8327 1.73756 12.8327 2.75008ZM6.41602 15.5834H15.5827V9.16675C15.5827 6.63544 13.5307 4.58341 10.9993 4.58341C8.46804 4.58341 6.41602 6.63544 6.41602 9.16675V15.5834ZM12.8327 19.2501V18.3334H9.16602V19.2501C9.16602 20.2626 9.98683 21.0834 10.9993 21.0834C12.0119 21.0834 12.8327 20.2626 12.8327 19.2501Z" fill="white"/>
</svg>
