<svg width="18" height="18" viewBox="0 0 18 18" fill="none" xmlns="http://www.w3.org/2000/svg">
<path fill-rule="evenodd" clip-rule="evenodd" d="M14.5317 15.9134C14.9135 16.2952 15.5325 16.2952 15.9143 15.9134C16.2962 15.5316 16.2962 14.9125 15.9143 14.5307L10.3835 8.99978L15.9144 3.4689C16.2962 3.08707 16.2962 2.468 15.9144 2.08618C15.5325 1.70435 14.9135 1.70435 14.5317 2.08618L9.00077 7.61702L3.46987 2.08619C3.08804 1.70436 2.46898 1.70436 2.08715 2.08619C1.70532 2.46802 1.70532 3.08709 2.08715 3.46892L7.61801 8.99978L2.08716 14.5307C1.70534 14.9125 1.70534 15.5315 2.08716 15.9134C2.46899 16.2952 3.08806 16.2952 3.46989 15.9134L9.00077 10.3825L14.5317 15.9134Z" fill="#8A9099"/>
</svg>
