<svg width="17" height="16" viewBox="0 0 17 16" fill="none" xmlns="http://www.w3.org/2000/svg">
<path fill-rule="evenodd" clip-rule="evenodd" d="M1.5 6.85583C1.5 3.89789 3.89789 1.5 6.85583 1.5C9.81378 1.5 12.2117 3.89789 12.2117 6.85583C12.2117 9.81378 9.81378 12.2117 6.85583 12.2117C3.89789 12.2117 1.5 9.81378 1.5 6.85583ZM6.85583 0C3.06946 0 0 3.06946 0 6.85583C0 10.6422 3.06946 13.7117 6.85583 13.7117C8.4792 13.7117 9.9708 13.1474 11.1452 12.2044L14.7219 15.7811C15.0148 16.074 15.4896 16.074 15.7825 15.7811C16.0754 15.4882 16.0754 15.0133 15.7825 14.7204L12.2057 11.1436C13.148 9.96942 13.7117 8.47846 13.7117 6.85583C13.7117 3.06946 10.6422 0 6.85583 0Z" fill="#C6C9CC"/>
</svg>
