<svg width="23" height="23" viewBox="0 0 23 23" fill="none" xmlns="http://www.w3.org/2000/svg">
<g clip-path="url(#clip0_789_30199)">
<path d="M18.723 0H4.27723C3.14329 0.00144927 2.05621 0.452578 1.25444 1.25444C0.452662 2.0563 0.00164872 3.14342 0.000320435 4.27736V18.7231C0.00176946 19.857 0.452836 20.944 1.2546 21.7457C2.05636 22.5475 3.14336 22.9986 4.27723 23H12.0703C12.1747 23.0003 12.2782 22.9799 12.3747 22.9399C12.4712 22.9 12.5589 22.8413 12.6325 22.7673L22.7676 12.6313C22.8416 12.5576 22.9002 12.4699 22.9402 12.3734C22.9801 12.2769 23.0005 12.1735 23.0003 12.0691V4.2769C22.9989 3.14296 22.5477 2.05589 21.7459 1.25412C20.944 0.452341 19.8569 0.00132829 18.723 0ZM3.58403 5.61538C3.58331 5.06803 3.77244 4.53737 4.11918 4.11386C4.46593 3.69035 4.94882 3.4002 5.48555 3.29289C6.02228 3.18557 6.57961 3.26773 7.06255 3.52535C7.54548 3.78297 7.92411 4.20012 8.13391 4.70567C8.3437 5.21121 8.37167 5.77388 8.21303 6.29774C8.0544 6.8216 7.71899 7.27422 7.26398 7.57846C6.80897 7.8827 6.26253 8.01971 5.71781 7.96614C5.17308 7.91258 4.6638 7.67174 4.27677 7.2847C3.83373 6.84207 3.58456 6.24164 3.58403 5.61538ZM11.2763 17.8433C9.63328 17.7833 8.07747 17.089 6.93559 15.9062C5.7937 14.7234 5.1546 13.1441 5.1525 11.5C5.14997 11.3942 5.16862 11.2889 5.20737 11.1903C5.24613 11.0918 5.30419 11.002 5.37816 10.9263C5.45212 10.8505 5.54049 10.7903 5.63806 10.7492C5.73564 10.7081 5.84045 10.6869 5.94632 10.6869C6.0522 10.6869 6.15701 10.7081 6.25458 10.7492C6.35216 10.7903 6.44052 10.8505 6.51449 10.9263C6.58845 11.002 6.64652 11.0918 6.68527 11.1903C6.72402 11.2889 6.74268 11.3942 6.74014 11.5C6.74154 12.7232 7.21327 13.899 8.05767 14.784C8.90207 15.669 10.0545 16.1954 11.2763 16.2542V17.8433ZM17.0541 3.25331C17.6014 3.25259 18.1321 3.44172 18.5556 3.78846C18.9791 4.13521 19.2693 4.6181 19.3766 5.15483C19.4839 5.69156 19.4017 6.24889 19.1441 6.73183C18.8865 7.21476 18.4694 7.5934 17.9638 7.80319C17.4583 8.01298 16.8956 8.04095 16.3717 7.88231C15.8479 7.72368 15.3952 7.38827 15.091 6.93326C14.7868 6.47825 14.6498 5.93181 14.7033 5.38709C14.7569 4.84237 14.9977 4.33308 15.3848 3.94605C15.8274 3.50301 16.4278 3.25384 17.0541 3.25331ZM12.863 20.2897V15.5533C12.8638 14.8398 13.1479 14.1557 13.6527 13.6515C14.1576 13.1473 14.8419 12.864 15.5554 12.864H20.2901L12.863 20.2897Z" fill="#3F434A"/>
</g>
<defs>
<clipPath id="clip0_789_30199">
<rect width="23" height="23" fill="white"/>
</clipPath>
</defs>
</svg>
