<svg width="52" height="52" viewBox="0 0 52 52" fill="none" xmlns="http://www.w3.org/2000/svg">
<g filter="url(#filter0_d_635_47558)">
<circle cx="26" cy="26" r="14" fill="#3F434A"/>
</g>
<path fill-rule="evenodd" clip-rule="evenodd" d="M27 21C27 20.4477 26.5523 20 26 20C25.4477 20 25 20.4477 25 21V25H21C20.4477 25 20 25.4477 20 26C20 26.5523 20.4477 27 21 27H25V31C25 31.5523 25.4477 32 26 32C26.5523 32 27 31.5523 27 31V27H31C31.5523 27 32 26.5523 32 26C32 25.4477 31.5523 25 31 25H27V21Z" fill="white"/>
<defs>
<filter id="filter0_d_635_47558" x="0" y="0" width="52" height="52" filterUnits="userSpaceOnUse" color-interpolation-filters="sRGB">
<feFlood flood-opacity="0" result="BackgroundImageFix"/>
<feColorMatrix in="SourceAlpha" type="matrix" values="0 0 0 0 0 0 0 0 0 0 0 0 0 0 0 0 0 0 127 0" result="hardAlpha"/>
<feOffset/>
<feGaussianBlur stdDeviation="6"/>
<feComposite in2="hardAlpha" operator="out"/>
<feColorMatrix type="matrix" values="0 0 0 0 0.802615 0 0 0 0 0.843113 0 0 0 0 0.883612 0 0 0 0.5 0"/>
<feBlend mode="normal" in2="BackgroundImageFix" result="effect1_dropShadow_635_47558"/>
<feBlend mode="normal" in="SourceGraphic" in2="effect1_dropShadow_635_47558" result="shape"/>
</filter>
</defs>
</svg>
