<svg width="24" height="24" viewBox="0 0 24 24" fill="none" xmlns="http://www.w3.org/2000/svg">
<path fill-rule="evenodd" clip-rule="evenodd" d="M12 24C5.37226 24 0 18.6277 0 12C0 5.37226 5.37226 0 12 0C18.6277 0 24 5.37226 24 12C24 18.6277 18.6277 24 12 24ZM12 19.6364C14.7285 19.6364 17.4558 17.8572 17.4558 15.1879C17.4558 14.2984 17.4558 15.1879 12.0012 15.1879C6.5467 15.1879 6.5467 14.2984 6.5467 15.1879C6.54545 17.8597 9.27023 19.6364 12 19.6364ZM7.63636 10.9091C8.06789 10.9091 8.48972 10.7811 8.84852 10.5414C9.20732 10.3016 9.48696 9.96089 9.6521 9.56222C9.81724 9.16354 9.86045 8.72485 9.77626 8.30162C9.69207 7.87839 9.48427 7.48963 9.17914 7.18449C8.87401 6.87936 8.48525 6.67156 8.06201 6.58738C7.63878 6.50319 7.20009 6.5464 6.80142 6.71154C6.40274 6.87667 6.06199 7.15632 5.82225 7.51512C5.58251 7.87392 5.45455 8.29575 5.45455 8.72727C5.45455 9.30593 5.68442 9.86088 6.09359 10.2701C6.50276 10.6792 7.05771 10.9091 7.63636 10.9091ZM16.3636 10.9091C16.7952 10.9091 17.217 10.7811 17.5758 10.5414C17.9346 10.3016 18.2142 9.96089 18.3794 9.56222C18.5445 9.16354 18.5877 8.72485 18.5035 8.30162C18.4193 7.87839 18.2115 7.48963 17.9064 7.18449C17.6013 6.87936 17.2125 6.67156 16.7893 6.58738C16.3661 6.50319 15.9274 6.5464 15.5287 6.71154C15.13 6.87667 14.7893 7.15632 14.5495 7.51512C14.3098 7.87392 14.1818 8.29575 14.1818 8.72727C14.1818 9.30593 14.4117 9.86088 14.8209 10.2701C15.23 10.6792 15.785 10.9091 16.3636 10.9091Z" fill="#3F434A"/>
</svg>
