<svg width="18" height="18" viewBox="0 0 18 18" fill="none" xmlns="http://www.w3.org/2000/svg">
<path fill-rule="evenodd" clip-rule="evenodd" d="M11.5 13.8649L9.95334 9.22575L14.5933 4.58492L11.5 13.8649ZM13.415 3.40658L8.775 8.04658L4.135 6.49992L13.415 3.40658ZM17.325 1.45658C17.3208 1.37908 17.3067 1.30408 17.2808 1.23158C17.2725 1.20575 17.2633 1.18075 17.2517 1.15575C17.2117 1.06658 17.1608 0.982416 17.0892 0.910749C17.0175 0.839083 16.9333 0.788249 16.8433 0.748249C16.8192 0.736583 16.795 0.727416 16.7692 0.719083C16.695 0.693249 16.6192 0.678249 16.54 0.674083C16.5217 0.673249 16.505 0.669083 16.4858 0.669083C16.4025 0.670749 16.3183 0.682416 16.2367 0.709083L1.23667 5.70908C0.895838 5.82325 0.666672 6.14075 0.666672 6.49992C0.666672 6.85908 0.895838 7.17742 1.23667 7.29075L8.34084 9.65908L10.71 16.7641C10.8233 17.1041 11.1408 17.3332 11.5 17.3332C11.8592 17.3332 12.1767 17.1041 12.29 16.7641L17.29 1.76408C17.3167 1.68158 17.3292 1.59825 17.33 1.51492C17.3308 1.49492 17.3258 1.47658 17.325 1.45658Z" fill="#8A9099"/>
</svg>
