<?xml version="1.0" encoding="UTF-8"?>
<!DOCTYPE svg PUBLIC "-//W3C//DTD SVG 1.1//EN" "http://www.w3.org/Graphics/SVG/1.1/DTD/svg11.dtd">
<svg xmlns="http://www.w3.org/2000/svg" version="1.1" width="16px" height="14px" style="shape-rendering:geometricPrecision; text-rendering:geometricPrecision; image-rendering:optimizeQuality; fill-rule:evenodd; clip-rule:evenodd" xmlns:xlink="http://www.w3.org/1999/xlink">
<g><path style="opacity:0.944" fill="#2abc54" d="M 2.5,-0.5 C 6.83333,-0.5 11.1667,-0.5 15.5,-0.5C 15.5,2.83333 15.5,6.16667 15.5,9.5C 13.3035,11.9764 11.1368,11.9764 9,9.5C 7.17386,11.1654 5.00719,12.1654 2.5,12.5C 1.83333,12.1667 1.16667,11.8333 0.5,11.5C 0.166667,11.5 -0.166667,11.5 -0.5,11.5C -0.5,9.16667 -0.5,6.83333 -0.5,4.5C 0.5,4.5 1.5,4.5 2.5,4.5C 2.5,2.83333 2.5,1.16667 2.5,-0.5 Z"/></g>
<g><path style="opacity:0.063" fill="#2abf4f" d="M 0.5,11.5 C 1.16667,11.8333 1.83333,12.1667 2.5,12.5C 2.5,12.8333 2.5,13.1667 2.5,13.5C 1.83333,13.5 1.16667,13.5 0.5,13.5C 0.5,12.8333 0.5,12.1667 0.5,11.5 Z"/></g>
</svg>
