<svg width="21" height="19" viewBox="0 0 21 19" fill="none" xmlns="http://www.w3.org/2000/svg">
<g clip-path="url(#clip0_16220_541)">
<path d="M20.1839 9.06364C20.1604 9.00793 20.1253 8.95791 20.0808 8.91698C20.0363 8.87604 19.9835 8.84514 19.926 8.82637C19.8686 8.8076 19.8077 8.8014 19.7477 8.80819C19.6876 8.81498 19.6297 8.83459 19.5778 8.86571C19.1349 9.13212 18.374 9.20694 17.5701 9.28611C16.8908 9.3534 16.1956 9.42189 15.5674 9.60953C15.5365 9.18952 15.4906 8.76754 15.4237 8.3507L15.4277 8.34476L15.4225 8.3412C14.9772 5.54605 13.6412 2.99989 10.2506 2.99989C6.35183 2.99989 5.1698 6.36903 4.93506 9.61071C4.30643 9.42189 3.61012 9.3534 2.93004 9.28611C2.12486 9.20694 1.36481 9.13212 0.921848 8.86571C0.869936 8.83465 0.81197 8.81508 0.751856 8.80833C0.691743 8.80157 0.630879 8.80778 0.573368 8.82654C0.515857 8.84529 0.463037 8.87616 0.418467 8.91706C0.373897 8.95796 0.338614 9.00795 0.314997 9.06364C0.294808 9.11352 -0.190909 10.2928 0.4294 11.3078C0.570232 11.5366 0.752545 11.7372 0.966975 11.8992C0.891762 12.2159 0.808632 12.8738 1.19855 13.4901C1.47288 13.9256 1.92099 14.2458 2.53378 14.4513C2.52604 14.8059 2.63417 15.1533 2.84176 15.4409C3.02156 15.686 3.25481 15.8869 3.52382 16.0284C3.49819 16.1475 3.48492 16.2691 3.48424 16.391V18.5175H17.0159V16.3922C17.0153 16.2696 17.0021 16.1474 16.9763 16.0276C17.2445 15.8866 17.4772 15.6866 17.6567 15.4425C17.8642 15.1548 17.9723 14.8074 17.9647 14.4528C18.5783 14.2475 19.0236 13.9271 19.3007 13.4917C19.6891 12.8754 19.6075 12.2186 19.5307 11.9008C19.7455 11.7389 19.9281 11.5383 20.0691 11.3093C20.6898 10.2928 20.2049 9.11352 20.1839 9.06364ZM12.2964 11.8497C11.5146 12.7404 10.6881 13.1465 10.2522 13.1465C9.81638 13.1465 8.98944 12.7404 8.20722 11.8497C7.4824 11.0231 7.0331 10.0473 6.94404 9.1242C8.36913 8.48014 9.94702 7.39589 11.1769 6.46483L13.5212 8.06687C13.5579 8.30659 13.5762 8.54877 13.5758 8.79129C13.5758 9.80864 13.1091 10.9226 12.2964 11.8497ZM3.89395 15.2655C3.77116 15.1972 3.66129 15.1078 3.56935 15.0015C3.48209 14.8993 3.42193 14.7768 3.39438 14.6452C3.53095 14.6638 3.67148 14.6801 3.81992 14.6912C3.93274 14.6999 4.13067 14.7058 4.27516 14.7109H4.32464H4.3385C4.44846 14.7097 4.55357 14.6655 4.63146 14.5879C4.70935 14.5102 4.75386 14.4053 4.75551 14.2953C4.75716 14.1854 4.71582 14.0791 4.6403 13.9992C4.56478 13.9193 4.46104 13.872 4.35117 13.8674H4.30129C4.18253 13.8638 3.97827 13.8575 3.88564 13.85C2.88649 13.7708 2.20641 13.4937 1.91783 13.0448C1.75711 12.795 1.73732 12.5203 1.75394 12.3156C2.1469 12.4579 2.60675 12.5485 3.13351 12.5876C3.1818 12.5915 3.2582 12.5939 3.36231 12.5975C3.40744 12.5975 3.44901 12.6002 3.47434 12.6014C3.53054 12.6055 3.58699 12.5982 3.64035 12.5801C3.6937 12.562 3.7429 12.5334 3.78503 12.496C3.82717 12.4585 3.86139 12.4131 3.88569 12.3622C3.90998 12.3114 3.92386 12.2562 3.9265 12.1999C3.92914 12.1436 3.9205 12.0874 3.90107 12.0345C3.88164 11.9816 3.85183 11.9331 3.81338 11.8919C3.77493 11.8507 3.72863 11.8177 3.67721 11.7946C3.62578 11.7716 3.57026 11.7591 3.51393 11.7578C3.48542 11.7578 3.4399 11.7551 3.38963 11.7539C3.32273 11.7515 3.23128 11.7491 3.19724 11.7464C2.15178 11.6672 1.46536 11.3743 1.1554 10.8719C0.937682 10.5212 0.939265 10.1135 0.98756 9.81458C1.52474 9.99588 2.17513 10.0596 2.85047 10.1265C3.56658 10.197 4.30327 10.2706 4.89666 10.4864C4.85707 12.1256 5.02412 13.6457 5.15872 14.5752C5.04313 14.6147 4.91368 14.6543 4.76603 14.6939L4.711 14.7094C4.39164 14.814 4.10839 15.0068 3.89395 15.2655ZM16.1711 17.6724H4.33216V16.3918C4.33265 16.1982 4.39357 16.0097 4.50641 15.8525C4.61926 15.6953 4.77839 15.5773 4.96158 15.5149L4.99127 15.5062C5.419 15.3947 5.83418 15.2396 6.2303 15.0435C6.33441 14.9936 6.41596 14.9544 6.49553 14.9247C7.71121 14.4619 8.36873 14.0305 8.62722 13.5269C8.64029 13.5016 8.64939 13.4806 8.65691 13.464L8.68423 13.4026C9.2321 13.7763 9.78511 13.9921 10.2518 13.9921C10.7185 13.9921 11.2723 13.7763 11.8202 13.4026L11.8475 13.4624C11.8551 13.4798 11.8649 13.502 11.8784 13.5293C12.1381 14.0324 12.7952 14.4627 14.0085 14.9255C14.0877 14.9556 14.1692 14.9948 14.2733 15.0443C14.6695 15.2406 15.0849 15.3957 15.5128 15.507L15.5425 15.5157C15.7255 15.5784 15.8844 15.6966 15.9971 15.8538C16.1097 16.011 16.1706 16.1995 16.1711 16.3929V17.6724ZM19.3463 10.8723C19.0387 11.3747 18.3495 11.6692 17.3052 11.7483C17.272 11.7511 17.1789 11.7535 17.1124 11.7559C17.0618 11.7559 17.0159 11.7582 16.9874 11.7598C16.931 11.7611 16.8755 11.7736 16.8241 11.7966C16.7726 11.8196 16.7263 11.8527 16.6879 11.8939C16.6495 11.9351 16.6196 11.9836 16.6002 12.0365C16.5808 12.0894 16.5721 12.1456 16.5748 12.2019C16.5774 12.2582 16.5913 12.3134 16.6156 12.3642C16.6399 12.4151 16.6741 12.4605 16.7162 12.4979C16.7584 12.5354 16.8076 12.564 16.8609 12.5821C16.9143 12.6002 16.9707 12.6074 17.0269 12.6034L17.1394 12.5994C17.2423 12.5959 17.3203 12.5935 17.3686 12.5895C17.8943 12.5507 18.3536 12.4601 18.7465 12.3176C18.764 12.5222 18.7442 12.797 18.5831 13.0468C18.2949 13.4957 17.6144 13.7743 16.6164 13.8519C16.5222 13.8595 16.3207 13.8658 16.1992 13.8693H16.1497C16.0398 13.8739 15.9361 13.9212 15.8606 14.0012C15.7851 14.0811 15.7437 14.1873 15.7454 14.2973C15.747 14.4073 15.7915 14.5122 15.8694 14.5899C15.9473 14.6675 16.0524 14.7116 16.1624 14.7129H16.1758H16.2253C16.3702 14.7078 16.5681 14.7018 16.6817 14.6931C16.829 14.682 16.9699 14.6658 17.1061 14.6472C17.0789 14.7788 17.0188 14.9014 16.9315 15.0035C16.8399 15.1092 16.7307 15.1984 16.6089 15.2671C16.3953 15.0094 16.1131 14.8173 15.795 14.7129L15.7392 14.6975C15.592 14.6579 15.4621 14.6183 15.3469 14.5787C15.4819 13.6489 15.649 12.1276 15.6094 10.4883C16.2032 10.273 16.9367 10.2001 17.6528 10.1297C18.3297 10.0628 18.9777 9.99905 19.5133 9.81775C19.5616 10.1135 19.5628 10.5212 19.3463 10.8723Z" fill="#F628C8"/>
<path d="M13.3211 0.255697C12.4969 0.0906239 11.4071 -0.000423431 10.2508 -0.000423431C9.09449 -0.000423431 8.00628 0.0902281 7.1825 0.255301C6.45056 0.40256 5.60777 0.649972 5.60777 1.26632C5.60777 1.88267 6.45056 2.13127 7.18368 2.27774C8.00746 2.44281 9.09726 2.53307 10.2508 2.53307C11.4043 2.53307 12.4957 2.44281 13.3199 2.27774C14.0534 2.13127 14.8958 1.88188 14.8958 1.26672C14.8958 0.651555 14.0546 0.40256 13.3211 0.255697ZM12.888 1.4983C12.1533 1.6226 11.2167 1.6891 10.2508 1.6891C9.2849 1.6891 8.35067 1.6226 7.61596 1.4983C7.14093 1.41912 6.8472 1.33441 6.66828 1.26672C6.8472 1.19863 7.14331 1.11392 7.61596 1.03475C8.35067 0.91203 9.28648 0.844338 10.252 0.844338C11.2175 0.844338 12.1521 0.91203 12.888 1.03475C13.363 1.11392 13.6575 1.19863 13.8357 1.26672C13.6575 1.33441 13.363 1.41912 12.888 1.4983Z" fill="#F628C8"/>
</g>
<defs>
<clipPath id="clip0_16220_541">
<rect width="20.2675" height="19" fill="white" transform="translate(0.11673)"/>
</clipPath>
</defs>
</svg>
