<svg width="20" height="20" viewBox="0 0 20 20" fill="none" xmlns="http://www.w3.org/2000/svg">
<mask id="path-1-outside-1_16220_1109" maskUnits="userSpaceOnUse" x="0" y="-0.000953674" width="20" height="20" fill="black">
<rect fill="white" y="-0.000953674" width="20" height="20"/>
<path d="M18.9946 9.56552V7.2623C18.9757 6.78522 18.5883 6.38431 18.0794 6.36226C18.0061 6.36026 17.9328 6.36226 17.8596 6.36226H14.3268C14.7636 6.11423 15.1285 5.76554 15.3885 5.34796C16.0021 4.35972 15.933 3.06479 15.2042 2.14671C14.4692 1.22261 13.2107 0.795646 12.0338 1.09232C11.1082 1.32485 10.3459 1.99236 9.99832 2.83427C9.70934 2.12867 9.13556 1.53933 8.38797 1.23264C7.26553 0.773596 5.93578 1.01414 5.06883 1.84001C4.21234 2.65787 3.95267 3.92474 4.42175 4.99115C4.67651 5.56522 5.11786 6.04535 5.6803 6.36026H1.94862C1.93527 6.36049 1.92195 6.36184 1.90884 6.36427H1.90674C1.72051 6.37493 1.54149 6.43703 1.39134 6.54304C1.2412 6.64905 1.12636 6.79444 1.06073 6.96162C1.00628 7.09793 1 7.24025 1 7.38257V10.1789C1.00209 10.4275 1.09005 10.666 1.27642 10.8424C1.45857 11.0134 1.70397 11.1085 1.9591 11.107H2.25017V17.1868C2.25017 17.4835 2.24808 17.7801 2.25017 18.0768C2.25071 18.27 2.31441 18.4581 2.43234 18.6149C2.55027 18.7716 2.7165 18.8891 2.90772 18.9508C3.02708 18.9909 3.15273 18.9969 3.27837 18.9969H16.4335C16.6596 18.9969 16.9067 19.0169 17.1224 18.9368C17.3044 18.8698 17.4609 18.7516 17.5712 18.5977C17.6815 18.4438 17.7404 18.2614 17.7402 18.0748V11.109H18.004C18.5171 11.109 18.9527 10.7622 18.9904 10.2611C19.0092 10.0306 18.9946 9.79604 18.9946 9.56552ZM11.8244 1.57942C12.3124 1.39384 12.8475 1.35291 13.3602 1.46192C13.8728 1.57094 14.3395 1.82487 14.6996 2.19081C15.4178 2.92647 15.5979 4.05503 15.133 4.95908C14.9654 5.29029 14.7231 5.58181 14.4237 5.81265C14.1242 6.04349 13.775 6.20792 13.4012 6.29411C13.1541 6.35224 12.907 6.36226 12.6515 6.36226H10.2119V3.87863C10.2123 3.87056 10.2116 3.86248 10.2098 3.85458C10.2266 2.86834 10.8611 1.94826 11.8244 1.57942ZM9.9711 6.76117C9.98076 6.7629 9.9906 6.76358 10.0004 6.76317H11.8118V10.9086C11.8114 10.9173 11.8121 10.9261 11.8139 10.9346V15.3526C11.8139 15.5691 11.7092 15.7736 11.4893 15.8598C11.3511 15.9139 11.1815 15.8959 11.0349 15.8959H10.2182C9.72819 15.8959 9.23607 15.8979 8.74606 15.8959C8.47173 15.8959 8.21834 15.7295 8.18274 15.4529C8.17227 15.3707 8.18065 15.2805 8.18065 15.1983V6.76317C8.767 6.76317 9.35125 6.76117 9.9355 6.76117H9.9711ZM5.06673 5.28983C4.46154 4.44191 4.45944 3.31335 5.06673 2.46743C5.66146 1.63755 6.76714 1.23264 7.78905 1.46316C8.81516 1.69368 9.59835 2.50953 9.76588 3.50378C9.78376 3.62798 9.79216 3.75326 9.79101 3.87863V6.36226H7.69692C7.49379 6.36226 7.29066 6.37028 7.08963 6.36026L6.9933 6.35424C6.60961 6.32546 6.23749 6.21494 5.90415 6.03078C5.57082 5.84661 5.28471 5.59346 5.06673 5.28983ZM2.42398 10.7121C2.26693 10.7121 2.10778 10.7101 1.95072 10.7081C1.73712 10.7061 1.53399 10.5878 1.45442 10.3894C1.41463 10.2912 1.41882 10.1909 1.41882 10.0867V7.68927C1.41882 7.42467 1.36647 7.10996 1.58216 6.90549C1.68012 6.81517 1.81052 6.76423 1.94653 6.76317H7.75974V10.7081H3.60087C3.20927 10.7081 2.81767 10.7121 2.42398 10.7121ZM17.3235 18.0628C17.3235 18.3194 17.1518 18.5439 16.8774 18.59C16.817 18.597 16.756 18.599 16.6952 18.596H3.59249C3.42915 18.596 3.23649 18.62 3.07734 18.58C2.82186 18.5158 2.67528 18.3033 2.67318 18.0568V11.107H7.76393V15.3787C7.76378 15.5638 7.8221 15.7445 7.93123 15.8973C8.04035 16.05 8.19519 16.1676 8.3754 16.2346C8.56178 16.3048 8.75653 16.2948 8.95337 16.2948H9.76169C10.2622 16.2948 10.7648 16.2968 11.2653 16.2948C11.6568 16.2928 12.0087 16.0863 12.1594 15.7355C12.2285 15.5791 12.2327 15.4208 12.2327 15.2564V11.107H17.3235V18.0628ZM18.5757 10.1468C18.5757 10.2751 18.5569 10.3974 18.4752 10.5036C18.4241 10.5687 18.3576 10.6211 18.2811 10.6567C18.2047 10.6922 18.1204 10.7099 18.0355 10.7081C17.8826 10.7101 17.7318 10.7101 17.5789 10.7101C17.1957 10.7101 16.8146 10.7081 16.4314 10.7081H12.618C12.5594 10.7081 12.5008 10.7081 12.44 10.7061C12.3709 10.7041 12.3018 10.7041 12.2327 10.7041V6.76317H18.0271C18.0985 6.76246 18.1693 6.77522 18.2355 6.80073C18.3017 6.82625 18.362 6.86401 18.413 6.91186C18.464 6.95971 18.5046 7.0167 18.5325 7.07959C18.5604 7.14247 18.5751 7.21001 18.5757 7.27834V10.1468Z"/>
</mask>
<path d="M18.9946 9.56552V7.2623C18.9757 6.78522 18.5883 6.38431 18.0794 6.36226C18.0061 6.36026 17.9328 6.36226 17.8596 6.36226H14.3268C14.7636 6.11423 15.1285 5.76554 15.3885 5.34796C16.0021 4.35972 15.933 3.06479 15.2042 2.14671C14.4692 1.22261 13.2107 0.795646 12.0338 1.09232C11.1082 1.32485 10.3459 1.99236 9.99832 2.83427C9.70934 2.12867 9.13556 1.53933 8.38797 1.23264C7.26553 0.773596 5.93578 1.01414 5.06883 1.84001C4.21234 2.65787 3.95267 3.92474 4.42175 4.99115C4.67651 5.56522 5.11786 6.04535 5.6803 6.36026H1.94862C1.93527 6.36049 1.92195 6.36184 1.90884 6.36427H1.90674C1.72051 6.37493 1.54149 6.43703 1.39134 6.54304C1.2412 6.64905 1.12636 6.79444 1.06073 6.96162C1.00628 7.09793 1 7.24025 1 7.38257V10.1789C1.00209 10.4275 1.09005 10.666 1.27642 10.8424C1.45857 11.0134 1.70397 11.1085 1.9591 11.107H2.25017V17.1868C2.25017 17.4835 2.24808 17.7801 2.25017 18.0768C2.25071 18.27 2.31441 18.4581 2.43234 18.6149C2.55027 18.7716 2.7165 18.8891 2.90772 18.9508C3.02708 18.9909 3.15273 18.9969 3.27837 18.9969H16.4335C16.6596 18.9969 16.9067 19.0169 17.1224 18.9368C17.3044 18.8698 17.4609 18.7516 17.5712 18.5977C17.6815 18.4438 17.7404 18.2614 17.7402 18.0748V11.109H18.004C18.5171 11.109 18.9527 10.7622 18.9904 10.2611C19.0092 10.0306 18.9946 9.79604 18.9946 9.56552ZM11.8244 1.57942C12.3124 1.39384 12.8475 1.35291 13.3602 1.46192C13.8728 1.57094 14.3395 1.82487 14.6996 2.19081C15.4178 2.92647 15.5979 4.05503 15.133 4.95908C14.9654 5.29029 14.7231 5.58181 14.4237 5.81265C14.1242 6.04349 13.775 6.20792 13.4012 6.29411C13.1541 6.35224 12.907 6.36226 12.6515 6.36226H10.2119V3.87863C10.2123 3.87056 10.2116 3.86248 10.2098 3.85458C10.2266 2.86834 10.8611 1.94826 11.8244 1.57942ZM9.9711 6.76117C9.98076 6.7629 9.9906 6.76358 10.0004 6.76317H11.8118V10.9086C11.8114 10.9173 11.8121 10.9261 11.8139 10.9346V15.3526C11.8139 15.5691 11.7092 15.7736 11.4893 15.8598C11.3511 15.9139 11.1815 15.8959 11.0349 15.8959H10.2182C9.72819 15.8959 9.23607 15.8979 8.74606 15.8959C8.47173 15.8959 8.21834 15.7295 8.18274 15.4529C8.17227 15.3707 8.18065 15.2805 8.18065 15.1983V6.76317C8.767 6.76317 9.35125 6.76117 9.9355 6.76117H9.9711ZM5.06673 5.28983C4.46154 4.44191 4.45944 3.31335 5.06673 2.46743C5.66146 1.63755 6.76714 1.23264 7.78905 1.46316C8.81516 1.69368 9.59835 2.50953 9.76588 3.50378C9.78376 3.62798 9.79216 3.75326 9.79101 3.87863V6.36226H7.69692C7.49379 6.36226 7.29066 6.37028 7.08963 6.36026L6.9933 6.35424C6.60961 6.32546 6.23749 6.21494 5.90415 6.03078C5.57082 5.84661 5.28471 5.59346 5.06673 5.28983ZM2.42398 10.7121C2.26693 10.7121 2.10778 10.7101 1.95072 10.7081C1.73712 10.7061 1.53399 10.5878 1.45442 10.3894C1.41463 10.2912 1.41882 10.1909 1.41882 10.0867V7.68927C1.41882 7.42467 1.36647 7.10996 1.58216 6.90549C1.68012 6.81517 1.81052 6.76423 1.94653 6.76317H7.75974V10.7081H3.60087C3.20927 10.7081 2.81767 10.7121 2.42398 10.7121ZM17.3235 18.0628C17.3235 18.3194 17.1518 18.5439 16.8774 18.59C16.817 18.597 16.756 18.599 16.6952 18.596H3.59249C3.42915 18.596 3.23649 18.62 3.07734 18.58C2.82186 18.5158 2.67528 18.3033 2.67318 18.0568V11.107H7.76393V15.3787C7.76378 15.5638 7.8221 15.7445 7.93123 15.8973C8.04035 16.05 8.19519 16.1676 8.3754 16.2346C8.56178 16.3048 8.75653 16.2948 8.95337 16.2948H9.76169C10.2622 16.2948 10.7648 16.2968 11.2653 16.2948C11.6568 16.2928 12.0087 16.0863 12.1594 15.7355C12.2285 15.5791 12.2327 15.4208 12.2327 15.2564V11.107H17.3235V18.0628ZM18.5757 10.1468C18.5757 10.2751 18.5569 10.3974 18.4752 10.5036C18.4241 10.5687 18.3576 10.6211 18.2811 10.6567C18.2047 10.6922 18.1204 10.7099 18.0355 10.7081C17.8826 10.7101 17.7318 10.7101 17.5789 10.7101C17.1957 10.7101 16.8146 10.7081 16.4314 10.7081H12.618C12.5594 10.7081 12.5008 10.7081 12.44 10.7061C12.3709 10.7041 12.3018 10.7041 12.2327 10.7041V6.76317H18.0271C18.0985 6.76246 18.1693 6.77522 18.2355 6.80073C18.3017 6.82625 18.362 6.86401 18.413 6.91186C18.464 6.95971 18.5046 7.0167 18.5325 7.07959C18.5604 7.14247 18.5751 7.21001 18.5757 7.27834V10.1468Z" fill="#8A9099"/>
<path d="M18.9946 9.56552V7.2623C18.9757 6.78522 18.5883 6.38431 18.0794 6.36226C18.0061 6.36026 17.9328 6.36226 17.8596 6.36226H14.3268C14.7636 6.11423 15.1285 5.76554 15.3885 5.34796C16.0021 4.35972 15.933 3.06479 15.2042 2.14671C14.4692 1.22261 13.2107 0.795646 12.0338 1.09232C11.1082 1.32485 10.3459 1.99236 9.99832 2.83427C9.70934 2.12867 9.13556 1.53933 8.38797 1.23264C7.26553 0.773596 5.93578 1.01414 5.06883 1.84001C4.21234 2.65787 3.95267 3.92474 4.42175 4.99115C4.67651 5.56522 5.11786 6.04535 5.6803 6.36026H1.94862C1.93527 6.36049 1.92195 6.36184 1.90884 6.36427H1.90674C1.72051 6.37493 1.54149 6.43703 1.39134 6.54304C1.2412 6.64905 1.12636 6.79444 1.06073 6.96162C1.00628 7.09793 1 7.24025 1 7.38257V10.1789C1.00209 10.4275 1.09005 10.666 1.27642 10.8424C1.45857 11.0134 1.70397 11.1085 1.9591 11.107H2.25017V17.1868C2.25017 17.4835 2.24808 17.7801 2.25017 18.0768C2.25071 18.27 2.31441 18.4581 2.43234 18.6149C2.55027 18.7716 2.7165 18.8891 2.90772 18.9508C3.02708 18.9909 3.15273 18.9969 3.27837 18.9969H16.4335C16.6596 18.9969 16.9067 19.0169 17.1224 18.9368C17.3044 18.8698 17.4609 18.7516 17.5712 18.5977C17.6815 18.4438 17.7404 18.2614 17.7402 18.0748V11.109H18.004C18.5171 11.109 18.9527 10.7622 18.9904 10.2611C19.0092 10.0306 18.9946 9.79604 18.9946 9.56552ZM11.8244 1.57942C12.3124 1.39384 12.8475 1.35291 13.3602 1.46192C13.8728 1.57094 14.3395 1.82487 14.6996 2.19081C15.4178 2.92647 15.5979 4.05503 15.133 4.95908C14.9654 5.29029 14.7231 5.58181 14.4237 5.81265C14.1242 6.04349 13.775 6.20792 13.4012 6.29411C13.1541 6.35224 12.907 6.36226 12.6515 6.36226H10.2119V3.87863C10.2123 3.87056 10.2116 3.86248 10.2098 3.85458C10.2266 2.86834 10.8611 1.94826 11.8244 1.57942ZM9.9711 6.76117C9.98076 6.7629 9.9906 6.76358 10.0004 6.76317H11.8118V10.9086C11.8114 10.9173 11.8121 10.9261 11.8139 10.9346V15.3526C11.8139 15.5691 11.7092 15.7736 11.4893 15.8598C11.3511 15.9139 11.1815 15.8959 11.0349 15.8959H10.2182C9.72819 15.8959 9.23607 15.8979 8.74606 15.8959C8.47173 15.8959 8.21834 15.7295 8.18274 15.4529C8.17227 15.3707 8.18065 15.2805 8.18065 15.1983V6.76317C8.767 6.76317 9.35125 6.76117 9.9355 6.76117H9.9711ZM5.06673 5.28983C4.46154 4.44191 4.45944 3.31335 5.06673 2.46743C5.66146 1.63755 6.76714 1.23264 7.78905 1.46316C8.81516 1.69368 9.59835 2.50953 9.76588 3.50378C9.78376 3.62798 9.79216 3.75326 9.79101 3.87863V6.36226H7.69692C7.49379 6.36226 7.29066 6.37028 7.08963 6.36026L6.9933 6.35424C6.60961 6.32546 6.23749 6.21494 5.90415 6.03078C5.57082 5.84661 5.28471 5.59346 5.06673 5.28983ZM2.42398 10.7121C2.26693 10.7121 2.10778 10.7101 1.95072 10.7081C1.73712 10.7061 1.53399 10.5878 1.45442 10.3894C1.41463 10.2912 1.41882 10.1909 1.41882 10.0867V7.68927C1.41882 7.42467 1.36647 7.10996 1.58216 6.90549C1.68012 6.81517 1.81052 6.76423 1.94653 6.76317H7.75974V10.7081H3.60087C3.20927 10.7081 2.81767 10.7121 2.42398 10.7121ZM17.3235 18.0628C17.3235 18.3194 17.1518 18.5439 16.8774 18.59C16.817 18.597 16.756 18.599 16.6952 18.596H3.59249C3.42915 18.596 3.23649 18.62 3.07734 18.58C2.82186 18.5158 2.67528 18.3033 2.67318 18.0568V11.107H7.76393V15.3787C7.76378 15.5638 7.8221 15.7445 7.93123 15.8973C8.04035 16.05 8.19519 16.1676 8.3754 16.2346C8.56178 16.3048 8.75653 16.2948 8.95337 16.2948H9.76169C10.2622 16.2948 10.7648 16.2968 11.2653 16.2948C11.6568 16.2928 12.0087 16.0863 12.1594 15.7355C12.2285 15.5791 12.2327 15.4208 12.2327 15.2564V11.107H17.3235V18.0628ZM18.5757 10.1468C18.5757 10.2751 18.5569 10.3974 18.4752 10.5036C18.4241 10.5687 18.3576 10.6211 18.2811 10.6567C18.2047 10.6922 18.1204 10.7099 18.0355 10.7081C17.8826 10.7101 17.7318 10.7101 17.5789 10.7101C17.1957 10.7101 16.8146 10.7081 16.4314 10.7081H12.618C12.5594 10.7081 12.5008 10.7081 12.44 10.7061C12.3709 10.7041 12.3018 10.7041 12.2327 10.7041V6.76317H18.0271C18.0985 6.76246 18.1693 6.77522 18.2355 6.80073C18.3017 6.82625 18.362 6.86401 18.413 6.91186C18.464 6.95971 18.5046 7.0167 18.5325 7.07959C18.5604 7.14247 18.5751 7.21001 18.5757 7.27834V10.1468Z" stroke="#8A9099" stroke-width="0.8" mask="url(#path-1-outside-1_16220_1109)"/>
</svg>
