<svg width="18" height="18" viewBox="0 0 18 18" fill="none" xmlns="http://www.w3.org/2000/svg">
<path fill-rule="evenodd" clip-rule="evenodd" d="M4.8335 9.16606C4.8335 8.70606 5.20683 8.33273 5.66683 8.33273C6.12683 8.33273 6.50017 8.70606 6.50017 9.16606C6.50017 9.62606 6.12683 9.99939 5.66683 9.99939C5.20683 9.99939 4.8335 9.62606 4.8335 9.16606ZM9.00017 8.33273C8.54017 8.33273 8.16683 8.70606 8.16683 9.16606C8.16683 9.62606 8.54017 9.99939 9.00017 9.99939C9.46017 9.99939 9.8335 9.62606 9.8335 9.16606C9.8335 8.70606 9.46017 8.33273 9.00017 8.33273ZM12.3335 8.33273C11.8735 8.33273 11.5002 8.70606 11.5002 9.16606C11.5002 9.62606 11.8735 9.99939 12.3335 9.99939C12.7935 9.99939 13.1668 9.62606 13.1668 9.16606C13.1668 8.70606 12.7935 8.33273 12.3335 8.33273ZM15.5822 10.2451C15.1597 12.9568 12.9738 15.206 10.2663 15.7135C8.95883 15.9601 7.62717 15.8193 6.41883 15.3076C6.07633 15.1626 5.72217 15.0893 5.37467 15.0893C5.21633 15.0893 5.05967 15.1043 4.9055 15.1351L2.56217 15.6035L3.03133 13.256C3.12967 12.7685 3.06967 12.2468 2.85883 11.7476C2.34717 10.5393 2.20717 9.20848 2.453 7.90015C2.9605 5.19265 5.20883 3.00681 7.92133 2.58431C10.0797 2.24848 12.1905 2.92848 13.7138 4.45181C15.238 5.97598 15.9188 8.08765 15.5822 10.2451ZM14.893 3.27348C12.9888 1.37015 10.3555 0.520979 7.66467 0.936812C4.26717 1.46681 1.4505 4.20348 0.814668 7.59265C0.508001 9.22431 0.684668 10.886 1.32383 12.3968C1.40467 12.5893 1.42967 12.7685 1.398 12.9293L0.683001 16.5026C0.628001 16.776 0.713835 17.0585 0.911335 17.2551C1.06883 17.4135 1.28133 17.4993 1.5005 17.4993C1.55467 17.4993 1.60883 17.4943 1.66383 17.4835L5.233 16.7693C5.438 16.7301 5.63633 16.7876 5.76883 16.8426C7.28133 17.4818 8.943 17.6576 10.573 17.3518C13.963 16.716 16.6997 13.8993 17.2297 10.5018C17.648 7.81264 16.7972 5.17765 14.893 3.27348Z" fill="#8A9099"/>
</svg>
