<svg width="16" height="16" viewBox="0 0 16 16" fill="none" xmlns="http://www.w3.org/2000/svg">
<path fill-rule="evenodd" clip-rule="evenodd" d="M12.6666 7.33392H4.75663L7.17863 4.42726C7.41463 4.14459 7.37596 3.72392 7.09329 3.48859C6.80996 3.25259 6.38996 3.29126 6.15463 3.57392L2.82129 7.57392C2.79529 7.60526 2.78196 7.64192 2.76263 7.67659C2.74663 7.70459 2.72729 7.72859 2.71529 7.75926C2.68529 7.83592 2.66729 7.91659 2.66729 7.99792C2.66729 7.99859 2.66663 7.99992 2.66663 8.00059C2.66663 8.00126 2.66729 8.00259 2.66729 8.00326C2.66729 8.08459 2.68529 8.16526 2.71529 8.24192C2.72729 8.27259 2.74663 8.29659 2.76263 8.32459C2.78196 8.35926 2.79529 8.39592 2.82129 8.42726L6.15463 12.4273C6.28663 12.5853 6.47596 12.6673 6.66663 12.6673C6.81729 12.6673 6.96863 12.6166 7.09329 12.5126C7.37596 12.2773 7.41463 11.8566 7.17863 11.5739L4.75663 8.66726H12.6666C13.0346 8.66726 13.3333 8.36859 13.3333 8.00059C13.3333 7.63259 13.0346 7.33392 12.6666 7.33392Z" fill="#8A9099"/>
</svg>
