<svg width="14" height="14" viewBox="0 0 14 14" fill="none" xmlns="http://www.w3.org/2000/svg">
<g clip-path="url(#clip0_1577_20517)">
<path d="M11.3964 0H2.60333C1.91311 0.000882167 1.25141 0.275482 0.763375 0.763571C0.275338 1.25166 0.000808523 1.91339 0 2.60361V11.3967C0.000882016 12.0868 0.275444 12.7485 0.763473 13.2365C1.2515 13.7246 1.91316 13.9991 2.60333 14H7.34695C7.41052 14.0002 7.4735 13.9878 7.53224 13.9634C7.59099 13.9391 7.64432 13.9034 7.68917 13.8583L13.8583 7.68861C13.9034 7.64374 13.9391 7.5904 13.9634 7.53166C13.9877 7.47293 14.0001 7.40996 14 7.34639V2.60333C13.9991 1.91311 13.7245 1.25141 13.2364 0.763375C12.7483 0.275338 12.0866 0.000808523 11.3964 0ZM2.18139 3.41806C2.18095 3.08489 2.29607 2.76187 2.50713 2.50409C2.7182 2.2463 3.01213 2.06969 3.33884 2.00437C3.66554 1.93905 4.00479 1.98905 4.29875 2.14587C4.59271 2.30268 4.82318 2.55659 4.95088 2.86432C5.07858 3.17204 5.0956 3.51453 4.99904 3.8334C4.90248 4.15228 4.69832 4.42779 4.42136 4.61298C4.1444 4.79816 3.81178 4.88156 3.48021 4.84896C3.14864 4.81635 2.83864 4.66976 2.60306 4.43417C2.33338 4.16474 2.18171 3.79926 2.18139 3.41806ZM6.86361 10.8611C5.86354 10.8246 4.91653 10.402 4.22147 9.68202C3.52641 8.96204 3.13739 8.00074 3.13611 7C3.13457 6.93557 3.14592 6.87148 3.16951 6.81151C3.1931 6.75153 3.22844 6.69688 3.27347 6.65077C3.31849 6.60465 3.37228 6.56801 3.43167 6.54299C3.49106 6.51797 3.55486 6.50508 3.61931 6.50508C3.68375 6.50508 3.74755 6.51797 3.80694 6.54299C3.86634 6.56801 3.92012 6.60465 3.96515 6.65077C4.01017 6.69688 4.04551 6.75153 4.0691 6.81151C4.09269 6.87148 4.10405 6.93557 4.1025 7C4.10335 7.74456 4.39049 8.46028 4.90447 8.99898C5.41845 9.53768 6.11991 9.85809 6.86361 9.89389V10.8611ZM10.3806 1.98028C10.7137 1.97984 11.0367 2.09496 11.2945 2.30602C11.5523 2.51708 11.7289 2.81102 11.7942 3.13772C11.8596 3.46443 11.8096 3.80368 11.6527 4.09763C11.4959 4.39159 11.242 4.62207 10.9343 4.74977C10.6266 4.87747 10.2841 4.89449 9.96521 4.79793C9.64634 4.70137 9.37082 4.49721 9.18564 4.22025C9.00045 3.94329 8.91705 3.61067 8.94965 3.2791C8.98226 2.94753 9.12885 2.63753 9.36445 2.40194C9.63387 2.13227 9.99935 1.9806 10.3806 1.98028ZM7.82945 12.3503V9.46722C7.82996 9.0329 8.00286 8.61654 8.31015 8.30961C8.61745 8.00268 9.03401 7.83028 9.46833 7.83028H12.3503L7.82945 12.3503Z" fill="#3F434A"/>
</g>
<defs>
<clipPath id="clip0_1577_20517">
<rect width="14" height="14" fill="white"/>
</clipPath>
</defs>
</svg>
