<svg width="14" height="14" viewBox="0 0 14 14" fill="none" xmlns="http://www.w3.org/2000/svg">
<path fill-rule="evenodd" clip-rule="evenodd" d="M7 14C3.13382 14 0 10.8662 0 7C0 3.13382 3.13382 0 7 0C10.8662 0 14 3.13382 14 7C14 10.8662 10.8662 14 7 14ZM7 11.4545C8.59164 11.4545 10.1825 10.4167 10.1825 8.85964C10.1825 8.34073 10.1825 8.85964 7.00073 8.85964C3.81891 8.85964 3.81891 8.34073 3.81891 8.85964C3.81818 10.4182 5.40764 11.4545 7 11.4545ZM4.45455 6.36364C4.70627 6.36364 4.95234 6.28899 5.16163 6.14914C5.37093 6.00929 5.53406 5.81052 5.63039 5.57796C5.72672 5.3454 5.75193 5.0895 5.70282 4.84261C5.65371 4.59573 5.53249 4.36895 5.3545 4.19095C5.17651 4.01296 4.94973 3.89175 4.70284 3.84264C4.45596 3.79353 4.20005 3.81873 3.96749 3.91506C3.73493 4.01139 3.53616 4.17452 3.39631 4.38382C3.25646 4.59312 3.18182 4.83919 3.18182 5.09091C3.18182 5.42846 3.31591 5.75218 3.55459 5.99086C3.79327 6.22955 4.117 6.36364 4.45455 6.36364ZM9.54545 6.36364C9.79718 6.36364 10.0432 6.28899 10.2525 6.14914C10.4618 6.00929 10.625 5.81052 10.7213 5.57796C10.8176 5.3454 10.8428 5.0895 10.7937 4.84261C10.7446 4.59573 10.6234 4.36895 10.4454 4.19095C10.2674 4.01296 10.0406 3.89175 9.79375 3.84264C9.54687 3.79353 9.29096 3.81873 9.0584 3.91506C8.82584 4.01139 8.62707 4.17452 8.48722 4.38382C8.34737 4.59312 8.27273 4.83919 8.27273 5.09091C8.27273 5.42846 8.40682 5.75218 8.6455 5.99086C8.88418 6.22955 9.20791 6.36364 9.54545 6.36364Z" fill="#3F434A"/>
</svg>
