<svg width="14" height="14" viewBox="0 0 14 14" fill="none" xmlns="http://www.w3.org/2000/svg">
<path d="M7 14C10.866 14 14 10.866 14 7C14 3.13401 10.866 0 7 0C3.13401 0 0 3.13401 0 7C0 10.866 3.13401 14 7 14Z" fill="#7612F9"/>
<path d="M9.10278 6.18846H11.082V10.6401H9.10278V6.18846Z" fill="white"/>
<path d="M3.23334 6.77313C3.13575 6.70928 3.05571 6.62201 3.00048 6.5193C2.94526 6.41658 2.91661 6.30167 2.91717 6.18505C2.91801 6.00083 2.99156 5.82439 3.12182 5.69413C3.25209 5.56386 3.42853 5.49031 3.61275 5.48948H5.74373C5.70528 4.8773 5.71586 4.26303 5.77535 3.65254C5.89865 2.53962 7.07481 3.0202 7.07481 3.0202C6.44247 4.37973 8.37109 6.79209 8.37109 6.79209V10.3933H4.40634C4.22212 10.3924 4.04568 10.3189 3.91541 10.1886C3.78515 10.0584 3.71159 9.88191 3.71076 9.69769C3.71121 9.5141 3.7839 9.33806 3.91312 9.20763C3.74745 9.18472 3.59567 9.10262 3.48583 8.97651C3.37599 8.85039 3.3155 8.68878 3.31555 8.52154C3.31497 8.43097 3.33259 8.34121 3.36734 8.25757C3.4021 8.17393 3.4533 8.09813 3.5179 8.03464C3.35193 8.0118 3.19979 7.92982 3.08942 7.80377C2.97906 7.67773 2.91789 7.51609 2.91717 7.34856C2.9187 7.23408 2.94833 7.12173 3.00346 7.02139C3.05859 6.92105 3.13753 6.8358 3.23334 6.77313Z" fill="white"/>
</svg>
