<svg width="32" height="32" viewBox="0 0 32 32" fill="none" xmlns="http://www.w3.org/2000/svg">
<g clip-path="url(#clip0_635_47160)">
<path d="M5.1604 4.22216C6.76534 3.67895 8.44435 3.40734 10.2221 3.40734C15.9752 3.40734 20.9629 6.56784 23.7777 11.1357C23.8024 11.1851 23.8518 11.2345 23.8764 11.2839C23.8764 11.3086 23.9011 11.3086 23.9011 11.3333C24.716 12.6913 25.1604 14.2962 25.1604 15.9999C25.1604 21.0617 21.0616 25.1851 15.9752 25.1851C12.8394 25.1851 10.0493 23.5802 8.39497 21.1357C10.9876 25.4073 16.2221 28.5925 21.7777 28.5925C23.5555 28.5925 25.2592 28.2962 26.8394 27.753C30.0246 24.8394 31.9999 20.6419 31.9999 15.9999C31.9999 7.16043 24.8394 -6.95364e-05 15.9999 -6.91448e-05C11.8271 -6.89599e-05 8.0246 1.60487 5.1604 4.22216Z" fill="url(#paint0_linear_635_47160)"/>
<path d="M8.39506 21.1358C7.40741 19.679 6.81481 17.9012 6.81481 16C6.81481 10.9383 10.9136 6.81481 16 6.81481C19.2839 6.81481 22.1728 8.54321 23.7778 11.1358C20.963 6.5679 15.9753 3.4074 10.2222 3.4074C8.44444 3.4074 6.74074 3.7037 5.16049 4.22222C2 7.16049 -8.91284e-07 11.3333 -6.90026e-07 16C-3.08808e-07 24.8395 7.16049 32 16 32C20.1728 32 24 30.3951 26.8395 27.7531C25.2346 28.2963 23.5309 28.5926 21.7778 28.5926C16.2222 28.5926 10.9877 25.4074 8.39506 21.1358Z" fill="url(#paint1_linear_635_47160)"/>
<ellipse cx="15.842" cy="16.0266" rx="4.65056" ry="4.57905" fill="#D327B4"/>
</g>
<defs>
<linearGradient id="paint0_linear_635_47160" x1="15.7781" y1="3.41927" x2="23.0166" y2="26.1892" gradientUnits="userSpaceOnUse">
<stop stop-color="#9513E0"/>
<stop offset="1" stop-color="#DC29AD"/>
</linearGradient>
<linearGradient id="paint1_linear_635_47160" x1="17.9689" y1="27.1531" x2="7.85061" y2="7.81136" gradientUnits="userSpaceOnUse">
<stop stop-color="#7A0BF3"/>
<stop offset="1" stop-color="#DC29AD"/>
</linearGradient>
<clipPath id="clip0_635_47160">
<rect width="32" height="32" fill="white" transform="translate(0 32) rotate(-90)"/>
</clipPath>
</defs>
</svg>
