<svg width="32" height="32" viewBox="0 0 32 32" fill="none" xmlns="http://www.w3.org/2000/svg">
<circle cx="16" cy="16" r="16" fill="#8A9099"/>
<path fill-rule="evenodd" clip-rule="evenodd" d="M23.7285 11.5808C24.0905 11.2197 24.0905 10.6327 23.7285 10.2715C23.3673 9.90949 22.7812 9.90949 22.4192 10.2715L12.6467 20.044L9.58083 16.9791C9.21971 16.6171 8.63266 16.6171 8.27154 16.9791C7.90949 17.3412 7.90949 17.9273 8.27154 18.2884L11.9457 21.9635C11.9605 21.9793 11.9744 21.995 11.9902 22.0098C12.1707 22.1913 12.4078 22.2811 12.6448 22.2811C12.6893 22.2811 12.7337 22.2784 12.7781 22.2719C12.9698 22.245 13.155 22.158 13.3022 22.0098C13.318 21.995 13.3328 21.9793 13.3467 21.9626L23.7285 11.5808Z" fill="white"/>
</svg>
