<svg width="16" height="16" viewBox="0 0 16 16" fill="none" xmlns="http://www.w3.org/2000/svg">
<g clip-path="url(#clip0_846_2762)">
<path d="M15.7503 6.99686C15.6646 6.94171 15.1766 6.64943 14.7457 6.40857C14.3942 6.21199 14.1194 5.90252 13.9657 5.53029L13.9634 5.52514C13.8095 5.15252 13.7859 4.73888 13.8963 4.35114C14.0271 3.89029 14.1637 3.35457 14.1968 3.22571C14.2169 3.1377 14.2143 3.04605 14.1893 2.95931C14.1643 2.87257 14.1178 2.79358 14.054 2.72971L13.2703 1.952C13.2065 1.88803 13.1276 1.84134 13.0408 1.81635C12.954 1.79135 12.8623 1.78887 12.7743 1.80914C12.6746 1.832 12.122 1.97086 11.6446 2.108C11.2569 2.21883 10.8431 2.19516 10.4706 2.04086C10.0975 1.88619 9.78774 1.61001 9.59142 1.25714C9.35827 0.84 9.07427 0.366571 9.00313 0.253714C8.95562 0.176251 8.88904 0.112257 8.80976 0.0678401C8.73049 0.0234237 8.64115 6.72552e-05 8.55027 0L7.44941 0C7.35901 0.000153723 7.27012 0.02312 7.19096 0.0667712C7.11179 0.110422 7.04493 0.173347 6.99656 0.249714C6.9417 0.335429 6.64941 0.823429 6.40827 1.25429C6.21172 1.60569 5.90238 1.8805 5.53027 2.03429L5.52484 2.03657C5.15222 2.19046 4.73858 2.21411 4.35084 2.10371C3.88998 1.97286 3.35427 1.83629 3.22541 1.80314C3.1374 1.78309 3.04574 1.78568 2.959 1.81066C2.87226 1.83565 2.79327 1.88221 2.72941 1.946L1.95198 2.72971C1.88794 2.79341 1.84121 2.87239 1.81621 2.95918C1.79121 3.04598 1.78877 3.13771 1.80912 3.22571C1.8317 3.32543 1.97084 3.878 2.1077 4.35514C2.21852 4.74293 2.19486 5.1568 2.04055 5.52943C1.88598 5.9025 1.60978 6.21233 1.25684 6.40857C0.839695 6.64171 0.366266 6.92571 0.253409 6.99686C0.175927 7.04435 0.111918 7.11092 0.0674986 7.1902C0.0230796 7.26948 -0.000265245 7.35884 -0.000305176 7.44971V8.54886C-0.000287818 8.63925 0.0225898 8.72817 0.0661996 8.80735C0.109809 8.88652 0.172735 8.95339 0.249124 9.00171C0.334838 9.05657 0.822838 9.34914 1.2537 9.59C1.6051 9.78655 1.87991 10.0959 2.0337 10.468L2.03598 10.4734C2.18987 10.846 2.21352 11.2597 2.10312 11.6474C1.97227 12.1083 1.8357 12.644 1.80284 12.7729C1.78276 12.8609 1.78534 12.9525 1.81032 13.0393C1.8353 13.126 1.88188 13.205 1.9457 13.2689L2.72313 14.0466C2.78687 14.1105 2.86585 14.1572 2.95263 14.1822C3.03941 14.2072 3.13112 14.2097 3.21913 14.1894C3.31884 14.1666 3.87141 14.0277 4.34884 13.8909C4.73651 13.7799 5.15035 13.8036 5.52284 13.958C5.89552 14.112 6.20529 14.3874 6.40198 14.7394C6.63541 15.1569 6.91913 15.63 6.99027 15.7429C7.03772 15.8216 7.10478 15.8867 7.18491 15.9318C7.26504 15.9768 7.35548 16.0003 7.44741 16H8.54656C8.63696 16 8.7259 15.9772 8.80509 15.9336C8.88427 15.89 8.95113 15.827 8.99941 15.7506C9.05456 15.6649 9.34684 15.1769 9.5877 14.746C9.78428 14.3945 10.0938 14.1197 10.466 13.966L10.4714 13.9637C10.8439 13.8098 11.2575 13.7862 11.6451 13.8966C12.106 14.0274 12.6417 14.164 12.7706 14.1969C12.8586 14.2169 12.9502 14.2142 13.0369 14.1893C13.1237 14.1643 13.2027 14.1177 13.2666 14.054L14.0443 13.2766C14.1082 13.2128 14.1549 13.1338 14.1799 13.0471C14.2049 12.9603 14.2074 12.8686 14.1871 12.7806C14.1643 12.6809 14.0254 12.1283 13.8886 11.6509C13.7776 11.2632 13.8013 10.8494 13.9557 10.4769C14.1098 10.1043 14.3852 9.79465 14.7371 9.598C15.1546 9.36457 15.6277 9.08086 15.7406 9.00971C15.8192 8.96218 15.8843 8.8951 15.9293 8.81499C15.9744 8.73489 15.9979 8.64448 15.9977 8.55257V7.44971C15.9983 7.35917 15.9757 7.26998 15.932 7.19068C15.8883 7.11139 15.8249 7.04465 15.748 6.99686H15.7503ZM7.9997 11.4831C7.19173 11.4835 6.40863 11.2037 5.78392 10.6913C5.1592 10.1789 4.73153 9.46567 4.57381 8.67324C4.41609 7.88082 4.53809 7.05822 4.91901 6.34567C5.29993 5.63313 5.91619 5.07475 6.66274 4.76574C7.40928 4.45672 8.23989 4.41618 9.01297 4.65105C9.78606 4.88591 10.4538 5.38163 10.9022 6.0537C11.3507 6.72577 11.5522 7.53258 11.4724 8.3366C11.3926 9.14062 11.0364 9.89207 10.4646 10.4629C9.81073 11.1163 8.9241 11.4833 7.9997 11.4831Z" fill="black"/>
</g>
<defs>
<clipPath id="clip0_846_2762">
<rect width="16" height="16" fill="white"/>
</clipPath>
</defs>
</svg>
