<?xml version="1.0" encoding="UTF-8"?>
<!DOCTYPE svg PUBLIC "-//W3C//DTD SVG 1.1//EN" "http://www.w3.org/Graphics/SVG/1.1/DTD/svg11.dtd">
<svg xmlns="http://www.w3.org/2000/svg" version="1.1" width="22px" height="22px" style="shape-rendering:geometricPrecision; text-rendering:geometricPrecision; image-rendering:optimizeQuality; fill-rule:evenodd; clip-rule:evenodd" xmlns:xlink="http://www.w3.org/1999/xlink">
<g><path style="opacity:0.851" fill="#21cce1" d="M 5.5,-0.5 C 8.5,-0.5 11.5,-0.5 14.5,-0.5C 17.4323,0.799728 19.7656,2.79973 21.5,5.5C 21.5,8.5 21.5,11.5 21.5,14.5C 20.2003,17.4323 18.2003,19.7656 15.5,21.5C 12.5,21.5 9.5,21.5 6.5,21.5C 3.56772,20.2003 1.23438,18.2003 -0.5,15.5C -0.5,12.5 -0.5,9.5 -0.5,6.5C 0.799728,3.56772 2.79973,1.23438 5.5,-0.5 Z M 9.5,1.5 C 18.3928,3.35652 20.8928,8.35652 17,16.5C 9.42316,20.917 4.2565,18.917 1.5,10.5C 2.14169,5.53268 4.80836,2.53268 9.5,1.5 Z"/></g>
<g><path style="opacity:0.799" fill="#21cbe0" d="M 6.5,5.5 C 7.99525,5.41483 8.99525,6.08149 9.5,7.5C 8.67975,9.11118 7.34642,9.77784 5.5,9.5C 5.43255,8.04125 5.76589,6.70792 6.5,5.5 Z"/></g>
<g><path style="opacity:0.738" fill="#21cbe1" d="M 12.5,5.5 C 14.9118,5.69408 15.9118,7.02741 15.5,9.5C 12.0464,9.73319 11.0464,8.39986 12.5,5.5 Z"/></g>
<g><path style="opacity:0.84" fill="#21cbe0" d="M 6.5,11.5 C 8.83262,13.9997 11.1659,13.9997 13.5,11.5C 14.3081,11.8076 14.9747,12.3076 15.5,13C 12.9002,16.9403 9.73351,17.4403 6,14.5C 5.53042,13.4232 5.69708,12.4232 6.5,11.5 Z"/></g>
</svg>
