<svg width="10" height="10" viewBox="0 0 10 10" fill="none" xmlns="http://www.w3.org/2000/svg">
<path fill-rule="evenodd" clip-rule="evenodd" d="M7 4.5H5.5V3C5.5 2.7235 5.276 2.5 5 2.5C4.724 2.5 4.5 2.7235 4.5 3V5C4.5 5.2765 4.724 5.5 5 5.5H7C7.2765 5.5 7.5 5.2765 7.5 5C7.5 4.7235 7.2765 4.5 7 4.5ZM5 9C2.7945 9 1 7.2055 1 5C1 2.7945 2.7945 1 5 1C7.2055 1 9 2.7945 9 5C9 7.2055 7.2055 9 5 9ZM5 0C2.243 0 0 2.243 0 5C0 7.757 2.243 10 5 10C7.757 10 10 7.757 10 5C10 2.243 7.757 0 5 0Z" fill="#8A9099"/>
</svg>
