<svg width="32" height="32" viewBox="0 0 32 32" fill="none" xmlns="http://www.w3.org/2000/svg">
<g clip-path="url(#clip0_1092_36667)">
<path d="M5.16016 4.22216C6.76509 3.67895 8.44411 3.40734 10.2219 3.40734C15.975 3.40734 20.9626 6.56784 23.7774 11.1357C23.8021 11.1851 23.8515 11.2345 23.8762 11.2839C23.8762 11.3086 23.9009 11.3086 23.9009 11.3333C24.7157 12.6913 25.1602 14.2962 25.1602 15.9999C25.1602 21.0617 21.0614 25.1851 15.975 25.1851C12.8392 25.1851 10.049 23.5802 8.39472 21.1357C10.9873 25.4073 16.2219 28.5925 21.7774 28.5925C23.5552 28.5925 25.2589 28.2962 26.8392 27.753C30.0244 24.8394 31.9997 20.6419 31.9997 15.9999C31.9997 7.16043 24.8392 -6.95364e-05 15.9997 -6.91448e-05C11.8268 -6.89599e-05 8.02435 1.60487 5.16016 4.22216Z" fill="url(#paint0_linear_1092_36667)"/>
<path d="M8.39506 21.1358C7.40741 19.679 6.81481 17.9012 6.81481 16C6.81481 10.9383 10.9136 6.81481 16 6.81481C19.2839 6.81481 22.1728 8.54321 23.7778 11.1358C20.963 6.5679 15.9753 3.4074 10.2222 3.4074C8.44444 3.4074 6.74074 3.7037 5.16049 4.22222C2 7.16049 -8.91284e-07 11.3333 -6.90026e-07 16C-3.08808e-07 24.8395 7.16049 32 16 32C20.1728 32 24 30.3951 26.8395 27.7531C25.2346 28.2963 23.5309 28.5926 21.7778 28.5926C16.2222 28.5926 10.9877 25.4074 8.39506 21.1358Z" fill="url(#paint1_linear_1092_36667)"/>
<ellipse cx="15.842" cy="16.0266" rx="4.65056" ry="4.57905" fill="#D327B4"/>
</g>
<defs>
<linearGradient id="paint0_linear_1092_36667" x1="15.7778" y1="3.41927" x2="23.0164" y2="26.1892" gradientUnits="userSpaceOnUse">
<stop stop-color="#9513E0"/>
<stop offset="1" stop-color="#DC29AD"/>
</linearGradient>
<linearGradient id="paint1_linear_1092_36667" x1="17.9689" y1="27.1531" x2="7.85061" y2="7.81136" gradientUnits="userSpaceOnUse">
<stop stop-color="#7A0BF3"/>
<stop offset="1" stop-color="#DC29AD"/>
</linearGradient>
<clipPath id="clip0_1092_36667">
<rect width="32" height="32" fill="white" transform="translate(0 32) rotate(-90)"/>
</clipPath>
</defs>
</svg>
