<svg width="32" height="32" viewBox="0 0 32 32" fill="none" xmlns="http://www.w3.org/2000/svg">
<rect width="32" height="32" rx="16" fill="#22CCE2"/>
<g clip-path="url(#clip0_1212_43841)">
<path d="M20.2217 17.0254C19.4459 17.5086 18.5505 17.765 17.6366 17.7657C16.7226 17.7664 15.8268 17.5114 15.0503 17.0294C14.8529 17.094 14.6598 17.1707 14.4719 17.2591C12.8279 18.0386 11.6924 19.688 11.6924 21.5935V23.399C11.6933 23.4789 11.7099 23.5578 11.7414 23.6313C11.7728 23.7047 11.8184 23.7713 11.8755 23.8271C11.9327 23.8829 12.0003 23.9269 12.0744 23.9566C12.1486 23.9863 12.2279 24.0011 12.3078 24.0001H22.9744C23.0543 24.0011 23.1336 23.9864 23.2078 23.9567C23.282 23.927 23.3496 23.883 23.4068 23.8272C23.464 23.7714 23.5095 23.7048 23.5409 23.6313C23.5724 23.5579 23.589 23.4789 23.5898 23.399V21.5935C23.5898 19.4664 22.1788 17.6613 20.2217 17.0254V17.0254Z" fill="white"/>
<path d="M12.6976 17.4686C12.4988 17.5042 12.2973 17.5221 12.0954 17.5221C11.4638 17.5232 10.8454 17.3415 10.3148 16.999C9.63837 17.2293 9.05116 17.6658 8.63577 18.2472C8.22037 18.8285 7.99768 19.5255 7.99903 20.24V21.5221C7.99874 21.578 8.00951 21.6334 8.03072 21.6852C8.05193 21.7369 8.08316 21.784 8.12262 21.8236C8.16207 21.8632 8.20898 21.8946 8.26062 21.9161C8.31227 21.9375 8.36765 21.9485 8.42357 21.9485H10.8719V21.5935C10.8726 20.8168 11.0353 20.0488 11.3496 19.3385C11.664 18.6282 12.1231 17.9914 12.6976 17.4686V17.4686Z" fill="white"/>
<path d="M17.6328 16.685C18.639 16.6841 19.6037 16.284 20.3152 15.5725C21.0267 14.861 21.4268 13.8963 21.4276 12.8901V11.7949C21.4276 10.7884 21.0278 9.82317 20.3161 9.11149C19.6045 8.39982 18.6392 8 17.6328 8C16.6263 8 15.6611 8.39982 14.9494 9.11149C14.2377 9.82317 13.8379 10.7884 13.8379 11.7949V12.8901C13.8388 13.8963 14.2389 14.861 14.9503 15.5725C15.6618 16.284 16.6266 16.6841 17.6328 16.685V16.685Z" fill="white"/>
<path d="M12.0957 16.492C12.4459 16.4918 12.7924 16.4209 13.1144 16.2835C13.4365 16.1462 13.7276 15.9452 13.9701 15.6927C13.3508 14.89 13.0158 13.9043 13.0177 12.8905V11.7952C13.0178 11.4224 13.0632 11.0509 13.1529 10.689C12.8205 10.5395 12.4602 10.4621 12.0957 10.4619C10.6529 10.4619 9.47852 11.644 9.47852 13.0967V13.8575C9.47852 15.3114 10.6529 16.492 12.0957 16.492Z" fill="white"/>
</g>
<defs>
<clipPath id="clip0_1212_43841">
<rect width="15.5901" height="16" fill="white" transform="translate(8 8)"/>
</clipPath>
</defs>
</svg>
