<svg width="12" height="14" viewBox="0 0 12 14" fill="none" xmlns="http://www.w3.org/2000/svg">
<path fill-rule="evenodd" clip-rule="evenodd" d="M8.66691 12.3258H10.6602L10.6669 6.74182L5.99891 1.94715L1.33758 6.71448L1.33358 12.3258H3.33358V7.65915C3.33358 7.29048 3.63158 6.99248 4.00024 6.99248H8.00024C8.36824 6.99248 8.66691 7.29048 8.66691 7.65915V12.3258ZM7.33358 12.3258H4.66691V8.32582H7.33358V12.3258ZM11.6162 5.78248L6.47691 0.526484C6.22558 0.269818 5.77491 0.269818 5.52358 0.526484L0.383577 5.78315C0.140244 6.03315 0.000244141 6.38248 0.000244141 6.74182V12.3258C0.000244141 13.0611 0.564911 13.6592 1.25891 13.6592H4.00024H8.00024H10.7409C11.4349 13.6592 12.0002 13.0611 12.0002 12.3258V6.74182C12.0002 6.38248 11.8602 6.03315 11.6162 5.78248Z" fill="#8A9099"/>
</svg>
