<svg width="14" height="14" viewBox="0 0 14 14" fill="none" xmlns="http://www.w3.org/2000/svg">
<path fill-rule="evenodd" clip-rule="evenodd" d="M9.43499 1.40002C8.59789 1.39278 7.79142 1.71322 7.18928 2.29232L6.26692 3.20535C6.06043 3.40978 6.05945 3.74219 6.26475 3.94781C6.47005 4.15343 6.80387 4.1544 7.01037 3.94998L7.92442 3.04509C8.3274 2.65882 8.8664 2.44514 9.42583 2.44998C9.98645 2.45483 10.5227 2.67875 10.9192 3.07351C11.3156 3.46827 11.5405 4.00229 11.5454 4.56054C11.5502 5.11735 11.3358 5.65385 10.9482 6.05507L9.35233 7.64422C9.13556 7.86014 8.8747 8.02712 8.58743 8.13383C8.30016 8.24053 7.9932 8.28447 7.68738 8.26266C7.38156 8.24085 7.08402 8.15381 6.81496 8.00742C6.54589 7.86104 6.31159 7.65875 6.12794 7.41427C5.95352 7.18209 5.62312 7.13466 5.38995 7.30833C5.15678 7.48201 5.10915 7.81102 5.28356 8.0432C5.55778 8.40825 5.90763 8.7103 6.30939 8.92887C6.71115 9.14744 7.15542 9.27741 7.61206 9.30998C8.0687 9.34255 8.52703 9.27694 8.95597 9.11761C9.38488 8.95829 9.77443 8.70892 10.0981 8.38655L11.6973 6.79419L11.7037 6.78762C12.2853 6.18803 12.6071 5.38497 12.5998 4.55141C12.5925 3.71786 12.2567 2.92049 11.6648 2.33105C11.0729 1.74161 10.2721 1.40727 9.43499 1.40002ZM6.38775 4.68983C5.93111 4.65726 5.47277 4.72287 5.04384 4.8822C4.61493 5.04152 4.22537 5.29089 3.90173 5.61326L2.30248 7.20562L2.29612 7.21219C1.71455 7.81178 1.39275 8.61484 1.40002 9.44839C1.4073 10.282 1.74307 11.0793 2.33501 11.6688C2.92695 12.2582 3.72771 12.5925 4.56481 12.5998C5.40192 12.607 6.20844 12.2866 6.81058 11.7075L7.72864 10.7934C7.93453 10.5884 7.93453 10.2559 7.72864 10.0509C7.52274 9.84589 7.18892 9.84589 6.98302 10.0509L6.07487 10.9552C5.67194 11.3412 5.13316 11.5547 4.57398 11.5498C4.01335 11.545 3.47707 11.3211 3.08063 10.9263C2.68419 10.5315 2.45932 9.99752 2.45445 9.43927C2.44959 8.88246 2.66399 8.34596 3.05158 7.94474L4.64748 6.35559C4.86424 6.13967 5.12511 5.97269 5.41238 5.86598C5.69965 5.75928 6.0066 5.71534 6.31242 5.73715C6.61824 5.75896 6.91578 5.846 7.18485 5.99239C7.45391 6.13877 7.68822 6.34106 7.87187 6.58554C8.04628 6.81772 8.37669 6.86515 8.60986 6.69148C8.84303 6.5178 8.89066 6.18879 8.71625 5.95661C8.44203 5.59156 8.09217 5.28951 7.69041 5.07094C7.28866 4.85237 6.84439 4.7224 6.38775 4.68983Z" fill="white"/>
</svg>
