<svg width="15" height="23" viewBox="0 0 15 23" fill="none" xmlns="http://www.w3.org/2000/svg">
<path d="M7.18905 0C5.99767 0.000991576 4.85537 0.474704 4.01294 1.31714C3.17051 2.15957 2.6968 3.30187 2.69581 4.49324V11.0833C2.69581 12.275 3.1692 13.4179 4.01185 14.2605C4.85449 15.1032 5.99737 15.5766 7.18905 15.5766C8.38073 15.5766 9.52361 15.1032 10.3663 14.2605C11.2089 13.4179 11.6823 12.275 11.6823 11.0833V4.49324C11.6813 3.30187 11.2076 2.15957 10.3652 1.31714C9.52273 0.474704 8.38043 0.000991576 7.18905 0ZM0.609659 8.68105C0.449462 8.68486 0.29689 8.75023 0.183632 8.86359C0.0703735 8.97695 0.00513486 9.12958 0.00146639 9.28978V11.093C0.000284553 12.8957 0.67721 14.633 1.8978 15.9597C3.11838 17.2864 4.79332 18.1055 6.58995 18.2543V20.969H4.19355C4.03466 20.969 3.88228 21.0321 3.76993 21.1445C3.65758 21.2568 3.59445 21.4092 3.59445 21.5681C3.59445 21.727 3.65758 21.8794 3.76993 21.9917C3.88228 22.1041 4.03466 22.1672 4.19355 22.1672H10.1845C10.3434 22.1672 10.4958 22.1041 10.6082 21.9917C10.7205 21.8794 10.7836 21.727 10.7836 21.5681C10.7836 21.4092 10.7205 21.2568 10.6082 21.1445C10.4958 21.0321 10.3434 20.969 10.1845 20.969H7.78815V18.2543C9.58511 18.1061 11.2605 17.2872 12.4815 15.9604C13.7024 14.6336 14.3795 12.896 14.3782 11.093V9.28978C14.3806 9.20963 14.3669 9.12982 14.3379 9.05508C14.3089 8.98033 14.2652 8.91217 14.2093 8.85463C14.1535 8.79709 14.0866 8.75135 14.0128 8.72011C13.939 8.68888 13.8596 8.67278 13.7794 8.67278C13.6992 8.67278 13.6199 8.68888 13.546 8.72011C13.4722 8.75135 13.4053 8.79709 13.3495 8.85463C13.2937 8.91217 13.2499 8.98033 13.2209 9.05508C13.1919 9.12982 13.1782 9.20963 13.1806 9.28978V11.093C13.1806 11.8797 13.0256 12.6588 12.7245 13.3856C12.4235 14.1125 11.9822 14.7729 11.4259 15.3292C10.8695 15.8855 10.2091 16.3268 9.48224 16.6279C8.75538 16.929 7.97633 17.084 7.18958 17.084C6.40284 17.084 5.62379 16.929 4.89693 16.6279C4.17007 16.3268 3.50963 15.8855 2.95331 15.3292C2.397 14.7729 1.95571 14.1125 1.65463 13.3856C1.35356 12.6588 1.19859 11.8797 1.19859 11.093V9.28978C1.1952 9.13286 1.13272 8.98301 1.02364 8.87016C0.914553 8.75731 0.766904 8.68977 0.610193 8.68105H0.609659Z" fill="white"/>
</svg>
