<svg width="32" height="32" viewBox="0 0 32 32" fill="none" xmlns="http://www.w3.org/2000/svg">
<circle cx="16" cy="16" r="16" fill="#8A9099"/>
<path fill-rule="evenodd" clip-rule="evenodd" d="M22.1454 23.6818C22.5697 24.106 23.2575 24.106 23.6817 23.6818C24.1061 23.2576 24.1061 22.5696 23.6817 22.1454L17.5364 16L23.6818 9.85455C24.1061 9.43029 24.1061 8.74244 23.6818 8.31819C23.2575 7.89394 22.5697 7.89394 22.1454 8.31819L16 14.4636L9.85455 8.3182C9.43029 7.89395 8.74244 7.89395 8.31819 8.3182C7.89394 8.74246 7.89394 9.43032 8.31819 9.85457L14.4636 16L8.3182 22.1454C7.89395 22.5696 7.89395 23.2575 8.3182 23.6818C8.74246 24.106 9.43031 24.106 9.85456 23.6818L16 17.5364L22.1454 23.6818Z" fill="white"/>
</svg>
