<svg width="16" height="16" viewBox="0 0 16 16" fill="none" xmlns="http://www.w3.org/2000/svg">
<path d="M13.8382 13.249L13.2224 13.3176C13.0852 13.3329 12.9562 13.3909 12.8532 13.4836C12.7503 13.5763 12.6785 13.6991 12.6479 13.8349L12.5111 14.4447C12.4917 14.5314 12.4553 14.6133 12.4042 14.6856C12.353 14.758 12.2881 14.8194 12.2132 14.8661C12.1383 14.9129 12.055 14.9442 11.968 14.9581C11.881 14.972 11.7921 14.9683 11.7066 14.9471L11.1049 14.7994C10.9708 14.7663 10.8298 14.7762 10.7016 14.8279C10.5734 14.8795 10.4644 14.9703 10.3897 15.0874L10.0546 15.6128C10.0069 15.6875 9.94493 15.7519 9.87233 15.8021C9.79973 15.8524 9.71794 15.8876 9.63173 15.9057C9.54552 15.9237 9.45661 15.9243 9.37018 15.9073C9.28375 15.8903 9.20153 15.8562 9.12832 15.8068L8.61279 15.4599C8.49804 15.3828 8.36233 15.3437 8.22452 15.3479C8.08672 15.3522 7.95365 15.3997 7.84383 15.4838L7.35073 15.8621C7.28062 15.9159 7.20059 15.9551 7.11532 15.9774C7.03005 15.9996 6.94124 16.0045 6.85406 15.9918C6.76689 15.9791 6.6831 15.949 6.60758 15.9032C6.53206 15.8575 6.46632 15.797 6.4142 15.7254L6.04766 15.2216C5.9659 15.1093 5.85146 15.0256 5.72029 14.982C5.58913 14.9384 5.44775 14.9372 5.31587 14.9785L4.72377 15.1647C4.63963 15.1909 4.55118 15.1999 4.46356 15.1912C4.37594 15.1826 4.2909 15.1564 4.21339 15.1143C4.13587 15.0722 4.06743 15.0149 4.01204 14.9459C3.95664 14.8768 3.91541 14.7973 3.89073 14.7121L3.71579 14.1133C3.67704 13.9796 3.59795 13.8614 3.48953 13.7752C3.38111 13.6889 3.24875 13.639 3.11087 13.6322L2.49218 13.6021C2.40429 13.5978 2.31812 13.576 2.23869 13.5378C2.15926 13.4996 2.08815 13.4458 2.0295 13.3796C1.97085 13.3134 1.92583 13.2361 1.89707 13.1522C1.8683 13.0683 1.85637 12.9794 1.86195 12.8908L1.902 12.2671C1.91091 12.1281 1.87663 11.9898 1.80391 11.8714C1.7312 11.753 1.62369 11.6604 1.49637 11.6066L0.925416 11.3647C0.844143 11.3302 0.770498 11.2797 0.708782 11.2162C0.647066 11.1527 0.598516 11.0774 0.565972 10.9947C0.533428 10.912 0.51754 10.8236 0.519238 10.7346C0.520935 10.6457 0.540185 10.5579 0.575859 10.4766L0.824811 9.9043C0.880306 9.77676 0.895006 9.63494 0.866866 9.49858C0.838726 9.36221 0.769145 9.2381 0.667814 9.14352L0.212845 8.719C0.148245 8.65862 0.0961883 8.58588 0.0597022 8.50501C0.023216 8.42414 0.00302852 8.33675 0.000315383 8.24794C-0.00239775 8.15912 0.0124165 8.07065 0.0438972 7.98767C0.0753779 7.90468 0.122897 7.82884 0.183689 7.76456L0.611744 7.31191C0.707164 7.21123 0.769069 7.083 0.788827 6.94512C0.808585 6.80724 0.78521 6.66657 0.721962 6.54273L0.438727 5.98694C0.398656 5.90801 0.374527 5.82182 0.367738 5.73339C0.360948 5.64496 0.371636 5.55605 0.399179 5.47183C0.426723 5.3876 0.470571 5.30974 0.528183 5.24276C0.585794 5.17578 0.65602 5.12101 0.734779 5.08165L1.29003 4.80488C1.41374 4.74309 1.5153 4.64394 1.58059 4.52121C1.64587 4.39849 1.67165 4.25828 1.65433 4.12009L1.57615 3.49996C1.56498 3.41179 1.57131 3.32225 1.59478 3.23657C1.61824 3.15089 1.65837 3.07078 1.71282 3.00091C1.76727 2.93103 1.83496 2.87279 1.91194 2.82958C1.98892 2.78637 2.07365 2.75905 2.1612 2.74921L2.77669 2.68067C2.91387 2.66543 3.04292 2.60741 3.14589 2.51469C3.24886 2.42197 3.32061 2.29916 3.35117 2.16335L3.48798 1.5539C3.5075 1.46724 3.54389 1.38537 3.59505 1.31304C3.6462 1.24072 3.7111 1.17938 3.78597 1.13259C3.86083 1.08581 3.94417 1.05451 4.03113 1.04053C4.11809 1.02654 4.20694 1.03015 4.29251 1.05113L4.89422 1.19921C5.02835 1.23233 5.16938 1.22237 5.29764 1.17073C5.4259 1.11909 5.53498 1.02834 5.60967 0.911134L5.94481 0.385738C5.99252 0.31106 6.05448 0.246711 6.12708 0.196439C6.19968 0.146166 6.28147 0.110974 6.36768 0.0929185C6.45389 0.074863 6.5428 0.0743019 6.62923 0.0912687C6.71566 0.108236 6.79788 0.142393 6.87109 0.191746L7.3863 0.538668C7.50108 0.615698 7.63678 0.65478 7.77456 0.650493C7.91235 0.646205 8.0454 0.598763 8.15526 0.514743L8.64835 0.136455C8.71848 0.0826979 8.79852 0.0435615 8.88378 0.0213199C8.96905 -0.000921748 9.05785 -0.00582215 9.14501 0.00690621C9.23217 0.0196346 9.31595 0.0497346 9.39147 0.0954563C9.46699 0.141178 9.53274 0.201609 9.58489 0.273223L9.95143 0.776955C10.0331 0.889265 10.1475 0.973051 10.2786 1.01664C10.4097 1.06022 10.5511 1.06143 10.6829 1.02009L11.2744 0.834831C11.3585 0.808638 11.447 0.799594 11.5346 0.80823C11.6222 0.816866 11.7073 0.843008 11.7848 0.885133C11.8623 0.927258 11.9308 0.984527 11.9862 1.0536C12.0415 1.12268 12.0828 1.20218 12.1074 1.28748L12.2814 1.88724C12.3201 2.02097 12.3992 2.13919 12.5076 2.22542C12.616 2.31166 12.7484 2.36161 12.8863 2.36834L13.505 2.39841C13.5929 2.40277 13.679 2.42471 13.7584 2.46294C13.8378 2.50117 13.9088 2.55493 13.9675 2.62111C14.0261 2.68728 14.0711 2.76455 14.0999 2.84843C14.1287 2.9323 14.1407 3.02112 14.1352 3.10971L14.0952 3.7334C14.0862 3.87237 14.1205 4.01069 14.1931 4.12909C14.2658 4.2475 14.3732 4.34008 14.5005 4.39394L15.0718 4.63579C15.1531 4.67005 15.2269 4.72031 15.2887 4.78364C15.3506 4.84698 15.3994 4.92211 15.4322 5.00466C15.465 5.08722 15.4812 5.17554 15.4798 5.26447C15.4784 5.35341 15.4595 5.44118 15.4242 5.52266L15.1752 6.09493C15.1197 6.22247 15.105 6.36429 15.1332 6.50065C15.1613 6.63702 15.2309 6.76113 15.3322 6.85571L15.7869 7.28023C15.8516 7.34056 15.9037 7.41329 15.9402 7.49416C15.9768 7.57504 15.997 7.66244 15.9997 7.75128C16.0024 7.84012 15.9876 7.92862 15.956 8.01161C15.9245 8.0946 15.8769 8.17043 15.816 8.23467L15.3883 8.68732C15.2928 8.78797 15.2309 8.91617 15.2111 9.05406C15.1912 9.19194 15.2146 9.33263 15.2778 9.45649L15.5613 10.0123C15.6016 10.0913 15.6259 10.1776 15.6328 10.2662C15.6397 10.3548 15.6291 10.4439 15.6015 10.5283C15.574 10.6127 15.53 10.6907 15.4723 10.7578C15.4146 10.825 15.3442 10.8798 15.2653 10.9192L14.71 11.196C14.5862 11.2576 14.4846 11.3568 14.4193 11.4795C14.354 11.6023 14.3283 11.7425 14.3457 11.8808L14.4236 12.5009C14.4345 12.5889 14.4279 12.6782 14.4043 12.7637C14.3807 12.8491 14.3405 12.9289 14.286 12.9985C14.2315 13.0682 14.1639 13.1262 14.087 13.1692C14.0101 13.2122 13.9256 13.2393 13.8382 13.249Z" fill="#FF6B00"/>
<path d="M7.11094 11.0057L4.45898 8.33082L5.29715 7.48469L7.08467 9.28752L10.8856 5.21045L11.7494 6.03039L7.11094 11.0057Z" fill="white"/>
</svg>
