<svg width="18" height="12" viewBox="0 0 18 12" fill="none" xmlns="http://www.w3.org/2000/svg">
<path d="M17.3571 10.6665H0.642857C0.257143 10.6665 0 10.9332 0 11.3332C0 11.7332 0.257143 11.9998 0.642857 11.9998H17.3571C17.7429 11.9998 18 11.7332 18 11.3332C18 10.9332 17.7429 10.6665 17.3571 10.6665Z" fill="black"/>
<path d="M15.4286 0H2.57148C2.23079 0.00100516 1.90432 0.141803 1.66341 0.391634C1.42251 0.641465 1.28674 0.98002 1.28577 1.33333V9.46667C1.28674 9.81998 1.42251 10.1585 1.66341 10.4084C1.90432 10.6582 2.23079 10.799 2.57148 10.8H15.4286C15.7693 10.799 16.0958 10.6582 16.3367 10.4084C16.5776 10.1585 16.7134 9.81998 16.7143 9.46667V1.33333C16.7134 0.98002 16.5776 0.641465 16.3367 0.391634C16.0958 0.141803 15.7693 0.00100516 15.4286 0ZM9.7072 8.33333V6.53333C8.74303 6.53333 7.77875 6.73333 6.81434 7.13333C6.36434 7.33333 5.85005 7.6 5.46434 7.86667C5.78577 7.4 6.10719 6.93333 6.49291 6.53333C6.89144 6.12037 7.3214 5.74136 7.77862 5.4C8.42148 4.93333 9.06434 4.6 9.77148 4.26667V2.4L12.6001 5.4L9.7072 8.33333Z" fill="black"/>
</svg>
