<svg width="14" height="14" viewBox="0 0 14 14" fill="none" xmlns="http://www.w3.org/2000/svg">
<path fill-rule="evenodd" clip-rule="evenodd" d="M11 11.6668C11 12.0342 10.7014 12.3335 10.3334 12.3335H3.66671C3.29871 12.3335 3.00004 12.0342 3.00004 11.6668V4.3335H11V11.6668ZM5.66671 1.8855C5.66671 1.78216 5.80937 1.66683 6.00004 1.66683H8.00004C8.19071 1.66683 8.33337 1.78216 8.33337 1.8855V3.00016H5.66671V1.8855ZM13 3.00016H12.3334H9.66671V1.8855C9.66671 1.0295 8.91937 0.333496 8.00004 0.333496H6.00004C5.08071 0.333496 4.33337 1.0295 4.33337 1.8855V3.00016H1.66671H1.00004C0.633374 3.00016 0.333374 3.30016 0.333374 3.66683C0.333374 4.0335 0.633374 4.3335 1.00004 4.3335H1.66671V11.6668C1.66671 12.7695 2.56404 13.6668 3.66671 13.6668H10.3334C11.436 13.6668 12.3334 12.7695 12.3334 11.6668V4.3335H13C13.3667 4.3335 13.6667 4.0335 13.6667 3.66683C13.6667 3.30016 13.3667 3.00016 13 3.00016Z" fill="#F03B31"/>
<rect x="3" y="4" width="8" height="9" fill="#F03B31"/>
<rect x="4" y="6" width="2" height="5" fill="white"/>
<rect x="8" y="6" width="2" height="5" fill="white"/>
</svg>
