<svg width="12" height="12" viewBox="0 0 12 12" fill="none" xmlns="http://www.w3.org/2000/svg">
<path fill-rule="evenodd" clip-rule="evenodd" d="M6.57117 3.14369C6.57117 2.8281 6.31533 2.57227 5.99974 2.57227C5.68415 2.57227 5.42831 2.8281 5.42831 3.14369V5.42941H3.1426C2.827 5.42941 2.57117 5.68525 2.57117 6.00084C2.57117 6.31643 2.827 6.57227 3.1426 6.57227H5.42831V8.85798C5.42831 9.17357 5.68415 9.42941 5.99974 9.42941C6.31533 9.42941 6.57117 9.17357 6.57117 8.85798V6.57227H8.85688C9.17247 6.57227 9.42831 6.31643 9.42831 6.00084C9.42831 5.68525 9.17247 5.42941 8.85688 5.42941H6.57117V3.14369Z" fill="#7521E2"/>
</svg>
